<svg width="31" height="35" viewBox="0 0 31 35" fill="none" xmlns="http://www.w3.org/2000/svg">
<path fill-rule="evenodd" clip-rule="evenodd" d="M14.6832 0.0967149C13.1263 0.482163 12.0185 1.92436 12.0185 3.56568C12.0185 3.88224 12.0597 4.28096 12.11 4.4517L12.2015 4.76211L11.6244 4.98476C10.0975 5.57384 8.91061 6.36738 7.69488 7.61189C6.08932 9.25546 5.14849 11.0165 4.63567 13.3381C4.50291 13.9391 4.49173 14.2353 4.45509 18.1203C4.41892 21.9575 4.40713 22.2756 4.2952 22.45C4.11509 22.7305 3.79036 22.9046 3.4448 22.9061C2.992 22.908 2.33363 23.0875 1.88599 23.3312C-0.628662 24.6999 -0.628662 28.3614 1.88599 29.7301C2.65862 30.1506 2.70049 30.1539 7.48349 30.155L11.8237 30.156L11.7738 30.4125C11.7029 30.7772 11.7244 31.6348 11.8146 32.037C12.1461 33.5165 13.4574 34.7361 14.9562 34.9593C17.2273 35.2972 19.2786 33.4883 19.2783 31.1478C19.2782 30.8845 19.2559 30.5536 19.2288 30.4125L19.1795 30.156L23.5197 30.155C28.2638 30.1539 28.314 30.1502 29.0856 29.7525C31.2772 28.6227 31.6694 25.5233 29.8338 23.8396C29.2232 23.2795 28.3208 22.9093 27.5584 22.9061C27.2128 22.9046 26.8881 22.7305 26.708 22.45C26.5961 22.2756 26.5843 21.9575 26.5481 18.1203C26.5115 14.2353 26.5003 13.9391 26.3675 13.3381C25.8547 11.0165 24.9139 9.25546 23.3083 7.61189C22.0933 6.36813 20.9055 5.5737 19.3815 4.98578L18.807 4.76416L18.8959 4.41448C19.1208 3.5286 18.9225 2.38273 18.4067 1.58919C17.607 0.358765 16.0864 -0.250701 14.6832 0.0967149ZM15.925 2.11589C16.2519 2.20864 16.6933 2.61413 16.8502 2.96599C16.9892 3.27764 17.0051 3.74913 16.8877 4.08191L16.8077 4.30867L15.5016 4.30764L14.1954 4.30661L14.1147 4.11509C13.9943 3.82937 14.0137 3.27743 14.1553 2.96599C14.4766 2.25871 15.2012 1.91061 15.925 2.11589ZM16.9586 6.45514C20.8055 7.09224 23.8124 10.1955 24.4455 14.1819C24.523 14.6697 24.5437 15.5792 24.5439 18.5071C24.5442 22.431 24.5597 22.6628 24.8619 23.2815C25.3594 24.3002 26.1425 24.8254 27.3548 24.9535C27.9972 25.0214 28.2271 25.1118 28.521 25.4119C29.2696 26.1763 29.0773 27.4252 28.1292 27.9564C27.9428 28.0607 26.9438 28.0697 15.5016 28.0697C4.05936 28.0697 3.06038 28.0607 2.87404 27.9564C1.92591 27.4252 1.7336 26.1763 2.48219 25.4119C2.77584 25.112 3.00593 25.0214 3.64594 24.9538C4.38683 24.8755 4.84794 24.7006 5.32525 24.3169C5.74349 23.9806 6.04839 23.5506 6.27265 22.9809C6.42182 22.6019 6.42403 22.5497 6.46288 18.3908L6.50213 14.184L6.67756 13.4951C7.29272 11.0798 8.52861 9.25266 10.4554 7.91047C11.389 7.2601 12.8675 6.65042 13.9675 6.46218C14.7286 6.33194 16.1939 6.32845 16.9586 6.45514ZM17.1221 30.4296C17.2965 30.794 17.279 31.4768 17.0841 31.9041C16.8153 32.4935 16.1158 32.9605 15.5016 32.9605C14.8874 32.9605 14.1879 32.4935 13.9191 31.9041C13.6812 31.3825 13.7244 30.4866 14.001 30.206C14.0295 30.1771 14.7176 30.1617 15.5302 30.1718L17.0076 30.1902L17.1221 30.4296Z" fill="#043B74" fill-opacity="0.6"/>
</svg>
