<svg width="35" height="24" viewBox="0 0 35 24" fill="none" xmlns="http://www.w3.org/2000/svg">
<path fill-rule="evenodd" clip-rule="evenodd" d="M16.5333 0.0331303C16.3264 0.045193 15.7877 0.099508 15.3363 0.153888C12.4364 0.503122 10.4818 1.28812 9.96173 2.31234C9.81105 2.60902 9.80948 2.63986 9.85435 4.39979L9.89983 6.18606L9.5402 6.13487C8.86381 6.0385 7.24039 6.07984 6.64977 6.20842C4.18793 6.74434 2.25993 8.091 1.04512 10.1232C-0.274618 12.331 -0.350744 15.2543 0.852442 17.527C1.45085 18.6573 2.46827 19.7981 3.49205 20.487C6.35142 22.4109 10.1571 22.4417 13.0389 20.5642L13.6142 20.1894L14.1446 20.2913C14.8618 20.4291 16.1837 20.5753 17.1963 20.6289L18.0304 20.6731L18.209 21.0212C18.6946 21.9674 20.3127 22.6828 22.8299 23.0642C26.6478 23.6427 31.0316 23.266 33.4617 22.1506C34.0731 21.8701 34.7985 21.2035 34.9184 20.8122C34.9785 20.6163 35.0005 19.4903 35 16.6391L34.9993 12.7344L34.8395 12.4071C34.4209 11.5503 33.0512 10.8631 30.9421 10.4517C30.1792 10.3029 28.8628 10.15 27.5282 10.0551L26.9981 10.0173V6.45516C26.9981 3.29425 26.9853 2.85967 26.8843 2.59735C26.6522 1.99486 26.2423 1.60188 25.4241 1.19748C24.3119 0.64781 22.329 0.207747 20.2681 0.0531479C19.4542 -0.00788322 17.4224 -0.0187723 16.5333 0.0331303ZM19.4348 1.35632C20.8115 1.42602 21.4409 1.49527 22.4839 1.69199C24.1567 2.00738 25.616 2.65284 25.471 3.01309C25.3491 3.31616 24.3185 3.77389 23.1177 4.05825C20.5818 4.65885 16.8231 4.71251 14.1069 4.1869C12.8345 3.94069 11.5329 3.42375 11.2831 3.06552C11.1869 2.92741 11.1913 2.904 11.3426 2.7496C11.5976 2.48937 11.9925 2.29552 12.7714 2.04814C13.9891 1.66154 15.3074 1.44936 17.0462 1.3603C17.5729 1.3333 18.05 1.30742 18.1064 1.30272C18.1628 1.29803 18.7606 1.32215 19.4348 1.35632ZM9.72768 7.52985C11.7893 7.90816 13.5837 9.23351 14.5672 11.1043C15.6282 13.1225 15.4983 15.575 14.2272 17.5207C13.8437 18.1077 12.9724 18.9943 12.3877 19.3925C11.0331 20.315 9.22728 20.7705 7.62779 20.5932C5.99924 20.4127 4.68539 19.8317 3.52728 18.7797C2.31581 17.6793 1.57007 16.2003 1.42445 14.6091C1.01762 10.1638 5.10248 6.68115 9.72768 7.52985ZM25.5618 9.20338V10.0736L24.6897 10.1162C22.9789 10.2 21.0538 10.5603 19.9252 11.0082C19.3873 11.2217 18.6865 11.6233 18.5256 11.8103C18.4471 11.9015 18.294 11.9194 17.5936 11.9194C16.6421 11.9194 16.3281 11.877 16.3281 11.7487C16.3281 11.5622 15.8186 10.4571 15.4989 9.9499C15.3154 9.6589 15.1653 9.4166 15.1653 9.41151C15.1653 9.40636 15.3423 9.42534 15.5586 9.45364C16.3457 9.55666 19.3618 9.59278 20.3735 9.51134C22.5242 9.33822 23.9487 9.01566 25.5447 8.3404C25.554 8.33643 25.5618 8.72478 25.5618 9.20338ZM8.13483 8.60722C7.86808 8.67484 7.64216 8.98717 7.64182 9.2888C7.64154 9.47724 7.6055 9.51069 7.21406 9.68615C6.66681 9.93152 6.23959 10.3409 5.97229 10.8761C5.77941 11.2623 5.7606 11.3579 5.7606 11.952C5.7606 12.5198 5.78365 12.6504 5.93912 12.9627C6.18494 13.4565 6.59943 13.8796 7.07316 14.1203C7.42794 14.3006 7.75187 14.3791 8.65451 14.5037C8.94603 14.5439 9.3887 14.9245 9.49239 15.2241C9.7562 15.9861 9.15655 16.8033 8.33004 16.8083C7.75221 16.8118 7.18971 16.3247 7.11331 15.7548C7.03909 15.2014 6.83096 14.984 6.37543 14.984C6.18918 14.984 6.07386 15.0339 5.91874 15.1818C5.72162 15.3697 5.71259 15.4016 5.73783 15.8176C5.79008 16.6784 6.40853 17.5362 7.23902 17.8996L7.62697 18.0694L7.65515 18.4914C7.68032 18.868 7.707 18.9336 7.90296 19.1005C8.44166 19.5594 9.0779 19.1524 9.0779 18.3489C9.0779 18.0603 9.0807 18.0569 9.44896 17.8962C10.493 17.4406 11.1408 16.2716 10.9275 15.2285C10.7623 14.4208 10.2383 13.7488 9.493 13.3888C9.27817 13.285 8.89439 13.1842 8.49761 13.1274C7.78032 13.0248 7.6884 12.9902 7.42363 12.7238C6.59273 11.8875 7.4752 10.5049 8.64767 10.8058C8.79924 10.8448 9.00505 10.9379 9.10505 11.0129C9.32557 11.1782 9.55668 11.5919 9.55668 11.8211C9.55668 12.0733 9.73103 12.4207 9.90113 12.5075C10.1167 12.6175 10.4692 12.6025 10.6738 12.4748C10.9309 12.3142 11.0166 12.0053 10.9293 11.5548C10.7666 10.7157 10.2254 10.0205 9.46968 9.6797C9.14664 9.53403 9.0779 9.47437 9.0779 9.33985C9.0779 9.14385 8.9173 8.75836 8.80903 8.69459C8.63297 8.59085 8.34604 8.55362 8.13483 8.60722ZM28.1267 11.4635C30.5368 11.6313 32.6106 12.1387 33.3493 12.7416C33.6889 13.0187 33.6647 13.1066 33.1646 13.4126C31.1999 14.6144 25.5025 14.9933 21.8209 14.1669C20.6114 13.8954 19.5244 13.4259 19.3384 13.0946C19.272 12.9762 19.291 12.9303 19.4743 12.7671C20.1813 12.1375 22.1842 11.6426 24.8436 11.4405C25.4685 11.393 27.2982 11.4058 28.1267 11.4635ZM17.8632 13.298C17.8754 13.3108 17.9078 13.8447 17.9351 14.4844L17.9848 15.6475L17.2761 15.601C16.8864 15.5754 16.5585 15.5472 16.5475 15.5382C16.5365 15.5292 16.5594 15.3349 16.5983 15.1063C16.6372 14.8776 16.6692 14.3563 16.6695 13.9478L16.6701 13.2051L17.2555 13.2399C17.5776 13.2591 17.8509 13.2852 17.8632 13.298ZM17.944 16.9655C17.9488 16.9695 17.9642 17.5009 17.9782 18.1464L18.0038 19.3201L17.354 19.2993C16.7402 19.2798 14.8832 19.1055 14.839 19.0634C14.8277 19.0526 14.9888 18.808 15.1972 18.5197C15.4054 18.2315 15.7027 17.7436 15.8578 17.4354L16.1398 16.8752L17.0376 16.9167C17.5314 16.9395 17.9393 16.9615 17.944 16.9655ZM33.511 20.5203C33.0797 21.0709 31.0733 21.6657 28.8449 21.9035C27.7291 22.0226 24.996 22.0061 23.8707 21.8736C21.7236 21.6207 20.0496 21.1151 19.5735 20.5757C19.4127 20.3935 19.406 20.3482 19.406 19.4455C19.406 18.9282 19.4296 18.505 19.4586 18.505C19.4875 18.505 19.7298 18.5926 19.997 18.6996C21.3452 19.2396 23.3342 19.5479 25.7852 19.5967C28.8192 19.6572 31.2781 19.3295 32.9829 18.6376L33.5985 18.3878L33.6175 19.3739C33.6342 20.2461 33.622 20.3786 33.511 20.5203Z" fill="#1FC7BD"/>
</svg>
