<svg width="43" height="30" viewBox="0 0 43 30" fill="none" xmlns="http://www.w3.org/2000/svg">
<path fill-rule="evenodd" clip-rule="evenodd" d="M20.2645 0.042596C20.0109 0.0581053 19.3507 0.127939 18.7974 0.197856C15.2431 0.646871 12.8474 1.65615 12.2099 2.97301C12.0252 3.35446 12.0233 3.39411 12.0783 5.65687L12.134 7.9535L11.6932 7.88769C10.8642 7.76379 8.87441 7.81694 8.1505 7.98226C5.13307 8.67129 2.76996 10.4027 1.28098 13.0156C-0.336594 15.8541 -0.429901 19.6127 1.04482 22.5347C1.77829 23.9879 3.02532 25.4548 4.28014 26.3405C7.78482 28.814 12.4493 28.8536 15.9815 26.4397L16.6867 25.9578L17.3368 26.0888C18.2159 26.2659 19.836 26.454 21.0772 26.5229L22.0995 26.5796L22.3184 27.0273C22.9137 28.2438 24.8969 29.1637 27.9822 29.654C32.6617 30.3978 38.0349 29.9135 41.0134 28.4794C41.7627 28.1187 42.6519 27.2616 42.7988 26.7585C42.8725 26.5066 42.8994 25.0589 42.8988 21.3932L42.898 16.3729L42.7021 15.952C42.1891 14.8504 40.5102 13.9668 37.9251 13.4379C36.99 13.2466 35.3766 13.0499 33.7408 12.928L33.0911 12.8794V8.29949C33.0911 4.23547 33.0754 3.67671 32.9516 3.33945C32.6672 2.56482 32.1647 2.05956 31.1618 1.53962C29.7986 0.832899 27.3683 0.267103 24.8423 0.068333C23.8446 -0.0101356 21.3543 -0.0241358 20.2645 0.042596ZM23.8209 1.74384C25.5082 1.83346 26.2797 1.92249 27.5581 2.17542C29.6084 2.58092 31.3971 3.41079 31.2193 3.87397C31.0699 4.26363 29.8067 4.85215 28.3349 5.21775C25.2267 5.98994 20.6197 6.05894 17.2906 5.38315C15.731 5.0666 14.1357 4.40196 13.8295 3.94138C13.7115 3.76382 13.7169 3.73372 13.9024 3.5352C14.215 3.20062 14.6989 2.95138 15.6536 2.63332C17.1461 2.13626 18.762 1.86347 20.8933 1.74895C21.5388 1.71424 22.1235 1.68096 22.1927 1.67493C22.2619 1.66889 22.9946 1.69991 23.8209 1.74384ZM11.923 9.68124C14.45 10.1676 16.6493 11.8716 17.8547 14.277C19.1552 16.8718 18.9959 20.025 17.438 22.5266C16.968 23.2814 15.9 24.4213 15.1833 24.9332C13.5231 26.1192 11.3097 26.7049 9.34924 26.4769C7.35316 26.2449 5.74279 25.4979 4.32332 24.1453C2.83845 22.7306 1.92441 20.829 1.74593 18.7831C1.24728 13.0678 6.25401 8.59005 11.923 9.68124ZM31.3306 11.8329V12.9518L30.2617 13.0066C28.1648 13.1142 25.8053 13.5776 24.4219 14.1534C23.7626 14.4279 22.9037 14.9442 22.7064 15.1847C22.6103 15.3019 22.4226 15.3249 21.5642 15.3249C20.398 15.3249 20.013 15.2704 20.013 15.1055C20.013 14.8657 19.3886 13.4449 18.9967 12.7927C18.7718 12.4186 18.5878 12.1071 18.5878 12.1005C18.5878 12.0939 18.8048 12.1183 19.0699 12.1547C20.0346 12.2871 23.7314 12.3336 24.9714 12.2289C27.6075 12.0063 29.3534 11.5916 31.3096 10.7234C31.3211 10.7183 31.3306 11.2176 31.3306 11.8329ZM9.97071 11.0664C9.64375 11.1534 9.36685 11.5549 9.36643 11.9427C9.36609 12.185 9.32191 12.228 8.84213 12.4536C8.17138 12.7691 7.64775 13.2954 7.32013 13.9836C7.08372 14.4801 7.06066 14.603 7.06066 15.3669C7.06066 16.0969 7.08891 16.2648 7.27947 16.6663C7.58077 17.3012 8.0888 17.8452 8.66944 18.1547C9.10428 18.3865 9.50132 18.4874 10.6077 18.6476C10.965 18.6993 11.5075 19.1887 11.6346 19.5739C11.958 20.5535 11.223 21.6042 10.21 21.6106C9.50174 21.6152 8.81229 20.9889 8.71865 20.2562C8.62769 19.5447 8.37258 19.2651 7.81424 19.2651C7.58596 19.2651 7.44462 19.3293 7.25449 19.5195C7.01288 19.7611 7.00181 19.802 7.03274 20.3369C7.09679 21.4436 7.85482 22.5466 8.87273 23.0138L9.34824 23.2321L9.38278 23.7746C9.41363 24.2589 9.44632 24.3432 9.68651 24.5577C10.3468 25.1478 11.1266 24.6245 11.1266 23.5914C11.1266 23.2204 11.13 23.2161 11.5814 23.0094C12.861 22.4236 13.6551 20.9207 13.3936 19.5795C13.1912 18.5411 12.5489 17.6771 11.6354 17.2141C11.3721 17.0808 10.9017 16.9511 10.4154 16.8781C9.53619 16.7462 9.42352 16.7017 9.099 16.3591C8.08059 15.2839 9.16221 13.5062 10.5993 13.8932C10.7851 13.9433 11.0373 14.0631 11.1599 14.1595C11.4302 14.372 11.7134 14.9038 11.7134 15.1985C11.7134 15.5228 11.9271 15.9695 12.1356 16.0811C12.3998 16.2225 12.832 16.2033 13.0826 16.039C13.3978 15.8326 13.5029 15.4354 13.3958 14.8561C13.1964 13.7774 12.5331 12.8835 11.6068 12.4453C11.2109 12.258 11.1266 12.1813 11.1266 12.0084C11.1266 11.7564 10.9298 11.2608 10.7971 11.1788C10.5813 11.0454 10.2296 10.9975 9.97071 11.0664ZM34.4744 14.7388C37.4284 14.9545 39.9702 15.607 40.8757 16.3821C41.2919 16.7383 41.2622 16.8514 40.6492 17.2447C38.2412 18.79 31.258 19.277 26.7455 18.2146C25.263 17.8655 23.9307 17.2618 23.7027 16.8359C23.6213 16.6837 23.6446 16.6247 23.8693 16.4149C24.7359 15.6054 27.1908 14.9691 30.4503 14.7092C31.2163 14.6481 33.4589 14.6646 34.4744 14.7388ZM21.8946 17.0974C21.9095 17.1139 21.9492 17.8003 21.9827 18.6228L22.0436 20.1182L21.175 20.0585C20.6973 20.0255 20.2954 19.9892 20.2819 19.9776C20.2685 19.9662 20.2965 19.7162 20.3442 19.4223C20.3919 19.1284 20.4312 18.4581 20.4315 17.9329L20.4322 16.978L21.1498 17.0227C21.5445 17.0474 21.8796 17.081 21.8946 17.0974ZM21.9937 21.8128C21.9995 21.8179 22.0184 22.5011 22.0356 23.3311L22.0669 24.8401L21.2705 24.8134C20.5182 24.7883 18.2421 24.5643 18.1879 24.51C18.174 24.4962 18.3715 24.1817 18.6269 23.811C18.8822 23.4405 19.2465 22.8132 19.4366 22.417L19.7822 21.6967L20.8827 21.7501C21.4879 21.7794 21.9879 21.8076 21.9937 21.8128ZM41.0738 26.3832C40.5452 27.0912 38.0859 27.8559 35.3546 28.1617C33.987 28.3148 30.6371 28.2935 29.2579 28.1232C26.6262 27.7981 24.5744 27.148 23.9908 26.4545C23.7937 26.2202 23.7855 26.162 23.7855 25.0013C23.7855 24.3362 23.8145 23.7922 23.85 23.7922C23.8855 23.7922 24.1824 23.9048 24.5099 24.0423C26.1624 24.7366 28.6003 25.133 31.6045 25.1958C35.3232 25.2735 38.337 24.8522 40.4266 23.9627L41.1811 23.6414L41.2043 24.9093C41.2248 26.0307 41.2098 26.201 41.0738 26.3832Z" fill="#1FC7BD"/>
</svg>
