<svg width="40" height="40" viewBox="0 0 40 40" fill="none" xmlns="http://www.w3.org/2000/svg">
<path fill-rule="evenodd" clip-rule="evenodd" d="M14.3548 0.0352787C13.6496 0.115167 13.0089 0.478824 12.4228 1.13187C11.8524 1.7674 11.6191 2.19162 10.9682 3.77749C10.3002 5.40502 10.1373 5.69245 9.81544 5.81074C9.67481 5.86242 8.83821 5.97557 7.95632 6.06206C6.16321 6.2379 5.40075 6.42156 4.75101 6.83405C3.22626 7.80217 2.86138 9.33008 3.49517 12.0923C4.08977 14.6838 4.11777 14.5013 2.96603 15.5375C1.73381 16.6461 1.09291 17.2951 0.734206 17.7979C-0.12289 18.9989 -0.232158 20.3352 0.42001 21.6383C0.776521 22.3505 1.25966 22.9017 2.55837 24.0775C3.15117 24.6142 3.69305 25.1439 3.76259 25.2545C3.94749 25.5485 3.92191 25.8419 3.58003 27.3521C3.20709 28.9995 3.07929 29.9167 3.14577 30.4681C3.3123 31.8482 3.97729 32.8065 5.15468 33.3629C5.80974 33.6724 6.57939 33.8254 8.25182 33.9784C8.99503 34.0465 9.72002 34.1529 9.86284 34.2151C10.1881 34.3568 10.332 34.6038 10.8896 35.9773C11.5572 37.6218 11.9257 38.3136 12.4391 38.8855C13.4577 40.0204 14.802 40.2968 16.2878 39.6768C16.5711 39.5586 17.3025 39.1512 17.9133 38.7713C19.3616 37.8707 19.7118 37.6892 20.0016 37.6892C20.2875 37.6892 20.7395 37.9199 21.8269 38.6203C23.5897 39.7559 24.2724 40.0137 25.3548 39.952C25.9123 39.9203 26.1591 39.864 26.5118 39.6883C27.5283 39.1819 28.0836 38.4044 28.999 36.206C29.6683 34.5982 29.7997 34.3626 30.1174 34.2002C30.2314 34.1419 31.0553 34.0218 31.9484 33.9331C34.3085 33.6989 35.1118 33.4286 35.8804 32.6106C36.905 31.5201 37.0423 30.2408 36.4249 27.5401C36.074 26.0054 36.0339 25.5606 36.2195 25.2653C36.2882 25.1559 36.8297 24.6292 37.4225 24.0948C38.7605 22.8889 39.2127 22.3772 39.5746 21.6595C40.1369 20.5441 40.1417 19.4647 39.5893 18.3689C39.2223 17.641 38.7843 17.142 37.6168 16.1216C36.243 14.9207 36.114 14.7643 36.1151 14.3C36.1155 14.0946 36.2631 13.3028 36.443 12.5406C36.7424 11.2716 36.7704 11.062 36.7745 10.0543C36.7788 9.01525 36.7669 8.92664 36.5608 8.4681C36.1405 7.53242 35.5446 6.95103 34.6508 6.60424C33.9252 6.32276 33.5144 6.24532 31.99 6.10258C31.2685 6.035 30.5103 5.93889 30.3052 5.889C29.8453 5.77715 29.767 5.65023 28.9687 3.72295C28.6557 2.96727 28.2681 2.13488 28.1075 1.87321C27.2639 0.498633 26.0238 -0.145449 24.6825 0.0942985C23.9272 0.229294 23.3069 0.525045 21.7789 1.4789C21.0571 1.92937 20.362 2.32197 20.2341 2.35123C19.8423 2.44091 19.5834 2.32735 18.343 1.52162C16.915 0.594173 16.5869 0.414994 15.9277 0.202882C15.2768 -0.00654047 14.992 -0.0368656 14.3548 0.0352787ZM15.311 3.65627C15.5245 3.76909 16.0778 4.11262 16.5403 4.4197C18.1617 5.49599 18.994 5.83674 20.0016 5.83674C21.0509 5.83674 21.6964 5.56341 23.8624 4.2018L25.1029 3.4219L25.2493 3.62C25.3298 3.72899 25.6125 4.35 25.8775 5.00011C26.5254 6.5899 26.8015 7.15132 27.2203 7.731C28.1096 8.9621 29.0851 9.3397 31.9638 9.56697C32.6279 9.61939 33.2574 9.69642 33.3626 9.73816C33.5429 9.80957 33.5512 9.84006 33.5042 10.2569C33.4767 10.5005 33.3346 11.2074 33.1885 11.8277C32.8341 13.332 32.7241 14.3011 32.8297 14.9896C33.0263 16.2725 33.5017 16.9823 35.1365 18.4342C36.2297 19.4051 36.6617 19.8496 36.6617 20.0035C36.6617 20.1551 35.9328 20.9001 34.8878 21.8168C33.9565 22.6336 33.5109 23.1683 33.1752 23.8719C32.6273 25.02 32.6357 25.8957 33.2189 28.3961C33.5973 30.0186 33.6056 30.1648 33.3261 30.2755C33.2123 30.3207 32.5171 30.4123 31.7813 30.4792C29.1074 30.7225 28.351 30.9914 27.4494 32.0196C26.9255 32.617 26.6221 33.1909 25.9818 34.7953C25.3103 36.4781 25.2586 36.5691 25.008 36.5076C24.9002 36.4812 24.259 36.111 23.5832 35.685C21.273 34.2286 20.418 33.9754 19.0454 34.3413C18.3355 34.5305 17.6326 34.8904 16.3866 35.7032C15.8731 36.0381 15.3288 36.3738 15.177 36.4493L14.901 36.5864L14.7184 36.3477C14.6178 36.2164 14.3525 35.6483 14.1285 35.0853C13.4333 33.3373 12.9876 32.4995 12.4588 31.9464C11.5717 31.0185 10.8312 30.7614 8.35084 30.5208C7.46707 30.435 6.68233 30.3398 6.60708 30.3092C6.39081 30.2213 6.43524 29.7348 6.80012 28.1969C7.1043 26.915 7.13027 26.7205 7.13254 25.7059C7.13497 24.657 7.12425 24.5811 6.90462 24.0852C6.6038 23.4058 6.18331 22.8524 5.41428 22.1235C3.60608 20.4096 3.34178 20.1403 3.34452 20.0144C3.34898 19.8058 3.74389 19.3861 4.94569 18.3131C6.49969 16.9256 6.97447 16.2232 7.18377 15.0023C7.30931 14.2703 7.20864 13.3967 6.79551 11.634C6.34693 9.72007 6.35671 9.81968 6.60857 9.71974C6.72605 9.67311 7.40293 9.5814 8.11275 9.51586C10.4481 9.30032 11.1842 9.10223 12.013 8.4663C12.4895 8.10077 13.0307 7.38666 13.3734 6.67125C13.4808 6.44708 13.7869 5.7134 14.0537 5.04087C14.5643 3.7532 14.7144 3.45125 14.8437 3.45125C14.8872 3.45125 15.0975 3.54353 15.311 3.65627ZM25.9456 13.1425C25.4107 13.3234 25.1064 13.6666 21.5309 18.1205C19.4779 20.6779 17.7629 22.793 17.7198 22.8208C17.6767 22.8485 16.8613 22.0642 15.908 21.0778C14.2083 19.3192 14.1661 19.2824 13.7441 19.192C12.9871 19.0297 12.2559 19.3933 11.884 20.1169C11.7112 20.4533 11.7202 21.2577 11.9011 21.63C11.9773 21.7869 13.1184 23.0383 14.4368 24.4109C16.4398 26.4963 16.8947 26.9301 17.204 27.0504C17.6935 27.2407 18.2553 27.185 18.6598 26.9061C18.8403 26.7816 20.7636 24.4528 23.384 21.1862C28.1407 15.2562 28.0482 15.39 27.9594 14.5694C27.9079 14.0936 27.5688 13.579 27.1459 13.3354C26.7896 13.1301 26.2422 13.0421 25.9456 13.1425Z" fill="#1FC7BD"/>
</svg>
