<svg width="31" height="30" viewBox="0 0 31 30" fill="none" xmlns="http://www.w3.org/2000/svg">
<path fill-rule="evenodd" clip-rule="evenodd" d="M12.8934 0.0975563C12.5142 0.255913 12.4299 0.465689 12.2066 1.80756C12.0954 2.47548 11.9871 3.03682 11.9658 3.05492C11.9445 3.07301 11.5713 3.20314 11.1365 3.3441C10.6934 3.4877 9.98112 3.78298 9.51606 4.01577L8.68633 4.43117L7.78842 3.79188C6.71413 3.02698 6.4804 2.90974 6.13997 2.96484C5.91567 3.0011 5.77307 3.12636 4.4514 4.44803C3.12973 5.7697 3.00446 5.91231 2.96821 6.13661C2.9131 6.47704 3.03034 6.71077 3.79525 7.78506L4.43453 8.68296L4.01914 9.5127C3.78635 9.97775 3.49107 10.69 3.34747 11.1331C3.2065 11.5679 3.07638 11.9412 3.05828 11.9624C3.04018 11.9837 2.47885 12.0921 1.81093 12.2032C0.456403 12.4287 0.2567 12.5106 0.097992 12.9058C-0.032664 13.2313 -0.032664 16.7654 0.097992 17.0908C0.2567 17.4861 0.456403 17.568 1.81093 17.7934C2.47885 17.9046 3.04018 18.0129 3.05828 18.0342C3.07638 18.0555 3.2065 18.4287 3.34747 18.8635C3.49107 19.3066 3.78635 20.0189 4.01914 20.4839L4.43453 21.3137L3.79525 22.2116C3.03034 23.2859 2.9131 23.5196 2.96821 23.86C3.00446 24.0843 3.12973 24.2269 4.4514 25.5486C5.77307 26.8703 5.91567 26.9955 6.13997 27.0318C6.4804 27.0869 6.71413 26.9697 7.78842 26.2048L8.68633 25.5655L9.51606 25.9809C9.98112 26.2137 10.6934 26.5089 11.1365 26.6525C11.5713 26.7935 11.9445 26.9236 11.9658 26.9417C11.9871 26.9598 12.0954 27.5212 12.2066 28.1891C12.432 29.5436 12.5139 29.7433 12.9092 29.902C13.2346 30.0327 16.7687 30.0327 17.0942 29.902C17.4894 29.7433 17.5713 29.5436 17.7968 28.1891C17.9079 27.5212 18.0163 26.9598 18.0376 26.9417C18.0588 26.9236 18.4321 26.7935 18.8669 26.6525C19.31 26.5089 20.0222 26.2137 20.4873 25.9809L21.317 25.5655L22.2149 26.2048C23.2892 26.9697 23.523 27.0869 23.8634 27.0318C24.0877 26.9955 24.2303 26.8703 25.552 25.5486C26.8736 24.2269 26.9989 24.0843 27.0352 23.86C27.0903 23.5196 26.973 23.2859 26.2081 22.2116L25.5688 21.3137L25.9842 20.4839C26.217 20.0189 26.5123 19.3066 26.6559 18.8635C26.7969 18.4287 26.927 18.0555 26.9451 18.0342C26.9632 18.0129 27.5245 17.9046 28.1924 17.7934C29.547 17.568 29.7467 17.4861 29.9054 17.0908C30.036 16.7654 30.036 13.2313 29.9054 12.9058C29.7467 12.5106 29.547 12.4287 28.1924 12.2032C27.5245 12.0921 26.9632 11.9837 26.9451 11.9624C26.927 11.9412 26.7969 11.5679 26.6559 11.1331C26.5123 10.69 26.217 9.97775 25.9842 9.5127L25.5688 8.68296L26.2081 7.78506C26.973 6.71077 27.0903 6.47704 27.0352 6.13661C26.9989 5.91231 26.8736 5.7697 25.552 4.44803C24.2303 3.12636 24.0877 3.0011 23.8634 2.96484C23.523 2.90974 23.2892 3.02698 22.2149 3.79188L21.317 4.43117L20.4873 4.01577C20.0222 3.78298 19.31 3.4877 18.8669 3.3441C18.4321 3.20314 18.0588 3.07301 18.0376 3.05492C18.0163 3.03682 17.9079 2.47548 17.7968 1.80756C17.5713 0.453039 17.4894 0.253336 17.0942 0.0946281C16.7756 -0.0332754 13.2008 -0.0307571 12.8934 0.0975563ZM15.9471 5.39694C19.7964 5.78833 22.9848 8.36285 24.1908 12.0535C24.8037 13.9292 24.8037 16.0674 24.1908 17.9431C22.7926 22.2216 18.642 25.0052 14.2439 24.6141C13.3459 24.5342 12.7808 24.424 12.0569 24.1875C9.06723 23.2104 6.78956 20.9328 5.81254 17.9431C5.19961 16.0674 5.19961 13.9292 5.81254 12.0535C6.30407 10.5495 7.07477 9.29156 8.18484 8.18148C10.2493 6.11699 13.0716 5.10453 15.9471 5.39694ZM14.2403 10.6974C12.6842 11.0328 11.4899 12.519 11.4899 14.1199C11.4899 16.0148 13.1068 17.6316 15.0017 17.6316C16.6175 17.6316 18.0956 16.4323 18.4274 14.8519C18.6777 13.6598 18.3366 12.5248 17.4667 11.6548C16.5946 10.7828 15.4373 10.4394 14.2403 10.6974ZM10.6016 17.7953C10.0238 18.4074 9.5847 19.1071 9.29937 19.8707L9.15285 20.2629L9.69011 20.7742C10.7656 21.7977 12.0832 22.4721 13.5855 22.768C14.2784 22.9046 15.725 22.9046 16.4179 22.768C17.9202 22.4721 19.2377 21.7977 20.3132 20.7742L20.8505 20.2629L20.704 19.8707C20.4187 19.1071 19.9796 18.4074 19.4018 17.7953L19.0843 17.4591L18.6487 17.8728C16.8024 19.6267 14.254 19.879 12.1461 18.5167C11.9504 18.3901 11.5942 18.1004 11.3546 17.8728L10.919 17.4591L10.6016 17.7953Z" fill="#1FC7BD"/>
</svg>
