<svg width="40" height="40" viewBox="0 0 40 40" fill="none" xmlns="http://www.w3.org/2000/svg">
<path fill-rule="evenodd" clip-rule="evenodd" d="M18.2189 0.0713731C13.6132 0.479939 9.24586 2.54153 5.89754 5.88786C1.20354 10.5789 -0.886952 17.2554 0.349372 23.6069C0.949271 26.6887 2.2021 29.5698 3.96707 31.9266C4.2247 32.2706 4.42767 32.5604 4.41813 32.5706C4.40858 32.5808 4.12162 32.5351 3.78045 32.4692C3.03093 32.3242 2.73286 32.3685 2.38121 32.6772C1.89628 33.1028 1.82675 33.7617 2.21313 34.2682C2.32012 34.4085 2.50658 34.5622 2.6275 34.6098C2.93136 34.7296 7.73306 35.6409 8.05842 35.6405C8.58175 35.64 9.14059 35.0971 9.14497 34.5852C9.14606 34.4562 8.99848 33.2811 8.81702 31.9739C8.46576 29.4442 8.43057 29.322 7.95112 28.9669C7.80235 28.8567 7.61597 28.8078 7.34465 28.8078C6.90196 28.8078 6.63611 28.9625 6.33968 29.3925C6.17504 29.6312 6.16096 29.7153 6.20453 30.1997C6.23128 30.497 6.27273 30.8313 6.29666 30.9425L6.34023 31.1446L6.17504 30.9492C5.75315 30.4498 4.71213 28.8109 4.31848 28.0263C2.97782 25.354 2.38387 22.8623 2.38699 19.9238C2.39114 16.0778 3.59907 12.5321 5.9831 9.36806C9.9354 4.1227 16.6322 1.45072 22.8985 2.61902C23.7622 2.78003 24.1365 2.77838 24.4573 2.61222C25.1986 2.22837 25.2195 1.02159 24.4923 0.593711C24.3677 0.520365 23.8461 0.388373 23.3332 0.300404C21.6039 0.00365673 19.8619 -0.0743813 18.2189 0.0713731ZM31.5114 4.50914C31.3394 4.60133 31.1693 4.7904 31.05 5.02194L30.8612 5.38867L31.2259 7.945C31.501 9.87327 31.6255 10.5482 31.7325 10.692C32.2641 11.4067 33.1947 11.4053 33.6913 10.6888C33.8634 10.4406 33.8722 10.375 33.826 9.69124L33.7765 8.95934L33.976 9.19642C34.4476 9.75676 35.3582 11.2236 35.8355 12.1919C37.0748 14.706 37.6452 17.1677 37.6452 20.0019C37.6452 23.6132 36.6987 26.7432 34.6776 29.8153C30.9137 35.5365 23.8472 38.5896 17.1214 37.4007C16.1231 37.2242 15.7732 37.2428 15.4821 37.4877C14.8275 38.0383 14.8613 38.9002 15.5571 39.4041C15.8227 39.5964 17.2499 39.8403 18.7787 39.9547C21.3574 40.1474 24.3846 39.7183 26.8701 38.8078C27.987 38.3986 30.0101 37.3829 31.0023 36.7331C32.4886 35.7598 33.7526 34.6743 34.884 33.3994C37.5614 30.3822 39.1963 26.9143 39.8177 22.9342C40.021 21.6322 40.0637 18.7955 39.8978 17.617C39.3756 13.9089 38.0282 10.6056 35.9207 7.86751C35.7282 7.61729 35.5991 7.4139 35.6339 7.41539C35.6686 7.41688 35.9259 7.46848 36.2055 7.52994C36.8868 7.67976 37.1346 7.67437 37.4582 7.50242C38.2944 7.0582 38.2931 5.84751 37.4559 5.44348C37.1891 5.3147 32.3652 4.36307 31.9793 4.36307C31.8719 4.36307 31.6614 4.42883 31.5114 4.50914ZM18.1772 7.99551C14.8457 8.51863 11.7856 10.4683 9.92155 13.2553C7.4055 17.017 7.14747 21.6747 9.23163 25.7101C12.304 31.659 19.6804 33.9969 25.6312 30.908C26.7462 30.3292 27.5702 29.7218 28.5461 28.7597C30.5632 26.7711 31.6869 24.5417 32.108 21.6927C32.273 20.5768 32.2172 18.7437 31.9848 17.6437C31.5001 15.3495 30.4131 13.3004 28.7893 11.6201C26.8906 9.65527 24.6922 8.48329 22.0622 8.03383C21.0256 7.85664 19.1777 7.83842 18.1772 7.99551ZM21.6279 10.3475C25.1913 10.9624 28.1224 13.4241 29.3058 16.796C29.7286 18.0007 29.8303 18.6516 29.8251 20.1192C29.8211 21.2244 29.7901 21.5738 29.6413 22.1914C29.0087 24.8175 27.5547 26.9055 25.3558 28.3454C22.067 30.499 17.8345 30.4465 14.4939 28.2107C12.8848 27.1337 11.4301 25.2537 10.758 23.3826C10.1944 21.8136 10.039 19.6704 10.3769 18.1253C11.2192 14.273 14.0801 11.332 17.8253 10.4681C18.716 10.2627 18.8065 10.2529 19.9464 10.2394C20.534 10.2324 21.2144 10.2761 21.6279 10.3475ZM19.6726 12.3391C19.1138 12.5125 18.8421 13.0049 18.8421 13.8439V14.4155L18.3064 14.4999C17.596 14.6117 16.9803 14.9038 16.4916 15.3608C14.4749 17.2466 15.4161 20.5969 18.1224 21.1659C18.3504 21.2138 19.2057 21.2531 20.023 21.2531C21.6749 21.2531 21.8556 21.2953 22.1302 21.7456C22.4692 22.3015 22.2293 23.018 21.6273 23.2479C21.3465 23.3551 21.0367 23.3723 19.7729 23.3509L18.2555 23.3252L17.7947 23.0711C17.2492 22.7702 17.0261 22.7563 16.5749 22.9948C16.0155 23.2906 15.8072 23.8922 16.0572 24.4903C16.2731 25.007 17.1898 25.5012 18.2074 25.6495L18.8421 25.742V26.3333C18.8421 26.7586 18.8827 27.0011 18.9869 27.1971C19.4168 28.0058 20.555 28.0381 21.0324 27.2552C21.1534 27.0568 21.1879 26.861 21.1882 26.3712L21.1885 25.742L21.7504 25.6456C22.9194 25.4452 23.8455 24.7478 24.3375 23.6973C24.6551 23.0192 24.7301 21.9899 24.5108 21.3198C24.1249 20.1405 23.1846 19.2539 22.0398 18.9901C21.8512 18.9466 21.0105 18.9101 20.1717 18.909C18.4594 18.9068 18.2512 18.8566 17.9246 18.3678C17.6015 17.8844 17.7759 17.2196 18.2994 16.9388C18.5304 16.815 18.7588 16.7962 20.014 16.7977C21.5753 16.7996 21.8907 16.8653 22.2442 17.2621C22.4778 17.5245 22.7839 17.6561 23.1595 17.6558C24.0306 17.6551 24.5694 16.7649 24.1868 15.9588C23.9072 15.3696 22.7004 14.6535 21.7297 14.5007L21.1885 14.4155V13.7984C21.1885 12.8745 20.8774 12.4195 20.1717 12.3112C20.0211 12.2881 19.7966 12.3007 19.6726 12.3391Z" fill="#1FC7BD"/>
</svg>
