<svg width="40" height="40" viewBox="0 0 40 40" fill="none" xmlns="http://www.w3.org/2000/svg">
<path fill-rule="evenodd" clip-rule="evenodd" d="M16.1713 0.0793242C12.6765 0.498357 9.58472 1.77564 6.82847 3.93909C6.01754 4.57565 4.32695 6.31303 3.69279 7.16158C1.12004 10.6042 -0.153433 14.6396 0.0147423 18.8166C0.124357 21.5389 0.697999 23.8253 1.86921 26.2085C3.64346 29.8188 6.55553 32.7219 10.1902 34.5038C12.7722 35.7696 15.2562 36.3382 18.2041 36.3382C20.206 36.3382 22.1102 36.0492 23.7741 35.4929C24.274 35.3258 24.2336 35.3048 24.5755 35.908C25.1061 36.8441 26.0687 37.8793 27.0204 38.5375C29.7903 40.4533 33.4915 40.49 36.2896 38.6294C38.7208 37.0127 40.1309 34.2324 39.9904 31.332C39.8474 28.3801 38.2152 25.8028 35.5723 24.3558L35.3315 24.224L35.4884 23.7692C36.0267 22.2077 36.2654 20.7604 36.3185 18.7331C36.3833 16.2678 36.1414 14.5326 35.4371 12.4101C33.2923 5.94665 27.6349 1.19242 20.8624 0.162161C19.7138 -0.0125862 17.2944 -0.0552951 16.1713 0.0793242ZM20.8233 2.54322C26.6149 3.55056 31.3543 7.61096 33.2043 13.1503C33.8327 15.0319 34.0333 16.4666 33.9745 18.6601C33.9285 20.3748 33.7791 21.3367 33.3323 22.7941L33.1248 23.4708H31.8804C31.1961 23.4708 30.636 23.4662 30.6358 23.4604C30.6357 23.4548 30.7915 22.9796 30.9821 22.4045C31.1773 21.8158 31.4031 20.9143 31.499 20.3419C31.6472 19.456 31.6639 19.1286 31.6281 17.7997C31.5823 16.1003 31.4506 15.3064 30.9802 13.8935C28.9551 7.81262 22.8302 3.9552 16.5076 4.77864C14.2133 5.07752 12.1726 5.87531 10.2943 7.20789C9.42077 7.82756 7.81024 9.45246 7.16146 10.3687C5.29331 13.0067 4.41131 16.3927 4.76158 19.5823C5.4077 25.4664 9.67831 30.1679 15.5068 31.4117C16.5138 31.6265 18.8206 31.7102 19.8699 31.5698C20.8256 31.4419 21.6875 31.2387 22.5434 30.9394C22.9304 30.804 23.2998 30.677 23.3643 30.657C23.4652 30.6258 23.4816 30.7954 23.4816 31.8696V33.1185L22.8052 33.3261C21.3446 33.7743 20.3882 33.9226 18.6585 33.9689C17.3655 34.0036 16.8479 33.9851 16.0784 33.8767C12.5493 33.3798 9.4934 31.8567 6.97991 29.3421C1.26007 23.6195 0.772822 14.5455 5.84655 8.23548C8.52735 4.9016 12.4459 2.80613 16.8359 2.35886C17.6165 2.2793 19.918 2.38576 20.8233 2.54322ZM17.0314 8.60868V10.134H18.2041H19.3769V8.60868C19.3769 7.26546 19.3918 7.08336 19.5014 7.08336C19.8087 7.08336 21.2286 7.41956 21.8544 7.64045C22.9603 8.03086 24.1767 8.68956 25.0062 9.34733L25.2017 9.50228L24.1265 10.582L23.0512 11.6617L23.8725 12.4806L24.6938 13.2995L25.7793 12.2156L26.8647 11.1318L27.301 11.7476C28.2915 13.1454 29.2282 15.5763 29.2282 16.7488V17.0175H27.7015H26.1748L26.1964 18.1713L26.2181 19.325L27.7511 19.3462L29.2842 19.3673L29.1872 19.9732C28.9101 21.7052 27.9607 23.9083 27.1285 24.7503L26.788 25.0949L25.7404 24.0489L24.6928 23.003L23.8534 23.8428L23.0141 24.6826L24.0595 25.7307L25.105 26.7788L24.7605 27.1194C23.9189 27.9519 21.7169 28.9018 19.9856 29.1791L19.3801 29.2761L19.359 27.7423L19.3378 26.2085L18.1846 26.1869L17.0314 26.1653V27.688C17.0314 28.5255 17.0049 29.2254 16.9727 29.2432C16.864 29.3032 15.6689 29.0627 14.8813 28.8222C13.9185 28.5283 12.5823 27.8725 11.7639 27.292L11.1484 26.8555L12.2317 25.7695L13.3152 24.6835L12.4966 23.8619L11.6781 23.0402L10.5989 24.1159L9.51967 25.1916L9.36479 24.9961C8.70733 24.1662 8.04894 22.9492 7.65872 21.8428C7.43792 21.2167 7.10188 19.7962 7.10188 19.4887C7.10188 19.379 7.2839 19.3641 8.62649 19.3641H10.1511V18.1908V17.0175H8.6164H7.08171L7.13441 16.6068C7.34856 14.9381 8.20351 12.8607 9.22914 11.5169L9.49989 11.1621L10.5476 12.2125C11.1239 12.7902 11.6303 13.2629 11.6732 13.2629C11.7768 13.2629 13.2785 11.7632 13.2785 11.6597C13.2785 11.6153 12.8049 11.1061 12.2261 10.5282L11.1737 9.47756L11.6968 9.09608C12.4267 8.5637 13.3595 8.06934 14.3108 7.7107C15.0885 7.41744 16.3656 7.10057 16.8163 7.08891L17.0314 7.08336V8.60868ZM17.0314 16.1962V19.3641H19.3769H21.7224V18.1908V17.0175H20.5497H19.3769V15.0228V13.0282H18.2041H17.0314V16.1962ZM33.1269 25.9362C34.9519 26.374 36.537 27.7561 37.2557 29.5362C37.8502 31.0088 37.7845 32.8025 37.0822 34.2739C36.3597 35.7877 34.8548 37.0435 33.2547 37.4677C32.5102 37.6652 31.4032 37.7069 30.6606 37.5657C29.3853 37.323 28.4775 36.8348 27.5057 35.8689C26.9735 35.34 26.7616 35.0577 26.4692 34.4884C25.9379 33.454 25.7608 32.6419 25.8067 31.4494C25.8666 29.8907 26.3335 28.7898 27.4229 27.6379C28.2751 26.7368 29.2982 26.1456 30.4401 25.8941C31.1657 25.7343 32.363 25.753 33.1269 25.9362ZM32.18 30.4512L30.7941 31.8377L30.3233 31.3717L29.8526 30.9057L29.0319 31.7239L28.2112 32.5422L29.5204 33.8537L30.8296 35.1652L32.9999 32.9949C34.1936 31.8013 35.1702 30.7886 35.1702 30.7445C35.1702 30.7004 34.8092 30.3044 34.3681 29.8645L33.5658 29.0647L32.18 30.4512Z" fill="#1FC7BD"/>
</svg>
