<svg width="31" height="35" fill="none" xmlns="http://www.w3.org/2000/svg"><path fill-rule="evenodd" clip-rule="evenodd" d="M14.683.097c-1.557.385-2.665 1.827-2.665 3.469 0 .316.042.715.092.886l.091.31-.577.223c-1.527.589-2.713 1.382-3.93 2.627-1.605 1.643-2.546 3.405-3.058 5.726-.133.601-.144.897-.18 4.782-.037 3.837-.049 4.156-.16 4.33a1.02 1.02 0 01-.851.456c-.453.002-1.111.181-1.559.425-2.515 1.369-2.515 5.03 0 6.4.773.42.814.423 5.597.424l4.34.001-.05.257c-.07.364-.049 1.222.042 1.624.331 1.48 1.642 2.7 3.141 2.922 2.271.338 4.323-1.47 4.322-3.811a5.08 5.08 0 00-.05-.735l-.049-.257 4.34-.001c4.745-.001 4.795-.005 5.567-.402 2.191-1.13 2.583-4.23.748-5.913-.61-.56-1.513-.93-2.276-.934a1.018 1.018 0 01-.85-.456c-.112-.174-.124-.492-.16-4.33-.036-3.885-.048-4.18-.18-4.782-.513-2.321-1.454-4.083-3.06-5.726-1.215-1.244-2.402-2.038-3.927-2.626l-.574-.222.089-.35c.225-.885.026-2.031-.49-2.825-.799-1.23-2.32-1.84-3.723-1.492zm1.242 2.019c.327.093.768.498.925.85.14.312.155.783.038 1.116l-.08.227-1.306-.001-1.307-.001-.08-.192c-.12-.286-.101-.838.04-1.149.322-.707 1.046-1.055 1.77-.85zm1.034 4.34c3.846.636 6.853 3.74 7.486 7.726.078.488.099 1.397.099 4.325 0 3.924.016 4.156.318 4.774.497 1.02 1.28 1.544 2.493 1.672.642.068.872.159 1.166.459.749.764.556 2.013-.392 2.544-.186.105-1.185.114-12.627.114-11.443 0-12.442-.01-12.628-.114-.948-.53-1.14-1.78-.392-2.544.294-.3.524-.39 1.164-.458.74-.079 1.202-.253 1.68-.637.417-.336.722-.766.947-1.336.149-.38.151-.431.19-4.59l.04-4.207.175-.689c.615-2.415 1.85-4.242 3.777-5.585.934-.65 2.412-1.26 3.512-1.448.762-.13 2.227-.134 2.992-.007zm.163 23.974c.175.364.157 1.047-.038 1.474-.269.59-.968 1.057-1.582 1.057-.615 0-1.314-.468-1.583-1.057-.238-.521-.195-1.417.082-1.698.029-.029.717-.044 1.53-.034l1.477.018.114.24z" fill="#043B74" fill-opacity=".6"/></svg>