<svg width="48" height="48" fill="none" xmlns="http://www.w3.org/2000/svg"><path d="M24 4C12.954 4 4 12.954 4 24s8.954 20 20 20 20-8.954 20-20S35.046 4 24 4z" fill="url(#paint0_linear)"/><path d="M26.707 29.3h5.177l.813-5.257h-5.99v-2.874c0-2.184.715-4.121 2.758-4.121h3.283V12.46c-.578-.078-1.797-.248-4.102-.248-4.815 0-7.637 2.542-7.637 8.334v3.498h-4.948v5.258h4.948v14.452c.98.146 1.973.246 2.991.246.922 0 1.82-.084 2.707-.204V29.3z" fill="#fff"/><defs><linearGradient id="paint0_linear" x1="9.993" y1="9.993" x2="40.615" y2="40.615" gradientUnits="userSpaceOnUse"><stop stop-color="#2AA4F4"/><stop offset="1" stop-color="#007AD9"/></linearGradient></defs></svg>