<svg width="46" height="24" fill="none" xmlns="http://www.w3.org/2000/svg"><path d="M3.527 18H.2L3.33 0h3.316L3.527 18zM13.594 5.086c1.117.016 2.078.305 2.883.867.812.555 1.406 1.324 1.78 2.309.384.976.52 2.062.411 3.258-.18 2.015-.883 3.648-2.11 4.898-1.218 1.242-2.726 1.848-4.523 1.816-1.101-.015-2.055-.297-2.86-.843-.804-.555-1.398-1.32-1.78-2.297-.383-.977-.52-2.055-.41-3.235.202-2.093.913-3.757 2.132-4.992 1.219-1.234 2.711-1.828 4.477-1.781zm-3.34 7.98c.016.75.191 1.344.527 1.782.336.43.809.652 1.418.668 1.016.03 1.813-.434 2.39-1.395.579-.969.848-2.238.81-3.809-.032-.75-.215-1.347-.551-1.792-.329-.454-.801-.688-1.418-.704-.985-.03-1.774.434-2.367 1.395-.586.953-.856 2.238-.81 3.855zm10.008-1.418c.234-1.96.87-3.55 1.91-4.77 1.047-1.226 2.363-1.827 3.95-1.804 1.35.031 2.358.52 3.023 1.465l.433-1.23 3.035.011-2.074 12.246c-.227 1.688-.945 3.024-2.156 4.008-1.211.985-2.711 1.461-4.5 1.43a6.193 6.193 0 01-2.508-.574 5.309 5.309 0 01-1.969-1.489l1.64-2.015c.735.93 1.657 1.41 2.767 1.441.859.031 1.593-.195 2.203-.68.609-.476 1.023-1.152 1.242-2.027l.187-.762c-.922.922-1.957 1.368-3.105 1.336-1.235-.015-2.215-.472-2.942-1.37-.726-.907-1.125-2.083-1.195-3.528a11.84 11.84 0 01.059-1.688zm3.246 1.383c0 .735.152 1.324.457 1.77.312.437.762.668 1.348.691.898.031 1.695-.351 2.39-1.148l.985-5.367c-.336-.735-.957-1.118-1.864-1.149-.844-.023-1.558.317-2.144 1.02-.586.703-.953 1.636-1.102 2.8a12.16 12.16 0 00-.07 1.383zm16.781-7.945c1.117.016 2.078.305 2.883.867.812.555 1.406 1.324 1.781 2.309.383.976.52 2.062.41 3.258-.18 2.015-.883 3.648-2.11 4.898-1.218 1.242-2.726 1.848-4.523 1.816-1.101-.015-2.054-.297-2.859-.843-.805-.555-1.398-1.32-1.781-2.297-.383-.977-.52-2.055-.41-3.235.203-2.093.914-3.757 2.133-4.992 1.218-1.234 2.71-1.828 4.476-1.781zm-3.34 7.98c.016.75.192 1.344.528 1.782.336.43.808.652 1.418.668 1.015.03 1.812-.434 2.39-1.395.578-.969.848-2.238.809-3.809-.032-.75-.215-1.347-.551-1.792-.328-.454-.8-.688-1.418-.704-.984-.03-1.773.434-2.367 1.395-.586.953-.856 2.238-.809 3.855z" fill="#013776"/></svg>