<svg width="393" height="118" fill="none" xmlns="http://www.w3.org/2000/svg"><path d="M165 34l.294-.956L165 34zM393 0l-10.723 4.283 9.071 7.145L393 0zM1.927 117.875c.362-.896.764-1.811 1.204-2.743l-1.809-.854a55.124 55.124 0 00-1.249 2.847l1.854.75zm4.046-8.103a91.44 91.44 0 013.25-5.14l-1.655-1.122a93.323 93.323 0 00-3.321 5.252l1.726 1.01zm6.822-10.103a134.321 134.321 0 013.82-4.79l-1.536-1.281a136.125 136.125 0 00-3.877 4.861l1.593 1.21zm7.831-9.402a169.058 169.058 0 014.186-4.459l-1.434-1.394a171.029 171.029 0 00-4.235 4.511l1.483 1.342zm8.528-8.773a192.889 192.889 0 014.484-4.174l-1.34-1.485a194.74 194.74 0 00-4.53 4.217l1.386 1.442zm9.097-8.207a205.662 205.662 0 014.733-3.893l-1.247-1.563a207.542 207.542 0 00-4.78 3.93l1.294 1.526zm9.58-7.645a208.36 208.36 0 014.955-3.607L51.632 60.4a210.485 210.485 0 00-5.002 3.642l1.2 1.6zm10.01-7.065a203.44 203.44 0 015.156-3.305l-1.053-1.7a205.183 205.183 0 00-5.208 3.338l1.105 1.667zm10.411-6.452c1.765-1.02 3.55-2.014 5.351-2.98l-.945-1.763c-1.82.977-3.623 1.981-5.406 3.012l1 1.731zm10.796-5.784c1.83-.905 3.675-1.778 5.535-2.618l-.824-1.823c-1.88.85-3.747 1.733-5.597 2.648l.886 1.793zm11.157-5.037c1.89-.773 3.794-1.51 5.706-2.207l-.685-1.88a161.705 161.705 0 00-5.778 2.235l.757 1.852zm11.492-4.187c1.946-.62 3.901-1.2 5.861-1.734l-.525-1.93a143.6 143.6 0 00-5.944 1.76l.608 1.904zm11.79-3.206a125.01 125.01 0 015.99-1.188l-.34-1.97c-2.033.35-4.063.754-6.086 1.207l.436 1.951zm12.031-2.072a109.77 109.77 0 016.075-.557l-.127-1.996c-2.062.13-4.125.32-6.186.567l.238 1.986zm12.168-.766a97.647 97.647 0 016.091.162l.116-1.996a99.662 99.662 0 00-6.215-.166l.008 2zm12.154.713c2.011.25 4.015.568 6.009.956l.382-1.963a91.004 91.004 0 00-6.144-.977l-.247 1.985zm11.935 2.325c.98.264 1.957.545 2.931.845l.588-1.912a86.638 86.638 0 00-3-.864l-.519 1.931zm2.931.845c.961.295 1.92.592 2.877.889l.593-1.91c-.959-.298-1.92-.595-2.882-.89l-.588 1.91zm8.609 2.68c1.917.603 3.829 1.207 5.734 1.81l.604-1.906c-1.906-.604-3.819-1.209-5.738-1.812l-.6 1.908zm11.469 3.63c1.916.609 3.827 1.215 5.732 1.818l.603-1.907c-1.903-.602-3.813-1.209-5.73-1.817l-.605 1.906zm11.463 3.625c1.923.603 3.839 1.2 5.75 1.79l.59-1.911c-1.907-.589-3.821-1.185-5.741-1.788l-.599 1.909zm11.51 3.55c1.93.583 3.853 1.156 5.771 1.718l.563-1.92a727.89 727.89 0 01-5.755-1.712l-.579 1.914zm11.554 3.382a483.39 483.39 0 005.809 1.6l.519-1.93a485.974 485.974 0 01-5.785-1.595l-.543 1.925zm11.647 3.125c1.959.495 3.912.973 5.86 1.43l.457-1.947a362.19 362.19 0 01-5.826-1.422l-.491 1.939zm11.744 2.751c1.975.423 3.946.822 5.911 1.197l.374-1.965c-1.95-.371-3.905-.768-5.866-1.188l-.419 1.956zm11.856 2.253c1.997.328 3.991.627 5.979.896l.268-1.982a209.358 209.358 0 01-5.923-.888l-.324 1.974zm11.983 1.611c2.012.207 4.02.38 6.024.516l.136-1.995c-1.98-.135-3.965-.305-5.956-.51l-.204 1.99zm12.066.811c2.021.06 4.038.08 6.051.055l-.024-2a144.45 144.45 0 01-5.968-.054l-.059 2zm12.104-.149c2.017-.113 4.031-.273 6.041-.481l-.206-1.99c-1.978.206-3.961.363-5.948.474l.113 1.997zm12.051-1.253a118.33 118.33 0 005.965-1.074l-.405-1.959c-1.951.404-3.905.755-5.864 1.056l.304 1.977zm11.867-2.456c1.944-.51 3.886-1.073 5.824-1.693l-.608-1.905a112.564 112.564 0 01-5.723 1.663l.507 1.935zm11.557-3.695c1.873-.71 3.744-1.475 5.612-2.298l-.805-1.83c-1.837.808-3.675 1.56-5.516 2.258l.709 1.87zm11.085-4.875a123.965 123.965 0 005.341-2.85l-.985-1.741c-1.75.99-3.501 1.923-5.254 2.803l.898 1.788zm10.549-5.959a135.89 135.89 0 005.074-3.354l-1.14-1.643a133.708 133.708 0 01-4.999 3.304l1.065 1.693zm9.949-6.888a153.732 153.732 0 004.745-3.743l-1.269-1.546a152.432 152.432 0 01-4.683 3.694l1.207 1.595zm9.373-7.69c1.48-1.31 2.959-2.665 4.437-4.066l-1.376-1.452a174.14 174.14 0 01-4.386 4.02l1.325 1.498zm8.749-8.288a202.573 202.573 0 004.22-4.396l-1.463-1.364a200.297 200.297 0 01-4.179 4.353l1.422 1.407zm8.237-8.828a232.572 232.572 0 003.952-4.602l-1.533-1.284a234.417 234.417 0 01-3.919 4.563l1.5 1.323z" fill="#1D24CB" fill-opacity=".35"/></svg>