<svg width="397" height="192" fill="none" xmlns="http://www.w3.org/2000/svg"><path d="M212.584 78.427l-.907.42.907-.42zM387.887 183.93l-10.901-3.808 2.153 11.345 8.748-7.537zM10.056 28.33a79.73 79.73 0 012.414-1.554l-1.054-1.7a81.75 81.75 0 00-2.474 1.593l1.114 1.662zm7.464-4.459a107.99 107.99 0 015.219-2.608l-.847-1.812a109.837 109.837 0 00-5.316 2.657l.944 1.763zm10.567-4.95a135.7 135.7 0 015.45-2.098l-.678-1.882a137.712 137.712 0 00-5.532 2.13l.76 1.85zm10.986-3.971c1.832-.58 3.702-1.134 5.606-1.66l-.532-1.928a158.852 158.852 0 00-5.678 1.681l.604 1.907zm11.273-3.116c1.878-.447 3.785-.867 5.717-1.258l-.396-1.96c-1.955.395-3.884.82-5.785 1.273l.464 1.945zm11.477-2.322a178.4 178.4 0 015.794-.873l-.265-1.983a179.51 179.51 0 00-5.86.883l.33 1.973zM73.42 7.958a177.81 177.81 0 015.828-.49l-.135-1.995c-1.978.133-3.943.3-5.893.496l.2 1.99zm11.672-.789c1.942-.067 3.894-.102 5.853-.104l-.002-2c-1.982.002-3.956.038-5.92.106l.069 1.998zM96.8 7.16c1.943.063 3.89.161 5.839.294l.136-1.996a170.076 170.076 0 00-5.909-.298l-.066 2zm11.665.793c1.935.201 3.871.437 5.805.71l.279-1.98a161.122 161.122 0 00-5.877-.72l-.207 1.99zm11.579 1.636c1.916.345 3.827.727 5.733 1.147l.431-1.953a151.876 151.876 0 00-5.809-1.162l-.355 1.968zm11.411 2.52c1.881.495 3.754 1.03 5.617 1.604l.59-1.91a142.396 142.396 0 00-5.697-1.628l-.51 1.934zm11.161 3.446c1.832.652 3.652 1.346 5.458 2.083l.755-1.853a132.944 132.944 0 00-5.542-2.114l-.671 1.884zm10.81 4.407c1.762.814 3.508 1.67 5.237 2.571l.924-1.774a125.624 125.624 0 00-5.322-2.612l-.839 1.815zm10.347 5.39c1.675.978 3.332 2 4.969 3.068l1.092-1.675a119.534 119.534 0 00-5.053-3.12l-1.008 1.727zm9.769 6.373a114.647 114.647 0 014.627 3.542l1.256-1.557a116.872 116.872 0 00-4.707-3.603l-1.176 1.618zm9.073 7.32a115.314 115.314 0 014.255 4.008l1.408-1.42a116.5 116.5 0 00-4.33-4.079l-1.333 1.49zm8.279 8.206a115.543 115.543 0 013.816 4.405l1.544-1.271a118.51 118.51 0 00-3.881-4.481l-1.479 1.347zm7.423 9.014a120.796 120.796 0 013.36 4.753l1.66-1.115a123.277 123.277 0 00-3.415-4.832l-1.605 1.194zm6.493 9.664a128.983 128.983 0 012.924 5.086l1.756-.957a131.432 131.432 0 00-2.969-5.165l-1.711 1.036zm5.594 10.249c.431.88.856 1.77 1.273 2.67l1.814-.84c-.423-.914-.854-1.817-1.291-2.71l-1.796.88zm1.273 2.67a213.7 213.7 0 001.318 2.791l1.802-.866a235.17 235.17 0 01-1.306-2.766l-1.814.842zm4.053 8.282c.944 1.83 1.909 3.637 2.893 5.42l1.751-.968a217.35 217.35 0 01-2.867-5.37l-1.777.918zm5.944 10.76a212.243 212.243 0 003.202 5.243l1.691-1.068a210.634 210.634 0 01-3.171-5.193l-1.722 1.017zm6.554 10.385a202.505 202.505 0 003.504 5.04l1.625-1.166a203.147 203.147 0 01-3.47-4.991l-1.659 1.117zm7.167 9.983a195.79 195.79 0 003.811 4.825l1.55-1.263a195.649 195.649 0 01-3.772-4.777l-1.589 1.215zm7.767 9.527a192.143 192.143 0 004.1 4.573L248.73 131a194.395 194.395 0 01-4.058-4.526l-1.51 1.311zm8.343 9.012a191.166 191.166 0 004.391 4.307l1.377-1.45a187.189 187.189 0 01-4.344-4.262l-1.424 1.405zm8.921 8.468a181.065 181.065 0 004.663 4.008l1.278-1.538a182.854 182.854 0 01-4.613-3.964l-1.328 1.494zm9.458 7.857a178.343 178.343 0 004.922 3.682l1.17-1.622a177.395 177.395 0 01-4.867-3.641l-1.225 1.581zm9.968 7.192a174.6 174.6 0 005.165 3.332l1.054-1.7a171.892 171.892 0 01-5.106-3.293l-1.113 1.661zm10.448 6.479a168.481 168.481 0 005.397 2.955l.929-1.771a167.624 167.624 0 01-5.334-2.921l-.992 1.737zm10.9 5.71c1.859.888 3.727 1.737 5.601 2.547l.793-1.836a160.32 160.32 0 01-5.532-2.516l-.862 1.805zm11.296 4.877c1.923.744 3.851 1.446 5.783 2.107l.647-1.892a153.555 153.555 0 01-5.708-2.08l-.722 1.865zm11.645 3.983c1.975.588 3.954 1.133 5.934 1.635l.491-1.939a148.597 148.597 0 01-5.855-1.613l-.57 1.917zm11.932 3.021c2.018.422 4.036.798 6.053 1.129l.324-1.973a141.037 141.037 0 01-5.968-1.114l-.409 1.958zm12.15 1.992c2.048.243 4.092.439 6.132.588l.145-1.995a132.43 132.43 0 01-6.041-.579l-.236 1.986zm12.285.892a127.9 127.9 0 006.162.012l-.045-1.999c-2.014.044-4.036.04-6.065-.012l-.052 1.999zm12.318-.276c2.056-.148 4.102-.346 6.136-.596l-.244-1.985c-2 .245-4.012.441-6.035.586l.143 1.995z" fill="#1D24CB" fill-opacity=".35"/></svg>