<svg width="87" height="90" viewBox="0 0 87 90" fill="none" xmlns="http://www.w3.org/2000/svg">
<path fill-rule="evenodd" clip-rule="evenodd" d="M42.2858 0.171301C35.0297 0.927698 27.7098 4.57957 22.6666 9.9591C18.1908 14.7333 15.2297 20.8887 14.3371 27.2746L14.2202 28.1098H10.6267H7.03298V21.0768V14.0438H3.51649H0V24.5933V35.1428H7.09522H14.1904L14.5729 37.1741C14.7831 38.2913 15.1497 39.8143 15.3875 40.5587C15.6252 41.303 15.8207 41.9715 15.8219 42.0439C15.8231 42.1163 12.2638 42.1758 7.9121 42.1758H0V45.6922V49.2087H9.74102H19.482L20.2905 50.2967L21.0989 51.3846V53.8132V56.2417H10.5495H0V66.7912V77.3406H3.51649H7.03298V70.3077V63.2747H14.066H21.0989V76.6373V90H42.1979H63.2968V80.1538V70.3077H70.3298H77.3627V63.2747V56.2417H81.9345H86.5063L81.9345 47.0995L77.3627 37.9574V34.283C77.3627 30.2299 77.1746 27.8642 76.6412 25.2087C75.3547 18.805 71.7306 12.5031 66.8133 8.11892C60.0869 2.12172 51.1999 -0.757931 42.2858 0.171301ZM50.7253 7.53412C55.7008 8.66046 59.49 10.7405 63.0436 14.296C66.6422 17.8965 68.7876 21.8687 69.8359 26.8727C70.1283 28.2682 70.2027 29.4779 70.279 34.0859L70.3706 39.6224L72.7238 44.3264C74.018 46.9135 75.077 49.0705 75.077 49.1196C75.077 49.1686 74.0089 49.2087 72.7034 49.2087H70.3298V56.2417V63.2747H63.2968H56.2638V73.1209V82.967H42.1979H28.1319V73.1209V63.2747H28.793H29.4541L32.9671 70.3077L36.4801 77.3406H42.8554H49.2308V73.8242V70.3077H45.0114H40.7921L37.2748 63.2747L33.7574 56.2417H30.9447H28.1319V52.7252V49.2087H31.9098H35.688L36.3292 50.4835C37.6669 53.1425 40.5646 55.3575 43.5165 55.9773C48.7765 57.0816 53.9885 54.0687 55.6815 48.945C56.6464 46.0253 56.1847 42.5081 54.4994 39.9396C52.6139 37.0659 49.0984 35.1489 45.7144 35.1489C41.919 35.1489 38.0212 37.5379 36.3292 40.901L35.688 42.1758H29.5686H23.4494L23.0683 41.2527C22.451 39.7569 21.8481 37.8842 21.6299 36.7841C21.5179 36.2199 21.3869 35.6198 21.3388 35.4505C21.2565 35.1616 21.6327 35.1428 27.5042 35.1428H33.7574L37.2748 28.1098L40.7921 21.0768H45.0114H49.2308V17.5603V14.0438H42.8554H36.4801L32.9671 21.0768L29.4541 28.1098H25.3611H21.2681L21.3548 27.7142C22.1479 24.0959 22.5287 22.9501 23.7354 20.5508C27.4617 13.1413 34.575 8.20208 43.077 7.12076C44.555 6.93263 49.1709 7.18212 50.7253 7.53412ZM46.7871 42.3818C47.7539 42.7154 48.3322 43.2437 48.8189 44.2384C49.173 44.9622 49.256 45.3469 49.1881 45.9493C48.9694 47.8901 47.2289 49.3483 45.3474 49.1676C43.0436 48.9462 41.5733 46.4726 42.47 44.3264C43.1844 42.6167 45.0418 41.78 46.7871 42.3818Z" fill="#0075E1"/>
</svg>
