<svg width="241" height="90" viewBox="0 0 241 90" fill="none" xmlns="http://www.w3.org/2000/svg">
<path d="M111.8 45V30.72H120.82V33.22H114.82V36.2H116.02C117.367 36.2 118.467 36.3867 119.32 36.76C120.187 37.1333 120.827 37.6467 121.24 38.3C121.653 38.9533 121.86 39.7 121.86 40.54C121.86 41.9533 121.387 43.0533 120.44 43.84C119.507 44.6133 118.013 45 115.96 45H111.8ZM115.84 42.52C116.76 42.52 117.48 42.3733 118 42.08C118.533 41.7867 118.8 41.2733 118.8 40.54C118.8 39.78 118.513 39.28 117.94 39.04C117.367 38.8 116.587 38.68 115.6 38.68H114.82V42.52H115.84ZM128.794 33.86C130.261 33.86 131.381 34.18 132.154 34.82C132.941 35.4467 133.334 36.4133 133.334 37.72V45H131.254L130.674 43.52H130.594C130.127 44.1067 129.634 44.5333 129.114 44.8C128.594 45.0667 127.881 45.2 126.974 45.2C126.001 45.2 125.194 44.92 124.554 44.36C123.914 43.7867 123.594 42.9133 123.594 41.74C123.594 40.58 124.001 39.7267 124.814 39.18C125.627 38.62 126.847 38.3133 128.474 38.26L130.374 38.2V37.72C130.374 37.1467 130.221 36.7267 129.914 36.46C129.621 36.1933 129.207 36.06 128.674 36.06C128.141 36.06 127.621 36.14 127.114 36.3C126.607 36.4467 126.101 36.6333 125.594 36.86L124.614 34.84C125.201 34.5333 125.847 34.2933 126.554 34.12C127.274 33.9467 128.021 33.86 128.794 33.86ZM129.214 39.98C128.254 40.0067 127.587 40.18 127.214 40.5C126.841 40.82 126.654 41.24 126.654 41.76C126.654 42.2133 126.787 42.54 127.054 42.74C127.321 42.9267 127.667 43.02 128.094 43.02C128.734 43.02 129.274 42.8333 129.714 42.46C130.154 42.0733 130.374 41.5333 130.374 40.84V39.94L129.214 39.98ZM139.364 34.08V38.28H143.524V34.08H146.504V45H143.524V40.5H139.364V45H136.384V34.08H139.364ZM156.786 34.08H160.066L155.746 39.32L160.446 45H157.066L152.606 39.46V45H149.626V34.08H152.606V39.38L156.786 34.08ZM171.539 39.52C171.539 41.3333 171.059 42.7333 170.099 43.72C169.152 44.7067 167.859 45.2 166.219 45.2C165.205 45.2 164.299 44.98 163.499 44.54C162.712 44.1 162.092 43.46 161.639 42.62C161.185 41.7667 160.959 40.7333 160.959 39.52C160.959 37.7067 161.432 36.3133 162.379 35.34C163.325 34.3667 164.625 33.88 166.279 33.88C167.305 33.88 168.212 34.1 168.999 34.54C169.785 34.98 170.405 35.62 170.859 36.46C171.312 37.2867 171.539 38.3067 171.539 39.52ZM163.999 39.52C163.999 40.6 164.172 41.42 164.519 41.98C164.879 42.5267 165.459 42.8 166.259 42.8C167.045 42.8 167.612 42.5267 167.959 41.98C168.319 41.42 168.499 40.6 168.499 39.52C168.499 38.44 168.319 37.6333 167.959 37.1C167.612 36.5533 167.039 36.28 166.239 36.28C165.452 36.28 164.879 36.5533 164.519 37.1C164.172 37.6333 163.999 38.44 163.999 39.52ZM183.681 36.94C183.681 37.5267 183.495 38.0267 183.121 38.44C182.761 38.8533 182.221 39.12 181.501 39.24V39.32C182.261 39.4133 182.868 39.6733 183.321 40.1C183.788 40.5267 184.021 41.0733 184.021 41.74C184.021 42.3667 183.855 42.9267 183.521 43.42C183.201 43.9133 182.688 44.3 181.981 44.58C181.275 44.86 180.348 45 179.201 45H174.001V34.08H179.201C180.055 34.08 180.815 34.1733 181.481 34.36C182.161 34.5333 182.695 34.8267 183.081 35.24C183.481 35.6533 183.681 36.22 183.681 36.94ZM180.661 37.18C180.661 36.5133 180.135 36.18 179.081 36.18H176.981V38.34H178.741C179.368 38.34 179.841 38.2533 180.161 38.08C180.495 37.8933 180.661 37.5933 180.661 37.18ZM180.941 41.58C180.941 41.1533 180.775 40.8467 180.441 40.66C180.108 40.46 179.608 40.36 178.941 40.36H176.981V42.94H179.001C179.561 42.94 180.021 42.84 180.381 42.64C180.755 42.4267 180.941 42.0733 180.941 41.58ZM191.02 45.2C189.393 45.2 188.133 44.7533 187.24 43.86C186.36 42.9533 185.92 41.5333 185.92 39.6C185.92 38.2667 186.146 37.18 186.6 36.34C187.053 35.5 187.68 34.88 188.48 34.48C189.293 34.08 190.226 33.88 191.28 33.88C192.026 33.88 192.673 33.9533 193.22 34.1C193.78 34.2467 194.266 34.42 194.68 34.62L193.8 36.92C193.333 36.7333 192.893 36.58 192.48 36.46C192.08 36.34 191.68 36.28 191.28 36.28C189.733 36.28 188.96 37.38 188.96 39.58C188.96 40.6733 189.16 41.48 189.56 42C189.973 42.52 190.546 42.78 191.28 42.78C191.906 42.78 192.46 42.7 192.94 42.54C193.42 42.3667 193.886 42.1333 194.34 41.84V44.38C193.886 44.6733 193.406 44.88 192.9 45C192.406 45.1333 191.78 45.2 191.02 45.2ZM204.013 34.08H207.293L202.973 39.32L207.673 45H204.293L199.833 39.46V45H196.853V34.08H199.833V39.38L204.013 34.08ZM213.716 33.86C215.182 33.86 216.302 34.18 217.076 34.82C217.862 35.4467 218.256 36.4133 218.256 37.72V45H216.176L215.596 43.52H215.516C215.049 44.1067 214.556 44.5333 214.036 44.8C213.516 45.0667 212.802 45.2 211.896 45.2C210.922 45.2 210.116 44.92 209.476 44.36C208.836 43.7867 208.516 42.9133 208.516 41.74C208.516 40.58 208.922 39.7267 209.736 39.18C210.549 38.62 211.769 38.3133 213.396 38.26L215.296 38.2V37.72C215.296 37.1467 215.142 36.7267 214.836 36.46C214.542 36.1933 214.129 36.06 213.596 36.06C213.062 36.06 212.542 36.14 212.036 36.3C211.529 36.4467 211.022 36.6333 210.516 36.86L209.536 34.84C210.122 34.5333 210.769 34.2933 211.476 34.12C212.196 33.9467 212.942 33.86 213.716 33.86ZM214.136 39.98C213.176 40.0067 212.509 40.18 212.136 40.5C211.762 40.82 211.576 41.24 211.576 41.76C211.576 42.2133 211.709 42.54 211.976 42.74C212.242 42.9267 212.589 43.02 213.016 43.02C213.656 43.02 214.196 42.8333 214.636 42.46C215.076 42.0733 215.296 41.5333 215.296 40.84V39.94L214.136 39.98ZM222.966 45H219.746L222.686 40.68C222.126 40.4533 221.626 40.0867 221.186 39.58C220.759 39.06 220.546 38.3533 220.546 37.46C220.546 36.3667 220.959 35.5333 221.786 34.96C222.613 34.3733 223.673 34.08 224.966 34.08H230.046V45H227.066V40.94H225.426L222.966 45ZM223.466 37.48C223.466 37.9333 223.646 38.2933 224.006 38.56C224.366 38.8133 224.833 38.94 225.406 38.94H227.066V36.18H225.026C224.493 36.18 224.099 36.3133 223.846 36.58C223.593 36.8333 223.466 37.1333 223.466 37.48ZM118.72 60.08H122L117.68 65.32L122.38 71H119L114.54 65.46V71H111.56V60.08H114.54V65.38L118.72 60.08ZM128.423 59.86C129.889 59.86 131.009 60.18 131.783 60.82C132.569 61.4467 132.963 62.4133 132.963 63.72V71H130.883L130.303 69.52H130.223C129.756 70.1067 129.263 70.5333 128.743 70.8C128.223 71.0667 127.509 71.2 126.603 71.2C125.629 71.2 124.823 70.92 124.183 70.36C123.543 69.7867 123.223 68.9133 123.223 67.74C123.223 66.58 123.629 65.7267 124.443 65.18C125.256 64.62 126.476 64.3133 128.103 64.26L130.003 64.2V63.72C130.003 63.1467 129.849 62.7267 129.543 62.46C129.249 62.1933 128.836 62.06 128.303 62.06C127.769 62.06 127.249 62.14 126.743 62.3C126.236 62.4467 125.729 62.6333 125.223 62.86L124.243 60.84C124.829 60.5333 125.476 60.2933 126.183 60.12C126.903 59.9467 127.649 59.86 128.423 59.86ZM128.843 65.98C127.883 66.0067 127.216 66.18 126.843 66.5C126.469 66.82 126.283 67.24 126.283 67.76C126.283 68.2133 126.416 68.54 126.683 68.74C126.949 68.9267 127.296 69.02 127.723 69.02C128.363 69.02 128.903 68.8333 129.343 68.46C129.783 68.0733 130.003 67.5333 130.003 66.84V65.94L128.843 65.98ZM142.093 59.88C143.32 59.88 144.313 60.36 145.073 61.32C145.833 62.2667 146.213 63.6667 146.213 65.52C146.213 67.3733 145.82 68.7867 145.033 69.76C144.246 70.72 143.24 71.2 142.013 71.2C141.226 71.2 140.6 71.06 140.133 70.78C139.666 70.4867 139.286 70.16 138.993 69.8H138.833C138.94 70.36 138.993 70.8933 138.993 71.4V75.8H136.013V60.08H138.433L138.853 61.5H138.993C139.286 61.06 139.68 60.68 140.173 60.36C140.666 60.04 141.306 59.88 142.093 59.88ZM141.133 62.26C140.36 62.26 139.813 62.5 139.493 62.98C139.186 63.46 139.02 64.1933 138.993 65.18V65.5C138.993 66.5533 139.146 67.3667 139.453 67.94C139.773 68.5 140.346 68.78 141.173 68.78C141.853 68.78 142.353 68.5 142.673 67.94C143.006 67.3667 143.173 66.5467 143.173 65.48C143.173 63.3333 142.493 62.26 141.133 62.26ZM157.514 62.32H153.934V71H150.954V62.32H147.374V60.08H157.514V62.32ZM164.009 59.86C165.475 59.86 166.595 60.18 167.369 60.82C168.155 61.4467 168.549 62.4133 168.549 63.72V71H166.469L165.889 69.52H165.809C165.342 70.1067 164.849 70.5333 164.329 70.8C163.809 71.0667 163.095 71.2 162.189 71.2C161.215 71.2 160.409 70.92 159.769 70.36C159.129 69.7867 158.809 68.9133 158.809 67.74C158.809 66.58 159.215 65.7267 160.029 65.18C160.842 64.62 162.062 64.3133 163.689 64.26L165.589 64.2V63.72C165.589 63.1467 165.435 62.7267 165.129 62.46C164.835 62.1933 164.422 62.06 163.889 62.06C163.355 62.06 162.835 62.14 162.329 62.3C161.822 62.4467 161.315 62.6333 160.809 62.86L159.829 60.84C160.415 60.5333 161.062 60.2933 161.769 60.12C162.489 59.9467 163.235 59.86 164.009 59.86ZM164.429 65.98C163.469 66.0067 162.802 66.18 162.429 66.5C162.055 66.82 161.869 67.24 161.869 67.76C161.869 68.2133 162.002 68.54 162.269 68.74C162.535 68.9267 162.882 69.02 163.309 69.02C163.949 69.02 164.489 68.8333 164.929 68.46C165.369 68.0733 165.589 67.5333 165.589 66.84V65.94L164.429 65.98Z" fill="#043B74"/>
<g clip-path="url(#clip0)">
<path d="M78.1017 32.8038L36.1435 74.7627C34.247 76.6585 31.1729 76.6585 29.2771 74.7627L4.58594 50.0716C2.6901 48.1751 2.6901 45.101 4.58594 43.2051L46.5442 1.24621C48.4407 -0.649617 51.5148 -0.649617 53.4106 1.24621L78.1017 25.9373C79.9983 27.8332 79.9983 30.908 78.1017 32.8038Z" fill="#93B7FF"/>
<path d="M78.1017 25.9374L75.0207 22.8557C76.7091 24.5442 76.5402 27.4501 74.6444 29.3459L32.6855 71.3048C30.7897 73.2013 27.8838 73.3696 26.1953 71.6811L29.277 74.7628C31.1728 76.6586 34.2469 76.6586 36.1434 74.7628L78.1017 32.8038C79.9982 30.908 79.9982 27.8332 78.1017 25.9374Z" fill="#1876D7"/>
<path d="M12.6546 48.3447C12.3168 48.3447 11.9797 48.2156 11.7222 47.9582C11.2072 47.4432 11.2072 46.6089 11.7222 46.0939L32.2742 25.5419C32.7892 25.0269 33.6241 25.0269 34.1384 25.5419C34.6534 26.0569 34.6534 26.8918 34.1384 27.4061L13.5864 47.9588C13.3289 48.2156 12.9918 48.3447 12.6546 48.3447Z" fill="#002850"/>
<path d="M19.1859 54.8761C18.8481 54.8761 18.5109 54.747 18.2534 54.4895C17.7384 53.9745 17.7384 53.1403 18.2534 52.6253L38.8054 32.0733C39.3204 31.5583 40.1554 31.5583 40.6697 32.0733C41.1847 32.5882 41.1847 33.4232 40.6697 33.9375L20.1177 54.4895C19.8602 54.747 19.523 54.8761 19.1859 54.8761Z" fill="#002850"/>
<path d="M45.8591 10.8099L41.7474 14.9209C40.1311 16.5373 40.1311 19.1575 41.7474 20.7739C43.3638 22.3902 45.9847 22.3902 47.6011 20.7739L51.712 16.6629C53.3284 15.0465 53.3284 12.4263 51.712 10.8099C50.0957 9.19356 47.4747 9.19356 45.8591 10.8099Z" fill="#1876D7"/>
<path d="M82.063 45.1951H22.7244C20.0431 45.1951 17.8691 47.369 17.8691 50.0503V84.9691C17.8691 87.6504 20.0431 89.8243 22.7244 89.8243H82.063C84.7451 89.8243 86.9183 87.6504 86.9183 84.9691V50.0503C86.919 47.369 84.7451 45.1951 82.063 45.1951Z" fill="#B1FFFA"/>
<path d="M82.0645 45.1951H77.7188C80.4001 45.1951 82.574 47.369 82.574 50.0503V84.9691C82.574 87.6504 80.4001 89.8243 77.7188 89.8243H82.0645C84.7466 89.8243 86.9198 87.6504 86.9198 84.9691V50.0503C86.9205 47.369 84.7466 45.1951 82.0645 45.1951Z" fill="#1FC7BD"/>
<path d="M17.8691 56.1649H86.919V64.5537H17.8691V56.1649Z" fill="#3271B3"/>
<path d="M82.5723 56.1649H86.9181V64.5537H82.5723V56.1649Z" fill="#002850"/>
<path d="M69.9492 77.9578V83.1317C69.9492 83.532 70.2733 83.8561 70.6736 83.8561H78.9031C79.3034 83.8561 79.6275 83.532 79.6275 83.1317V77.9578C79.6275 77.5575 79.3034 77.2334 78.9031 77.2334H70.6736C70.2733 77.2334 69.9492 77.5575 69.9492 77.9578Z" fill="#1FC7BD"/>
<path d="M45.1367 77.9578V83.1317C45.1367 83.532 45.4615 83.8561 45.8611 83.8561H63.2676C63.6679 83.8561 63.992 83.532 63.992 83.1317V77.9578C63.992 77.5575 63.6679 77.2334 63.2676 77.2334H45.8611C45.4615 77.2334 45.1367 77.5575 45.1367 77.9578Z" fill="#1FC7BD"/>
<path d="M38.0408 85.1743H29.3691C28.6406 85.1743 28.0508 84.5838 28.0508 83.856C28.0508 83.1274 28.6406 82.5376 29.3691 82.5376H38.0408C38.7693 82.5376 39.3592 83.1274 39.3592 83.856C39.3592 84.5838 38.7693 85.1743 38.0408 85.1743Z" fill="#002850"/>
</g>
<defs>
<clipPath id="clip0">
<rect width="90" height="90" fill="white"/>
</clipPath>
</defs>
</svg>
