<svg width="40" height="40" viewBox="0 0 40 40" fill="none" xmlns="http://www.w3.org/2000/svg">
<g clip-path="url(#clip0)">
<path d="M25.6449 5.64586L22.3252 5.16351L20.8408 2.15531C20.7634 1.99844 20.6437 1.86635 20.4951 1.77399C20.3465 1.68164 20.1751 1.63269 20.0001 1.63269C19.8252 1.63269 19.6537 1.68164 19.5052 1.77399C19.3566 1.86635 19.2368 1.99844 19.1594 2.15531L17.6751 5.16351L14.3554 5.64586C14.1823 5.67102 14.0196 5.74412 13.8859 5.85687C13.7522 5.96963 13.6527 6.11756 13.5986 6.28392C13.5446 6.45028 13.5381 6.62845 13.5801 6.79828C13.622 6.96811 13.7106 7.12282 13.8358 7.24492L16.2374 9.58633L15.6703 12.8927C15.6407 13.0651 15.66 13.2423 15.7259 13.4043C15.7918 13.5663 15.9018 13.7067 16.0433 13.8095C16.1848 13.9123 16.3523 13.9735 16.5267 13.9861C16.7012 13.9987 16.8757 13.9622 17.0305 13.8809L19.9998 12.3202L22.9691 13.8811C23.1239 13.9625 23.2985 13.9989 23.4729 13.9863C23.6474 13.9737 23.8148 13.9125 23.9563 13.8097C24.0979 13.7069 24.2078 13.5666 24.2737 13.4045C24.3396 13.2425 24.3589 13.0653 24.3293 12.8929L23.7622 9.58633L26.1644 7.24492C26.2897 7.12282 26.3783 6.96811 26.4202 6.79828C26.4621 6.62845 26.4557 6.45028 26.4016 6.28392C26.3476 6.11756 26.2481 5.96963 26.1143 5.85687C25.9806 5.74412 25.818 5.67102 25.6449 5.64586Z" fill="#78FEF6"/>
<path d="M39.3088 14.1392L36.6173 12.137L36.7408 8.78448C36.7473 8.60966 36.7047 8.43654 36.6178 8.28467C36.531 8.13281 36.4034 8.00827 36.2495 7.92514C36.0956 7.842 35.9215 7.80359 35.7469 7.81424C35.5723 7.82489 35.4041 7.88419 35.2615 7.98542L32.5255 9.92651L29.3755 8.77346C29.2112 8.71331 29.0334 8.70031 28.8621 8.73595C28.6908 8.77159 28.5329 8.85444 28.4063 8.97513C28.2797 9.09582 28.1893 9.24953 28.1455 9.41889C28.1017 9.58825 28.1061 9.76649 28.1583 9.93346L29.1588 13.1353L27.0885 15.7749C26.9805 15.9125 26.9133 16.0776 26.8942 16.2515C26.8752 16.4254 26.9052 16.6011 26.9809 16.7589C27.0565 16.9166 27.1748 17.05 27.3223 17.144C27.4698 17.238 27.6407 17.2889 27.8156 17.2909L31.17 17.3287L33.0406 20.1135C33.1382 20.2587 33.2744 20.3737 33.4339 20.4455C33.5934 20.5173 33.7698 20.5431 33.9431 20.5199C34.1165 20.4967 34.28 20.4255 34.415 20.3142C34.55 20.203 34.6512 20.0562 34.7071 19.8905L35.7796 16.7119L39.0062 15.7935C39.1744 15.7456 39.3259 15.6516 39.4435 15.5221C39.5611 15.3926 39.6402 15.2327 39.6717 15.0607C39.7032 14.8886 39.6859 14.7111 39.6218 14.5483C39.5578 14.3856 39.4494 14.244 39.309 14.1396L39.3088 14.1392Z" fill="#78FEF6"/>
<path d="M10.9362 13.0776L11.9367 9.8757C11.9889 9.70872 11.9933 9.53048 11.9495 9.36112C11.9057 9.19177 11.8153 9.03805 11.6887 8.91736C11.562 8.79668 11.4042 8.71383 11.2329 8.67819C11.0616 8.64255 10.8838 8.65554 10.7195 8.7157L7.56945 9.86913L4.83352 7.92804C4.69085 7.82681 4.52271 7.76752 4.3481 7.75687C4.17349 7.74621 3.99938 7.78463 3.84547 7.86776C3.69155 7.9509 3.56397 8.07544 3.47714 8.2273C3.39031 8.37916 3.34771 8.55229 3.35414 8.7271L3.47766 12.0796L0.786173 14.0818C0.645809 14.1862 0.537458 14.3278 0.473373 14.4906C0.409288 14.6534 0.392027 14.8308 0.42354 15.0029C0.455054 15.175 0.534085 15.3348 0.651696 15.4643C0.769308 15.5938 0.920808 15.6878 1.08906 15.7357L4.31563 16.6541L5.38813 19.8327C5.44407 19.9985 5.54527 20.1452 5.68028 20.2565C5.8153 20.3677 5.97873 20.4389 6.15211 20.4621C6.19336 20.4677 6.23494 20.4705 6.27656 20.4705C6.43032 20.4704 6.58171 20.4326 6.71739 20.3603C6.85307 20.2879 6.96888 20.1833 7.05461 20.0557L8.92508 17.2708L12.2795 17.233C12.4543 17.2309 12.6251 17.18 12.7726 17.086C12.92 16.9921 13.0382 16.8587 13.1139 16.701C13.1895 16.5434 13.2195 16.3677 13.2006 16.1939C13.1816 16.02 13.1144 15.855 13.0066 15.7173L10.9362 13.0776Z" fill="#78FEF6"/>
<path d="M19.9477 15.7318C17.3067 15.7348 14.7747 16.7853 12.9072 18.6528C11.0398 20.5202 9.98931 23.0522 9.98633 25.6932C9.98633 32.0941 18.9889 39.1698 19.3721 39.4678C19.5367 39.5958 19.7392 39.6653 19.9477 39.6653C20.1562 39.6653 20.3587 39.5958 20.5233 39.4678C20.9065 39.1697 29.9091 32.0941 29.9091 25.6932C29.9061 23.0522 28.8556 20.5202 26.9881 18.6527C25.1207 16.7852 22.5887 15.7348 19.9477 15.7318Z" fill="#043B74"/>
<path d="M20 31.5625C23.2792 31.5625 25.9375 28.9042 25.9375 25.625C25.9375 22.3458 23.2792 19.6875 20 19.6875C16.7208 19.6875 14.0625 22.3458 14.0625 25.625C14.0625 28.9042 16.7208 31.5625 20 31.5625Z" fill="#EFF2FC"/>
<path d="M18.7507 27.8125C18.6275 27.8127 18.5055 27.7885 18.3918 27.7413C18.278 27.6942 18.1746 27.6251 18.0876 27.5379L16.8376 26.2879C16.6641 26.1116 16.5674 25.8739 16.5684 25.6266C16.5694 25.3793 16.6681 25.1424 16.8429 24.9675C17.0178 24.7926 17.2547 24.6939 17.502 24.6929C17.7494 24.6919 17.9871 24.7887 18.1634 24.9621L18.8201 25.6188L21.2898 23.643C21.4839 23.4876 21.7318 23.4157 21.979 23.4431C22.1014 23.4567 22.2199 23.4942 22.3278 23.5536C22.4357 23.6129 22.5308 23.693 22.6077 23.7891C22.6847 23.8852 22.7419 23.9956 22.7762 24.1138C22.8105 24.2321 22.8212 24.356 22.8076 24.4783C22.7941 24.6007 22.7565 24.7192 22.6972 24.8271C22.6378 24.935 22.5578 25.0301 22.4616 25.1071L19.3366 27.6071C19.1704 27.7403 18.9637 27.8128 18.7507 27.8125Z" fill="#93B7FF"/>
<path d="M12.1733 9.8757L11.1727 13.0776L13.2431 15.7173C13.351 15.855 13.4182 16.02 13.4371 16.1939C13.4561 16.3677 13.4261 16.5434 13.3504 16.701C13.2748 16.8587 13.1566 16.992 13.0091 17.086C12.8617 17.18 12.6909 17.2309 12.516 17.233L9.16164 17.2708L4.08203 7.86776C4.23595 7.78463 4.41005 7.74621 4.58466 7.75687C4.75927 7.76752 4.92741 7.82681 5.07008 7.92804L7.80602 9.86913L10.9561 8.7157C11.1204 8.65554 11.2982 8.64255 11.4695 8.67819C11.6407 8.71383 11.7986 8.79668 11.9252 8.91736C12.0519 9.03805 12.1422 9.19177 12.1861 9.36112C12.2299 9.53048 12.2255 9.70872 12.1733 9.8757Z" fill="#1FC7BD"/>
<path d="M39.1211 15.7417L35.7148 16.7347L34.7306 19.8262C34.6782 19.9931 34.5802 20.1419 34.4476 20.2559C34.3151 20.37 34.1533 20.4447 33.9805 20.4716C33.8077 20.4985 33.6308 20.4765 33.4699 20.4082C33.3089 20.3399 33.1703 20.2279 33.0696 20.0849L31.225 17.347L36.2255 7.92693C36.3812 8.00674 36.5114 8.12851 36.6015 8.27847C36.6915 8.42843 36.7379 8.6006 36.7352 8.77552L36.7352 12.2449L39.3882 14.0816C39.5308 14.183 39.6422 14.3222 39.7098 14.4836C39.7774 14.6449 39.7985 14.822 39.7707 14.9947C39.7429 15.1674 39.6673 15.3289 39.5525 15.4609C39.4377 15.5929 39.2883 15.6902 39.1211 15.7417Z" fill="#1FC7BD"/>
<path d="M26.2842 7.18659L23.7334 9.60684L24.369 12.9009C24.402 13.0726 24.3863 13.2502 24.3238 13.4134C24.2612 13.5767 24.1543 13.7193 24.0149 13.825C23.8756 13.9306 23.7095 13.9952 23.5354 14.0115C23.3613 14.0277 23.1861 13.995 23.0297 13.9169L20.0286 12.4179L20.0286 1.63266C20.2035 1.62904 20.3759 1.67442 20.5264 1.76367C20.6768 1.85292 20.7993 1.98249 20.88 2.13772L22.245 5.10206L25.7315 5.59862C25.9051 5.62016 26.0692 5.68985 26.2053 5.79981C26.3413 5.90976 26.4439 6.05559 26.5014 6.22081C26.5589 6.38603 26.5691 6.56404 26.5307 6.73471C26.4923 6.90538 26.4069 7.06191 26.2842 7.18659Z" fill="#1FC7BD"/>
</g>
<defs>
<clipPath id="clip0">
<rect width="40" height="40" fill="white"/>
</clipPath>
</defs>
</svg>
