<svg width="41" height="40" viewBox="0 0 41 40" fill="none" xmlns="http://www.w3.org/2000/svg">
<path fill-rule="evenodd" clip-rule="evenodd" d="M17.1912 0.130075C16.6856 0.341217 16.5732 0.620919 16.2755 2.41008C16.1273 3.30065 15.9828 4.04909 15.9544 4.07322C15.926 4.09735 15.4284 4.27085 14.8486 4.45881C14.2578 4.65027 13.3082 5.04398 12.6881 5.35436L11.5818 5.90822L10.3846 5.05584C8.95217 4.03597 8.64053 3.87965 8.18663 3.95313C7.88756 4.00146 7.69742 4.16848 5.9352 5.93071C4.17297 7.69294 4.00595 7.88307 3.95761 8.18214C3.88413 8.63605 4.04046 8.94769 5.06033 10.3801L5.91271 11.5773L5.35885 12.6836C5.04846 13.3037 4.65475 14.2533 4.46329 14.8441C4.27534 15.4239 4.10183 15.9216 4.07771 15.9499C4.05358 15.9783 3.30513 16.1228 2.41457 16.271C0.608537 16.5715 0.342267 16.6808 0.130656 17.2078C-0.043552 17.6417 -0.043552 22.3538 0.130656 22.7877C0.342267 23.3147 0.608537 23.424 2.41457 23.7245C3.30513 23.8727 4.05358 24.0172 4.07771 24.0456C4.10183 24.074 4.27534 24.5716 4.46329 25.1514C4.65475 25.7422 5.04846 26.6918 5.35885 27.3119L5.91271 28.4182L5.06033 29.6154C4.04046 31.0478 3.88413 31.3595 3.95761 31.8134C4.00595 32.1124 4.17297 32.3026 5.9352 34.0648C7.69742 35.827 7.88756 35.9941 8.18663 36.0424C8.64053 36.1159 8.95217 35.9595 10.3846 34.9397L11.5818 34.0873L12.6881 34.6412C13.3082 34.9515 14.2578 35.3452 14.8486 35.5367C15.4284 35.7247 15.926 35.8982 15.9544 35.9223C15.9828 35.9464 16.1273 36.6949 16.2755 37.5854C16.576 39.3915 16.6853 39.6577 17.2123 39.8693C17.6462 40.0435 22.3583 40.0435 22.7922 39.8693C23.3192 39.6577 23.4285 39.3915 23.729 37.5854C23.8772 36.6949 24.0217 35.9464 24.0501 35.9223C24.0784 35.8982 24.5761 35.7247 25.1559 35.5367C25.7467 35.3452 26.6963 34.9515 27.3164 34.6412L28.4227 34.0873L29.6199 34.9397C31.0523 35.9595 31.3639 36.1159 31.8179 36.0424C32.1169 35.9941 32.3071 35.827 34.0693 34.0648C35.8315 32.3026 35.9985 32.1124 36.0469 31.8134C36.1203 31.3595 35.964 31.0478 34.9441 29.6154L34.0918 28.4182L34.6456 27.3119C34.956 26.6918 35.3497 25.7422 35.5412 25.1514C35.7291 24.5716 35.9026 24.074 35.9268 24.0456C35.9509 24.0172 36.6993 23.8727 37.5899 23.7245C39.3959 23.424 39.6622 23.3147 39.8738 22.7877C40.048 22.3538 40.048 17.6417 39.8738 17.2078C39.6622 16.6808 39.3959 16.5715 37.5899 16.271C36.6993 16.1228 35.9509 15.9783 35.9268 15.9499C35.9026 15.9216 35.7291 15.4239 35.5412 14.8441C35.3497 14.2533 34.956 13.3037 34.6456 12.6836L34.0918 11.5773L34.9441 10.3801C35.964 8.94769 36.1203 8.63605 36.0469 8.18214C35.9985 7.88307 35.8315 7.69294 34.0693 5.93071C32.3071 4.16848 32.1169 4.00146 31.8179 3.95313C31.3639 3.87965 31.0523 4.03597 29.6199 5.05584L28.4227 5.90822L27.3164 5.35436C26.6963 5.04398 25.7467 4.65027 25.1559 4.45881C24.5761 4.27085 24.0784 4.09735 24.0501 4.07322C24.0217 4.04909 23.8772 3.30065 23.729 2.41008C23.4285 0.604052 23.3192 0.337782 22.7922 0.126171C22.3674 -0.0443672 17.601 -0.0410095 17.1912 0.130075ZM21.2628 7.19593C26.3952 7.71777 30.6463 11.1505 32.2544 16.0714C33.0717 18.5723 33.0717 21.4232 32.2544 23.9241C30.3901 29.6288 24.856 33.3403 18.9918 32.8188C17.7945 32.7123 17.0411 32.5653 16.0759 32.2499C12.0896 30.9473 9.05275 27.9104 7.75005 23.9241C6.93281 21.4232 6.93281 18.5723 7.75005 16.0714C8.40542 14.066 9.43302 12.3887 10.9131 10.9086C13.6658 8.15598 17.4288 6.80605 21.2628 7.19593ZM18.9871 14.2632C16.9123 14.7105 15.3199 16.6919 15.3199 18.8265C15.3199 21.353 17.4757 23.5089 20.0022 23.5089C22.1567 23.5089 24.1275 21.9097 24.5699 19.8025C24.9036 18.2131 24.4488 16.6998 23.2889 15.5398C22.1262 14.3771 20.5831 13.9191 18.9871 14.2632ZM14.1355 23.727C13.365 24.5432 12.7796 25.4761 12.3992 26.4943L12.2038 27.0172L12.9201 27.6989C14.3542 29.0636 16.1109 29.9628 18.114 30.3574C19.0378 30.5394 20.9667 30.5394 21.8905 30.3574C23.8935 29.9628 25.6503 29.0636 27.0843 27.6989L27.8007 27.0172L27.6053 26.4943C27.2249 25.4761 26.6395 24.5432 25.869 23.727L25.4458 23.2787L24.865 23.8304C22.4032 26.169 19.0053 26.5054 16.1948 24.6889C15.9338 24.5201 15.4589 24.1339 15.1395 23.8304L14.5587 23.2787L14.1355 23.727Z" fill="#1FC7BD"/>
</svg>
