<svg width="90" height="90" viewBox="0 0 90 90" fill="none" xmlns="http://www.w3.org/2000/svg">
<path d="M76.6406 45C76.6406 27.5534 62.4466 13.3594 45 13.3594C27.5534 13.3594 13.3594 27.5534 13.3594 45C13.3594 62.4466 27.5534 76.6406 45 76.6406C62.4466 76.6406 76.6406 62.4466 76.6406 45ZM20.3906 45C20.3906 32.6239 29.5743 22.3539 41.4844 20.6429V28.0267C37.3925 29.478 34.4531 33.3858 34.4531 37.9689C34.4531 43.7845 39.1845 48.5158 45 48.5158C46.9385 48.5158 48.5156 50.0929 48.5156 52.0314C48.5156 53.9699 46.9385 55.5471 45 55.5471C43.0615 55.5471 41.4844 53.9699 41.4844 52.0314H34.4531C34.4531 56.6146 37.3925 60.5224 41.4844 61.9736V69.3575C29.5743 67.6461 20.3906 57.3761 20.3906 45ZM48.5156 69.3571V61.9734C52.6075 60.5222 55.5469 56.6144 55.5469 52.0312C55.5469 46.2157 50.8155 41.4844 45 41.4844C43.0615 41.4844 41.4844 39.9073 41.4844 37.9688C41.4844 36.0302 43.0615 34.4531 45 34.4531C46.9385 34.4531 48.5156 36.0302 48.5156 37.9688H55.5469C55.5469 33.3856 52.6075 29.4778 48.5156 28.0266V20.6427C60.4257 22.3539 69.6094 32.6238 69.6094 44.9998C69.6094 57.3759 60.4257 67.6461 48.5156 69.3571Z" fill="#0075E1"/>
<path d="M82.4901 70.1276C87.3772 62.7325 90 54.0679 90 45C90 19.7664 70.2337 0 45 0C19.7663 0 0 19.7664 0 45C0 70.2336 19.7663 90 45 90V82.9688C23.7092 82.9688 7.03125 66.291 7.03125 45C7.03125 23.709 23.7092 7.03125 45 7.03125C66.2908 7.03125 82.9688 23.709 82.9688 45C82.9688 55.3296 78.9462 65.041 71.6419 72.3451L64.2422 79.7449L86.9651 76.6076L86.0034 69.6424L82.4901 70.1276Z" fill="#0075E1"/>
</svg>
