<svg width="90" height="90" viewBox="0 0 90 90" fill="none" xmlns="http://www.w3.org/2000/svg">
<path fill-rule="evenodd" clip-rule="evenodd" d="M43.7482 0.327207C43.2878 0.570553 42.7738 1.18454 41.8784 2.56127C38.7351 7.3939 37.0816 11.1111 37.0874 13.3321C37.0942 15.9892 38.8306 18.8114 41.2172 20.0454C42.1628 20.5344 42.3595 20.7121 42.3601 21.078C42.3606 21.4344 42.1944 21.599 41.5007 21.9283C41.0278 22.1529 40.3812 22.5532 40.064 22.818L39.4872 23.2994L38.5281 22.722C36.063 21.2379 32.4667 20.7237 28.9003 21.3456C26.3712 21.7866 24.4522 22.7487 21.81 24.9005C20.0225 26.3564 18.7223 26.6783 17.3855 25.9965C16.6052 25.5984 15.9832 24.5854 15.9832 23.713C15.9832 22.3751 14.6835 21.0756 13.3455 21.0756C12.4729 21.0756 11.4598 21.6975 11.0617 22.4776C9.96899 24.6192 11.6995 28.7846 14.3199 30.3201L15.0776 30.764L14.2328 32.821C13.7682 33.9525 11.986 38.3594 10.2722 42.6145C8.5585 46.8695 6.91922 50.9244 6.6296 51.6256L6.10275 52.9004H4.08997C2.41957 52.9004 1.95902 52.9607 1.38311 53.2543C0.0353911 53.9418 -0.302417 55.4121 0.260831 58.1383C1.32701 63.3 5.40638 67.3789 10.5688 68.4449C12.5341 68.8509 24.5174 68.8539 26.478 68.449C29.1126 67.9048 31.3168 66.7078 33.2027 64.7967C35.5471 62.4211 36.7721 59.7476 37.0262 56.4514C37.1171 55.2735 37.08 54.9859 36.7543 54.3476C36.1598 53.1822 35.4237 52.9004 32.9758 52.9004H30.9625L26.7254 42.2468C24.395 36.3875 22.4461 31.4225 22.3946 31.2136C22.3181 30.9047 22.4424 30.7595 23.0628 30.4329C23.4818 30.2125 24.5294 29.4787 25.3905 28.8027C27.799 26.9118 29.2898 26.3476 31.8623 26.3532C34.9999 26.3599 37.0816 27.5425 37.0874 29.3215C37.0902 30.1599 37.4749 31.5697 37.9879 32.6211C38.5446 33.7619 40.2973 35.4908 41.4376 36.0239L42.3608 36.4556V55.5364V74.6172L41.4376 75.0402C40.2984 75.5621 38.5264 77.3058 37.9817 78.4404C37.4519 79.5446 37.09 80.9396 37.0874 81.888C37.0846 82.9126 36.4766 83.9665 35.6429 84.3916C35.0723 84.6828 34.5843 84.7252 31.8098 84.7252C28.9703 84.7252 28.5562 84.763 27.9365 85.0791C27.1562 85.4772 26.5343 86.4901 26.5343 87.3626C26.5343 88.235 27.1562 89.248 27.9365 89.6461C28.6172 89.9933 28.9409 90 44.9985 90C61.0561 90 61.3798 89.9933 62.0606 89.6461C62.8408 89.248 63.4628 88.235 63.4628 87.3626C63.4628 86.4901 62.8408 85.4772 62.0606 85.0791C61.4409 84.763 61.0267 84.7252 58.1873 84.7252C55.3478 84.7252 54.9337 84.6874 54.314 84.3712C53.4727 83.942 52.9127 82.9465 52.9097 81.875C52.907 80.9257 52.5462 79.5551 52.0091 78.4545C51.4404 77.2892 49.6928 75.5594 48.5595 75.0402L47.6363 74.6172L47.637 55.5388L47.6375 36.4605L48.7798 35.8699C51.0982 34.6713 52.9014 31.812 52.9097 29.3215C52.9155 27.5425 54.9972 26.3599 58.1347 26.3532C60.7072 26.3476 62.1981 26.9118 64.6065 28.8027C65.4677 29.4787 66.5152 30.2125 66.9342 30.4329C67.5538 30.7589 67.679 30.9049 67.6028 31.2127C67.5513 31.4209 65.6018 36.3859 63.2706 42.2459L59.0319 52.9004H57.02C55.3505 52.9004 54.8897 52.9607 54.314 53.2543C52.9663 53.9418 52.6285 55.4121 53.1917 58.1383C54.2579 63.3 58.3373 67.3789 63.4997 68.4449C65.465 68.8509 77.4483 68.8539 79.4089 68.449C82.0435 67.9048 84.2477 66.7078 86.1336 64.7967C88.478 62.4211 89.703 59.7476 89.9571 56.4514C90.048 55.2735 90.0109 54.9859 89.6852 54.3476C89.0907 53.1824 88.3546 52.9004 85.9071 52.9004H83.8943L83.3678 51.6256C83.0782 50.9244 81.5339 47.1068 79.9359 43.1419C78.338 39.177 76.5559 34.7699 75.9756 33.3482L74.9207 30.7633L75.6779 30.3197C78.2866 28.7911 80.0233 24.6099 78.9353 22.4776C78.5372 21.6975 77.5241 21.0756 76.6516 21.0756C75.3135 21.0756 74.0138 22.3751 74.0138 23.713C74.0138 24.5854 73.3918 25.5984 72.6116 25.9965C71.1629 26.7353 70.0484 26.3893 67.5953 24.4392C64.7924 22.2107 62.5278 21.3337 59.0665 21.1364C56.1135 20.968 53.4638 21.5211 51.4689 22.722L50.5098 23.2994L49.9331 22.818C49.6158 22.5532 48.9692 22.1529 48.4964 21.9283C47.8014 21.5983 47.6363 21.4348 47.6363 21.0756C47.6363 20.7114 47.8032 20.5532 48.5595 20.1994C49.6997 19.6663 51.4524 17.9374 52.0091 16.7966C53.5157 13.7094 53.1235 11.2373 50.3317 6.21814C48.4819 2.89271 46.9457 0.693281 46.2114 0.318592C45.3731 -0.109021 44.5684 -0.106208 43.7482 0.327207ZM46.3654 10.0136C46.98 11.2171 47.5267 12.5293 47.5804 12.9293C47.7697 14.3412 46.4509 15.8007 44.9855 15.8007C43.7363 15.8007 42.3608 14.4666 42.3608 13.2548C42.3608 12.309 44.6519 7.62652 45.0499 7.75909C45.1587 7.79531 45.7506 8.80984 46.3654 10.0136ZM46.234 26.7043C47.0143 27.1024 47.6363 28.1154 47.6363 28.9878C47.6363 30.3317 46.3362 31.6252 44.9855 31.6252C43.692 31.6252 42.3608 30.2875 42.3608 28.9878C42.3608 28.1423 42.9831 27.1049 43.7255 26.713C44.574 26.2651 45.3676 26.2625 46.234 26.7043ZM22.0404 44.7244L25.2597 52.8125L21.8408 52.8601C19.9604 52.8865 16.9397 52.8865 15.1283 52.8601L11.8344 52.8125L15.1838 44.5051C17.2946 39.2699 18.5864 36.279 18.6771 36.4171C18.7564 36.5377 20.2699 40.2759 22.0404 44.7244ZM75.8261 47.0541L78.1913 52.9004H71.445H64.6988L65.0321 52.0652C65.2155 51.6058 66.6868 47.9069 68.302 43.8452C69.9172 39.7836 71.2813 36.3898 71.3335 36.3033C71.3855 36.2168 71.8855 37.2849 72.4445 38.677C73.0035 40.069 74.5252 43.8387 75.8261 47.0541ZM31.2822 58.2825C31.2822 58.3415 31.0316 58.8599 30.7253 59.4347C30.0868 60.6322 28.7364 61.9425 27.5176 62.5468C25.8126 63.3925 25.2787 63.4458 18.5331 63.4458C11.7869 63.4458 11.2501 63.3922 9.55135 62.5468C8.03376 61.7918 6.27297 59.8853 5.87889 58.5708L5.76019 58.1752H18.5213C25.5398 58.1752 31.2822 58.2235 31.2822 58.2825ZM84.2131 58.2825C84.2131 58.3415 83.9625 58.8599 83.6562 59.4347C83.0177 60.6322 81.6673 61.9425 80.4485 62.5468C78.7435 63.3925 78.2096 63.4458 71.464 63.4458C64.7178 63.4458 64.181 63.3922 62.4823 62.5468C60.9647 61.7918 59.2039 59.8853 58.8098 58.5708L58.6911 58.1752H71.4522C78.4707 58.1752 84.2131 58.2235 84.2131 58.2825ZM46.234 79.8043C47.1054 80.2488 47.549 81.0984 47.7019 82.6152C47.7652 83.2438 47.8647 83.9758 47.9229 84.2416L48.0289 84.7252H44.9971H41.9651L42.0859 84.1537C42.1524 83.8393 42.2472 83.1471 42.2964 82.6152C42.4292 81.1838 42.8299 80.3845 43.6661 79.8834C44.5396 79.3598 45.3159 79.3361 46.234 79.8043Z" fill="#0075E1"/>
</svg>
