<svg width="40" height="40" viewBox="0 0 40 40" fill="none" xmlns="http://www.w3.org/2000/svg">
<path d="M20 40C31.0457 40 40 31.0457 40 20C40 8.9543 31.0457 0 20 0C8.9543 0 0 8.9543 0 20C0 31.0457 8.9543 40 20 40Z" fill="#1876D7"/>
<path d="M39.9994 20C39.9994 19.7152 39.9934 19.4319 39.9816 19.15L31.2527 10.4211L7.40039 30.7903L16.2613 39.6512C17.4723 39.8801 18.7218 40 19.9994 40C31.0451 40 39.9994 31.0457 39.9994 20Z" fill="#043B74"/>
<path d="M32.5984 30.7903H7.40039V16.2174L19.9994 4.6875L32.5984 16.2174V30.7903Z" fill="#EFF2FC"/>
<path d="M32.599 16.2174L20 4.6875V30.7903H32.599V16.2174Z" fill="#E9EDF5"/>
<path d="M8.74609 10.4211H31.2527V23.7021H8.74609V10.4211Z" fill="#B1FFFA"/>
<path d="M20 10.4211H31.2533V23.7021H20V10.4211Z" fill="#74E6DF"/>
<path d="M10.5254 12.1586H29.4743V21.9645H10.5254V12.1586Z" fill="#1FC7BD"/>
<path d="M20 12.1586H29.4745V21.9645H20V12.1586Z" fill="#22BEB5"/>
<path d="M19.9988 20.542C21.3595 20.542 22.4625 18.9837 22.4625 17.0615C22.4625 15.1393 21.3595 13.5811 19.9988 13.5811C18.6382 13.5811 17.5352 15.1393 17.5352 17.0615C17.5352 18.9837 18.6382 20.542 19.9988 20.542Z" fill="#B1FFFA"/>
<path d="M22.4637 17.0615C22.4637 15.1398 21.3602 13.5819 20 13.5811V20.5419C21.3602 20.5411 22.4637 18.9832 22.4637 17.0615Z" fill="#14A49B"/>
<path d="M13.664 18.7236C14.5819 18.7236 15.326 17.9795 15.326 17.0616C15.326 16.1437 14.5819 15.3995 13.664 15.3995C12.7461 15.3995 12.002 16.1437 12.002 17.0616C12.002 17.9795 12.7461 18.7236 13.664 18.7236Z" fill="#B1FFFA"/>
<path d="M26.3359 18.7236C27.2538 18.7236 27.9979 17.9795 27.9979 17.0616C27.9979 16.1437 27.2538 15.3995 26.3359 15.3995C25.4179 15.3995 24.6738 16.1437 24.6738 17.0616C24.6738 17.9795 25.4179 18.7236 26.3359 18.7236Z" fill="#14A49B"/>
<path d="M7.40039 16.2174V30.7903H32.5984L7.40039 16.2174Z" fill="#EFF2FC"/>
<path d="M32.5984 16.2174L7.40039 30.7903H32.5984V16.2174Z" fill="#93B7FF"/>
<path d="M20 23.5039V30.7903H32.599L20 23.5039Z" fill="#93B7FF"/>
</svg>
