<svg width="90" height="90" viewBox="0 0 90 90" fill="none" xmlns="http://www.w3.org/2000/svg">
<path d="M73.125 75.9375V68.9062H59.0625V75.9375H73.125ZM58.033 20.064L53.061 15.0922L41.4844 26.6688L36.9392 22.1235L31.9672 27.0953L41.4844 36.6124L58.033 20.064ZM42.8059 55.7088L45 56.4402L47.1941 55.7088C60.6015 51.2397 69.6094 38.7418 69.6094 24.6094V0H20.3906V24.6094C20.3906 38.7418 29.3985 51.2397 42.8059 55.7088ZM27.4219 7.03125H62.5781V24.6094C62.5781 35.7005 55.5154 45.5098 45 49.0286C34.4846 45.5098 27.4219 35.7005 27.4219 24.6094V7.03125ZM79.4531 33.75H75.5822C75.0115 36.1791 74.2175 38.5316 73.2183 40.7812H79.4531C81.3916 40.7812 82.9688 42.3584 82.9688 44.2969V47.8125H69.1937C67.34 50.3981 65.176 52.7606 62.7439 54.8438H82.9688V79.4531C82.9688 81.3916 81.3916 82.9688 79.4531 82.9688H10.5469C8.60836 82.9688 7.03125 81.3916 7.03125 79.4531V54.8438H27.2559C24.8238 52.7606 22.6598 50.3981 20.8062 47.8125H7.03125V44.2969C7.03125 42.3584 8.60836 40.7812 10.5469 40.7812H16.7815C15.7825 38.5316 14.9885 36.1791 14.4176 33.75H10.5469C4.73133 33.75 0 38.4813 0 44.2969V79.4531C0 85.2687 4.73133 90 10.5469 90H79.4531C85.2687 90 90 85.2687 90 79.4531V44.2969C90 38.4813 85.2687 33.75 79.4531 33.75ZM37.9688 75.9375H52.0312V68.9062H37.9688V75.9375ZM16.875 75.9375H30.9375V68.9062H16.875V75.9375Z" fill="#0075E1"/>
</svg>
