<svg width="250" height="67" viewBox="0 0 250 67" fill="none" xmlns="http://www.w3.org/2000/svg">
<path d="M93.5492 16.3534H79.7331C79.2757 16.3531 78.8332 16.5162 78.4854 16.8132C78.1376 17.1103 77.9073 17.5218 77.8361 17.9736L72.2482 53.402C72.2225 53.5664 72.2327 53.7344 72.2782 53.8945C72.3237 54.0545 72.4033 54.2028 72.5116 54.3292C72.6199 54.4555 72.7543 54.5569 72.9055 54.6263C73.0567 54.6957 73.2212 54.7315 73.3876 54.7313H79.9836C80.4412 54.7315 80.8839 54.5681 81.2318 54.2707C81.5796 53.9732 81.8097 53.5612 81.8805 53.1091L83.3876 43.5535C83.4584 43.1016 83.6882 42.6899 84.0356 42.3925C84.383 42.0951 84.8252 41.9315 85.2826 41.9312H89.6563C98.7573 41.9312 104.01 37.5272 105.382 28.7999C106 24.9817 105.408 21.9817 103.62 19.8807C101.656 17.5736 98.1735 16.3534 93.5492 16.3534ZM95.1432 29.2928C94.3876 34.2504 90.5997 34.2504 86.9371 34.2504H84.8523L86.3149 24.9918C86.3577 24.7209 86.4958 24.4742 86.7043 24.2961C86.9128 24.118 87.178 24.0201 87.4523 24.0201H88.4078C90.9028 24.0201 93.2563 24.0201 94.4725 25.4423C95.1977 26.2908 95.42 27.5514 95.1432 29.2928ZM134.848 29.1332H128.232C127.958 29.1332 127.693 29.2311 127.484 29.4092C127.276 29.5874 127.138 29.8341 127.095 30.1049L126.802 31.9555L126.339 31.2848C124.907 29.206 121.713 28.511 118.525 28.511C111.214 28.511 104.969 34.0484 103.753 41.8161C103.121 45.6909 104.02 49.3959 106.218 51.9798C108.234 54.3555 111.119 55.3454 114.551 55.3454C120.442 55.3454 123.709 51.5575 123.709 51.5575L123.414 53.3959C123.388 53.5603 123.397 53.7284 123.442 53.8887C123.487 54.0489 123.566 54.1976 123.674 54.3243C123.782 54.451 123.916 54.5529 124.067 54.6228C124.218 54.6927 124.383 54.729 124.549 54.7293H130.509C130.967 54.7295 131.409 54.5661 131.757 54.2687C132.105 53.9712 132.335 53.5592 132.406 53.107L135.982 30.4625C136.008 30.2985 135.998 30.1308 135.954 29.9708C135.909 29.8109 135.83 29.6626 135.722 29.5362C135.614 29.4098 135.48 29.3083 135.329 29.2388C135.179 29.1692 135.014 29.1332 134.848 29.1332ZM125.626 42.01C124.988 45.7898 121.988 48.3272 118.161 48.3272C116.24 48.3272 114.705 47.7111 113.719 46.5434C112.741 45.3838 112.369 43.7333 112.681 41.8949C113.277 38.1474 116.327 35.5272 120.095 35.5272C121.974 35.5272 123.501 36.1514 124.507 37.3292C125.515 38.5191 125.915 40.1797 125.626 42.01ZM170.085 29.1332H163.436C163.123 29.1337 162.814 29.2107 162.537 29.3575C162.26 29.5043 162.023 29.7165 161.846 29.9757L152.677 43.4828L148.79 30.5029C148.67 30.1071 148.427 29.7601 148.095 29.5134C147.763 29.2667 147.361 29.1334 146.947 29.1332H140.414C140.231 29.1327 140.05 29.1761 139.886 29.2596C139.723 29.3431 139.582 29.4644 139.475 29.6134C139.368 29.7625 139.299 29.9348 139.272 30.1163C139.245 30.2977 139.262 30.4829 139.321 30.6565L146.644 52.1474L139.759 61.8667C139.637 62.039 139.565 62.2417 139.55 62.4525C139.535 62.6633 139.578 62.8741 139.675 63.0619C139.772 63.2497 139.919 63.4071 140.1 63.517C140.28 63.6269 140.488 63.6849 140.699 63.6848H147.339C147.649 63.6853 147.955 63.6105 148.23 63.4669C148.504 63.3234 148.74 63.1153 148.917 62.8606L171.03 30.9413C171.15 30.7686 171.22 30.5664 171.234 30.3566C171.247 30.1468 171.202 29.9374 171.105 29.7512C171.007 29.5649 170.861 29.4088 170.681 29.2999C170.501 29.191 170.295 29.1333 170.085 29.1332Z" fill="#253B80"/>
<path d="M192.096 16.3533H178.278C177.821 16.3535 177.379 16.5168 177.032 16.8138C176.684 17.1108 176.454 17.5221 176.383 17.9735L170.795 53.4019C170.769 53.566 170.779 53.7338 170.824 53.8937C170.87 54.0537 170.949 54.2019 171.057 54.3283C171.165 54.4546 171.299 54.5561 171.45 54.6256C171.6 54.6952 171.765 54.7312 171.931 54.7312H179.022C179.342 54.7307 179.651 54.6161 179.894 54.408C180.137 54.1999 180.297 53.9119 180.347 53.5958L181.933 43.5534C182.004 43.1016 182.233 42.6899 182.581 42.3924C182.928 42.095 183.37 41.9314 183.828 41.9312H188.2C197.303 41.9312 202.553 37.5271 203.927 28.7998C204.547 24.9816 203.951 21.9816 202.163 19.8806C200.202 17.5735 196.721 16.3533 192.096 16.3533ZM193.69 29.2928C192.937 34.2503 189.149 34.2503 185.484 34.2503H183.402L184.866 24.9917C184.908 24.7209 185.046 24.474 185.254 24.2957C185.462 24.1175 185.727 24.0197 186.002 24.02H186.957C189.45 24.02 191.806 24.02 193.022 25.4422C193.747 26.2907 193.967 27.5513 193.69 29.2928ZM233.394 29.1332H226.781C226.507 29.1324 226.242 29.2301 226.033 29.4084C225.825 29.5867 225.688 29.8338 225.646 30.1049L225.353 31.9554L224.889 31.2847C223.456 29.2059 220.264 28.5109 217.076 28.5109C209.765 28.5109 203.523 34.0483 202.307 41.816C201.676 45.6908 202.571 49.3958 204.769 51.9797C206.789 54.3554 209.67 55.3453 213.103 55.3453C218.994 55.3453 222.26 51.5575 222.26 51.5575L221.965 53.3958C221.939 53.5605 221.949 53.729 221.994 53.8896C222.039 54.0501 222.119 54.1989 222.227 54.3257C222.335 54.4526 222.47 54.5543 222.621 54.624C222.773 54.6936 222.938 54.7295 223.105 54.7292H229.062C229.52 54.7289 229.962 54.5653 230.309 54.2679C230.657 53.9705 230.886 53.5588 230.957 53.107L234.535 30.4625C234.56 30.2979 234.55 30.1299 234.504 29.9698C234.458 29.8098 234.379 29.6615 234.27 29.5352C234.162 29.4089 234.027 29.3076 233.876 29.2382C233.725 29.1688 233.56 29.133 233.394 29.1332ZM224.171 42.01C223.537 45.7898 220.533 48.3271 216.707 48.3271C214.789 48.3271 213.25 47.711 212.264 46.5433C211.286 45.3837 210.919 43.7332 211.226 41.8948C211.826 38.1473 214.872 35.5271 218.64 35.5271C220.519 35.5271 222.046 36.1514 223.052 37.3291C224.064 38.519 224.464 40.1797 224.171 42.01ZM241.194 17.3251L235.523 53.4019C235.497 53.566 235.507 53.7338 235.552 53.8937C235.597 54.0537 235.676 54.2019 235.784 54.3283C235.892 54.4546 236.026 54.5561 236.177 54.6256C236.328 54.6952 236.492 54.7312 236.658 54.7312H242.359C243.307 54.7312 244.111 54.0443 244.256 53.109L249.848 17.6826C249.874 17.5184 249.864 17.3505 249.819 17.1905C249.774 17.0305 249.695 16.8821 249.587 16.7556C249.479 16.6291 249.345 16.5275 249.194 16.4577C249.043 16.3879 248.879 16.3516 248.713 16.3513H242.329C242.055 16.3523 241.79 16.4508 241.582 16.6292C241.374 16.8077 241.236 17.0543 241.194 17.3251Z" fill="#179BD7"/>
<path d="M14.8733 61.616L15.9298 54.9049L13.5763 54.8504H2.33789L10.148 5.32902C10.1713 5.17771 10.2481 5.0398 10.3646 4.94041C10.481 4.84103 10.6293 4.7868 10.7824 4.78761H29.7319C36.0228 4.78761 40.3643 6.0967 42.6309 8.68055C43.6936 9.89267 44.3703 11.1593 44.6976 12.5533C45.041 14.0159 45.0471 15.7634 44.7117 17.8947L44.6875 18.0503V19.4159L45.7501 20.018C46.5614 20.4289 47.2905 20.9849 47.9017 21.6584C48.8107 22.6947 49.3986 24.0119 49.6471 25.5735C49.9037 27.1796 49.8188 29.0907 49.3986 31.2543C48.9138 33.7432 48.1299 35.9109 47.0713 37.6847C46.1373 39.2737 44.8815 40.6499 43.3845 41.7251C41.9784 42.7231 40.3077 43.4806 38.4188 43.9655C36.5885 44.4423 34.5016 44.6827 32.2127 44.6827H30.738C29.6834 44.6827 28.6592 45.0625 27.8551 45.7433C27.0522 46.4314 26.5196 47.3821 26.3521 48.4261L26.241 49.0302L24.3743 60.8585L24.2895 61.2928C24.2672 61.4302 24.2289 61.4989 24.1723 61.5453C24.1175 61.5901 24.0491 61.6151 23.9784 61.616H14.8733Z" fill="#253B80"/>
<path d="M46.7553 18.2079C46.6987 18.5695 46.6341 18.9392 46.5614 19.319C44.0624 32.1493 35.5128 36.5817 24.5936 36.5817H19.034C17.6987 36.5817 16.5734 37.5514 16.3653 38.8686L13.5188 56.9211L12.7128 62.0383C12.6807 62.2413 12.6929 62.4488 12.7487 62.6466C12.8045 62.8444 12.9025 63.0278 13.0359 63.184C13.1694 63.3403 13.3351 63.4658 13.5217 63.5519C13.7083 63.638 13.9113 63.6827 14.1168 63.6828H23.9775C25.1451 63.6828 26.1371 62.8343 26.3209 61.6828L26.4179 61.1818L28.2744 49.3999L28.3936 48.7534C28.5755 47.5979 29.5694 46.7494 30.7371 46.7494H32.2118C41.7654 46.7494 49.2442 42.8706 51.4301 31.6463C52.3432 26.9574 51.8705 23.0422 49.4543 20.2887C48.6885 19.4369 47.7739 18.7318 46.7553 18.2079Z" fill="#179BD7"/>
<path d="M44.1411 17.1654C43.3432 16.9346 42.5314 16.7544 41.7108 16.626C40.0892 16.3768 38.4503 16.2572 36.8098 16.2684H21.9572C21.3919 16.268 20.8452 16.4698 20.4158 16.8373C19.9863 17.2049 19.7026 17.7139 19.6158 18.2725L16.4561 38.2846L16.3652 38.8685C16.4637 38.2314 16.7869 37.6506 17.2764 37.2312C17.7658 36.8117 18.3893 36.5813 19.0339 36.5816H24.5935C35.5128 36.5816 44.0623 32.1473 46.5613 19.3189C46.636 18.9391 46.6987 18.5694 46.7552 18.2078C46.0958 17.862 45.4086 17.5721 44.7007 17.3412C44.5151 17.2796 44.3286 17.221 44.1411 17.1654Z" fill="#222D65"/>
<path d="M19.6155 18.2725C19.7015 17.7138 19.9851 17.2045 20.4148 16.8371C20.8444 16.4697 21.3916 16.2687 21.9569 16.2704H36.8094C38.569 16.2704 40.2115 16.3856 41.7105 16.628C42.7248 16.7874 43.7252 17.0259 44.7024 17.3411C45.4398 17.5856 46.1246 17.8745 46.7569 18.2078C47.5004 13.4664 46.7509 10.2381 44.1872 7.31484C41.361 4.09665 36.2599 2.71887 29.7327 2.71887H10.7831C9.44977 2.71887 8.31239 3.68857 8.10633 5.00777L0.213379 55.0382C0.176615 55.2705 0.190602 55.508 0.254379 55.7343C0.318156 55.9607 0.430209 56.1706 0.582829 56.3495C0.73545 56.5284 0.925016 56.6721 1.13849 56.7708C1.35196 56.8695 1.58427 56.9207 1.81944 56.921H13.5185L16.4558 38.2846L19.6155 18.2725Z" fill="#253B80"/>
</svg>
