<svg width="40" height="40" viewBox="0 0 40 40" fill="none" xmlns="http://www.w3.org/2000/svg">
<path d="M39.3316 23.0884C39.5967 23.0462 39.8022 22.8342 39.8364 22.5679C39.9442 21.7272 40 20.8701 40 20C40 19.1299 39.9442 18.2729 39.8364 17.4321C39.8023 17.1659 39.5968 16.9538 39.3316 16.9116L35.9756 16.3783C35.56 14.5372 34.8343 12.8139 33.8563 11.2656L35.8517 8.51573C36.0094 8.29851 36.0046 8.00322 35.8406 7.79074C34.7906 6.4305 33.5694 5.20934 32.2092 4.15936C31.9967 3.99533 31.7015 3.99058 31.4842 4.14817L28.7343 6.14366C27.1861 5.16563 25.4628 4.43992 23.6216 4.02431L23.0883 0.66833C23.0461 0.403219 22.8341 0.197746 22.5678 0.163541C21.7271 0.0557747 20.8701 0 20 0C19.1299 0 18.2729 0.0557746 17.4321 0.163622C17.1659 0.197746 16.9538 0.403219 16.9116 0.66841L16.3783 4.02431C14.5372 4.43992 12.8139 5.16563 11.2656 6.14366L8.51573 4.14817C8.29851 3.9905 8.00322 3.99533 7.79074 4.15936C6.4305 5.20934 5.20934 6.4305 4.15936 7.79074C3.99533 8.00322 3.99058 8.29843 4.14817 8.51573L6.14366 11.2656C5.16563 12.8138 4.43992 14.5371 4.02431 16.3783L0.66833 16.9116C0.403219 16.9538 0.197746 17.1658 0.163541 17.4321C0.0557747 18.2729 0 19.1299 0 20C0 20.8701 0.0557746 21.7271 0.163622 22.5679C0.197746 22.8341 0.403219 23.0462 0.66841 23.0884L4.02439 23.6217C5.4099 29.7592 10.2409 34.5901 16.3783 35.9757L16.9117 39.3317C16.9539 39.5968 17.1659 39.8022 17.4322 39.8365C18.2729 39.9443 19.13 40.0001 20.0001 40.0001C20.8702 40.0001 21.7272 39.9443 22.568 39.8365C22.8342 39.8023 23.0463 39.5969 23.0884 39.3317L23.6218 35.9757C25.4629 35.5601 27.1862 34.8344 28.7345 33.8563L31.4843 35.8518C31.7016 36.0095 31.9969 36.0047 32.2093 35.8406C33.5696 34.7907 34.7907 33.5695 35.8407 32.2093C36.0047 31.9968 36.0095 31.7016 35.8519 31.4843L33.8564 28.7344C34.8344 27.1862 35.5602 25.4629 35.9758 23.6217L39.3316 23.0884ZM20 30.3421C14.2882 30.3421 9.65795 25.7118 9.65795 20C9.65795 14.2882 14.2882 9.65795 20 9.65795C25.7118 9.65795 30.3421 14.2882 30.3421 20C30.3421 25.7118 25.7118 30.3421 20 30.3421Z" fill="#56AAF8"/>
<path d="M20 6.03625V9.65799C25.7118 9.65799 30.3421 14.2882 30.3421 20C30.3421 25.7118 25.7118 30.3421 20 30.3421V33.9638C27.712 33.9638 33.9638 27.712 33.9638 20C33.9638 12.2881 27.712 6.03625 20 6.03625Z" fill="#043B74"/>
<path d="M20.0009 6.03625C12.2889 6.03625 6.03711 12.2881 6.03711 20C6.03711 27.712 12.2889 33.9638 20.0009 33.9638C26.3794 33.9638 31.5502 27.712 31.5502 20C31.5502 12.2881 26.3794 6.03625 20.0009 6.03625ZM20.0009 29.1348C14.9559 29.1348 10.8661 25.045 10.8661 20C10.8661 14.955 14.9559 10.8652 20.0009 10.8652C21.1914 10.8652 22.3286 11.0932 23.3715 11.5075L21.4626 18.5383L28.4934 16.6294C28.9077 17.6723 29.1357 18.8095 29.1357 20C29.1357 25.045 25.0459 29.1348 20.0009 29.1348Z" fill="#1876D7"/>
<path d="M4.45919 36.5762L0.353516 39.6471C0.75424 40.0478 1.36599 40.1066 1.8303 39.8262L4.21348 38.3852L4.45919 36.5762Z" fill="#002850"/>
<path d="M1.27763 39.2744L4.45848 36.5764L4.62114 35.379L1.61486 35.7873L0.173731 38.1705C-0.106752 38.6347 -0.0479996 39.2465 0.352805 39.6473C0.486407 39.7809 0.874656 39.6161 1.27763 39.2744Z" fill="#424247"/>
<path d="M10.5975 34.5254L27.0805 13.4696L3.34766 37.5193L4.21365 38.3853L10.5975 34.5254Z" fill="#7C90D5"/>
<path d="M24.254 15.1188L5.47519 29.4035L1.61523 35.7873L3.34723 37.5193L25.631 16.4958L24.254 15.1188Z" fill="#EFF2FC"/>
<path d="M26.4587 13.5406L17.5849 20L10.5959 29.4034C9.18157 30.8178 9.18157 33.111 10.5959 34.5254L28.4919 16.6293C28.0283 15.4624 27.3316 14.4136 26.4587 13.5406Z" fill="#1FC7BD"/>
<path d="M5.47461 29.4034C6.88894 30.8178 9.18213 30.8178 10.5965 29.4034L26.4592 13.5407C25.5862 12.6678 24.5374 11.9709 23.3705 11.5074L5.47461 29.4034Z" fill="#B1FFFA"/>
</svg>
