<svg width="60" height="40" viewBox="0 0 60 40" fill="none" xmlns="http://www.w3.org/2000/svg">
<path fill-rule="evenodd" clip-rule="evenodd" d="M28.3427 0.0567947C27.988 0.0774738 27.0647 0.170585 26.2908 0.263808C21.3196 0.862494 17.9689 2.2082 17.0773 3.96402C16.8189 4.47261 16.8163 4.52548 16.8932 7.54249L16.9711 10.6047L16.3546 10.5169C15.1951 10.3517 12.4121 10.4226 11.3996 10.643C7.17931 11.5617 3.87417 13.8703 1.79163 17.3541C-0.470773 21.1388 -0.601276 26.1503 1.46133 30.0462C2.48718 31.9839 4.23132 33.9397 5.98637 35.1206C10.8882 38.4186 17.4121 38.4714 22.3524 35.253L23.3387 34.6105L24.2479 34.7851C25.4774 35.0212 27.7435 35.272 29.4794 35.3638L30.9092 35.4395L31.2154 36.0364C32.0479 37.6584 34.8218 38.8849 39.137 39.5387C45.6819 40.5304 53.1971 39.8846 57.363 37.9725C58.411 37.4916 59.6546 36.3488 59.8601 35.6781C59.9632 35.3422 60.0008 33.4119 60 28.5242L59.9988 21.8305L59.7248 21.2694C59.0073 19.8005 56.6592 18.6224 53.0436 17.9172C51.7357 17.6621 49.4791 17.3999 47.1912 17.2373L46.2825 17.1726V11.066C46.2825 5.64729 46.2606 4.90228 46.0874 4.4526C45.6896 3.41976 44.9869 2.74608 43.5842 2.05283C41.6775 1.11053 38.2783 0.356138 34.7454 0.0911107C33.35 -0.0135141 29.867 -0.032181 28.3427 0.0567947ZM33.3169 2.32512C35.6768 2.44461 36.7558 2.56332 38.5438 2.90055C41.4114 3.44123 43.9132 4.54772 43.6646 5.1653C43.4555 5.68485 41.6889 6.46953 39.6304 6.957C35.2831 7.98659 28.8395 8.07858 24.1833 7.17754C22.002 6.75546 19.7707 5.86928 19.3425 5.25517C19.1775 5.01842 19.185 4.97829 19.4445 4.7136C19.8816 4.26749 20.5585 3.93518 21.8938 3.51109C23.9813 2.84835 26.2413 2.48463 29.2221 2.33194C30.125 2.28566 30.9428 2.24128 31.0396 2.23324C31.1363 2.22519 32.1611 2.26655 33.3169 2.32512ZM16.676 12.9083C20.2103 13.5569 23.2863 15.8289 24.9723 19.036C26.7912 22.4958 26.5685 26.7 24.3894 30.0355C23.7321 31.0418 22.2384 32.5617 21.236 33.2443C18.9139 34.8256 15.8182 35.6065 13.0762 35.3026C10.2844 34.9932 8.03209 33.9971 6.04676 32.1937C3.96997 30.3074 2.69155 27.772 2.44192 25.0441C1.7445 17.4237 8.74711 11.4534 16.676 12.9083ZM43.8202 15.7772V17.269L42.3252 17.3421C39.3925 17.4856 36.0922 18.1034 34.1574 18.8713C33.2354 19.2372 32.034 19.9257 31.7581 20.2462C31.6236 20.4025 31.3611 20.4332 30.1605 20.4332C28.5294 20.4332 27.991 20.3606 27.991 20.1406C27.991 19.8209 27.1177 17.9265 26.5695 17.057C26.255 16.5581 25.9977 16.1427 25.9977 16.134C25.9977 16.1252 26.3011 16.1577 26.6719 16.2062C28.0212 16.3828 33.1916 16.4448 34.9259 16.3052C38.613 16.0084 41.0549 15.4554 43.7909 14.2978C43.8069 14.291 43.8202 14.9568 43.8202 15.7772ZM13.9454 14.7552C13.4881 14.8711 13.1008 15.4066 13.1003 15.9237C13.0998 16.2467 13.038 16.304 12.367 16.6048C11.4288 17.0255 10.6964 17.7272 10.2382 18.6448C9.90756 19.3069 9.87532 19.4706 9.87532 20.4891C9.87532 21.4625 9.91483 21.6864 10.1813 22.2217C10.6028 23.0682 11.3133 23.7936 12.1254 24.2062C12.7336 24.5153 13.2889 24.6499 14.8363 24.8635C15.336 24.9324 16.0949 25.5849 16.2727 26.0985C16.7249 27.4047 15.6969 28.8056 14.2801 28.8142C13.2895 28.8202 12.3252 27.9852 12.1942 27.0083C12.067 26.0596 11.7102 25.6868 10.9293 25.6868C10.61 25.6868 10.4123 25.7725 10.1464 26.026C9.80848 26.3481 9.793 26.4027 9.83627 27.1158C9.92585 28.5915 10.9861 30.0621 12.4097 30.685L13.0748 30.9761L13.1231 31.6995C13.1663 32.3451 13.212 32.4576 13.5479 32.7436C14.4714 33.5303 15.5621 32.8326 15.5621 31.4552C15.5621 30.9606 15.5669 30.9547 16.1982 30.6792C17.988 29.8981 19.0986 27.8942 18.7329 26.106C18.4497 24.7214 17.5514 23.5694 16.2737 22.9522C15.9054 22.7743 15.2475 22.6015 14.5673 22.5042C13.3377 22.3282 13.1801 22.269 12.7262 21.8121C11.3018 20.3786 12.8146 18.0083 14.8246 18.5243C15.0844 18.591 15.4372 18.7508 15.6087 18.8793C15.9867 19.1627 16.3829 19.8718 16.3829 20.2647C16.3829 20.697 16.6818 21.2926 16.9734 21.4415C17.3428 21.6299 17.9473 21.6044 18.2979 21.3854C18.7386 21.1101 18.8857 20.5806 18.7359 19.8082C18.457 18.3698 17.5293 17.178 16.2337 16.5938C15.6799 16.3441 15.5621 16.2418 15.5621 16.0112C15.5621 15.6752 15.2868 15.0143 15.1012 14.905C14.7994 14.7272 14.3075 14.6633 13.9454 14.7552ZM48.2172 19.6517C52.3488 19.9393 55.9039 20.8093 57.1703 21.8428C57.7525 22.3177 57.711 22.4685 56.8536 22.993C53.4856 25.0533 43.7186 25.7027 37.4072 24.2861C35.3339 23.8207 33.4705 23.0158 33.1515 22.4478C33.0377 22.245 33.0703 22.1663 33.3845 21.8865C34.5966 20.8071 38.0301 19.9587 42.589 19.6122C43.6604 19.5309 46.7969 19.5528 48.2172 19.6517ZM30.6226 22.7966C30.6435 22.8185 30.6991 23.7337 30.7458 24.8304L30.8311 26.8243L29.6162 26.7446C28.9481 26.7007 28.386 26.6523 28.3671 26.6368C28.3484 26.6215 28.3875 26.2883 28.4542 25.8964C28.5208 25.5045 28.5758 24.6109 28.5763 23.9106L28.5772 22.6373L29.5809 22.697C30.133 22.7299 30.6016 22.7747 30.6226 22.7966ZM30.7612 29.0837C30.7694 29.0905 30.7958 30.0015 30.8198 31.1081L30.8637 33.1201L29.7498 33.0846C28.6975 33.051 25.5141 32.7524 25.4382 32.68C25.4189 32.6616 25.6952 32.2422 26.0523 31.748C26.4093 31.254 26.9189 30.4175 27.1849 29.8893L27.6682 28.929L29.2074 29.0001C30.0538 29.0392 30.7531 29.0769 30.7612 29.0837ZM57.4474 35.1776C56.7081 36.1216 53.2685 37.1412 49.4483 37.5489C47.5356 37.753 42.8503 37.7247 40.9212 37.4976C37.2405 37.0641 34.3707 36.1973 33.5545 35.2726C33.2789 34.9603 33.2674 34.8826 33.2674 33.3351C33.2674 32.4483 33.3079 31.7229 33.3575 31.7229C33.4071 31.7229 33.8224 31.873 34.2806 32.0564C36.5917 32.9822 40.0015 33.5107 44.2033 33.5944C49.4044 33.698 53.6196 33.1363 56.5422 31.9502L57.5975 31.5219L57.6299 33.2124C57.6587 34.7076 57.6377 34.9347 57.4474 35.1776Z" fill="#1FC7BD"/>
</svg>
