<svg width="90" height="90" viewBox="0 0 90 90" fill="none" xmlns="http://www.w3.org/2000/svg">
<path d="M59.0625 30.9375C59.0625 23.1834 52.7541 16.875 45 16.875C37.2459 16.875 30.9375 23.1834 30.9375 30.9375C30.9375 38.6916 37.2459 45 45 45C52.7541 45 59.0625 38.6916 59.0625 30.9375ZM45 37.9688C41.123 37.9688 37.9688 34.8145 37.9688 30.9375C37.9688 27.0605 41.123 23.9062 45 23.9062C48.877 23.9062 52.0312 27.0605 52.0312 30.9375C52.0312 34.8145 48.877 37.9688 45 37.9688ZM86.4844 2.8125H3.51562C1.57395 2.8125 0 4.38645 0 6.32812V55.5469C0 57.4886 1.57395 59.0625 3.51562 59.0625H45C46.9417 59.0625 48.5156 57.4886 48.5156 55.5469C48.5156 53.6052 46.9417 52.0312 45 52.0312H20.7403C19.3387 45.1538 13.9087 39.7238 7.03125 38.3222V23.5529C13.9089 22.1513 19.3387 16.7214 20.7403 9.84393H69.2596C70.6611 16.7214 76.0911 22.1514 82.9686 23.5529V38.289C82.9686 40.2307 84.5425 41.8046 86.4842 41.8046C88.4259 41.8046 89.9998 40.2307 89.9998 38.289V6.32812C90 4.38645 88.4261 2.8125 86.4844 2.8125ZM13.4578 52.0312H7.03125V45.6047C10.0227 46.6657 12.3968 49.0398 13.4578 52.0312ZM7.03125 16.2703V9.84375H13.4578C12.3968 12.8352 10.0227 15.2093 7.03125 16.2703ZM82.9688 16.2703C79.9771 15.2093 77.6032 12.8354 76.5422 9.84375H82.9688V16.2703ZM88.0566 52.4023C87.7393 52.2438 80.1937 48.5156 72.4219 48.5156C64.6501 48.5156 57.1045 52.2438 56.7872 52.4023C55.5961 52.9979 54.8438 54.2153 54.8438 55.5469V60.9182C54.8438 66.2994 56.3391 71.5632 59.1683 76.1407C61.9973 80.7182 66.0368 84.4098 70.8499 86.8163C71.3447 87.0636 71.8835 87.1873 72.4221 87.1873C72.9606 87.1873 73.4994 87.0636 73.9942 86.8161C78.8073 84.4096 82.8466 80.718 85.6756 76.1405C88.5046 71.5632 90 66.2994 90 60.9182V55.5469C90 54.2153 89.2477 52.9979 88.0566 52.4023ZM82.9688 60.9182C82.9688 68.6735 78.9708 75.7018 72.4219 79.6611C65.873 75.7018 61.875 68.6735 61.875 60.9182V57.8431C64.4393 56.8339 68.5912 55.5469 72.4219 55.5469C76.4589 55.5469 80.614 56.9196 82.9688 57.851V60.9182Z" fill="#0075E1"/>
</svg>
