<svg width="199" height="90" viewBox="0 0 199 90" fill="none" xmlns="http://www.w3.org/2000/svg">
<g clip-path="url(#clip0)">
<path d="M97.043 50.6909H100.152V57.6519H102.395L106.423 50.6909H109.816L104.984 58.8616V58.9156L110.107 67.8365H106.592L102.45 60.3551H100.206V67.8297H97.097V50.6909H97.043ZM117.067 55.2324C120.805 55.2324 123.853 57.9357 123.853 61.6797C123.853 65.4778 120.859 68.1203 117.122 68.1203C113.384 68.1203 110.39 65.4778 110.39 61.6797C110.33 57.8816 113.323 55.2324 117.067 55.2324ZM126.265 55.523H129.205V65.1872H133.057V55.523H135.99V65.1872H139.843V55.523H142.782V67.8297H126.38V55.523H126.265ZM151.473 55.2324C154.974 55.2324 156.934 57.8208 156.934 61.0445C156.924 61.4499 156.886 61.8542 156.819 62.2542H148.358C148.534 64.383 150.203 65.5319 152.041 65.5319C153.324 65.4773 154.556 65.013 155.555 64.2073L156.758 66.397C155.361 67.5392 153.616 68.1688 151.811 68.1811C147.729 68.1811 145.195 65.2413 145.195 61.7338C145.195 57.8816 147.783 55.2324 151.467 55.2324H151.473ZM158.367 65.2413C159.867 65.0115 160.962 63.7545 160.962 59.3752V55.523H169.937V67.8297H166.882V58.0033H163.895V59.382C163.895 64.7277 162.456 67.8365 158.367 67.9513V65.2481V65.2413ZM178.682 55.2392C182.189 55.2392 184.143 57.8208 184.143 61.0512C184.133 61.4544 184.094 61.8564 184.028 62.2542H175.573C175.742 64.383 177.411 65.5319 179.256 65.5319C180.537 65.4758 181.766 65.0117 182.764 64.2073L183.974 66.397C182.577 67.5392 180.831 68.1688 179.027 68.1811C174.938 68.1811 172.404 65.2413 172.404 61.7338C172.404 57.8816 174.999 55.2324 178.682 55.2324V55.2392ZM186.677 55.523H189.725V60.2402H191.218L194.212 55.523H197.605L193.692 61.3891V61.45L198.064 67.8297H194.503L191.279 62.8286H189.671V67.8297H186.616V55.523H186.677ZM117.067 65.4778C119.081 65.4778 120.744 63.9235 120.744 61.6257C120.763 61.1286 120.682 60.6327 120.506 60.1675C120.33 59.7022 120.062 59.2771 119.718 58.9172C119.375 58.5574 118.963 58.2701 118.506 58.0725C118.05 57.8749 117.558 57.7709 117.061 57.7667C115.054 57.7667 113.438 59.3211 113.438 61.6189C113.438 63.9167 115.047 65.4711 117.067 65.4711V65.4778ZM153.832 60.1254C153.832 58.5169 152.73 57.537 151.352 57.537C149.797 57.537 148.649 58.571 148.358 60.1254H153.832ZM181.041 60.1254C181.041 58.5169 179.946 57.537 178.567 57.537C177.013 57.537 175.864 58.571 175.573 60.1254H181.041Z" fill="#2D3540"/>
<path d="M140.018 13.3521V42.4055C140.021 42.5119 140.002 42.6177 139.963 42.7165C139.923 42.8154 139.864 42.9051 139.789 42.9804C139.713 43.0556 139.624 43.1148 139.525 43.1542C139.426 43.1936 139.32 43.2125 139.214 43.2097H133.287C133.181 43.2125 133.075 43.1936 132.976 43.1542C132.877 43.1148 132.787 43.0556 132.712 42.9804C132.637 42.9051 132.578 42.8154 132.538 42.7165C132.499 42.6177 132.48 42.5119 132.483 42.4055V13.3521C132.48 13.2451 132.499 13.1387 132.539 13.0394C132.579 12.9401 132.638 12.85 132.714 12.7747C132.79 12.6993 132.881 12.6403 132.981 12.6013C133.08 12.5623 133.187 12.5441 133.294 12.5478H139.214C139.321 12.5441 139.427 12.5623 139.527 12.6013C139.627 12.6403 139.717 12.6993 139.793 12.7747C139.869 12.85 139.929 12.9401 139.969 13.0394C140.009 13.1387 140.028 13.2451 140.025 13.3521H140.018ZM186.271 12.5478C186.501 12.5478 186.791 12.6627 187.082 12.8925C187.251 13.0615 187.251 13.3521 187.197 13.5818L177.411 42.6961C177.351 42.8453 177.249 42.9736 177.117 43.0649C176.985 43.1563 176.828 43.2066 176.668 43.2097H171.376C171.025 43.2097 170.741 43.0408 170.626 42.6961L164.929 25.7195L159.232 42.6893C159.173 42.8398 159.071 42.9695 158.939 43.0621C158.806 43.1547 158.65 43.2061 158.488 43.2097H153.183C152.845 43.2097 152.554 43.0408 152.44 42.6893L142.654 13.5818C142.6 13.3521 142.6 13.1223 142.769 12.8925C142.89 12.6627 143.174 12.5478 143.404 12.5478H150.02C150.365 12.5478 150.655 12.7776 150.764 13.1223L156.001 30.3219L161.759 13.1223C161.818 12.9718 161.92 12.8421 162.052 12.7495C162.184 12.6569 162.341 12.6055 162.503 12.6019H167.166C167.504 12.6019 167.794 12.7776 167.909 13.1223L173.667 30.3219L178.905 13.1223C178.951 12.9596 179.048 12.8161 179.182 12.7127C179.316 12.6093 179.479 12.5515 179.648 12.5478H186.271ZM196.28 12.5478C196.685 12.5478 197.03 12.8925 197.091 13.3521V42.4055C197.094 42.5125 197.075 42.6189 197.035 42.7182C196.995 42.8175 196.935 42.9076 196.859 42.9829C196.783 43.0582 196.693 43.1172 196.593 43.1562C196.493 43.1953 196.387 43.2135 196.28 43.2097H190.36C190.253 43.2135 190.146 43.1953 190.047 43.1562C189.947 43.1172 189.856 43.0582 189.78 42.9829C189.704 42.9076 189.645 42.8175 189.605 42.7182C189.565 42.6189 189.546 42.5125 189.549 42.4055V13.3521C189.546 13.2451 189.565 13.1387 189.605 13.0394C189.645 12.9401 189.704 12.85 189.78 12.7747C189.856 12.6993 189.947 12.6403 190.047 12.6013C190.146 12.5623 190.253 12.5441 190.36 12.5478H196.28ZM129.036 42.1757C129.374 42.5812 129.09 43.1557 128.57 43.1557H121.318C121.176 43.1583 121.034 43.128 120.905 43.067C120.776 43.006 120.663 42.9161 120.575 42.8042L119.365 41.3174C116.774 42.9854 113.762 43.8809 110.681 43.8991C106.504 43.7779 102.54 42.0337 99.6287 39.0368C96.7176 36.0399 95.0891 32.0264 95.0891 27.8484C95.0891 23.6703 96.7176 19.6568 99.6287 16.6599C102.54 13.6631 106.504 11.9189 110.681 11.7977C113.564 11.7967 116.395 12.5722 118.875 14.0428C121.356 15.5134 123.394 17.6248 124.777 20.1552C126.16 22.6856 126.836 25.5417 126.734 28.4235C126.632 31.3053 125.755 34.1064 124.197 36.5326L129.029 42.1757H129.036ZM68.4489 56.2733C69.9492 56.8477 70.5236 59.0915 70.6385 60.0646C70.8683 61.8488 70.3479 62.5381 69.7735 62.5381C69.199 62.5381 68.3948 61.8488 67.5298 60.4701C66.6647 59.0915 66.32 57.5371 66.7864 56.7328C67.0702 56.2125 67.7055 55.9827 68.4489 56.2733ZM59.7038 62.7747C60.6297 62.7747 61.6637 63.1802 62.5828 63.9776C64.3669 65.4779 64.8805 67.2013 63.9614 68.4651C63.4478 69.1003 62.5828 69.4991 61.6028 69.4991C60.6229 69.4991 59.5889 69.1612 58.8996 68.5259C57.2911 67.1405 56.8316 64.8427 57.8656 63.5789C58.0871 63.3093 58.3689 63.0955 58.6882 62.9547C59.0074 62.8138 59.3553 62.7499 59.7038 62.7679V62.7747ZM39.5711 79.3998C31.7443 79.3985 24.0937 77.0764 17.5865 72.7272C11.0793 68.3781 6.00779 62.1971 3.01322 54.9658C0.0186456 47.7345 -0.764521 39.7777 0.762741 32.1013C2.29 24.425 6.05911 17.3739 11.5935 11.8395C17.1279 6.30508 24.179 2.53597 31.8554 1.00871C39.5317 -0.518549 47.4886 0.264617 54.7198 3.25919C61.9511 6.25376 68.1321 11.3253 72.4813 17.8325C76.8304 24.3396 79.1525 31.9903 79.1538 39.8171C79.1492 46.9648 77.221 53.9796 73.5716 60.1255C73.4567 60.2944 73.1661 60.2404 73.112 60.0106C71.7333 50.2855 65.8064 44.9398 57.1762 43.3246C56.4328 43.2097 56.3112 42.7502 57.2911 42.6353C59.9336 42.4055 63.6776 42.4596 65.6307 42.8042C66.0576 39.1344 65.7036 35.4157 64.5919 31.8923C63.4801 28.3689 61.6358 25.1205 59.18 22.3603C56.7241 19.6 53.7123 17.3903 50.3422 15.8762C46.9721 14.3622 43.3198 13.578 39.6252 13.5751C25.1897 13.5751 13.4508 25.3208 13.4508 39.7563C13.4508 54.1918 25.1897 65.9375 39.632 65.9375H40.8349C40.4266 63.6021 40.2545 61.2315 40.3213 58.8617C40.3889 57.2465 40.7268 57.0167 41.4161 58.2805C45.0453 64.5521 50.222 70.1952 60.3458 72.4389C68.6313 74.2771 76.9169 76.4059 85.8309 87.7394C86.6419 88.7193 85.4254 89.7533 84.5063 88.9491C75.4166 80.8934 67.1378 78.2442 59.5956 78.2442C51.1412 78.305 45.3899 79.3931 39.5779 79.3931L39.5711 79.3998ZM114.648 35.7352L111.485 31.883C111.14 31.4775 111.424 30.8422 111.945 30.8422H118.615C118.96 29.9231 119.135 28.8824 119.135 27.8484C119.135 23.0771 115.567 18.9276 110.681 18.9276C105.788 18.9276 102.22 23.0771 102.22 27.8484C102.22 32.6196 105.788 36.7084 110.681 36.7084C112.059 36.7692 113.438 36.3704 114.648 35.7352Z" fill="#FF8C00"/>
</g>
<defs>
<clipPath id="clip0">
<rect width="198.063" height="90" fill="white"/>
</clipPath>
</defs>
</svg>
