<svg width="40" height="40" viewBox="0 0 40 40" fill="none" xmlns="http://www.w3.org/2000/svg">
<g clip-path="url(#clip0)">
<path d="M12.1319 38.3929C4.99789 35.3371 0 28.2522 0 20C0 8.9543 8.9543 0 20 0C31.0457 0 40 8.9543 40 20C40 30.3652 32.1151 38.8888 22.0161 39.8996L12.1319 38.3929Z" fill="#B4CDFF"/>
<path d="M39.7113 16.5883L33.6059 10.4828L26.8827 17.5059L22.2416 12.8648L21.4769 17.3215L15.0133 10.8579L6.39648 18.7554L11.8571 24.2161L10.8895 36.2433L11.0937 36.4706L13.2021 38.5558L22.0173 39.8997C32.1163 38.8888 40.0012 30.3652 40.0012 20.0001C40.0012 18.8369 39.9019 17.697 39.7113 16.5883Z" fill="#143A85"/>
<path d="M33.5986 18.7565C35.8827 16.4724 35.8827 12.7691 33.5986 10.485C31.3145 8.2009 27.6112 8.2009 25.3271 10.485C23.043 12.7691 23.043 16.4724 25.3271 18.7565C27.6112 21.0406 31.3145 21.0406 33.5986 18.7565Z" fill="#B1FFFA"/>
<path d="M33.6056 10.4828C32.4638 9.34094 30.9673 8.76984 29.4707 8.76953V20.4688C30.9673 20.4685 32.4638 19.8974 33.6056 18.7555C35.89 16.4711 35.89 12.7673 33.6056 10.4828Z" fill="#1FC7BD"/>
<path d="M28.0359 18.6649L25.0039 15.6329L26.6612 13.9757L28.0359 15.3503L32.2764 11.1097L33.9337 12.7669L28.0359 18.6649Z" fill="white"/>
<path d="M32.277 11.1097L29.4707 13.916V17.2305L33.9342 12.7669L32.277 11.1097Z" fill="#E9EDF5"/>
<path d="M14.665 18.7544C16.9491 16.4703 16.9491 12.767 14.665 10.4829C12.3809 8.19882 8.67764 8.19882 6.39354 10.4829C4.10944 12.767 4.10944 16.4703 6.39354 18.7544C8.67764 21.0385 12.3809 21.0385 14.665 18.7544Z" fill="#78BAFF"/>
<path d="M14.6683 10.4828C13.5294 9.34392 12.0377 8.77306 10.5449 8.76978V20.4685C12.0377 20.4652 13.5294 19.8944 14.6683 18.7555C16.9527 16.4711 16.9527 12.7673 14.6683 10.4828Z" fill="#1876D7"/>
<path d="M14.2918 12.5152L12.6345 10.8579L10.5307 12.9618L8.4268 10.8579L6.76953 12.5152L8.87344 14.6191L6.76953 16.723L8.4268 18.3803L10.5307 16.2763L12.6345 18.3803L14.2918 16.723L12.188 14.6191L14.2918 12.5152Z" fill="white"/>
<path d="M14.293 12.5152L12.6358 10.8579L10.5449 12.9488V12.9748V16.2634V16.2893L12.6358 18.3803L14.293 16.723L12.1892 14.6191L14.293 12.5152Z" fill="#E9EDF5"/>
<path d="M22.7723 23.4457C21.8719 23.4157 21.135 24.1365 21.135 25.0276C21.135 25.0276 21.133 30.7736 21.1318 30.7748L20.1483 30.2654C20.1494 30.2641 20.1511 24.9725 20.1511 24.9725C20.1511 24.9344 20.1521 24.8965 20.1541 24.8589C20.2045 23.9016 20.9923 22.8191 22.0163 22.6625C22.019 22.6621 22.636 22.6625 22.636 22.6625V13.8827C22.636 13.05 21.961 12.3751 21.1284 12.3751C20.2957 12.3751 19.6208 13.0501 19.6208 13.8827V23.2431H19.049V20.9357C19.049 20.1182 18.4133 19.422 17.5963 19.3929C16.7386 19.3625 16.0338 20.0487 16.0338 20.8996V23.9302H15.5595V22.2559C15.5595 21.4721 14.9241 20.8367 14.1402 20.8367C13.3564 20.8367 12.721 21.4721 12.721 22.2559V24.7892H12.2467V23.6576C12.2467 22.9825 11.6942 22.4093 11.0193 22.4218C10.3648 22.4341 9.83789 22.9686 9.83789 23.6261V24.6457V30.6916V33.7593H9.85664C9.99016 35.2706 10.8726 36.5665 12.1302 37.2739C12.1313 37.2744 12.132 37.2755 12.132 37.2768V38.3929C14.5469 39.4273 17.2066 40 20 40C20.6806 40 21.3532 39.966 22.0163 39.8997C22.0163 38.6532 22.0163 37.4819 22.0163 37.4819C22.0163 37.4805 22.0171 37.4794 22.0183 37.4789C23.3616 36.8784 24.3006 35.5304 24.3006 33.9663V25.0649C24.3006 24.2055 23.6312 23.4743 22.7723 23.4457Z" fill="white"/>
<path d="M22.7723 23.4457C21.872 23.4157 21.1351 24.1365 21.1351 25.0276C21.1351 25.0276 21.133 30.7736 21.1319 30.7748L20.1484 30.2654C20.1495 30.2641 20.1512 24.9725 20.1512 24.9725C20.1512 24.9344 20.1522 24.8965 20.1541 24.8589C20.2046 23.9016 20.9924 22.8191 22.0164 22.6625C22.0191 22.6621 22.6361 22.6625 22.6361 22.6625V13.8827C22.6361 13.05 21.9611 12.3751 21.1284 12.3751C20.2958 12.3751 19.6209 13.0501 19.6209 13.8827V23.2431H19.0491V20.9357C19.0491 20.1182 18.4134 19.422 17.5964 19.3929C16.7387 19.3625 16.0338 20.0487 16.0338 20.8996V23.9302H15.8262L15.9197 39.5834C17.2199 39.8491 18.6215 40 20.0001 40C20.6807 40 21.3533 39.966 22.0164 39.8997C22.0164 38.6532 22.0164 37.4819 22.0164 37.4819C22.0164 37.4805 22.0172 37.4794 22.0184 37.4789C23.3617 36.8784 24.3007 35.5304 24.3007 33.9663V25.0649C24.3007 24.2055 23.6312 23.4743 22.7723 23.4457Z" fill="#D7EDEC"/>
</g>
<defs>
<clipPath id="clip0">
<rect width="40" height="40" fill="white"/>
</clipPath>
</defs>
</svg>
