<svg width="90" height="90" viewBox="0 0 90 90" fill="none" xmlns="http://www.w3.org/2000/svg">
<g clip-path="url(#clip0)">
<path d="M83.2301 24.4191L83.2274 24.3491C83.1882 23.4846 83.1621 22.57 83.1463 21.5524C83.0729 16.59 79.1281 12.4852 74.165 12.2078C63.8173 11.6304 55.8124 8.25619 48.9728 1.58957L48.9144 1.53395C46.6835 -0.511561 43.3183 -0.511561 41.0867 1.53395L41.0283 1.58957C34.1887 8.25619 26.1838 11.6304 15.836 12.2085C10.8737 12.4852 6.92822 16.59 6.85475 21.553C6.83964 22.5638 6.81286 23.4784 6.77373 24.3491L6.76961 24.5118C6.56842 35.0634 6.31848 48.1955 10.7116 60.115C13.1272 66.6697 16.7857 72.3674 21.5846 77.051C27.0503 82.3849 34.2093 86.6194 42.8623 89.6365C43.1439 89.7347 43.4364 89.8144 43.7344 89.8741C44.1546 89.9579 44.5776 89.9997 45.0005 89.9997C45.4235 89.9997 45.8472 89.9579 46.2667 89.8741C46.5647 89.8144 46.8593 89.734 47.1422 89.6351C55.785 86.6125 62.9364 82.3759 68.3972 77.0428C73.1941 72.3578 76.8526 66.6587 79.2702 60.1026C83.6799 48.1474 83.4306 34.9907 83.2301 24.4191ZM74.3154 58.2754C69.6819 70.8383 60.2234 79.4659 45.3995 84.6501C45.3466 84.668 45.2903 84.6837 45.2319 84.6954C45.0788 84.7256 44.923 84.7256 44.7678 84.6947C44.7101 84.6831 44.6538 84.668 44.6016 84.6501C29.7619 79.4756 20.2972 70.8527 15.6671 58.2892C11.618 47.3022 11.8473 35.2475 12.0499 24.6127L12.0513 24.5537C12.0925 23.6398 12.1199 22.6826 12.135 21.6306C12.168 19.4272 13.9231 17.6042 16.1306 17.4812C21.9863 17.1544 27.1306 16.0228 31.8575 14.0219C36.5782 12.0238 40.7708 9.20719 44.6737 5.41143C44.8721 5.24389 45.1296 5.2432 45.3274 5.41143C49.231 9.20719 53.4236 12.0238 58.1436 14.0219C62.8704 16.0228 68.0148 17.1544 73.8712 17.4812C76.0787 17.6042 77.8338 19.4272 77.8661 21.6313C77.8819 22.6888 77.9093 23.6459 77.9505 24.5537C78.1524 35.2008 78.3762 47.2651 74.3154 58.2754Z" fill="#0075E1"/>
<path d="M44.9996 22.5721C32.6317 22.5721 22.5703 32.6342 22.5703 45.0014C22.5703 57.3692 32.6317 67.4313 44.9996 67.4313C57.3668 67.4313 67.4289 57.3692 67.4289 45.0014C67.4289 32.6342 57.3668 22.5721 44.9996 22.5721ZM44.9996 62.1496C35.5438 62.1496 27.8513 54.4572 27.8513 45.0014C27.8513 35.5456 35.5438 27.8531 44.9996 27.8531C54.4547 27.8531 62.1472 35.5456 62.1472 45.0014C62.1472 54.4572 54.4547 62.1496 44.9996 62.1496Z" fill="#0075E1"/>
<path d="M51.4464 38.0381L41.0286 48.4558L38.201 45.6282C37.1697 44.5969 35.4977 44.5969 34.4664 45.6282C33.4357 46.6596 33.4357 48.3316 34.4664 49.3622L39.1616 54.0575C39.6773 54.5732 40.353 54.8307 41.0286 54.8307C41.7043 54.8307 42.3799 54.5732 42.8956 54.0575L55.1811 41.772C56.2117 40.7407 56.2117 39.0687 55.1811 38.0381C54.1497 37.006 52.4777 37.006 51.4464 38.0381Z" fill="#0075E1"/>
</g>
<defs>
<clipPath id="clip0">
<rect width="90" height="90" fill="white"/>
</clipPath>
</defs>
</svg>
