<svg width="90" height="90" viewBox="0 0 90 90" fill="none" xmlns="http://www.w3.org/2000/svg">
<path fill-rule="evenodd" clip-rule="evenodd" d="M73.7597 0.172259C62.6256 0.993442 52.1771 4.34694 43.8891 9.75947C39.1196 12.8741 33.5133 17.8373 29.1793 22.7818L28.2204 23.8759L21.3631 24.4099C14.4103 24.9513 13.6318 25.0615 12.4224 25.6773C10.9862 26.4084 10.1695 27.4507 5.49849 34.514C2.94441 38.3764 0.68397 41.8588 0.475438 42.2527C0.18585 42.7997 0.0951228 43.2815 0.0919579 44.2884C0.0886172 45.4244 0.160003 45.7375 0.60643 46.5439C1.20671 47.6276 2.12435 48.418 3.19971 48.7774C3.61572 48.9163 6.3298 49.3919 9.23096 49.8341C12.1321 50.2764 14.6322 50.6751 14.7866 50.7203C15.0174 50.7878 15.0654 51.0765 15.0556 52.3382C15.041 54.2268 15.3879 55.3336 16.4329 56.7315C16.8485 57.288 20.8182 61.3526 25.2541 65.764C33.8982 74.3603 34.0374 74.4764 36.2205 74.8971C36.7524 74.9995 37.6391 75.0329 38.1912 74.971C39.1412 74.8646 39.1997 74.8806 39.2905 75.2709C39.343 75.4976 39.7441 78.0177 40.1816 80.8714C40.6189 83.725 41.0901 86.4004 41.2284 86.8165C41.5861 87.8915 42.3764 88.8097 43.4604 89.4105C44.2666 89.8571 44.5795 89.9285 45.7152 89.9252C46.7261 89.922 47.2031 89.8316 47.7582 89.5375C48.1566 89.3266 51.638 87.0664 55.4946 84.5147C62.5535 79.8448 63.5865 79.0343 64.3208 77.5911C64.9404 76.3733 65.0517 75.5881 65.5887 68.6477L66.1193 61.7884L67.2142 60.8294C67.8164 60.3019 69.4432 58.7585 70.829 57.3997C79.8715 48.5347 85.066 39.6223 87.9116 28.0909C89.2134 22.8157 89.8046 18.2328 89.963 12.1903C90.1265 5.95237 89.7954 4.27026 88.0173 2.30252C86.9859 1.16123 85.4616 0.385777 83.7819 0.147988C82.3159 -0.0597266 76.7202 -0.0461839 73.7597 0.172259ZM83.8153 5.58654C84.6143 6.11682 84.6619 6.43921 84.6465 11.2077C84.6257 17.5816 83.9913 22.4802 82.4465 28.1954C79.8175 37.9224 75.342 45.4416 67.5244 53.2662C62.7236 58.0714 57.7468 61.787 52.0846 64.7935L50.8054 65.4728L37.6813 52.3447L24.5572 39.2167L25.2262 37.9272C28.0389 32.5055 31.9337 27.2776 36.7401 22.4728C39.5551 19.6585 41.4746 17.9917 44.3856 15.8335C51.8439 10.3043 61.0882 6.86695 71.6498 5.69524C75.0843 5.31428 75.5731 5.29124 79.7379 5.31235C82.6487 5.32712 83.5117 5.38516 83.8153 5.58654ZM59.9573 15.2647C53.4646 16.1121 48.5197 21.7397 48.5314 28.2675C48.5387 32.1664 49.9576 35.4239 52.7932 38.0499C54.315 39.4592 56.8583 40.7646 58.9721 41.2212C60.8058 41.6173 63.7441 41.4945 65.4958 40.9486C69.8242 39.6 73.1505 36.1453 74.3983 31.7029C74.8873 29.9621 74.9306 27.0469 74.494 25.2529C73.2099 19.976 68.8251 16.0361 63.3958 15.2807C61.922 15.0756 61.4231 15.0733 59.9573 15.2647ZM63.0459 20.5587C67.1762 21.3109 70.1857 25.5041 69.4785 29.5206C68.7472 33.6728 65.285 36.4155 61.104 36.1545C57.1671 35.9088 54.0408 32.7705 53.8355 28.8579C53.6231 24.8106 56.1313 21.478 60.028 20.6301C61.3878 20.3341 61.7637 20.3253 63.0459 20.5587ZM23.0447 31.1414C20.3287 35.4705 18.1256 40.1696 16.7777 44.5082C16.5271 45.3152 16.3901 45.5187 16.1 45.5155C15.6341 45.5102 5.78843 43.9813 5.70895 43.9018C5.5915 43.7843 14.2461 30.8271 14.6531 30.5112C14.9918 30.2482 15.7779 30.1308 18.9191 29.874C21.0369 29.7009 23.0612 29.5491 23.4176 29.5368L24.0654 29.5145L23.0447 31.1414ZM34.0009 56.0505L45.5828 67.637L43.9348 68.1825C41.7227 68.9149 38.6132 69.6473 37.5855 69.678L36.7492 69.703L28.5288 61.4798L20.3081 53.2567L20.3424 52.334C20.3805 51.3141 21.4067 47.0581 21.9962 45.4756C22.2035 44.9194 22.3834 44.4643 22.3961 44.4643C22.4087 44.4643 27.6308 49.678 34.0009 56.0505ZM10.3738 60.4876C10.1321 60.5822 7.77651 62.8131 5.13927 65.4451C-0.0699796 70.644 -0.206949 70.8313 0.171432 72.2373C0.396492 73.0727 1.33875 73.9503 2.18026 74.1083C3.52517 74.3607 3.67884 74.2469 8.67939 69.2871C11.282 66.706 13.5122 64.3484 13.6465 64.0365C14.5849 61.8584 12.5397 59.6406 10.3738 60.4876ZM60.1507 70.5369C59.9625 72.9167 59.7204 75.0287 59.6126 75.2302C59.4264 75.5781 46.2314 84.4363 46.098 84.303C46.0162 84.2212 44.4902 74.3888 44.4872 73.9241C44.4853 73.6306 44.8443 73.4507 46.6591 72.8363C50.5772 71.5098 55.0626 69.3555 58.7641 67.0221C59.662 66.4561 60.4185 66.0417 60.4448 66.1014C60.4712 66.161 60.339 68.157 60.1507 70.5369ZM18.0223 68.4808C17.2605 68.8716 0.744631 85.4075 0.339875 86.1847C0.15297 86.5437 0 87.081 0 87.379C0 88.2517 0.621903 89.2649 1.40205 89.6631C2.27275 90.1074 2.99611 90.112 3.83129 89.6786C4.18998 89.4923 8.33476 85.4758 13.0418 80.7527C22.2728 71.4905 22.02 71.7962 21.7297 70.2484C21.4274 68.6374 19.5046 67.7205 18.0223 68.4808ZM25.7588 76.4545C25.4687 76.6364 23.1613 78.872 20.6313 81.4226C16.7335 85.3518 16.0128 86.1585 15.9108 86.7057C15.5453 88.6682 17.2647 90.3538 19.1213 89.8529C20.0656 89.598 29.442 80.1955 29.6259 79.3187C29.8802 78.1078 29.3458 76.9231 28.3014 76.3829C27.6028 76.0215 26.3953 76.0556 25.7588 76.4545Z" fill="#0075E1"/>
</svg>
