<svg width="90" height="90" viewBox="0 0 90 90" fill="none" xmlns="http://www.w3.org/2000/svg">
<path fill-rule="evenodd" clip-rule="evenodd" d="M7.14463 0.29357C3.82307 1.09821 1.05803 3.90197 0.264727 7.26971C0.0402539 8.2223 0.00492187 13.392 0.00263672 45.5533L0 82.7357L0.383906 83.4193C0.628594 83.8549 1.03131 84.2305 1.49414 84.4548C2.20746 84.8005 2.57941 84.8066 22.4684 84.8066H42.7162L44.1657 85.7881C46.8545 87.6088 50.2437 89.0108 53.5658 89.6769C55.8839 90.1415 60.6698 90.0982 63.029 89.5914C65.5956 89.0399 67.3286 88.4426 69.5628 87.3398C77.1984 83.5706 82.3214 76.5099 83.51 68.1169C83.6436 67.174 83.6824 65.5594 83.6181 63.631C83.5098 60.3831 83.2243 58.7596 82.3096 56.1889L81.7977 54.7504L85.5594 50.9994C89.3431 47.2267 90 46.3984 90 45.4014C90 44.7093 89.4354 43.5968 88.9116 43.2566C88.6883 43.1116 87.0407 42.5052 85.25 41.9091L81.9942 40.8251L80.8889 37.4913C79.6764 33.8336 79.3252 33.2557 78.117 32.9301C76.6934 32.5466 76.4005 32.7465 72.0638 37.0631L68.1024 41.0064L66.5578 40.484C64.3975 39.7532 62.0246 39.2673 59.9516 39.1315L58.1836 39.0154V27.5194V16.0233H61.091C63.658 16.0233 64.0797 15.9818 64.6921 15.6692C65.8928 15.0561 66.0943 14.4052 66.0911 11.1487C66.0895 9.32301 65.9997 7.99343 65.829 7.26971C65.0257 3.85992 62.261 1.08572 58.8686 0.285302C57.2337 -0.100307 8.73879 -0.0925669 7.14463 0.29357ZM10.8984 5.65902C11.9616 6.14138 12.4476 6.61917 12.9415 7.66728C13.3202 8.47104 13.356 8.77872 13.3576 11.2366C13.3597 14.3667 13.5461 14.9645 14.7275 15.6289L15.4287 16.0233H34.1706H52.9126L52.8674 27.8357L52.8223 39.6482L51.416 40.0352C48.4617 40.8485 45.6838 42.2115 43.1121 44.1099L41.8393 45.0495H35.2389C28.9705 45.0495 28.6035 45.0673 27.9446 45.4036C27.1605 45.804 26.543 46.8164 26.543 47.7013C26.543 48.4989 27.1823 49.5225 27.9499 49.9544C28.5739 50.3054 28.8591 50.327 32.8683 50.327H37.1243L36.7483 50.8987C35.2148 53.2298 33.6284 57.3315 33.142 60.2223L33.0309 60.882H30.6919C28.5527 60.882 28.3017 60.9161 27.7555 61.2813C26.0967 62.3903 26.2062 64.6813 27.9677 65.7197C28.4551 66.0071 28.9549 66.0828 30.6953 66.1329L32.8261 66.1945L32.9449 67.3643C33.3206 71.0619 34.7491 75.1031 36.8042 78.2826L37.6102 79.5291H21.4418H5.27344L5.2773 44.038C5.28117 8.69446 5.28258 8.54352 5.63977 7.75524C6.12176 6.6913 6.59918 6.20489 7.64648 5.71056C8.73387 5.19741 9.84234 5.17982 10.8984 5.65902ZM58.3594 5.65902C59.4225 6.14138 59.9085 6.61917 60.4025 7.66728C60.6988 8.29636 60.8173 8.85999 60.8186 9.64634L60.8203 10.7458H39.7521H18.684L18.5882 9.03063C18.5258 7.9148 18.3632 6.97734 18.1232 6.34791C17.9202 5.81576 17.7541 5.36049 17.7541 5.33639C17.7539 5.31229 26.7122 5.29417 37.6611 5.29628C57.3189 5.30015 57.5782 5.30455 58.3594 5.65902ZM19.9512 26.7808C19.7578 26.8863 18.7907 27.7714 17.8019 28.7473L16.0042 30.522L15.5167 30.0655C15.2487 29.8145 14.7762 29.4813 14.4668 29.3251C12.3256 28.2444 9.92971 30.6406 11.0044 32.7881C11.3955 33.5696 14.0112 36.2076 14.8025 36.6185C15.6301 37.0485 16.3629 37.0481 17.1896 36.6178C17.829 36.2852 22.8758 31.3096 23.4425 30.4532C23.8433 29.8479 23.8185 28.3869 23.3968 27.7466C22.8702 26.9472 22.1702 26.5801 21.1816 26.5848C20.6982 26.5871 20.1445 26.6754 19.9512 26.7808ZM27.9072 29.5798C27.1651 29.9719 26.543 31.0098 26.543 31.8558C26.543 32.6997 27.1283 33.6598 27.9111 34.1001C28.6105 34.4935 28.6334 34.4945 37.0768 34.4945C45.041 34.4945 45.5799 34.4748 46.195 34.1608C46.9531 33.7738 47.6367 32.687 47.6367 31.8688C47.6367 30.9839 47.0192 29.9715 46.235 29.5712C45.5674 29.2304 45.2217 29.2174 37.0529 29.2248C28.9491 29.2322 28.5347 29.2484 27.9072 29.5798ZM76.9969 42.4987C77.7503 44.7999 78.0843 45.1201 80.5679 45.9215L82.4523 46.5297L79.8766 49.1116L77.3009 51.6937L74.9872 50.9197L72.6736 50.1456L71.913 47.8392L71.1524 45.5328L73.6713 43.0075C75.0567 41.6186 76.2421 40.5401 76.3056 40.611C76.3692 40.6817 76.6802 41.5312 76.9969 42.4987ZM21.0059 42.5123C20.9092 42.5362 20.5947 42.6085 20.307 42.6725C19.9663 42.7485 19.1227 43.4411 17.8903 44.6565L15.997 46.5235L15.5132 46.0705C15.2471 45.8213 14.7762 45.4897 14.4668 45.3335C12.3256 44.2528 9.92971 46.6489 11.0044 48.7965C11.3955 49.578 14.0112 52.216 14.8025 52.6269C16.297 53.4033 17.0692 53.0159 20.1894 49.9245C23.4267 46.717 23.7305 46.3096 23.7305 45.1758C23.7305 44.2114 23.2604 43.2517 22.6202 42.9088C22.1845 42.6754 21.2614 42.4486 21.0059 42.5123ZM61.3484 44.59C62.8151 44.8284 65.1131 45.448 65.4977 45.7089C65.6049 45.7817 66.1168 47.126 66.6352 48.6966L67.5775 51.5521L66.9146 52.2313L66.252 52.9107L64.5469 52.0561C62.1401 50.8498 61.0341 50.5937 58.2715 50.6032C55.7088 50.6118 54.5187 50.8602 52.4399 51.8204C47.8215 53.9535 44.8177 58.1296 44.3122 63.1205C43.6173 69.9813 47.9055 76.2398 54.6154 78.1582C56.5676 78.7164 59.9741 78.7168 61.9249 78.1591C65.864 77.0327 68.9862 74.4422 70.7685 70.8214C71.9657 68.3892 72.3076 66.759 72.2057 63.9681C72.1114 61.3853 71.6853 59.7876 70.5442 57.7384L69.9202 56.618L70.6027 55.9351L71.2851 55.252L74.201 56.2265L77.1166 57.2011L77.576 58.7337C78.2339 60.929 78.4304 62.2756 78.4308 64.5901C78.4311 67.6161 77.6693 70.9822 76.4232 73.46C75.62 75.0566 74.0893 77.1724 72.6738 78.6418C69.7934 81.6322 66.3971 83.5012 62.2183 84.3959C60.4206 84.7808 56.1869 84.8225 54.5801 84.471C50.3304 83.5418 46.8547 81.6903 44.0569 78.8652C42.2088 76.9993 41.2931 75.7272 40.1662 73.46C36.3496 65.7816 37.8853 56.4142 43.9566 50.3383C48.5302 45.7611 55.1301 43.5797 61.3484 44.59ZM61.2158 56.3001C61.7718 56.5119 62.2266 56.7363 62.2266 56.7986C62.2266 56.8611 60.7632 58.384 58.9746 60.1829C55.5857 63.5916 55.6045 63.5642 55.7214 64.9281C55.8081 65.938 56.6717 66.9107 57.6782 67.1318C58.9866 67.4194 59.2995 67.212 62.785 63.7452L66.0681 60.48L66.3518 61.1596C66.8849 62.4366 67.0194 63.3498 66.9343 65.1172C66.8565 66.7368 66.7939 66.9852 66.1222 68.3419C63.4092 73.8212 56.4374 75.0515 52.1318 70.8109C50.3879 69.0934 49.5316 67.0136 49.5397 64.5147C49.5527 60.4932 52.1402 57.1615 56.1208 56.0404C57.4226 55.6738 59.9048 55.8003 61.2158 56.3001ZM20.2148 58.4382C19.9731 58.533 18.9265 59.4553 17.8891 60.4878L16.0026 62.3648L15.4281 61.8203C14.6456 61.079 14.2119 60.882 13.3622 60.882C11.6362 60.882 10.4864 62.293 10.8091 64.0147C10.9025 64.5133 11.3103 65.0459 12.6278 66.3915C13.5619 67.3453 14.5397 68.2374 14.8008 68.3739C15.368 68.6707 16.5718 68.6987 17.1063 68.4276C17.6551 68.1493 23.1773 62.647 23.4787 62.0782C23.6173 61.8168 23.7305 61.2548 23.7305 60.8289C23.7305 59.0417 21.8807 57.7839 20.2148 58.4382Z" fill="#0075E1"/>
</svg>
