<svg width="40" height="40" viewBox="0 0 40 40" fill="none" xmlns="http://www.w3.org/2000/svg">
<path d="M36.4312 12.8625L36.3783 20.0001C36.3783 31.0458 29.0455 40.0001 20 40.0001C31.0457 40.0001 40 31.0458 40 20.0001L36.4312 12.8625Z" fill="#043B74"/>
<path d="M37.5855 19.9999C37.5855 17.4851 37.1763 15.0794 36.4312 12.8624L36.3783 12.7565L32.7565 19.9999C32.7565 27.0452 27.0452 32.7565 20 32.7565V39.9999C29.7122 39.9999 37.5855 31.0456 37.5855 19.9999Z" fill="#043B74"/>
<path d="M20 32.7565C12.9548 32.7565 7.24346 27.0452 7.24346 20H0C0 31.0457 8.95428 40 20 40L23.6217 36.3783L20 32.7565Z" fill="#1876D7"/>
<path d="M7.24346 20C7.24346 12.9548 12.9548 7.24346 20 7.24346V0C8.95429 0 0 8.95428 0 20L3.62173 23.6217L7.24346 20Z" fill="#93B7FF"/>
<path d="M20 0L40 20C40 8.95429 31.0457 0 20 0Z" fill="#043B74"/>
<path d="M20.0006 0L16.3789 3.62173L20.0006 7.24346C27.0459 7.24346 32.7572 12.9548 32.7572 20L36.3789 16.3783L37.4437 17.4431C36.3397 7.60483 28.9511 0 20.0006 0Z" fill="#043B74"/>
<path d="M20 10.8651V29.1347C25.045 29.1347 29.1348 25.0449 29.1348 19.9999C29.1348 14.9549 25.045 10.8651 20 10.8651Z" fill="#1FC7BD"/>
<path d="M26.7204 19.9999C26.7204 14.9549 23.7116 10.8651 20 10.8651C14.9551 10.8651 10.8652 14.9549 10.8652 19.9999C10.8652 25.0449 14.9551 29.1347 20 29.1347C23.7116 29.1347 26.7204 25.0449 26.7204 19.9999Z" fill="#B1FFFA"/>
<path d="M16.6388 14.7837C16.9722 14.7837 17.2424 14.5134 17.2424 14.18C17.2424 13.8467 16.9722 13.5764 16.6388 13.5764C16.3054 13.5764 16.0352 13.8467 16.0352 14.18C16.0352 14.5134 16.3054 14.7837 16.6388 14.7837Z" fill="#043B74"/>
<path d="M14.1798 17.2435C14.5132 17.2435 14.7834 16.9732 14.7834 16.6399C14.7834 16.3065 14.5132 16.0363 14.1798 16.0363C13.8464 16.0363 13.5762 16.3065 13.5762 16.6399C13.5762 16.9732 13.8464 17.2435 14.1798 17.2435Z" fill="#043B74"/>
<path d="M13.2794 20.6036C13.6128 20.6036 13.883 20.3334 13.883 20C13.883 19.6666 13.6128 19.3964 13.2794 19.3964C12.946 19.3964 12.6758 19.6666 12.6758 20C12.6758 20.3334 12.946 20.6036 13.2794 20.6036Z" fill="#043B74"/>
<path d="M14.1798 23.9638C14.5132 23.9638 14.7834 23.6936 14.7834 23.3602C14.7834 23.0268 14.5132 22.7566 14.1798 22.7566C13.8464 22.7566 13.5762 23.0268 13.5762 23.3602C13.5762 23.6936 13.8464 23.9638 14.1798 23.9638Z" fill="#043B74"/>
<path d="M16.6388 26.4235C16.9722 26.4235 17.2424 26.1533 17.2424 25.8199C17.2424 25.4866 16.9722 25.2163 16.6388 25.2163C16.3054 25.2163 16.0352 25.4866 16.0352 25.8199C16.0352 26.1533 16.3054 26.4235 16.6388 26.4235Z" fill="#043B74"/>
<path d="M20.0001 27.3239C20.3335 27.3239 20.6037 27.0537 20.6037 26.7203C20.6037 26.3869 20.3335 26.1167 20.0001 26.1167C19.6667 26.1167 19.3965 26.3869 19.3965 26.7203C19.3965 27.0537 19.6667 27.3239 20.0001 27.3239Z" fill="#043B74"/>
<path d="M23.3595 26.4235C23.6929 26.4235 23.9631 26.1533 23.9631 25.8199C23.9631 25.4866 23.6929 25.2163 23.3595 25.2163C23.0261 25.2163 22.7559 25.4866 22.7559 25.8199C22.7559 26.1533 23.0261 26.4235 23.3595 26.4235Z" fill="#043B74"/>
<path d="M25.8204 23.9638C26.1538 23.9638 26.424 23.6936 26.424 23.3602C26.424 23.0268 26.1538 22.7566 25.8204 22.7566C25.487 22.7566 25.2168 23.0268 25.2168 23.3602C25.2168 23.6936 25.487 23.9638 25.8204 23.9638Z" fill="#043B74"/>
<path d="M25.8204 17.2435C26.1538 17.2435 26.424 16.9732 26.424 16.6399C26.424 16.3065 26.1538 16.0363 25.8204 16.0363C25.487 16.0363 25.2168 16.3065 25.2168 16.6399C25.2168 16.9732 25.487 17.2435 25.8204 17.2435Z" fill="#043B74"/>
<path d="M23.3595 14.7837C23.6929 14.7837 23.9631 14.5134 23.9631 14.18C23.9631 13.8467 23.6929 13.5764 23.3595 13.5764C23.0261 13.5764 22.7559 13.8467 22.7559 14.18C22.7559 14.5134 23.0261 14.7837 23.3595 14.7837Z" fill="#043B74"/>
<path d="M26.7206 20.6036H18.7931C18.4597 20.6036 18.1895 20.3333 18.1895 20C18.1895 19.6666 18.4597 19.3964 18.7931 19.3964H26.7206C27.0541 19.3964 27.3243 19.6666 27.3243 20C27.3243 20.3333 27.0541 20.6036 26.7206 20.6036Z" fill="#002850"/>
<path d="M20.0001 21.8108C19.6667 21.8108 19.3965 21.5406 19.3965 21.2072V13.2796C19.3965 12.9463 19.6667 12.676 20.0001 12.676C20.3335 12.676 20.6037 12.9463 20.6037 13.2796V21.2072C20.6037 21.5406 20.3335 21.8108 20.0001 21.8108Z" fill="#002850"/>
</svg>
