<svg width="35" height="40" viewBox="0 0 35 40" fill="none" xmlns="http://www.w3.org/2000/svg">
<path fill-rule="evenodd" clip-rule="evenodd" d="M12.2457 1.68015V3.36031H14.0145H15.7834V4.18976V5.01913L16.1478 4.96724C16.6249 4.89925 18.3039 4.89871 18.8734 4.9663L19.3212 5.01937V4.18984V3.36031H21.0489H22.7767V1.68015V0H17.5112H12.2457V1.68015ZM28.0841 5.00061L26.8521 6.17281L27.5488 6.83807L28.2455 7.50334L27.4651 8.24362L26.6846 8.98398L25.4094 8.37889C24.708 8.04614 23.7145 7.63986 23.2015 7.47606C15.9593 5.16362 8.07448 7.39143 3.60893 13.0118C1.85519 15.2191 0.706076 17.7397 0.188906 20.5135C0.00847994 21.4814 -0.0604655 23.8966 0.0608878 24.9979C0.777407 31.4974 5.39656 36.988 11.939 39.1169C15.3691 40.2331 18.9236 40.2914 22.5298 39.2907C26.4449 38.2043 29.9732 35.6548 32.1483 32.3405C33.5545 30.1979 34.3636 28.2318 34.8447 25.7884C35.0523 24.7336 35.0516 21.4676 34.8435 20.3963C34.3858 18.0413 33.4959 15.913 32.1961 14.0653C31.5041 13.0814 31.0149 12.51 30.1069 11.6244L29.4859 11.0188L30.0992 10.4324L30.7123 9.8461L31.4149 10.5103L32.1173 11.1744L33.3495 10.0021L34.5817 8.82972L31.949 6.32903L29.3162 3.82833L28.0841 5.00061ZM17.5112 17.3486V23.2096H23.6785H29.846L29.8042 23.7371C29.7319 24.6501 29.6 25.4932 29.4284 26.1401C28.536 29.503 25.9858 32.3921 22.6532 33.8154C18.6121 35.5414 13.9208 35.1099 10.3164 32.6809C9.48021 32.1175 8.14886 30.8512 7.53971 30.0402C6.02933 28.029 5.25695 25.7072 5.25431 23.1705C5.24798 16.9383 10.2854 11.9042 16.8941 11.5385C17.1204 11.526 17.3518 11.5094 17.4083 11.5016C17.4898 11.4905 17.5112 12.7044 17.5112 17.3486Z" fill="#1FC7BD"/>
</svg>
