<svg width="40" height="40" viewBox="0 0 40 40" fill="none" xmlns="http://www.w3.org/2000/svg">
<g clip-path="url(#clip0)">
<circle cx="19.9993" cy="20" r="13.3333" fill="white"/>
<path d="M36.4312 12.8625L36.3783 20.0001C36.3783 31.0458 29.0455 40.0001 20 40.0001C31.0457 40.0001 40 31.0458 40 20.0001L36.4312 12.8625Z" fill="#043B74"/>
<path d="M37.5855 19.9999C37.5855 17.4851 37.1763 15.0794 36.4312 12.8624L36.3783 12.7565L32.7565 19.9999C32.7565 27.0452 27.0452 32.7565 20 32.7565V39.9999C29.7122 39.9999 37.5855 31.0457 37.5855 19.9999Z" fill="#043B74"/>
<path d="M20 32.7565C12.9548 32.7565 7.24346 27.0452 7.24346 20H0C0 31.0457 8.95428 40 20 40L23.6217 36.3783L20 32.7565Z" fill="#1876D7"/>
<path d="M7.24346 20C7.24346 12.9548 12.9548 7.24346 20 7.24346V0C8.95429 0 0 8.95428 0 20L3.62173 23.6217L7.24346 20Z" fill="#93B7FF"/>
<path d="M20 0L40 20C40 8.95429 31.0457 0 20 0Z" fill="#043B74"/>
<path d="M20.0006 0L16.3789 3.62173L20.0006 7.24346C27.0459 7.24346 32.7572 12.9548 32.7572 20L36.3789 16.3783L37.4437 17.4431C36.3397 7.60483 28.9511 0 20.0006 0Z" fill="#043B74"/>
<path d="M25.5422 17.9661L14.3777 13.8061C14.2981 13.7763 14.2116 13.7699 14.1285 13.7877C14.0454 13.8056 13.9691 13.8469 13.9087 13.9068C13.8484 13.9667 13.8065 14.0426 13.788 14.1256C13.7695 14.2086 13.7752 14.2951 13.8044 14.375L17.9866 25.5572C18.0191 25.6438 18.0778 25.7181 18.1545 25.7698C18.2312 25.8215 18.3221 25.8479 18.4145 25.8455C18.507 25.843 18.5964 25.8118 18.6703 25.7562C18.7441 25.7005 18.7988 25.6232 18.8266 25.535L20.0222 21.6461L24.1062 25.4889C24.1895 25.5717 24.3022 25.6182 24.4196 25.6182C24.537 25.6182 24.6496 25.5717 24.7329 25.4889L25.7773 24.4445C25.8601 24.3612 25.9066 24.2486 25.9066 24.1312C25.9066 24.0138 25.8601 23.9011 25.7773 23.8178L21.7066 19.9928L25.5422 18.8061C25.6295 18.7759 25.7052 18.7192 25.7588 18.6439C25.8125 18.5686 25.8413 18.4785 25.8413 18.3861C25.8413 18.2937 25.8125 18.2036 25.7588 18.1283C25.7052 18.053 25.6295 17.9963 25.5422 17.9661Z" fill="#1FC7BD"/>
<path d="M14.4436 13.7778L25.5606 17.9888C25.6479 18.0191 25.7237 18.0758 25.7773 18.151C25.8309 18.2263 25.8597 18.3164 25.8597 18.4088C25.8597 18.5013 25.8309 18.5914 25.7773 18.6666C25.7237 18.7419 25.6479 18.7986 25.5606 18.8288L21.7773 20L25.7773 23.8177C25.86 23.901 25.9065 24.0137 25.9065 24.1311C25.9065 24.2485 25.86 24.3611 25.7773 24.4444L25.1835 25.0381L13.9746 13.8785C14.035 13.8186 14.1112 13.7773 14.1944 13.7594C14.2775 13.7416 14.364 13.7479 14.4436 13.7778Z" fill="#B1FFFA"/>
</g>
<defs>
<clipPath id="clip0">
<rect width="40" height="40" fill="white"/>
</clipPath>
</defs>
</svg>
