<svg width="90" height="90" viewBox="0 0 90 90" fill="none" xmlns="http://www.w3.org/2000/svg">
<path fill-rule="evenodd" clip-rule="evenodd" d="M77.1673 0.251463C73.2824 1.08863 69.988 4.41459 69.1658 8.32944C68.6974 10.5599 68.9452 12.8683 69.8696 14.887L70.3223 15.8759L61.2868 24.9095L52.2514 33.9432L51.0352 33.3297C49.3706 32.4897 48.4295 32.1992 46.5708 31.9518C43.938 31.6014 41.4749 32.0455 38.9302 33.3295L37.7142 33.9428L29.1191 25.3563C22.0724 18.3167 20.5439 16.7063 20.6352 16.418C21.1623 14.7516 21.2984 13.6141 21.1195 12.3728C20.6069 8.81476 18.0099 6.15222 14.4823 5.56774C11.2186 5.02704 7.67757 6.8932 6.27304 9.89405C3.95556 14.8455 6.93679 20.3527 12.3572 21.1334C13.5987 21.3122 14.7364 21.1761 16.4032 20.6492C16.6916 20.5579 18.3022 22.0861 25.3433 29.1314L33.9315 37.7247L33.3181 38.9405C32.129 41.296 31.6802 43.5151 31.8627 46.1345L31.9732 47.7171L23.2668 51.4097C18.4783 53.4406 14.3702 55.1738 14.1377 55.2614C13.7856 55.394 13.585 55.314 12.9363 54.7826C11.2114 53.3695 8.9041 52.7095 6.81737 53.0325C3.30712 53.5756 0.677115 56.1701 0.0986687 59.6603C-0.743939 64.7448 3.94466 69.4325 9.0302 68.59C12.6096 67.9969 15.158 65.3457 15.6837 61.6679L15.8845 60.262L24.9831 56.3913L34.0819 52.5206L35.3238 53.8503C36.7439 55.3706 38.3813 56.5151 40.1159 57.2C41.3706 57.6953 43.5516 58.1794 44.5289 58.1794H45.0997L46.3805 64.2004L47.6614 70.2215L47.1574 70.5714C46.0793 71.3196 44.164 73.4296 43.6123 74.4771C42.3877 76.8018 42.0565 79.5048 42.6918 81.9885C43.1978 83.9663 43.9815 85.3229 45.5042 86.8569C49.6643 91.0477 56.1079 91.0477 60.2995 86.8569C63.5904 83.5665 64.3468 78.9279 62.2803 74.7081C61.4754 73.0644 59.4834 71.0119 57.8765 70.1701C56.6795 69.5431 54.435 68.9055 53.425 68.9055H52.7783L51.5934 63.3227C50.9416 60.2522 50.3945 57.5925 50.3776 57.4124C50.3605 57.2325 50.503 56.9951 50.6942 56.8849C53.1237 55.4852 54.7584 54.03 56.002 52.1598C56.4371 51.5055 56.8306 50.9701 56.8763 50.9701C56.9771 50.9701 74.0714 55.9285 74.1323 55.9753C74.1558 55.9934 74.2562 56.437 74.3558 56.9612C75.14 61.096 79.1872 63.9877 83.2486 63.3149C86.6987 62.7433 89.2946 60.1479 89.8664 56.6985C90.4072 53.4355 88.5406 49.8952 85.5392 48.4909C82.3979 47.0213 79.0154 47.5796 76.5405 49.9762L75.5887 50.898L68.8594 48.9398C65.1583 47.8628 61.2399 46.7215 60.1516 46.4034L58.173 45.8252V44.9918C58.173 43.8814 57.7243 41.3593 57.3733 40.497C57.2182 40.116 56.852 39.3375 56.5595 38.7669L56.0277 37.7297L65.0658 28.6932L74.1041 19.6569L75.0932 20.1095C79.095 21.9414 83.6959 21.0882 86.8563 17.9286C91.0479 13.7379 91.0479 7.31697 86.8563 3.12623C84.2374 0.50801 80.762 -0.523277 77.1673 0.251463ZM81.6011 5.73918C82.6285 6.19354 83.7796 7.34159 84.2602 8.39116C84.7803 9.52672 84.7803 11.5281 84.2602 12.6637C83.7817 13.7087 82.6355 14.8546 81.5903 15.3331C80.4545 15.853 78.4528 15.853 77.317 15.3331C75.0577 14.299 73.7758 11.7039 74.3473 9.3217C75.1083 6.14994 78.6144 4.41829 81.6011 5.73918ZM14.5558 11.0757C15.3238 11.5074 15.9635 12.5306 15.9635 13.3278C15.9635 14.6844 14.6692 15.9784 13.3124 15.9784C12.0498 15.9784 10.6873 14.6162 10.6873 13.3538C10.6873 12.4964 11.3055 11.4601 12.0522 11.0658C12.9117 10.6122 13.7367 10.6153 14.5558 11.0757ZM46.4087 37.2584C50.5378 38.0413 53.4295 42.0908 52.7572 46.1482C52.1854 49.5977 49.5895 52.193 46.1394 52.7647C41.0539 53.6071 36.3653 48.9194 37.2079 43.8349C37.9443 39.3917 42.0778 36.4373 46.4087 37.2584ZM83.3221 53.2767C84.0902 53.7084 84.7298 54.7316 84.7298 55.5288C84.7298 56.8854 83.4356 58.1794 82.0787 58.1794C81.2813 58.1794 80.2579 57.5399 79.8261 56.772C79.3594 55.9415 79.3536 55.1963 79.8073 54.3071C80.4609 53.0265 82.0485 52.561 83.3221 53.2767ZM9.109 58.5334C9.89357 58.9336 10.5114 59.9455 10.5114 60.83C10.5114 62.0923 9.14892 63.4545 7.88633 63.4545C6.53545 63.4545 5.23522 62.1609 5.23522 60.817C5.23522 59.9714 5.85763 58.9339 6.60017 58.542C7.44875 58.0941 8.24247 58.0915 9.109 58.5334ZM55.0442 74.6675C56.0717 75.1219 57.2228 76.2699 57.7034 77.3195C58.2235 78.4551 58.2235 80.4565 57.7034 81.592C57.2249 82.637 56.0787 83.7829 55.0335 84.2614C53.8977 84.7813 51.8959 84.7813 50.7601 84.2614C48.5009 83.2273 47.2189 80.6323 47.7905 78.25C48.5515 75.0783 52.0575 73.3466 55.0442 74.6675Z" fill="#0075E1"/>
</svg>
