<svg width="90" height="90" viewBox="0 0 90 90" fill="none" xmlns="http://www.w3.org/2000/svg">
<path fill-rule="evenodd" clip-rule="evenodd" d="M32.8857 0.191222C24.2069 1.29684 15.9538 5.42062 10.0494 11.6013C3.12541 18.849 -0.354504 28.1177 0.0285374 38.2914C0.239756 43.8999 1.4441 48.5045 4.03324 53.6032C5.9801 57.4366 8.22454 60.4482 11.4742 63.588C14.5653 66.5742 18.0151 68.9311 21.777 70.6269C23.4595 71.3852 23.7481 71.4609 24.9732 71.4637C26.2129 71.4667 26.3736 71.4241 26.9957 70.9287C28.339 69.859 28.7968 68.1573 28.1295 66.715C27.6557 65.6908 26.9806 65.1454 25.2973 64.4272C19.0637 61.7672 13.697 56.9239 10.5731 51.1392C7.11252 44.7313 6.24074 36.5107 8.23069 29.0525C10.2259 21.5745 14.8673 15.2531 21.2539 11.3148C27.378 7.53822 35.5658 6.11141 42.754 7.56797C54.4755 9.94305 63.5871 18.8863 66.0928 30.4758C66.5918 32.7829 67.0538 33.5545 68.3033 34.1662C69.1262 34.5691 69.4192 34.6261 70.193 34.5344C71.3561 34.3966 72.3517 33.7113 72.9162 32.6595C73.2811 31.9798 73.3283 31.7054 73.2488 30.7236C73.0412 28.1647 71.651 23.8635 69.8869 20.3223C68.0042 16.5431 65.7756 13.5234 62.5554 10.388C56.9143 4.89563 50.5482 1.65147 42.8817 0.362467C40.5087 -0.0365184 35.3646 -0.124693 32.8857 0.191222ZM35.8866 14.1923C35.0962 14.4343 33.9775 15.5975 33.7515 16.4123C33.649 16.7816 33.5631 17.7174 33.5607 18.4918L33.5561 19.8997L32.2846 20.4965C30.5073 21.3306 28.5296 23.3121 27.6733 25.1165C24.6923 31.3983 28.2095 38.7217 34.8873 40.1375C35.5615 40.2804 36.4207 40.3986 36.7963 40.4004C38.5457 40.4081 39.9908 41.4142 40.4113 42.9168C41.0963 45.3651 39.281 47.6112 36.7847 47.4039C35.5315 47.3 34.5614 46.6142 33.7839 45.2824C32.9402 43.8376 32.0816 43.3074 30.5862 43.3074C29.2009 43.3074 28.3448 43.7537 27.6158 44.8561C26.9241 45.9019 26.9459 47.5061 27.67 48.8513C28.4767 50.3501 30.7588 52.544 32.2626 53.2667L33.5121 53.8672L33.5862 55.5427C33.6724 57.4922 34.022 58.2476 35.1987 59.0269C35.7926 59.4202 36.1069 59.4991 37.0805 59.4991C38.0541 59.4991 38.3684 59.4202 38.9623 59.0269C40.1387 58.2479 40.4885 57.4922 40.5756 55.5427L40.6503 53.8672L42.0316 53.1968C44.4677 52.0146 46.3583 49.6904 47.2127 46.8273C47.6773 45.2706 47.6381 42.6336 47.1252 40.9314C46.0831 37.4729 43.4227 34.7947 40.0611 33.8197C39.5341 33.6669 38.427 33.4737 37.6006 33.3903C35.7826 33.2069 34.9151 32.8234 34.2548 31.9112C33.053 30.251 33.582 27.7399 35.3204 26.8523C36.3517 26.3259 37.3141 26.2307 38.1964 26.5679C39.0643 26.8995 39.6324 27.4604 40.3151 28.6595C40.5796 29.1241 41.1171 29.714 41.518 29.9794C42.1248 30.3812 42.4334 30.4596 43.4118 30.4596C44.3854 30.4596 44.6997 30.3807 45.2936 29.9874C46.3917 29.2601 46.8412 28.4 46.8409 27.0276C46.8405 26.0251 46.7554 25.7314 46.1527 24.6517C45.2169 22.9751 43.4468 21.2535 41.8793 20.4951L40.6484 19.8997L40.5763 18.1391C40.4936 16.1167 40.1575 15.3555 39.0124 14.5973C38.2581 14.0976 36.8086 13.9098 35.8866 14.1923ZM69.4774 41.3029C68.6445 41.5479 67.5642 42.7007 67.3211 43.6043C66.8857 45.2225 67.5992 46.9591 69.0007 47.6916C69.6472 48.0295 70.0451 48.0635 73.9148 48.1124L78.1254 48.1656L72.9486 53.3483L67.7719 58.5311L58.7134 58.5322C52.7801 58.5327 49.4124 58.5987 48.9516 58.7231C48.3468 58.8866 46.4768 60.6827 35.6208 71.526C28.6758 78.463 22.8193 84.4159 22.6065 84.7547C22.0172 85.6927 22.058 87.4399 22.6915 88.3978C23.5663 89.7206 25.1093 90.2836 26.706 89.8626C27.4269 89.6726 28.5451 88.6058 39.5457 77.6127L51.5955 65.571H60.7874C68.6815 65.571 70.0715 65.5326 70.6331 65.2989C71.0705 65.1167 73.2189 63.0972 77.1224 59.1987L82.9579 53.3705L83.014 57.4322L83.0701 61.4938L83.5977 62.2408C84.8756 64.05 87.4236 64.2943 88.9617 62.755C90.0231 61.6929 90.0398 61.5179 89.9814 52.0062L89.929 43.4571L89.4572 42.744C89.1978 42.3517 88.6833 41.8427 88.314 41.613L87.6427 41.1954L78.8493 41.1641C73.6079 41.1454 69.8223 41.2015 69.4774 41.3029ZM57.1666 71.0394C56.351 71.2891 55.2521 72.4491 55.0225 73.3027C54.896 73.7721 54.8482 76.297 54.8812 80.7477C54.9271 86.94 54.9579 87.5367 55.2637 88.1525C55.6856 89.0025 56.4679 89.6009 57.5284 89.8848C59.0495 90.2919 60.7727 89.5323 61.4575 88.1525C61.7672 87.5287 61.7901 86.9918 61.7901 80.3547V73.2269L61.3727 72.5551C60.5433 71.22 58.7211 70.5633 57.1666 71.0394ZM71.2361 71.0394C70.4204 71.2891 69.3216 72.4491 69.0919 73.3027C68.9655 73.7721 68.9176 76.297 68.9507 80.7477C68.9966 86.94 69.0274 87.5367 69.3332 88.1525C69.7551 89.0025 70.5374 89.6009 71.5979 89.8848C73.119 90.2919 74.8421 89.5323 75.527 88.1525C75.8367 87.5287 75.8595 86.9918 75.8595 80.3547V73.2269L75.4422 72.5551C74.6128 71.22 72.7906 70.5633 71.2361 71.0394ZM85.3056 71.0394C84.4899 71.2891 83.3911 72.4491 83.1614 73.3027C83.035 73.7721 82.9871 76.297 83.0202 80.7477C83.0661 86.94 83.0969 87.5367 83.4027 88.1525C83.8246 89.0025 84.6069 89.6009 85.6674 89.8848C87.1885 90.2919 88.9116 89.5323 89.5965 88.1525C89.9062 87.5287 89.929 86.9918 89.929 80.3547V73.2269L89.5117 72.5551C88.6823 71.22 86.8601 70.5633 85.3056 71.0394ZM43.0972 81.7752C42.2614 82.0311 41.1828 83.1842 40.9421 84.079C40.66 85.1274 40.7996 87.3293 41.2006 88.1525C41.6134 89.0003 42.3954 89.6002 43.4589 89.8848C44.98 90.2919 46.7032 89.5323 47.388 88.1525C47.6474 87.6301 47.7206 87.0953 47.7206 85.7227C47.7206 84.1765 47.6699 83.881 47.3032 83.2909C46.4738 81.9558 44.6517 81.2991 43.0972 81.7752Z" fill="#0075E1"/>
</svg>
