<svg width="87" height="90" fill="none" xmlns="http://www.w3.org/2000/svg"><path fill-rule="evenodd" clip-rule="evenodd" d="M42.286.171C35.03.928 27.71 4.58 22.666 9.96c-4.475 4.774-7.436 10.93-8.329 17.316l-.117.835H7.033V14.044H0v21.099h14.19l.383 2.031c.21 1.117.577 2.64.814 3.385.238.744.434 1.413.435 1.485.001.072-3.558.132-7.91.132H0v7.033h19.482l.809 1.088.808 1.088v4.857H0V77.34h7.033V63.275h14.066V90h42.198V70.308h14.066V56.242h9.143L81.934 47.1l-4.571-9.143v-3.674c0-4.053-.188-6.419-.722-9.074-1.286-6.404-4.91-12.706-9.828-17.09C60.087 2.122 51.2-.758 42.286.17zm8.44 7.363c4.975 1.126 8.764 3.207 12.318 6.762 3.598 3.6 5.744 7.573 6.792 12.577.292 1.395.367 2.605.443 7.213l.092 5.536 2.353 4.704c1.294 2.587 2.353 4.745 2.353 4.794 0 .049-1.068.089-2.374.089H70.33v14.066H56.264v19.692H28.132V63.275h1.322l3.513 7.033 3.513 7.033h12.751v-7.033h-8.439l-3.517-7.033-3.518-7.033h-5.625v-7.033h7.556l.641 1.274c1.338 2.66 4.236 4.875 7.188 5.494 5.26 1.105 10.471-1.908 12.164-7.032.965-2.92.504-6.437-1.182-9.005-1.885-2.874-5.4-4.791-8.785-4.791-3.795 0-7.693 2.389-9.385 5.752l-.641 1.275H23.449l-.38-.923c-.618-1.496-1.22-3.369-1.44-4.469a27.139 27.139 0 00-.29-1.334c-.082-.288.294-.307 6.165-.307h6.253l3.518-7.033 3.517-7.033h8.439v-7.033H36.48l-3.513 7.033-3.513 7.033h-8.186l.087-.396c.793-3.618 1.174-4.764 2.38-7.163 3.727-7.41 10.84-12.349 19.342-13.43 1.478-.188 6.094.061 7.648.413zm-3.939 34.848c.967.333 1.545.862 2.032 1.856.354.724.437 1.109.37 1.711-.22 1.941-1.96 3.4-3.842 3.219-2.303-.222-3.774-2.695-2.877-4.842.714-1.71 2.572-2.546 4.317-1.944z" fill="#0075E1"/></svg>