<svg width="241" height="90" fill="none" xmlns="http://www.w3.org/2000/svg"><path d="M111.8 45V30.72h9.02v2.5h-6v2.98h1.2c1.347 0 2.447.187 3.3.56.867.373 1.507.887 1.92 1.54.413.653.62 1.4.62 2.24 0 1.413-.473 2.513-1.42 3.3-.933.773-2.427 1.16-4.48 1.16h-4.16zm4.04-2.48c.92 0 1.64-.147 2.16-.44.533-.293.8-.807.8-1.54 0-.76-.287-1.26-.86-1.5s-1.353-.36-2.34-.36h-.78v3.84h1.02zm12.954-8.66c1.467 0 2.587.32 3.36.96.787.627 1.18 1.593 1.18 2.9V45h-2.08l-.58-1.48h-.08c-.467.587-.96 1.013-1.48 1.28-.52.267-1.233.4-2.14.4-.973 0-1.78-.28-2.42-.84-.64-.573-.96-1.447-.96-2.62 0-1.16.407-2.013 1.22-2.56.813-.56 2.033-.867 3.66-.92l1.9-.06v-.48c0-.573-.153-.993-.46-1.26-.293-.267-.707-.4-1.24-.4s-1.053.08-1.56.24c-.507.147-1.013.333-1.52.56l-.98-2.02a8.583 8.583 0 011.94-.72 9.542 9.542 0 012.24-.26zm.42 6.12c-.96.027-1.627.2-2 .52s-.56.74-.56 1.26c0 .453.133.78.4.98.267.187.613.28 1.04.28.64 0 1.18-.187 1.62-.56.44-.387.66-.927.66-1.62v-.9l-1.16.04zm10.15-5.9v4.2h4.16v-4.2h2.98V45h-2.98v-4.5h-4.16V45h-2.98V34.08h2.98zm17.422 0h3.28l-4.32 5.24 4.7 5.68h-3.38l-4.46-5.54V45h-2.98V34.08h2.98v5.3l4.18-5.3zm14.753 5.44c0 1.813-.48 3.213-1.44 4.2-.947.987-2.24 1.48-3.88 1.48-1.014 0-1.92-.22-2.72-.66-.787-.44-1.407-1.08-1.86-1.92-.454-.853-.68-1.887-.68-3.1 0-1.813.473-3.207 1.42-4.18.946-.973 2.246-1.46 3.9-1.46 1.026 0 1.933.22 2.72.66.786.44 1.406 1.08 1.86 1.92.453.827.68 1.847.68 3.06zm-7.54 0c0 1.08.173 1.9.52 2.46.36.547.94.82 1.74.82.786 0 1.353-.273 1.7-.82.36-.56.54-1.38.54-2.46s-.18-1.887-.54-2.42c-.347-.547-.92-.82-1.72-.82-.787 0-1.36.273-1.72.82-.347.533-.52 1.34-.52 2.42zm19.682-2.58c0 .587-.186 1.087-.56 1.5-.36.413-.9.68-1.62.8v.08c.76.093 1.367.353 1.82.78.467.427.7.973.7 1.64 0 .627-.166 1.187-.5 1.68-.32.493-.833.88-1.54 1.16-.706.28-1.633.42-2.78.42h-5.2V34.08h5.2c.854 0 1.614.093 2.28.28.68.173 1.214.467 1.6.88.4.413.6.98.6 1.7zm-3.02.24c0-.667-.526-1-1.58-1h-2.1v2.16h1.76c.627 0 1.1-.087 1.42-.26.334-.187.5-.487.5-.9zm.28 4.4c0-.427-.166-.733-.5-.92-.333-.2-.833-.3-1.5-.3h-1.96v2.58h2.02c.56 0 1.02-.1 1.38-.3.374-.213.56-.567.56-1.06zm10.079 3.62c-1.627 0-2.887-.447-3.78-1.34-.88-.907-1.32-2.327-1.32-4.26 0-1.333.226-2.42.68-3.26.453-.84 1.08-1.46 1.88-1.86.813-.4 1.746-.6 2.8-.6.746 0 1.393.073 1.94.22.56.147 1.046.32 1.46.52l-.88 2.3c-.467-.187-.907-.34-1.32-.46-.4-.12-.8-.18-1.2-.18-1.547 0-2.32 1.1-2.32 3.3 0 1.093.2 1.9.6 2.42.413.52.986.78 1.72.78.626 0 1.18-.08 1.66-.24.48-.173.946-.407 1.4-.7v2.54c-.454.293-.934.5-1.44.62-.494.133-1.12.2-1.88.2zm12.993-11.12h3.28l-4.32 5.24 4.7 5.68h-3.38l-4.46-5.54V45h-2.98V34.08h2.98v5.3l4.18-5.3zm9.703-.22c1.466 0 2.586.32 3.36.96.786.627 1.18 1.593 1.18 2.9V45h-2.08l-.58-1.48h-.08c-.467.587-.96 1.013-1.48 1.28-.52.267-1.234.4-2.14.4-.974 0-1.78-.28-2.42-.84-.64-.573-.96-1.447-.96-2.62 0-1.16.406-2.013 1.22-2.56.813-.56 2.033-.867 3.66-.92l1.9-.06v-.48c0-.573-.154-.993-.46-1.26-.294-.267-.707-.4-1.24-.4-.534 0-1.054.08-1.56.24a11.61 11.61 0 00-1.52.56l-.98-2.02a8.565 8.565 0 011.94-.72 9.535 9.535 0 012.24-.26zm.42 6.12c-.96.027-1.627.2-2 .52-.374.32-.56.74-.56 1.26 0 .453.133.78.4.98.266.187.613.28 1.04.28.64 0 1.18-.187 1.62-.56.44-.387.66-.927.66-1.62v-.9l-1.16.04zm8.83 5.02h-3.22l2.94-4.32c-.56-.227-1.06-.593-1.5-1.1-.427-.52-.64-1.227-.64-2.12 0-1.093.413-1.927 1.24-2.5.827-.587 1.887-.88 3.18-.88h5.08V45h-2.98v-4.06h-1.64l-2.46 4.06zm.5-7.52c0 .453.18.813.54 1.08.36.253.827.38 1.4.38h1.66v-2.76h-2.04c-.533 0-.927.133-1.18.4a1.23 1.23 0 00-.38.9zM118.72 60.08H122l-4.32 5.24 4.7 5.68H119l-4.46-5.54V71h-2.98V60.08h2.98v5.3l4.18-5.3zm9.703-.22c1.466 0 2.586.32 3.36.96.786.627 1.18 1.593 1.18 2.9V71h-2.08l-.58-1.48h-.08c-.467.587-.96 1.013-1.48 1.28-.52.267-1.234.4-2.14.4-.974 0-1.78-.28-2.42-.84-.64-.573-.96-1.447-.96-2.62 0-1.16.406-2.013 1.22-2.56.813-.56 2.033-.867 3.66-.92l1.9-.06v-.48c0-.573-.154-.993-.46-1.26-.294-.267-.707-.4-1.24-.4-.534 0-1.054.08-1.56.24a11.61 11.61 0 00-1.52.56l-.98-2.02a8.565 8.565 0 011.94-.72 9.535 9.535 0 012.24-.26zm.42 6.12c-.96.027-1.627.2-2 .52-.374.32-.56.74-.56 1.26 0 .453.133.78.4.98.266.187.613.28 1.04.28.64 0 1.18-.187 1.62-.56.44-.387.66-.927.66-1.62v-.9l-1.16.04zm13.25-6.1c1.227 0 2.22.48 2.98 1.44.76.947 1.14 2.347 1.14 4.2 0 1.853-.393 3.267-1.18 4.24-.787.96-1.793 1.44-3.02 1.44-.787 0-1.413-.14-1.88-.42a4.615 4.615 0 01-1.14-.98h-.16c.107.56.16 1.093.16 1.6v4.4h-2.98V60.08h2.42l.42 1.42h.14c.293-.44.687-.82 1.18-1.14.493-.32 1.133-.48 1.92-.48zm-.96 2.38c-.773 0-1.32.24-1.64.72-.307.48-.473 1.213-.5 2.2v.32c0 1.053.153 1.867.46 2.44.32.56.893.84 1.72.84.68 0 1.18-.28 1.5-.84.333-.573.5-1.393.5-2.46 0-2.147-.68-3.22-2.04-3.22zm16.381.06h-3.58V71h-2.98v-8.68h-3.58v-2.24h10.14v2.24zm6.495-2.46c1.466 0 2.586.32 3.36.96.786.627 1.18 1.593 1.18 2.9V71h-2.08l-.58-1.48h-.08c-.467.587-.96 1.013-1.48 1.28-.52.267-1.234.4-2.14.4-.974 0-1.78-.28-2.42-.84-.64-.573-.96-1.447-.96-2.62 0-1.16.406-2.013 1.22-2.56.813-.56 2.033-.867 3.66-.92l1.9-.06v-.48c0-.573-.154-.993-.46-1.26-.294-.267-.707-.4-1.24-.4-.534 0-1.054.08-1.56.24a11.61 11.61 0 00-1.52.56l-.98-2.02a8.565 8.565 0 011.94-.72 9.535 9.535 0 012.24-.26zm.42 6.12c-.96.027-1.627.2-2 .52-.374.32-.56.74-.56 1.26 0 .453.133.78.4.98.266.187.613.28 1.04.28.64 0 1.18-.187 1.62-.56.44-.387.66-.927.66-1.62v-.9l-1.16.04z" fill="#043B74"/><g clip-path="url(#clip0)"><path d="M78.102 32.804L36.143 74.763a4.856 4.856 0 01-6.866 0L4.586 50.072a4.856 4.856 0 010-6.867L46.544 1.246a4.856 4.856 0 016.867 0L78.1 25.937a4.855 4.855 0 010 6.867z" fill="#93B7FF"/><path d="M78.102 25.937l-3.081-3.081c1.688 1.688 1.52 4.594-.377 6.49L32.685 71.305c-1.895 1.896-4.801 2.065-6.49.376l3.082 3.082a4.856 4.856 0 006.866 0l41.959-41.96a4.855 4.855 0 000-6.866z" fill="#1876D7"/><path d="M12.655 48.345a1.318 1.318 0 01-.932-2.25l20.55-20.555a1.318 1.318 0 111.864 1.864L13.586 47.96a1.316 1.316 0 01-.931.386zm6.531 6.531a1.318 1.318 0 01-.933-2.25l20.552-20.553a1.318 1.318 0 111.865 1.864L20.118 54.49a1.314 1.314 0 01-.932.386z" fill="#002850"/><path d="M45.86 10.81l-4.113 4.11a4.139 4.139 0 105.854 5.854l4.111-4.111a4.138 4.138 0 10-5.853-5.853z" fill="#1876D7"/><path d="M82.063 45.195H22.724a4.855 4.855 0 00-4.855 4.855v34.92a4.855 4.855 0 004.855 4.854h59.339a4.855 4.855 0 004.855-4.855V50.05a4.855 4.855 0 00-4.855-4.855z" fill="#B1FFFA"/><path d="M82.064 45.195H77.72a4.855 4.855 0 014.855 4.855v34.92a4.855 4.855 0 01-4.855 4.854h4.346a4.855 4.855 0 004.855-4.855V50.05a4.855 4.855 0 00-4.856-4.855z" fill="#1FC7BD"/><path d="M17.87 56.165h69.049v8.389h-69.05v-8.39z" fill="#3271B3"/><path d="M82.572 56.165h4.346v8.389h-4.346v-8.39z" fill="#002850"/><path d="M69.95 77.958v5.174c0 .4.323.724.724.724h8.23c.4 0 .724-.324.724-.724v-5.174c0-.4-.325-.725-.725-.725h-8.23c-.4 0-.724.325-.724.725zm-24.813 0v5.174c0 .4.325.724.724.724h17.407c.4 0 .724-.324.724-.724v-5.174c0-.4-.324-.725-.724-.725H45.86c-.4 0-.724.325-.724.725z" fill="#1FC7BD"/><path d="M38.04 85.174h-8.67a1.318 1.318 0 110-2.636h8.67a1.318 1.318 0 110 2.636z" fill="#002850"/></g><defs><clipPath id="clip0"><path fill="#fff" d="M0 0h90v90H0z"/></clipPath></defs></svg>