<svg width="40" height="40" fill="none" xmlns="http://www.w3.org/2000/svg"><g clip-path="url(#clip0)"><path d="M25.645 5.646l-3.32-.482-1.484-3.009a.937.937 0 00-1.682 0l-1.484 3.009-3.32.482a.938.938 0 00-.52 1.599l2.402 2.341-.567 3.307a.937.937 0 001.36.988L20 12.32l2.97 1.56a.938.938 0 001.36-.988l-.568-3.307 2.402-2.341a.937.937 0 00-.52-1.6zm13.664 8.494l-2.692-2.003.124-3.353a.936.936 0 00-1.48-.799l-2.736 1.942-3.15-1.154a.938.938 0 00-1.217 1.16l1 3.202-2.07 2.64a.938.938 0 00.728 1.516l3.354.038 1.87 2.784a.938.938 0 001.667-.223l1.073-3.178 3.226-.918a.938.938 0 00.303-1.654zm-28.373-1.062l1-3.202a.938.938 0 00-1.216-1.16L7.57 9.869 4.833 7.928a.937.937 0 00-1.48.8l.124 3.352-2.692 2.002a.937.937 0 00.303 1.654l3.227.918 1.072 3.179a.938.938 0 001.667.223l1.87-2.785 3.354-.038a.939.939 0 00.728-1.516l-2.07-2.64z" fill="#78FEF6"/><path d="M19.948 15.732a9.973 9.973 0 00-9.962 9.961c0 6.401 9.003 13.477 9.386 13.775a.938.938 0 001.151 0c.384-.298 9.386-7.374 9.386-13.775a9.973 9.973 0 00-9.961-9.961z" fill="#043B74"/><path d="M20 31.563a5.937 5.937 0 100-11.875 5.937 5.937 0 000 11.875z" fill="#EFF2FC"/><path d="M18.75 27.813a.932.932 0 01-.662-.275l-1.25-1.25a.937.937 0 011.325-1.326l.657.657 2.47-1.976a.937.937 0 111.172 1.464l-3.125 2.5a.935.935 0 01-.586.206z" fill="#93B7FF"/><path d="M12.173 9.876l-1 3.202 2.07 2.64a.937.937 0 01-.727 1.515l-3.354.038-5.08-9.403a.937.937 0 01.988.06l2.736 1.941 3.15-1.153a.938.938 0 011.217 1.16zm26.948 5.866l-3.406.993-.984 3.091a.936.936 0 01-1.661.259l-1.845-2.738 5-9.42a.938.938 0 01.51.849v3.469l2.653 1.837a.938.938 0 01-.267 1.66zM26.284 7.187l-2.55 2.42.635 3.294a.938.938 0 01-1.34 1.016l-3-1.5V1.634a.938.938 0 01.851.505l1.365 2.964 3.486.497a.938.938 0 01.553 1.588z" fill="#1FC7BD"/></g><defs><clipPath id="clip0"><path fill="#fff" d="M0 0h40v40H0z"/></clipPath></defs></svg>