<svg width="41" height="40" fill="none" xmlns="http://www.w3.org/2000/svg"><path fill-rule="evenodd" clip-rule="evenodd" d="M17.191.13c-.505.211-.618.49-.915 2.28-.149.89-.293 1.64-.322 1.663-.028.024-.526.198-1.105.386-.591.191-1.54.585-2.16.895l-1.107.554-1.197-.852C8.952 4.036 8.64 3.88 8.187 3.953c-.3.048-.49.215-2.252 1.978-1.762 1.762-1.929 1.952-1.977 2.251-.074.454.082.766 1.102 2.198l.853 1.197-.554 1.107c-.31.62-.704 1.57-.896 2.16-.188.58-.361 1.078-.385 1.106-.024.028-.773.173-1.663.321-1.806.3-2.073.41-2.284.937-.175.434-.175 5.146 0 5.58.211.527.478.636 2.284.936.89.149 1.639.293 1.663.322.024.028.197.526.385 1.105.192.591.585 1.54.896 2.16l.554 1.107-.853 1.197c-1.02 1.433-1.176 1.745-1.102 2.198.048.3.215.49 1.977 2.252 1.762 1.762 1.953 1.93 2.252 1.977.454.074.765-.083 2.198-1.102l1.197-.853 1.106.554c.62.31 1.57.704 2.16.896.58.188 1.078.361 1.106.385.029.024.173.773.322 1.663.3 1.806.41 2.073.936 2.284.434.175 5.146.175 5.58 0 .527-.211.636-.477.937-2.284.148-.89.293-1.639.321-1.663.028-.024.526-.197 1.106-.385.59-.192 1.54-.585 2.16-.896l1.107-.554 1.197.853c1.432 1.02 1.744 1.176 2.198 1.102.299-.048.49-.215 2.251-1.977 1.762-1.762 1.93-1.953 1.978-2.252.073-.453-.083-.765-1.103-2.198l-.852-1.197.554-1.106c.31-.62.704-1.57.895-2.16.188-.58.362-1.078.386-1.106.024-.029.772-.173 1.663-.322 1.806-.3 2.072-.41 2.284-.936.174-.434.174-5.146 0-5.58-.212-.527-.478-.636-2.284-.937-.89-.148-1.64-.293-1.663-.321-.024-.028-.198-.526-.386-1.106-.191-.59-.585-1.54-.895-2.16l-.554-1.107.852-1.197c1.02-1.432 1.176-1.744 1.103-2.198-.048-.299-.215-.49-1.978-2.251-1.762-1.763-1.952-1.93-2.251-1.978-.454-.073-.766.083-2.198 1.103l-1.197.852-1.107-.554c-.62-.31-1.57-.704-2.16-.895-.58-.188-1.078-.362-1.106-.386-.028-.024-.173-.772-.321-1.663-.3-1.806-.41-2.072-.937-2.284-.425-.17-5.191-.167-5.6.004zm4.072 7.066c5.132.522 9.383 3.954 10.991 8.875a12.872 12.872 0 010 7.853c-1.864 5.705-7.398 9.416-13.262 8.895-1.198-.107-1.95-.254-2.916-.57-3.986-1.302-7.023-4.339-8.326-8.325a12.882 12.882 0 010-7.853 12.682 12.682 0 013.163-5.162c2.753-2.753 6.516-4.103 10.35-3.713zm-2.276 7.067c-2.075.447-3.667 2.429-3.667 4.563 0 2.527 2.156 4.683 4.682 4.683 2.155 0 4.126-1.6 4.568-3.707.334-1.589-.121-3.102-1.281-4.262-1.163-1.163-2.706-1.62-4.302-1.277zm-4.851 9.464a8.208 8.208 0 00-1.737 2.767l-.195.523.716.682c1.434 1.365 3.19 2.264 5.194 2.658.924.182 2.853.182 3.776 0 2.003-.394 3.76-1.293 5.194-2.658l.717-.682-.196-.523a8.208 8.208 0 00-1.736-2.767l-.423-.448-.581.551c-2.462 2.339-5.86 2.675-8.67.859a9.086 9.086 0 01-1.056-.859l-.58-.551-.423.448z" fill="#1FC7BD"/></svg>