<svg width="90" height="90" fill="none" xmlns="http://www.w3.org/2000/svg"><path d="M76.64 45c0-17.447-14.193-31.64-31.64-31.64-17.447 0-31.64 14.193-31.64 31.64 0 17.447 14.193 31.64 31.64 31.64 17.447 0 31.64-14.193 31.64-31.64zm-56.25 0c0-12.376 9.184-22.646 21.094-24.357v7.384c-4.092 1.451-7.03 5.359-7.03 9.942 0 5.816 4.73 10.547 10.546 10.547a3.52 3.52 0 013.516 3.515A3.52 3.52 0 0145 55.547a3.52 3.52 0 01-3.516-3.516h-7.03c0 4.584 2.938 8.491 7.03 9.943v7.384C29.574 67.645 20.391 57.376 20.391 45zm28.126 24.357v-7.384c4.092-1.45 7.03-5.359 7.03-9.942 0-5.815-4.73-10.547-10.546-10.547a3.52 3.52 0 01-3.516-3.515A3.52 3.52 0 0145 34.453a3.52 3.52 0 013.516 3.516h7.03c0-4.583-2.938-8.491-7.03-9.942v-7.384c11.91 1.71 21.093 11.98 21.093 24.357 0 12.376-9.183 22.646-21.093 24.357z" fill="#0075E1"/><path d="M82.49 70.128C87.377 62.733 90 54.068 90 45 90 19.766 70.234 0 45 0S0 19.766 0 45s19.766 45 45 45v-7.031C23.71 82.969 7.031 66.29 7.031 45S23.71 7.031 45 7.031C66.29 7.031 82.969 23.71 82.969 45c0 10.33-4.023 20.041-11.327 27.345l-7.4 7.4 22.723-3.137-.962-6.966-3.513.486z" fill="#0075E1"/></svg>