<svg width="90" height="90" fill="none" xmlns="http://www.w3.org/2000/svg"><path fill-rule="evenodd" clip-rule="evenodd" d="M43.748.327c-.46.244-.974.858-1.87 2.234-3.143 4.833-4.796 8.55-4.79 10.771.006 2.657 1.743 5.48 4.13 6.713.945.49 1.141.667 1.142 1.033 0 .356-.166.521-.86.85-.472.225-1.119.625-1.436.89l-.577.481-.959-.577c-2.465-1.484-6.061-1.998-9.628-1.376-2.529.44-4.448 1.403-7.09 3.555-1.787 1.455-3.088 1.777-4.424 1.096-.78-.399-1.403-1.412-1.403-2.284 0-1.338-1.3-2.637-2.638-2.637-.872 0-1.885.622-2.283 1.402-1.093 2.141.638 6.307 3.258 7.842l.758.444-.845 2.057c-.465 1.132-2.247 5.538-3.96 9.794a2482.13 2482.13 0 01-3.643 9.01L6.103 52.9H4.09c-1.67 0-2.131.06-2.707.354-1.348.688-1.685 2.158-1.122 4.884a13.313 13.313 0 0010.308 10.307c1.965.406 13.948.409 15.909.004 2.635-.544 4.839-1.741 6.725-3.652 2.344-2.376 3.57-5.05 3.823-8.346.091-1.178.054-1.465-.272-2.103-.594-1.166-1.33-1.448-3.778-1.448h-2.014l-4.237-10.653c-2.33-5.86-4.279-10.825-4.33-11.033-.077-.31.047-.454.668-.781.419-.22 1.466-.954 2.328-1.63 2.408-1.891 3.899-2.455 6.471-2.45 3.138.007 5.22 1.19 5.225 2.968.003.839.388 2.249.9 3.3.558 1.14 2.31 2.87 3.45 3.403l.924.432v38.161l-.923.423c-1.14.522-2.912 2.266-3.456 3.4-.53 1.105-.892 2.5-.895 3.448-.002 1.025-.61 2.078-1.444 2.504-.57.29-1.059.333-3.833.333-2.84 0-3.254.038-3.873.354-.78.398-1.403 1.411-1.403 2.284 0 .872.622 1.885 1.402 2.283.681.347 1.005.354 17.063.354 16.057 0 16.38-.007 17.062-.354.78-.398 1.402-1.411 1.402-2.283 0-.873-.622-1.886-1.402-2.284-.62-.316-1.034-.354-3.874-.354s-3.253-.038-3.873-.354c-.841-.429-1.401-1.424-1.404-2.496-.003-.95-.364-2.32-.9-3.42-.57-1.166-2.317-2.896-3.45-3.415l-.924-.423.001-19.078V36.46l1.143-.591c2.318-1.199 4.121-4.058 4.13-6.548.006-1.78 2.087-2.962 5.225-2.969 2.572-.005 4.063.559 6.471 2.45.862.676 1.91 1.41 2.328 1.63.62.326.745.472.669.78-.052.208-2.001 5.173-4.332 11.033L59.03 52.9h-2.01c-1.67 0-2.13.06-2.706.354-1.348.688-1.685 2.158-1.122 4.884A13.313 13.313 0 0063.5 68.445c1.965.406 13.948.409 15.909.004 2.634-.544 4.839-1.741 6.725-3.652 2.344-2.376 3.569-5.05 3.823-8.346.091-1.178.054-1.465-.272-2.103-.594-1.166-1.33-1.448-3.778-1.448h-2.013l-.526-1.274c-.29-.702-1.834-4.52-3.432-8.484a3781.89 3781.89 0 00-3.96-9.794l-1.055-2.585.757-.443c2.609-1.529 4.345-5.71 3.257-7.842-.398-.78-1.41-1.402-2.283-1.402-1.338 0-2.638 1.3-2.638 2.637 0 .872-.622 1.885-1.402 2.284-1.45.738-2.564.392-5.017-1.558-2.803-2.228-5.067-3.105-8.529-3.303-2.953-.168-5.602.385-7.597 1.586l-.96.577-.576-.481c-.317-.265-.964-.665-1.437-.89-.695-.33-.86-.493-.86-.852 0-.365.167-.523.923-.877 1.14-.533 2.893-2.262 3.45-3.402 1.507-3.088 1.114-5.56-1.677-10.579-1.85-3.325-3.386-5.525-4.12-5.9-.839-.427-1.644-.424-2.464.01zm2.617 9.687c.615 1.203 1.162 2.515 1.215 2.915.19 1.412-1.13 2.872-2.594 2.872-1.25 0-2.625-1.334-2.625-2.546 0-.946 2.29-5.628 2.689-5.496.109.036.7 1.05 1.315 2.255zm-.131 16.69c.78.398 1.402 1.411 1.402 2.284 0 1.344-1.3 2.637-2.65 2.637-1.294 0-2.625-1.337-2.625-2.637 0-.846.622-1.883 1.364-2.275.849-.448 1.643-.45 2.509-.009zM22.04 44.724l3.22 8.089-3.42.047c-1.88.026-4.9.026-6.712 0l-3.294-.047 3.35-8.308c2.11-5.235 3.402-8.226 3.493-8.088.08.12 1.593 3.859 3.363 8.307zm53.786 2.33l2.365 5.846H64.7l.333-.835 3.27-8.22c1.615-4.061 2.98-7.455 3.031-7.542.052-.086.552.982 1.112 2.374.559 1.392 2.08 5.162 3.381 8.377zM31.282 58.282c0 .06-.25.578-.557 1.153-.638 1.197-1.989 2.508-3.207 3.112-1.705.846-2.24.899-8.985.899-6.746 0-7.283-.054-8.982-.9-1.517-.754-3.278-2.66-3.672-3.975l-.119-.396h12.761c7.019 0 12.761.049 12.761.108zm52.931 0c0 .06-.25.578-.557 1.153-.638 1.197-1.989 2.508-3.208 3.112-1.704.846-2.238.899-8.984.899s-7.283-.054-8.982-.9c-1.517-.754-3.278-2.66-3.672-3.975l-.119-.396h12.761c7.019 0 12.761.049 12.761.108zM46.234 79.804c.871.445 1.315 1.294 1.468 2.811.063.629.163 1.36.22 1.627l.107.483h-6.064l.12-.571c.067-.315.162-1.007.211-1.539.133-1.431.534-2.23 1.37-2.732.874-.523 1.65-.547 2.568-.079z" fill="#0075E1"/></svg>