<svg width="40" height="40" fill="none" xmlns="http://www.w3.org/2000/svg"><path d="M20 40c11.046 0 20-8.954 20-20S31.046 0 20 0 0 8.954 0 20s8.954 20 20 20z" fill="#1876D7"/><path d="M40 20c0-.285-.007-.568-.018-.85l-8.73-8.729L7.4 30.791l8.861 8.86c1.211.23 2.46.349 3.738.349 11.046 0 20-8.954 20-20z" fill="#043B74"/><path d="M32.598 30.79H7.4V16.217L20 4.687l12.598 11.53V30.79z" fill="#EFF2FC"/><path d="M32.599 16.217L20 4.687V30.79h12.599V16.217z" fill="#E9EDF5"/><path d="M8.746 10.421h22.507v13.281H8.746v-13.28z" fill="#B1FFFA"/><path d="M20 10.421h11.253v13.281H20v-13.28z" fill="#74E6DF"/><path d="M10.525 12.159h18.95v9.806h-18.95v-9.806z" fill="#1FC7BD"/><path d="M20 12.159h9.474v9.806H20v-9.806z" fill="#22BEB5"/><path d="M19.999 20.542c1.36 0 2.463-1.558 2.463-3.48 0-1.923-1.102-3.48-2.463-3.48-1.36 0-2.464 1.557-2.464 3.48 0 1.922 1.103 3.48 2.464 3.48z" fill="#B1FFFA"/><path d="M22.464 17.061c0-1.921-1.104-3.48-2.464-3.48v6.96c1.36 0 2.464-1.558 2.464-3.48z" fill="#14A49B"/><path d="M13.664 18.724a1.662 1.662 0 100-3.324 1.662 1.662 0 000 3.324z" fill="#B1FFFA"/><path d="M26.336 18.724a1.662 1.662 0 100-3.324 1.662 1.662 0 000 3.324z" fill="#14A49B"/><path d="M7.4 16.217V30.79h25.198L7.4 16.217z" fill="#EFF2FC"/><path d="M32.598 16.217L7.4 30.79h25.198V16.217z" fill="#93B7FF"/><path d="M20 23.504v7.286h12.599L20 23.504z" fill="#93B7FF"/></svg>