<svg width="90" height="90" fill="none" xmlns="http://www.w3.org/2000/svg"><path d="M73.125 75.938v-7.032H59.062v7.031h14.063zM58.033 20.063l-4.972-4.972L41.484 26.67l-4.545-4.546-4.972 4.972 9.517 9.517 16.549-16.548zM42.806 55.709L45 56.44l2.194-.731a32.74 32.74 0 0022.415-31.1V0H20.391v24.61a32.74 32.74 0 0022.415 31.099zM27.422 7.03h35.156v17.58A25.72 25.72 0 0145 49.03a25.717 25.717 0 01-17.578-24.42V7.031zm52.031 26.72h-3.87a39.67 39.67 0 01-2.365 7.031h6.235a3.52 3.52 0 013.516 3.516v3.516H69.194a39.768 39.768 0 01-6.45 7.03h20.225v24.61a3.52 3.52 0 01-3.516 3.516H10.547a3.52 3.52 0 01-3.516-3.516v-24.61h20.225a39.764 39.764 0 01-6.45-7.03H7.031v-3.516a3.52 3.52 0 013.516-3.516h6.235a39.703 39.703 0 01-2.364-7.031h-3.871C4.73 33.75 0 38.481 0 44.297v35.156C0 85.27 4.731 90 10.547 90h68.906C85.27 90 90 85.269 90 79.453V44.297c0-5.816-4.731-10.547-10.547-10.547zM37.97 75.938h14.06v-7.032H37.97v7.031zm-21.094 0h14.063v-7.032H16.874v7.031z" fill="#0075E1"/></svg>