<svg width="250" height="67" fill="none" xmlns="http://www.w3.org/2000/svg"><path d="M93.55 16.353H79.732a1.92 1.92 0 00-1.897 1.62l-5.588 35.429a1.151 1.151 0 001.14 1.33h6.596a1.92 1.92 0 001.897-1.623l1.507-9.556a1.92 1.92 0 011.895-1.622h4.373c9.101 0 14.354-4.404 15.726-13.131.618-3.818.026-6.818-1.762-8.92-1.964-2.306-5.447-3.527-10.07-3.527zm1.593 12.94c-.755 4.957-4.543 4.957-8.206 4.957h-2.085l1.463-9.258a1.151 1.151 0 011.137-.972h.956c2.495 0 4.848 0 6.064 1.422.726.849.948 2.11.671 3.85zm39.705-.16h-6.616a1.153 1.153 0 00-1.137.972l-.293 1.85-.463-.67c-1.432-2.079-4.626-2.774-7.814-2.774-7.311 0-13.556 5.537-14.772 13.305-.632 3.875.267 7.58 2.465 10.164 2.016 2.376 4.901 3.365 8.333 3.365 5.891 0 9.158-3.788 9.158-3.788l-.295 1.839a1.155 1.155 0 00.653 1.227c.151.07.316.106.482.106h5.96a1.919 1.919 0 001.897-1.622l3.576-22.645a1.147 1.147 0 00-1.134-1.33zm-9.222 12.877c-.638 3.78-3.638 6.317-7.465 6.317-1.921 0-3.456-.616-4.442-1.784-.978-1.16-1.35-2.81-1.038-4.648.596-3.748 3.646-6.368 7.414-6.368 1.879 0 3.406.624 4.412 1.802 1.008 1.19 1.408 2.85 1.119 4.681zm44.459-12.877h-6.649a1.928 1.928 0 00-1.59.843l-9.169 13.507-3.887-12.98a1.93 1.93 0 00-1.843-1.37h-6.533a1.157 1.157 0 00-.939.48 1.152 1.152 0 00-.154 1.044l7.323 21.49-6.885 9.72a1.155 1.155 0 00.341 1.65c.18.11.388.168.599.168h6.64a1.92 1.92 0 001.578-.824l22.113-31.92c.12-.172.19-.375.204-.584a1.156 1.156 0 00-.553-1.057 1.152 1.152 0 00-.596-.167z" fill="#253B80"/><path d="M192.096 16.353h-13.818a1.918 1.918 0 00-1.895 1.62l-5.588 35.429a1.15 1.15 0 001.136 1.33h7.091a1.343 1.343 0 001.325-1.136l1.586-10.043a1.918 1.918 0 011.895-1.622h4.372c9.103 0 14.353-4.404 15.727-13.131.62-3.818.024-6.818-1.764-8.92-1.961-2.306-5.442-3.527-10.067-3.527zm1.594 12.94c-.753 4.957-4.541 4.957-8.206 4.957h-2.082l1.464-9.258a1.15 1.15 0 011.136-.972h.955c2.493 0 4.849 0 6.065 1.422.725.849.945 2.11.668 3.85zm39.704-.16h-6.613a1.147 1.147 0 00-1.135.972l-.293 1.85-.464-.67c-1.433-2.08-4.625-2.774-7.813-2.774-7.311 0-13.553 5.537-14.769 13.305-.631 3.875.264 7.58 2.462 10.164 2.02 2.375 4.901 3.365 8.334 3.365 5.891 0 9.157-3.788 9.157-3.788l-.295 1.839a1.16 1.16 0 00.262.93 1.151 1.151 0 00.878.403h5.957a1.917 1.917 0 001.895-1.622l3.578-22.645a1.155 1.155 0 00-1.141-1.329zm-9.223 12.877c-.634 3.78-3.638 6.317-7.464 6.317-1.918 0-3.457-.616-4.443-1.784-.978-1.16-1.345-2.81-1.038-4.648.6-3.748 3.646-6.368 7.414-6.368 1.879 0 3.406.624 4.412 1.802 1.012 1.19 1.412 2.85 1.119 4.681zm17.023-24.685l-5.671 36.077a1.15 1.15 0 001.135 1.33h5.701c.948 0 1.752-.688 1.897-1.623l5.592-35.426a1.152 1.152 0 00-1.135-1.332h-6.384a1.154 1.154 0 00-1.135.974z" fill="#179BD7"/><path d="M14.873 61.616l1.057-6.711-2.354-.055H2.338l7.81-49.521a.638.638 0 01.634-.541h18.95c6.29 0 10.632 1.309 12.899 3.893 1.063 1.212 1.74 2.478 2.067 3.872.343 1.463.35 3.21.014 5.342l-.025.155v1.366l1.063.602a7.46 7.46 0 012.152 1.64c.909 1.037 1.497 2.354 1.745 3.915.257 1.607.172 3.518-.248 5.681-.485 2.49-1.27 4.657-2.328 6.43a13.227 13.227 0 01-3.686 4.041c-1.407.998-3.077 1.756-4.966 2.24-1.83.477-3.917.718-6.206.718h-1.475c-1.055 0-2.079.38-2.883 1.06a4.465 4.465 0 00-1.503 2.683l-.111.604-1.867 11.828-.084.435c-.023.137-.061.206-.118.252a.313.313 0 01-.194.071h-9.105z" fill="#253B80"/><path d="M46.755 18.208c-.056.362-.12.731-.194 1.111-2.499 12.83-11.048 17.263-21.967 17.263h-5.56a2.7 2.7 0 00-2.669 2.287L13.52 56.92l-.806 5.117a1.422 1.422 0 001.404 1.645h9.86c1.168 0 2.16-.849 2.344-2l.097-.501L28.274 49.4l.12-.647a2.371 2.371 0 012.343-2.004h1.475c9.553 0 17.032-3.878 19.218-15.103.913-4.689.44-8.604-1.976-11.357a9.428 9.428 0 00-2.699-2.081z" fill="#179BD7"/><path d="M44.141 17.165c-.798-.23-1.61-.41-2.43-.539a30.879 30.879 0 00-4.901-.358H21.957a2.368 2.368 0 00-2.341 2.005l-3.16 20.012-.09.584a2.7 2.7 0 012.668-2.287h5.56c10.919 0 19.468-4.435 21.967-17.263.075-.38.138-.75.194-1.111a13.312 13.312 0 00-2.054-.867c-.186-.061-.372-.12-.56-.176z" fill="#222D65"/><path d="M19.616 18.273a2.361 2.361 0 012.34-2.003H36.81c1.76 0 3.403.116 4.902.358a19.72 19.72 0 012.991.713c.738.245 1.423.534 2.055.867.743-4.742-.006-7.97-2.57-10.893-2.826-3.218-7.927-4.596-14.454-4.596h-18.95a2.71 2.71 0 00-2.677 2.289L.213 55.038a1.628 1.628 0 001.606 1.883h11.7l2.937-18.636 3.16-20.012z" fill="#253B80"/></svg>