<svg width="40" height="40" fill="none" xmlns="http://www.w3.org/2000/svg"><path d="M39.332 23.088a.605.605 0 00.504-.52 20.184 20.184 0 000-5.136.605.605 0 00-.504-.52l-3.356-.534a16.282 16.282 0 00-2.12-5.112l1.996-2.75a.605.605 0 00-.011-.725 20.12 20.12 0 00-3.632-3.632.605.605 0 00-.725-.01l-2.75 1.995a16.28 16.28 0 00-5.112-2.12L23.088.668a.605.605 0 00-.52-.504 20.188 20.188 0 00-5.136 0 .605.605 0 00-.52.504l-.534 3.356a16.282 16.282 0 00-5.112 2.12l-2.75-1.996a.605.605 0 00-.725.011 20.118 20.118 0 00-3.632 3.632.605.605 0 00-.01.725l1.995 2.75a16.28 16.28 0 00-2.12 5.112l-3.356.534a.605.605 0 00-.504.52 20.19 20.19 0 000 5.136c.034.266.24.478.504.52l3.356.534a16.4 16.4 0 0012.354 12.354l.534 3.356c.042.265.254.47.52.505a20.184 20.184 0 005.136 0 .605.605 0 00.52-.505l.534-3.356a16.28 16.28 0 005.113-2.12l2.75 1.996a.605.605 0 00.724-.011 20.115 20.115 0 003.632-3.632.605.605 0 00.01-.725l-1.995-2.75a16.28 16.28 0 002.12-5.112l3.356-.534zM20 30.342c-5.712 0-10.342-4.63-10.342-10.342 0-5.712 4.63-10.342 10.342-10.342 5.712 0 10.342 4.63 10.342 10.342 0 5.712-4.63 10.342-10.342 10.342z" fill="#56AAF8"/><path d="M20 6.036v3.622c5.712 0 10.342 4.63 10.342 10.342 0 5.712-4.63 10.342-10.342 10.342v3.622c7.712 0 13.964-6.252 13.964-13.964 0-7.712-6.252-13.964-13.964-13.964z" fill="#043B74"/><path d="M20 6.036C12.29 6.036 6.038 12.288 6.038 20c0 7.712 6.252 13.964 13.964 13.964 6.378 0 11.55-6.252 11.55-13.964 0-7.712-5.172-13.964-11.55-13.964zm0 23.099a9.135 9.135 0 113.372-17.628l-1.91 7.031 7.031-1.909a9.135 9.135 0 01-8.492 12.505z" fill="#1876D7"/><path d="M4.46 36.576L.353 39.647c.4.4 1.012.46 1.476.18l2.383-1.442.246-1.809z" fill="#002850"/><path d="M1.278 39.274l3.18-2.698.163-1.197-3.006.408L.174 38.17a1.207 1.207 0 00.179 1.477c.133.134.522-.03.925-.373z" fill="#424247"/><path d="M10.598 34.525L27.08 13.47 3.348 37.52l.866.865 6.383-3.86z" fill="#7C90D5"/><path d="M24.254 15.119L5.475 29.404l-3.86 6.383 1.732 1.732 22.284-21.023-1.377-1.377z" fill="#EFF2FC"/><path d="M26.459 13.54L17.585 20l-6.99 9.403a3.622 3.622 0 000 5.122L28.493 16.63a9.147 9.147 0 00-2.033-3.088z" fill="#1FC7BD"/><path d="M5.475 29.403a3.622 3.622 0 005.122 0l15.862-15.862a9.146 9.146 0 00-3.088-2.034L5.474 29.403z" fill="#B1FFFA"/></svg>