<svg width="60" height="40" fill="none" xmlns="http://www.w3.org/2000/svg"><path fill-rule="evenodd" clip-rule="evenodd" d="M28.343.057c-.355.02-1.278.114-2.052.207-4.971.598-8.322 1.944-9.214 3.7-.258.509-.26.561-.184 3.578l.078 3.063-.616-.088c-1.16-.165-3.943-.094-4.955.126-4.22.919-7.526 3.227-9.608 6.711-2.263 3.785-2.393 8.796-.33 12.692 1.025 1.938 2.77 3.894 4.524 5.075 4.902 3.298 11.426 3.35 16.366.132l.987-.642.909.174c1.23.236 3.495.487 5.231.579l1.43.076.306.596c.833 1.622 3.607 2.849 7.922 3.503 6.545.991 14.06.346 18.226-1.567 1.048-.48 2.292-1.623 2.497-2.294.103-.336.14-2.266.14-7.154l-.001-6.694-.274-.56c-.718-1.47-3.066-2.648-6.681-3.353-1.308-.255-3.565-.517-5.853-.68l-.909-.064v-6.107c0-5.419-.021-6.164-.195-6.613-.397-1.033-1.1-1.707-2.503-2.4C41.677 1.11 38.278.356 34.745.09c-1.395-.105-4.878-.123-6.402-.034zm4.974 2.268c2.36.12 3.439.238 5.227.576 2.867.54 5.37 1.647 5.12 2.264-.209.52-1.975 1.305-4.034 1.792-4.347 1.03-10.79 1.122-15.447.22-2.181-.422-4.412-1.308-4.84-1.922-.166-.237-.158-.277.102-.541.437-.447 1.113-.779 2.449-1.203 2.087-.663 4.347-1.026 7.328-1.18.903-.045 1.72-.09 1.818-.098.096-.008 1.121.034 2.277.092zM16.676 12.908c3.534.649 6.61 2.92 8.296 6.128 1.82 3.46 1.596 7.664-.583 11-.657 1.006-2.15 2.526-3.153 3.208-2.322 1.582-5.418 2.362-8.16 2.059-2.792-.31-5.044-1.306-7.03-3.11-2.076-1.886-3.354-4.421-3.604-7.149-.698-7.62 6.305-13.59 14.234-12.136zm27.144 2.87v1.491l-1.495.073c-2.933.144-6.233.761-8.168 1.53-.922.365-2.123 1.054-2.399 1.374-.134.157-.397.187-1.598.187-1.63 0-2.169-.072-2.169-.292 0-.32-.873-2.214-1.421-3.084a35.81 35.81 0 01-.572-.923c0-.009.303.024.674.072 1.35.177 6.52.239 8.254.1 3.687-.298 6.129-.85 8.865-2.008.016-.007.03.659.03 1.48zm-29.875-1.023c-.457.116-.844.652-.845 1.169 0 .323-.062.38-.733.68a4.324 4.324 0 00-2.129 2.04c-.33.663-.363.827-.363 1.845 0 .973.04 1.197.306 1.733.422.846 1.132 1.572 1.944 1.984.609.31 1.164.444 2.711.657.5.07 1.259.722 1.437 1.236.452 1.306-.576 2.707-1.993 2.715-.99.006-1.955-.829-2.086-1.806-.127-.948-.484-1.321-1.265-1.321-.319 0-.517.085-.783.339-.338.322-.353.377-.31 1.09.09 1.476 1.15 2.946 2.574 3.569l.665.291.048.724c.043.645.089.758.425 1.044.923.786 2.014.089 2.014-1.289 0-.494.005-.5.636-.776 1.79-.78 2.9-2.785 2.535-4.573a4.48 4.48 0 00-2.46-3.154c-.368-.178-1.025-.35-1.706-.448-1.23-.176-1.387-.235-1.84-.692-1.425-1.433.088-3.804 2.098-3.288.26.067.612.227.784.355.378.284.774.993.774 1.386 0 .432.299 1.028.59 1.177.37.188.974.162 1.325-.057.44-.275.588-.804.438-1.577-.279-1.438-1.207-2.63-2.502-3.214-.554-.25-.672-.352-.672-.583 0-.336-.275-.997-.46-1.106-.303-.178-.795-.242-1.157-.15zm34.272 4.897c4.132.287 7.687 1.157 8.953 2.19.582.476.541.627-.316 1.151-3.368 2.06-13.135 2.71-19.447 1.293-2.073-.465-3.936-1.27-4.255-1.838-.114-.203-.082-.282.233-.561 1.212-1.08 4.645-1.928 9.204-2.275 1.071-.081 4.208-.06 5.628.04zm-17.594 3.145c.02.021.076.937.123 2.033l.085 1.994-1.215-.08c-.668-.043-1.23-.092-1.249-.107-.019-.015.02-.349.087-.74.067-.392.122-1.286.122-1.986l.001-1.274 1.004.06c.552.033 1.02.078 1.042.1zm.138 6.287c.008.006.035.918.059 2.024l.044 2.012-1.114-.035c-1.052-.034-4.236-.333-4.312-.405-.02-.018.257-.438.614-.932.357-.494.867-1.33 1.133-1.859l.483-.96 1.54.071c.846.04 1.545.077 1.553.084zm26.686 6.094c-.739.944-4.178 1.963-7.999 2.37-1.912.205-6.598.177-8.527-.05-3.68-.434-6.55-1.3-7.367-2.225-.275-.313-.287-.39-.287-1.938 0-.887.04-1.612.09-1.612.05 0 .465.15.924.333 2.31.926 5.72 1.455 9.922 1.538 5.201.104 9.417-.458 12.34-1.644l1.054-.428.033 1.69c.029 1.496.008 1.723-.183 1.966z" fill="#1FC7BD"/></svg>