<svg width="90" height="90" fill="none" xmlns="http://www.w3.org/2000/svg"><path d="M59.063 30.938c0-7.755-6.309-14.063-14.063-14.063-7.754 0-14.063 6.308-14.063 14.063C30.938 38.691 37.246 45 45 45c7.754 0 14.063-6.308 14.063-14.063zM45 37.968a7.04 7.04 0 01-7.031-7.03A7.04 7.04 0 0145 23.905a7.04 7.04 0 017.031 7.032A7.04 7.04 0 0145 37.968zM86.484 2.813H3.516A3.516 3.516 0 000 6.329v49.219a3.516 3.516 0 003.516 3.516H45a3.515 3.515 0 100-7.032H20.74c-1.4-6.878-6.83-12.308-13.709-13.71v-14.77c6.878-1.4 12.308-6.83 13.71-13.708H69.26c1.4 6.876 6.83 12.306 13.709 13.709v14.736a3.515 3.515 0 107.03 0V6.329a3.515 3.515 0 00-3.515-3.516zm-73.026 49.22H7.03v-6.427a10.597 10.597 0 016.427 6.426zM7.03 16.27V9.844h6.427A10.597 10.597 0 017.03 16.27zm75.938 0a10.596 10.596 0 01-6.427-6.426h6.427v6.426zm5.088 36.132c-.318-.158-7.863-3.886-15.635-3.886-7.772 0-15.317 3.728-15.635 3.886a3.516 3.516 0 00-1.943 3.145v5.371a28.933 28.933 0 004.324 15.223A28.934 28.934 0 0070.85 86.816a3.516 3.516 0 003.144 0 28.934 28.934 0 0011.682-10.675A28.934 28.934 0 0090 60.918v-5.371a3.516 3.516 0 00-1.943-3.145zm-5.088 8.516c0 7.756-3.998 14.784-10.547 18.743-6.549-3.96-10.547-10.987-10.547-18.743v-3.075c2.564-1.01 6.716-2.296 10.547-2.296 4.037 0 8.192 1.373 10.547 2.304v3.067z" fill="#0075E1"/></svg>