<svg width="199" height="90" fill="none" xmlns="http://www.w3.org/2000/svg"><g clip-path="url(#clip0)"><path d="M97.043 50.69h3.109v6.962h2.243l4.028-6.961h3.393l-4.832 8.17v.055l5.123 8.92h-3.515l-4.142-7.48h-2.244v7.474h-3.109V50.69h-.054zm20.024 4.542c3.738 0 6.786 2.704 6.786 6.448 0 3.798-2.994 6.44-6.731 6.44-3.738 0-6.732-2.642-6.732-6.44-.06-3.798 2.933-6.448 6.677-6.448zm9.198.291h2.94v9.664h3.852v-9.664h2.933v9.664h3.853v-9.664h2.939V67.83H126.38V55.523h-.115zm25.208-.29c3.501 0 5.461 2.588 5.461 5.812-.01.405-.048.81-.115 1.21h-8.461c.176 2.128 1.845 3.277 3.683 3.277a6.005 6.005 0 003.514-1.325l1.203 2.19a7.9 7.9 0 01-4.947 1.784c-4.082 0-6.616-2.94-6.616-6.447 0-3.852 2.588-6.502 6.272-6.502h.006zm6.894 10.008c1.5-.23 2.595-1.486 2.595-5.866v-3.852h8.975V67.83h-3.055v-9.827h-2.987v1.379c0 5.346-1.439 8.455-5.528 8.57V65.24zm20.315-10.002c3.507 0 5.461 2.582 5.461 5.812a8.67 8.67 0 01-.115 1.203h-8.455c.169 2.129 1.838 3.278 3.683 3.278a6.008 6.008 0 003.508-1.325l1.21 2.19a7.901 7.901 0 01-4.947 1.784c-4.089 0-6.623-2.94-6.623-6.447 0-3.852 2.595-6.502 6.278-6.502v.007zm7.995.284h3.048v4.717h1.493l2.994-4.717h3.393l-3.913 5.866v.061l4.372 6.38h-3.561l-3.224-5.001h-1.608v5h-3.055V55.524h.061zm-69.61 9.955c2.014 0 3.677-1.554 3.677-3.852a3.72 3.72 0 00-3.683-3.86c-2.007 0-3.623 1.555-3.623 3.853s1.609 3.852 3.629 3.852v.007zm36.765-5.353c0-1.608-1.102-2.588-2.48-2.588-1.555 0-2.703 1.034-2.994 2.588h5.474zm27.209 0c0-1.608-1.095-2.588-2.474-2.588-1.554 0-2.703 1.034-2.994 2.588h5.468z" fill="#2D3540"/><path d="M140.018 13.352v29.054a.787.787 0 01-.493.748.786.786 0 01-.311.056h-5.927a.786.786 0 01-.804-.804V13.352a.778.778 0 01.498-.75.782.782 0 01.313-.054h5.92a.785.785 0 01.811.804h-.007zm46.253-.804c.23 0 .52.115.811.345.169.168.169.46.115.689l-9.786 29.114a.82.82 0 01-.743.514h-5.292c-.351 0-.635-.17-.75-.514l-5.697-16.976-5.697 16.97a.822.822 0 01-.744.52h-5.305c-.338 0-.629-.17-.743-.52l-9.786-29.108c-.054-.23-.054-.46.115-.69.121-.23.405-.344.635-.344h6.616c.345 0 .635.23.744.574l5.237 17.2 5.758-17.2a.822.822 0 01.744-.52h4.663c.338 0 .628.176.743.52l5.758 17.2 5.238-17.2a.788.788 0 01.743-.574h6.623zm10.009 0c.405 0 .75.345.811.804v29.054a.778.778 0 01-.498.75.781.781 0 01-.313.054h-5.92a.778.778 0 01-.58-.227.784.784 0 01-.231-.577V13.352a.778.778 0 01.498-.75.782.782 0 01.313-.054h5.92zm-67.244 29.628a.592.592 0 01-.466.98h-7.252a.928.928 0 01-.743-.352l-1.21-1.487a16.22 16.22 0 01-8.684 2.582 16.057 16.057 0 010-32.101 16.055 16.055 0 0116.053 16.625 16.06 16.06 0 01-2.537 8.11l4.832 5.643h.007zM68.449 56.273c1.5.575 2.075 2.819 2.19 3.792.23 1.784-.291 2.473-.865 2.473-.575 0-1.38-.69-2.244-2.068-.865-1.378-1.21-2.933-.744-3.737.284-.52.92-.75 1.663-.46zm-8.745 6.502c.926 0 1.96.405 2.879 1.203 1.784 1.5 2.297 3.223 1.378 4.487-.513.635-1.378 1.034-2.358 1.034-.98 0-2.014-.338-2.703-.973-1.609-1.385-2.068-3.683-1.034-4.947a2.228 2.228 0 011.838-.811v.007zM39.57 79.4a39.575 39.575 0 1139.583-39.583 39.827 39.827 0 01-5.582 20.309c-.115.168-.406.114-.46-.115-1.379-9.726-7.306-15.071-15.936-16.686-.743-.115-.865-.575.115-.69 2.643-.23 6.387-.175 8.34.17a26.203 26.203 0 00-26.006-29.23c-14.435 0-26.174 11.746-26.174 26.181 0 14.436 11.739 26.181 26.181 26.181h1.203a35.31 35.31 0 01-.514-7.075c.068-1.616.406-1.845 1.095-.581 3.63 6.271 8.806 11.914 18.93 14.158 8.285 1.838 16.57 3.967 25.485 15.3.81.98-.406 2.014-1.325 1.21-9.09-8.056-17.368-10.705-24.91-10.705-8.455.061-14.206 1.15-20.018 1.15l-.007.006zm75.077-43.665l-3.163-3.852c-.345-.405-.061-1.04.46-1.04h6.67c.345-.92.52-1.96.52-2.995 0-4.77-3.568-8.92-8.454-8.92-4.893 0-8.461 4.15-8.461 8.92 0 4.772 3.568 8.86 8.461 8.86 1.378.061 2.757-.338 3.967-.973z" fill="#FF8C00"/></g><defs><clipPath id="clip0"><path fill="#fff" d="M0 0h198.063v90H0z"/></clipPath></defs></svg>