<svg width="40" height="40" fill="none" xmlns="http://www.w3.org/2000/svg"><g clip-path="url(#clip0)"><path d="M12.132 38.393C4.998 35.337 0 28.253 0 20 0 8.954 8.954 0 20 0s20 8.954 20 20c0 10.365-7.885 18.889-17.984 19.9l-9.884-1.507z" fill="#B4CDFF"/><path d="M39.711 16.588l-6.105-6.105-6.723 7.023-4.641-4.641-.765 4.457-6.464-6.464-8.617 7.897 5.461 5.461-.967 12.027.204.228 2.108 2.085 8.815 1.344c10.1-1.011 17.984-9.535 17.984-19.9 0-1.163-.1-2.303-.29-3.412z" fill="#143A85"/><path d="M33.599 18.756a5.849 5.849 0 10-8.272-8.271 5.849 5.849 0 008.272 8.271z" fill="#B1FFFA"/><path d="M33.606 10.483A5.83 5.83 0 0029.47 8.77v11.699a5.85 5.85 0 004.135-9.986z" fill="#1FC7BD"/><path d="M28.036 18.665l-3.032-3.032 1.657-1.657 1.375 1.374 4.24-4.24 1.658 1.657-5.898 5.898z" fill="#fff"/><path d="M32.277 11.11l-2.806 2.806v3.314l4.463-4.463-1.657-1.657z" fill="#E9EDF5"/><path d="M14.665 18.754a5.849 5.849 0 10-8.272-8.271 5.849 5.849 0 008.272 8.271z" fill="#78BAFF"/><path d="M14.668 10.483a5.831 5.831 0 00-4.123-1.713v11.698a5.85 5.85 0 004.123-9.986z" fill="#1876D7"/><path d="M14.292 12.515l-1.658-1.657-2.103 2.104-2.104-2.104-1.657 1.657 2.103 2.104-2.103 2.104 1.657 1.657 2.104-2.104 2.103 2.104 1.658-1.657-2.104-2.104 2.104-2.104z" fill="#fff"/><path d="M14.293 12.515l-1.657-1.657-2.091 2.09v3.342l2.09 2.091 1.658-1.657-2.104-2.104 2.104-2.104z" fill="#E9EDF5"/><path d="M22.772 23.446c-.9-.03-1.637.69-1.637 1.582l-.003 5.747-.984-.51.003-5.293c0-.038.001-.076.003-.113.05-.957.838-2.04 1.862-2.197h.62v-8.78a1.508 1.508 0 10-3.015 0v9.361h-.572v-2.307c0-.818-.636-1.514-1.453-1.543a1.508 1.508 0 00-1.562 1.507v3.03h-.474v-1.674a1.42 1.42 0 00-2.839 0v2.533h-.474v-1.131c0-.675-.553-1.249-1.228-1.236a1.205 1.205 0 00-1.181 1.204V33.76h.019a4.49 4.49 0 002.275 3.518v1.116A19.935 19.935 0 0020 40c.68 0 1.353-.034 2.016-.1v-2.418a3.85 3.85 0 002.284-3.516v-8.901c0-.86-.669-1.59-1.528-1.62z" fill="#fff"/><path d="M22.772 23.446c-.9-.03-1.637.69-1.637 1.582l-.003 5.747-.984-.51c.002 0 .003-5.293.003-5.293 0-.038.001-.076.003-.113.05-.957.838-2.04 1.862-2.197h.62v-8.78a1.508 1.508 0 10-3.015 0v9.361h-.572v-2.307c0-.818-.636-1.514-1.453-1.543a1.508 1.508 0 00-1.562 1.507v3.03h-.208l.094 15.653c1.3.266 2.702.417 4.08.417.68 0 1.353-.034 2.016-.1v-2.418a3.85 3.85 0 002.284-3.516v-8.901c0-.86-.669-1.59-1.528-1.62z" fill="#D7EDEC"/></g><defs><clipPath id="clip0"><path fill="#fff" d="M0 0h40v40H0z"/></clipPath></defs></svg>