<svg width="90" height="90" fill="none" xmlns="http://www.w3.org/2000/svg"><g clip-path="url(#clip0)" fill="#0075E1"><path d="M83.23 24.42l-.003-.07a91.935 91.935 0 01-.08-2.798c-.074-4.962-4.019-9.067-8.982-9.344C63.817 11.63 55.812 8.256 48.973 1.59l-.059-.056a5.76 5.76 0 00-7.827 0l-.059.056c-6.84 6.666-14.844 10.04-25.192 10.619-4.962.276-8.908 4.381-8.981 9.344a92.802 92.802 0 01-.081 2.796l-.004.163c-.202 10.551-.452 23.684 3.942 35.603 2.415 6.555 6.074 12.252 10.873 16.936 5.465 5.334 12.624 9.568 21.277 12.585a6.577 6.577 0 002.139.364 6.46 6.46 0 002.141-.365c8.643-3.023 15.794-7.26 21.255-12.592 4.797-4.685 8.456-10.384 10.873-16.94 4.41-11.956 4.16-25.112 3.96-35.684zm-8.915 33.855C69.682 70.838 60.223 79.465 45.4 84.65a1.187 1.187 0 01-.798 0c-14.84-5.174-24.305-13.797-28.935-26.36-4.049-10.988-3.82-23.042-3.617-33.677l.001-.06c.041-.913.069-1.87.084-2.922.033-2.204 1.788-4.027 3.996-4.15 5.855-.327 11-1.458 15.727-3.46 4.72-1.997 8.913-4.814 12.816-8.61a.487.487 0 01.653 0c3.904 3.796 8.097 6.613 12.817 8.61 4.726 2.002 9.87 3.133 15.727 3.46 2.208.123 3.963 1.946 3.995 4.15.016 1.058.043 2.015.085 2.923.201 10.647.425 22.711-3.636 33.721z"/><path d="M45 22.572c-12.368 0-22.43 10.062-22.43 22.43 0 12.367 10.062 22.43 22.43 22.43 12.367 0 22.429-10.063 22.429-22.43 0-12.368-10.062-22.43-22.43-22.43zm0 39.578c-9.456 0-17.15-7.693-17.15-17.15 0-9.455 7.693-17.148 17.149-17.148 9.455 0 17.147 7.693 17.147 17.148 0 9.456-7.692 17.149-17.147 17.149z"/><path d="M51.446 38.038L41.03 48.456l-2.83-2.828a2.64 2.64 0 00-3.735 3.734l4.696 4.695a2.632 2.632 0 001.867.774c.675 0 1.35-.258 1.867-.774L55.18 41.772a2.641 2.641 0 00-3.735-3.734z"/></g><defs><clipPath id="clip0"><path fill="#fff" d="M0 0h90v90H0z"/></clipPath></defs></svg>