<?xml version="1.0" encoding="utf-8"?><svg viewBox="0 0 250 90" xmlns="http://www.w3.org/2000/svg" xmlns:xlink="http://www.w3.org/1999/xlink"><style>:root>svg{display:none}:root>svg:target{display:block}</style><svg fill="none" viewBox="0 0 87 90" id="ai" xmlns="http://www.w3.org/2000/svg"><path fill-rule="evenodd" clip-rule="evenodd" d="M42.286.171C35.03.928 27.71 4.58 22.666 9.96c-4.475 4.774-7.436 10.93-8.329 17.316l-.117.835H7.033V14.044H0v21.099h14.19l.383 2.031c.21 1.117.577 2.64.814 3.385.238.744.434 1.413.435 1.485.001.072-3.558.132-7.91.132H0V49.209h19.482l.809 1.088.808 1.088V56.242H0V77.34H7.033V63.275h14.066V90h42.198V70.308h14.066V56.242h9.143L81.934 47.1l-4.571-9.143v-3.674c0-4.053-.188-6.419-.722-9.074-1.286-6.404-4.91-12.706-9.828-17.09C60.087 2.122 51.2-.758 42.286.17zm8.44 7.363c4.975 1.126 8.764 3.207 12.318 6.762 3.598 3.6 5.744 7.573 6.792 12.577.292 1.395.367 2.605.443 7.213l.092 5.536 2.353 4.704c1.294 2.587 2.353 4.745 2.353 4.794 0 .049-1.068.089-2.374.089H70.33v14.066H56.264v19.692H28.132V63.275h1.322l3.513 7.033 3.513 7.033H49.231V70.308h-8.439l-3.517-7.033-3.518-7.033h-5.625V49.209h7.556l.641 1.274c1.338 2.66 4.236 4.875 7.188 5.494 5.26 1.105 10.471-1.908 12.164-7.032.965-2.92.504-6.437-1.182-9.005-1.885-2.874-5.4-4.791-8.785-4.791-3.795 0-7.693 2.389-9.385 5.752l-.641 1.275H23.449l-.38-.923c-.618-1.496-1.22-3.369-1.44-4.469a27.139 27.139 0 00-.29-1.334c-.082-.288.294-.307 6.165-.307h6.253l3.518-7.033 3.517-7.033h8.439V14.044H36.48l-3.513 7.033-3.513 7.033h-8.186l.087-.396c.793-3.618 1.174-4.764 2.38-7.163 3.727-7.41 10.84-12.349 19.342-13.43 1.478-.188 6.094.061 7.648.413zm-3.939 34.848c.967.333 1.545.862 2.032 1.856.354.724.437 1.109.37 1.711-.22 1.941-1.96 3.4-3.842 3.219-2.303-.222-3.774-2.695-2.877-4.842.714-1.71 2.572-2.546 4.317-1.944z" fill="#0075E1"/></svg><svg fill="none" viewBox="0 0 44 43" id="arrow-prev" xmlns="http://www.w3.org/2000/svg"><path d="M2 20.485L25.023 39.73M2.002 22.245L25.025 3" stroke="#1FC7BD" stroke-width="3"/></svg><svg fill="none" viewBox="0 0 241 90" id="bank-card" xmlns="http://www.w3.org/2000/svg"><path d="M111.8 45V30.72h9.02v2.5h-6v2.98h1.2c1.347 0 2.447.187 3.3.56.867.373 1.507.887 1.92 1.54.413.653.62 1.4.62 2.24 0 1.413-.473 2.513-1.42 3.3-.933.773-2.427 1.16-4.48 1.16h-4.16zm4.04-2.48c.92 0 1.64-.147 2.16-.44.533-.293.8-.807.8-1.54 0-.76-.287-1.26-.86-1.5s-1.353-.36-2.34-.36h-.78v3.84h1.02zm12.954-8.66c1.467 0 2.587.32 3.36.96.787.627 1.18 1.593 1.18 2.9V45h-2.08l-.58-1.48h-.08c-.467.587-.96 1.013-1.48 1.28-.52.267-1.233.4-2.14.4-.973 0-1.78-.28-2.42-.84-.64-.573-.96-1.447-.96-2.62 0-1.16.407-2.013 1.22-2.56.813-.56 2.033-.867 3.66-.92l1.9-.06v-.48c0-.573-.153-.993-.46-1.26-.293-.267-.707-.4-1.24-.4s-1.053.08-1.56.24c-.507.147-1.013.333-1.52.56l-.98-2.02a8.583 8.583 0 011.94-.72 9.542 9.542 0 012.24-.26zm.42 6.12c-.96.027-1.627.2-2 .52s-.56.74-.56 1.26c0 .453.133.78.4.98.267.187.613.28 1.04.28.64 0 1.18-.187 1.62-.56.44-.387.66-.927.66-1.62v-.9l-1.16.04zm10.15-5.9v4.2h4.16v-4.2h2.98V45h-2.98v-4.5h-4.16V45h-2.98V34.08h2.98zm17.422 0h3.28l-4.32 5.24 4.7 5.68h-3.38l-4.46-5.54V45h-2.98V34.08h2.98v5.3l4.18-5.3zm14.753 5.44c0 1.813-.48 3.213-1.44 4.2-.947.987-2.24 1.48-3.88 1.48-1.014 0-1.92-.22-2.72-.66-.787-.44-1.407-1.08-1.86-1.92-.454-.853-.68-1.887-.68-3.1 0-1.813.473-3.207 1.42-4.18.946-.973 2.246-1.46 3.9-1.46 1.026 0 1.933.22 2.72.66.786.44 1.406 1.08 1.86 1.92.453.827.68 1.847.68 3.06zm-7.54 0c0 1.08.173 1.9.52 2.46.36.547.94.82 1.74.82.786 0 1.353-.273 1.7-.82.36-.56.54-1.38.54-2.46s-.18-1.887-.54-2.42c-.347-.547-.92-.82-1.72-.82-.787 0-1.36.273-1.72.82-.347.533-.52 1.34-.52 2.42zm19.682-2.58c0 .587-.186 1.087-.56 1.5-.36.413-.9.68-1.62.8v.08c.76.093 1.367.353 1.82.78.467.427.7.973.7 1.64 0 .627-.166 1.187-.5 1.68-.32.493-.833.88-1.54 1.16-.706.28-1.633.42-2.78.42h-5.2V34.08h5.2c.854 0 1.614.093 2.28.28.68.173 1.214.467 1.6.88.4.413.6.98.6 1.7zm-3.02.24c0-.667-.526-1-1.58-1h-2.1v2.16h1.76c.627 0 1.1-.087 1.42-.26.334-.187.5-.487.5-.9zm.28 4.4c0-.427-.166-.733-.5-.92-.333-.2-.833-.3-1.5-.3h-1.96v2.58h2.02c.56 0 1.02-.1 1.38-.3.374-.213.56-.567.56-1.06zm10.079 3.62c-1.627 0-2.887-.447-3.78-1.34-.88-.907-1.32-2.327-1.32-4.26 0-1.333.226-2.42.68-3.26.453-.84 1.08-1.46 1.88-1.86.813-.4 1.746-.6 2.8-.6.746 0 1.393.073 1.94.22.56.147 1.046.32 1.46.52l-.88 2.3c-.467-.187-.907-.34-1.32-.46-.4-.12-.8-.18-1.2-.18-1.547 0-2.32 1.1-2.32 3.3 0 1.093.2 1.9.6 2.42.413.52.986.78 1.72.78.626 0 1.18-.08 1.66-.24.48-.173.946-.407 1.4-.7v2.54c-.454.293-.934.5-1.44.62-.494.133-1.12.2-1.88.2zm12.993-11.12h3.28l-4.32 5.24 4.7 5.68h-3.38l-4.46-5.54V45h-2.98V34.08h2.98v5.3l4.18-5.3zm9.703-.22c1.466 0 2.586.32 3.36.96.786.627 1.18 1.593 1.18 2.9V45h-2.08l-.58-1.48h-.08c-.467.587-.96 1.013-1.48 1.28-.52.267-1.234.4-2.14.4-.974 0-1.78-.28-2.42-.84-.64-.573-.96-1.447-.96-2.62 0-1.16.406-2.013 1.22-2.56.813-.56 2.033-.867 3.66-.92l1.9-.06v-.48c0-.573-.154-.993-.46-1.26-.294-.267-.707-.4-1.24-.4-.534 0-1.054.08-1.56.24a11.61 11.61 0 00-1.52.56l-.98-2.02a8.565 8.565 0 011.94-.72 9.535 9.535 0 012.24-.26zm.42 6.12c-.96.027-1.627.2-2 .52-.374.32-.56.74-.56 1.26 0 .453.133.78.4.98.266.187.613.28 1.04.28.64 0 1.18-.187 1.62-.56.44-.387.66-.927.66-1.62v-.9l-1.16.04zm8.83 5.02h-3.22l2.94-4.32c-.56-.227-1.06-.593-1.5-1.1-.427-.52-.64-1.227-.64-2.12 0-1.093.413-1.927 1.24-2.5.827-.587 1.887-.88 3.18-.88h5.08V45h-2.98v-4.06h-1.64l-2.46 4.06zm.5-7.52c0 .453.18.813.54 1.08.36.253.827.38 1.4.38h1.66v-2.76h-2.04c-.533 0-.927.133-1.18.4-.253.253-.38.553-.38.9zM118.72 60.08H122l-4.32 5.24 4.7 5.68H119l-4.46-5.54V71h-2.98V60.08h2.98v5.3l4.18-5.3zm9.703-.22c1.466 0 2.586.32 3.36.96.786.627 1.18 1.593 1.18 2.9V71h-2.08l-.58-1.48h-.08c-.467.587-.96 1.013-1.48 1.28-.52.267-1.234.4-2.14.4-.974 0-1.78-.28-2.42-.84-.64-.573-.96-1.447-.96-2.62 0-1.16.406-2.013 1.22-2.56.813-.56 2.033-.867 3.66-.92l1.9-.06v-.48c0-.573-.154-.993-.46-1.26-.294-.267-.707-.4-1.24-.4-.534 0-1.054.08-1.56.24a11.61 11.61 0 00-1.52.56l-.98-2.02a8.565 8.565 0 011.94-.72 9.535 9.535 0 012.24-.26zm.42 6.12c-.96.027-1.627.2-2 .52-.374.32-.56.74-.56 1.26 0 .453.133.78.4.98.266.187.613.28 1.04.28.64 0 1.18-.187 1.62-.56.44-.387.66-.927.66-1.62v-.9l-1.16.04zm13.25-6.1c1.227 0 2.22.48 2.98 1.44.76.947 1.14 2.347 1.14 4.2 0 1.853-.393 3.267-1.18 4.24-.787.96-1.793 1.44-3.02 1.44-.787 0-1.413-.14-1.88-.42a4.615 4.615 0 01-1.14-.98h-.16c.107.56.16 1.093.16 1.6v4.4h-2.98V60.08h2.42l.42 1.42h.14c.293-.44.687-.82 1.18-1.14.493-.32 1.133-.48 1.92-.48zm-.96 2.38c-.773 0-1.32.24-1.64.72-.307.48-.473 1.213-.5 2.2v.32c0 1.053.153 1.867.46 2.44.32.56.893.84 1.72.84.68 0 1.18-.28 1.5-.84.333-.573.5-1.393.5-2.46 0-2.147-.68-3.22-2.04-3.22zm16.381.06h-3.58V71h-2.98v-8.68h-3.58v-2.24h10.14v2.24zm6.495-2.46c1.466 0 2.586.32 3.36.96.786.627 1.18 1.593 1.18 2.9V71h-2.08l-.58-1.48h-.08c-.467.587-.96 1.013-1.48 1.28-.52.267-1.234.4-2.14.4-.974 0-1.78-.28-2.42-.84-.64-.573-.96-1.447-.96-2.62 0-1.16.406-2.013 1.22-2.56.813-.56 2.033-.867 3.66-.92l1.9-.06v-.48c0-.573-.154-.993-.46-1.26-.294-.267-.707-.4-1.24-.4-.534 0-1.054.08-1.56.24a11.61 11.61 0 00-1.52.56l-.98-2.02a8.565 8.565 0 011.94-.72 9.535 9.535 0 012.24-.26zm.42 6.12c-.96.027-1.627.2-2 .52-.374.32-.56.74-.56 1.26 0 .453.133.78.4.98.266.187.613.28 1.04.28.64 0 1.18-.187 1.62-.56.44-.387.66-.927.66-1.62v-.9l-1.16.04z" fill="#043B74"/><g clip-path="url(#cclip0)"><path d="M78.102 32.804L36.143 74.763a4.856 4.856 0 01-6.866 0L4.586 50.072a4.856 4.856 0 010-6.867L46.544 1.246a4.856 4.856 0 016.867 0L78.1 25.937a4.855 4.855 0 010 6.867z" fill="#93B7FF"/><path d="M78.102 25.937l-3.081-3.081c1.688 1.688 1.52 4.594-.377 6.49L32.685 71.305c-1.895 1.896-4.801 2.065-6.49.376l3.082 3.082a4.856 4.856 0 006.866 0l41.959-41.96a4.855 4.855 0 000-6.866z" fill="#1876D7"/><path d="M12.655 48.345a1.318 1.318 0 01-.932-2.25L32.273 25.54a1.318 1.318 0 111.864 1.864L13.586 47.96a1.316 1.316 0 01-.931.386zM19.186 54.876a1.318 1.318 0 01-.933-2.25l20.552-20.553a1.318 1.318 0 111.865 1.864L20.118 54.49a1.314 1.314 0 01-.932.386z" fill="#002850"/><path d="M45.86 10.81l-4.113 4.11a4.139 4.139 0 105.854 5.854l4.111-4.111a4.138 4.138 0 10-5.853-5.853z" fill="#1876D7"/><path d="M82.063 45.195H22.724a4.855 4.855 0 00-4.855 4.855v34.92a4.855 4.855 0 004.855 4.854h59.339a4.855 4.855 0 004.855-4.855V50.05a4.855 4.855 0 00-4.855-4.855z" fill="#B1FFFA"/><path d="M82.064 45.195H77.72a4.855 4.855 0 014.855 4.855v34.92a4.855 4.855 0 01-4.855 4.854h4.346a4.855 4.855 0 004.855-4.855V50.05a4.855 4.855 0 00-4.856-4.855z" fill="#1FC7BD"/><path d="M17.87 56.165h69.049v8.389h-69.05v-8.39z" fill="#3271B3"/><path d="M82.572 56.165h4.346v8.389h-4.346v-8.39z" fill="#002850"/><path d="M69.95 77.958v5.174c0 .4.323.724.724.724h8.23c.4 0 .724-.324.724-.724v-5.174c0-.4-.325-.725-.725-.725h-8.23c-.4 0-.724.325-.724.725zM45.137 77.958v5.174c0 .4.325.724.724.724h17.407c.4 0 .724-.324.724-.724v-5.174c0-.4-.324-.725-.724-.725H45.86c-.4 0-.724.325-.724.725z" fill="#1FC7BD"/><path d="M38.04 85.174h-8.67a1.318 1.318 0 110-2.636h8.67a1.318 1.318 0 110 2.636z" fill="#002850"/></g><defs><clipPath id="cclip0"><path fill="#fff" d="M0 0h90v90H0z"/></clipPath></defs></svg><svg fill="none" viewBox="0 0 30 18" id="burger" xmlns="http://www.w3.org/2000/svg"><path d="M0 1h30M0 9h30M0 17h30" stroke="#002850" stroke-opacity=".8" stroke-width="2"/></svg><svg fill="none" viewBox="0 0 40 40" id="check-mark" xmlns="http://www.w3.org/2000/svg"><g clip-path="url(#eclip0)"><path d="M25.645 5.646l-3.32-.482-1.484-3.009a.937.937 0 00-1.682 0l-1.484 3.009-3.32.482a.938.938 0 00-.52 1.599l2.402 2.341-.567 3.307a.937.937 0 001.36.988L20 12.32l2.97 1.56a.938.938 0 001.36-.988l-.568-3.307 2.402-2.341a.937.937 0 00-.52-1.6zM39.309 14.14l-2.692-2.003.124-3.353a.936.936 0 00-1.48-.799l-2.736 1.942-3.15-1.154a.938.938 0 00-1.217 1.16l1 3.202-2.07 2.64a.938.938 0 00.728 1.516l3.354.038 1.87 2.784a.938.938 0 001.667-.223l1.073-3.178 3.226-.918a.938.938 0 00.303-1.654zM10.936 13.078l1-3.202a.938.938 0 00-1.216-1.16L7.57 9.869 4.833 7.928a.937.937 0 00-1.48.8l.124 3.352-2.692 2.002a.937.937 0 00.303 1.654l3.227.918 1.072 3.179a.938.938 0 001.667.223l1.87-2.785 3.354-.038a.939.939 0 00.728-1.516l-2.07-2.64z" fill="#78FEF6"/><path d="M19.948 15.732a9.973 9.973 0 00-9.962 9.961c0 6.401 9.003 13.477 9.386 13.775a.938.938 0 001.151 0c.384-.298 9.386-7.374 9.386-13.775a9.973 9.973 0 00-9.961-9.961z" fill="#043B74"/><path d="M20 31.563a5.937 5.937 0 100-11.875 5.937 5.937 0 000 11.875z" fill="#EFF2FC"/><path d="M18.75 27.813a.932.932 0 01-.662-.275l-1.25-1.25a.937.937 0 011.325-1.326l.657.657 2.47-1.976a.937.937 0 111.172 1.464l-3.125 2.5a.935.935 0 01-.586.206z" fill="#93B7FF"/><path d="M12.173 9.876l-1 3.202 2.07 2.64a.937.937 0 01-.727 1.515l-3.354.038-5.08-9.403a.937.937 0 01.988.06l2.736 1.941 3.15-1.153a.938.938 0 011.217 1.16zM39.121 15.742l-3.406.993-.984 3.091a.936.936 0 01-1.661.259l-1.845-2.738 5-9.42a.938.938 0 01.51.849v3.469l2.653 1.837a.938.938 0 01-.267 1.66zM26.284 7.187l-2.55 2.42.635 3.294a.938.938 0 01-1.34 1.016l-3-1.5V1.634a.938.938 0 01.851.505l1.365 2.964 3.486.497a.938.938 0 01.553 1.588z" fill="#1FC7BD"/></g><defs><clipPath id="eclip0"><path fill="#fff" d="M0 0h40v40H0z"/></clipPath></defs></svg><svg fill="none" viewBox="0 0 41 40" id="geer" xmlns="http://www.w3.org/2000/svg"><path fill-rule="evenodd" clip-rule="evenodd" d="M17.191.13c-.505.211-.618.49-.915 2.28-.149.89-.293 1.64-.322 1.663-.028.024-.526.198-1.105.386-.591.191-1.54.585-2.16.895l-1.107.554-1.197-.852C8.952 4.036 8.64 3.88 8.187 3.953c-.3.048-.49.215-2.252 1.978-1.762 1.762-1.929 1.952-1.977 2.251-.074.454.082.766 1.102 2.198l.853 1.197-.554 1.107c-.31.62-.704 1.57-.896 2.16-.188.58-.361 1.078-.385 1.106-.024.028-.773.173-1.663.321-1.806.3-2.073.41-2.284.937-.175.434-.175 5.146 0 5.58.211.527.478.636 2.284.936.89.149 1.639.293 1.663.322.024.028.197.526.385 1.105.192.591.585 1.54.896 2.16l.554 1.107-.853 1.197c-1.02 1.433-1.176 1.745-1.102 2.198.048.3.215.49 1.977 2.252 1.762 1.762 1.953 1.93 2.252 1.977.454.074.765-.083 2.198-1.102l1.197-.853 1.106.554c.62.31 1.57.704 2.16.896.58.188 1.078.361 1.106.385.029.024.173.773.322 1.663.3 1.806.41 2.073.936 2.284.434.175 5.146.175 5.58 0 .527-.211.636-.477.937-2.284.148-.89.293-1.639.321-1.663.028-.024.526-.197 1.106-.385.59-.192 1.54-.585 2.16-.896l1.107-.554 1.197.853c1.432 1.02 1.744 1.176 2.198 1.102.299-.048.49-.215 2.251-1.977 1.762-1.762 1.93-1.953 1.978-2.252.073-.453-.083-.765-1.103-2.198l-.852-1.197.554-1.106c.31-.62.704-1.57.895-2.16.188-.58.362-1.078.386-1.106.024-.029.772-.173 1.663-.322 1.806-.3 2.072-.41 2.284-.936.174-.434.174-5.146 0-5.58-.212-.527-.478-.636-2.284-.937-.89-.148-1.64-.293-1.663-.321-.024-.028-.198-.526-.386-1.106-.191-.59-.585-1.54-.895-2.16l-.554-1.107.852-1.197c1.02-1.432 1.176-1.744 1.103-2.198-.048-.299-.215-.49-1.978-2.251-1.762-1.763-1.952-1.93-2.251-1.978-.454-.073-.766.083-2.198 1.103l-1.197.852-1.107-.554c-.62-.31-1.57-.704-2.16-.895-.58-.188-1.078-.362-1.106-.386-.028-.024-.173-.772-.321-1.663-.3-1.806-.41-2.072-.937-2.284-.425-.17-5.191-.167-5.6.004zm4.072 7.066c5.132.522 9.383 3.954 10.991 8.875.818 2.501.818 5.352 0 7.853-1.864 5.705-7.398 9.416-13.262 8.895-1.198-.107-1.95-.254-2.916-.57-3.986-1.302-7.023-4.339-8.326-8.325a12.882 12.882 0 010-7.853 12.682 12.682 0 013.163-5.162c2.753-2.753 6.516-4.103 10.35-3.713zm-2.276 7.067c-2.075.447-3.667 2.429-3.667 4.563 0 2.527 2.156 4.683 4.682 4.683 2.155 0 4.126-1.6 4.568-3.707.334-1.589-.121-3.102-1.281-4.262-1.163-1.163-2.706-1.62-4.302-1.277zm-4.851 9.464a8.208 8.208 0 00-1.737 2.767l-.195.523.716.682c1.434 1.365 3.19 2.264 5.194 2.658.924.182 2.853.182 3.776 0 2.003-.394 3.76-1.293 5.194-2.658l.717-.682-.196-.523a8.208 8.208 0 00-1.736-2.767l-.423-.448-.581.551c-2.462 2.339-5.86 2.675-8.67.859a9.086 9.086 0 01-1.056-.859l-.58-.551-.423.448z" fill="#1FC7BD"/></svg><svg fill="none" viewBox="0 0 48 48" id="google" xmlns="http://www.w3.org/2000/svg"><path d="M43.611 20.083H42V20H24v8h11.303c-1.649 4.657-6.08 8-11.303 8-6.627 0-12-5.373-12-12s5.373-12 12-12c3.059 0 5.842 1.154 7.961 3.039l5.657-5.657C34.046 6.053 29.268 4 24 4 12.955 4 4 12.955 4 24s8.955 20 20 20 20-8.955 20-20c0-1.341-.138-2.65-.389-3.917z" fill="#FFC107"/><path d="M6.307 14.691l6.57 4.819C14.657 15.108 18.963 12 24.002 12c3.059 0 5.842 1.154 7.96 3.039l5.658-5.657C34.047 6.053 29.269 4 24 4 16.319 4 9.657 8.337 6.307 14.691z" fill="#FF3D00"/><path d="M24 44c5.166 0 9.86-1.977 13.41-5.192l-6.19-5.238A11.91 11.91 0 0124 36c-5.202 0-9.619-3.317-11.283-7.946l-6.522 5.025C9.505 39.556 16.227 44 24 44z" fill="#4CAF50"/><path d="M43.611 20.083H42V20H24v8h11.303a12.04 12.04 0 01-4.087 5.571l.003-.002 6.19 5.238C36.971 39.205 44 34 44 24c0-1.341-.138-2.65-.389-3.917z" fill="#1976D2"/></svg><svg fill="none" viewBox="0 0 90 90" id="investment" xmlns="http://www.w3.org/2000/svg"><path d="M76.64 45c0-17.447-14.193-31.64-31.64-31.64-17.447 0-31.64 14.193-31.64 31.64 0 17.447 14.193 31.64 31.64 31.64 17.447 0 31.64-14.193 31.64-31.64zm-56.25 0c0-12.376 9.184-22.646 21.094-24.357v7.384c-4.092 1.451-7.03 5.359-7.03 9.942 0 5.816 4.73 10.547 10.546 10.547a3.52 3.52 0 013.516 3.515A3.52 3.52 0 0145 55.547a3.52 3.52 0 01-3.516-3.516h-7.03c0 4.584 2.938 8.491 7.03 9.943v7.384C29.574 67.645 20.391 57.376 20.391 45zm28.126 24.357v-7.384c4.092-1.45 7.03-5.359 7.03-9.942 0-5.815-4.73-10.547-10.546-10.547a3.52 3.52 0 01-3.516-3.515A3.52 3.52 0 0145 34.453a3.52 3.52 0 013.516 3.516h7.03c0-4.583-2.938-8.491-7.03-9.942v-7.384c11.91 1.71 21.093 11.98 21.093 24.357 0 12.376-9.183 22.646-21.093 24.357z" fill="#0075E1"/><path d="M82.49 70.128C87.377 62.733 90 54.068 90 45 90 19.766 70.234 0 45 0S0 19.766 0 45s19.766 45 45 45v-7.031C23.71 82.969 7.031 66.29 7.031 45S23.71 7.031 45 7.031C66.29 7.031 82.969 23.71 82.969 45c0 10.33-4.023 20.041-11.327 27.345l-7.4 7.4 22.723-3.137-.962-6.966-3.513.486z" fill="#0075E1"/></svg><svg fill="none" viewBox="0 0 90 90" id="libra" xmlns="http://www.w3.org/2000/svg"><path fill-rule="evenodd" clip-rule="evenodd" d="M43.748.327c-.46.244-.974.858-1.87 2.234-3.143 4.833-4.796 8.55-4.79 10.771.006 2.657 1.743 5.48 4.13 6.713.945.49 1.141.667 1.142 1.033 0 .356-.166.521-.86.85-.472.225-1.119.625-1.436.89l-.577.481-.959-.577c-2.465-1.484-6.061-1.998-9.628-1.376-2.529.44-4.448 1.403-7.09 3.555-1.787 1.455-3.088 1.777-4.424 1.096-.78-.399-1.403-1.412-1.403-2.284 0-1.338-1.3-2.637-2.638-2.637-.872 0-1.885.622-2.283 1.402-1.093 2.141.638 6.307 3.258 7.842l.758.444-.845 2.057c-.465 1.132-2.247 5.538-3.96 9.794a2482.13 2482.13 0 01-3.643 9.01L6.103 52.9H4.09c-1.67 0-2.131.06-2.707.354-1.348.688-1.685 2.158-1.122 4.884a13.313 13.313 0 0010.308 10.307c1.965.406 13.948.409 15.909.004 2.635-.544 4.839-1.741 6.725-3.652 2.344-2.376 3.57-5.05 3.823-8.346.091-1.178.054-1.465-.272-2.103-.594-1.166-1.33-1.448-3.778-1.448h-2.014l-4.237-10.653c-2.33-5.86-4.279-10.825-4.33-11.033-.077-.31.047-.454.668-.781.419-.22 1.466-.954 2.328-1.63 2.408-1.891 3.899-2.455 6.471-2.45 3.138.007 5.22 1.19 5.225 2.968.003.839.388 2.249.9 3.3.558 1.14 2.31 2.87 3.45 3.403l.924.432v38.161l-.923.423c-1.14.522-2.912 2.266-3.456 3.4-.53 1.105-.892 2.5-.895 3.448-.002 1.025-.61 2.078-1.444 2.504-.57.29-1.059.333-3.833.333-2.84 0-3.254.038-3.873.354-.78.398-1.403 1.411-1.403 2.284 0 .872.622 1.885 1.402 2.283.681.347 1.005.354 17.063.354 16.057 0 16.38-.007 17.062-.354.78-.398 1.402-1.411 1.402-2.283 0-.873-.622-1.886-1.402-2.284-.62-.316-1.034-.354-3.874-.354s-3.253-.038-3.873-.354c-.841-.429-1.401-1.424-1.404-2.496-.003-.95-.364-2.32-.9-3.42-.57-1.166-2.317-2.896-3.45-3.415l-.924-.423.001-19.078V36.46l1.143-.591c2.318-1.199 4.121-4.058 4.13-6.548.006-1.78 2.087-2.962 5.225-2.969 2.572-.005 4.063.559 6.471 2.45.862.676 1.91 1.41 2.328 1.63.62.326.745.472.669.78-.052.208-2.001 5.173-4.332 11.033L59.03 52.9H57.02c-1.67 0-2.13.06-2.706.354-1.348.688-1.685 2.158-1.122 4.884A13.313 13.313 0 0063.5 68.445c1.965.406 13.948.409 15.909.004 2.634-.544 4.839-1.741 6.725-3.652 2.344-2.376 3.569-5.05 3.823-8.346.091-1.178.054-1.465-.272-2.103-.594-1.166-1.33-1.448-3.778-1.448h-2.013l-.526-1.274c-.29-.702-1.834-4.52-3.432-8.484-1.598-3.965-3.38-8.372-3.96-9.794l-1.055-2.585.757-.443c2.609-1.529 4.345-5.71 3.257-7.842-.398-.78-1.41-1.402-2.283-1.402-1.338 0-2.638 1.3-2.638 2.637 0 .872-.622 1.885-1.402 2.284-1.45.738-2.564.392-5.017-1.558-2.803-2.228-5.067-3.105-8.529-3.303-2.953-.168-5.602.385-7.597 1.586l-.96.577-.576-.481c-.317-.265-.964-.665-1.437-.89-.695-.33-.86-.493-.86-.852 0-.365.167-.523.923-.877 1.14-.533 2.893-2.262 3.45-3.402 1.507-3.088 1.114-5.56-1.677-10.579-1.85-3.325-3.386-5.525-4.12-5.9-.839-.427-1.644-.424-2.464.01zm2.617 9.687c.615 1.203 1.162 2.515 1.215 2.915.19 1.412-1.13 2.872-2.594 2.872-1.25 0-2.625-1.334-2.625-2.546 0-.946 2.29-5.628 2.689-5.496.109.036.7 1.05 1.315 2.255zm-.131 16.69c.78.398 1.402 1.411 1.402 2.284 0 1.344-1.3 2.637-2.65 2.637-1.294 0-2.625-1.337-2.625-2.637 0-.846.622-1.883 1.364-2.275.849-.448 1.643-.45 2.509-.009zM22.04 44.724l3.22 8.089-3.42.047c-1.88.026-4.9.026-6.712 0l-3.294-.047 3.35-8.308c2.11-5.235 3.402-8.226 3.493-8.088.08.12 1.593 3.859 3.363 8.307zm53.786 2.33l2.365 5.846H64.7l.333-.835 3.27-8.22c1.615-4.061 2.98-7.455 3.031-7.542.052-.086.552.982 1.112 2.374.559 1.392 2.08 5.162 3.381 8.377zM31.282 58.282c0 .06-.25.578-.557 1.153-.638 1.197-1.989 2.508-3.207 3.112-1.705.846-2.24.899-8.985.899-6.746 0-7.283-.054-8.982-.9-1.517-.754-3.278-2.66-3.672-3.975l-.119-.396h12.761c7.019 0 12.761.049 12.761.108zm52.931 0c0 .06-.25.578-.557 1.153-.638 1.197-1.989 2.508-3.208 3.112-1.704.846-2.238.899-8.984.899s-7.283-.054-8.982-.9c-1.517-.754-3.278-2.66-3.672-3.975l-.119-.396h12.761c7.019 0 12.761.049 12.761.108zM46.234 79.804c.871.445 1.315 1.294 1.468 2.811.063.629.163 1.36.22 1.627l.107.483h-6.064l.12-.571c.067-.315.162-1.007.211-1.539.133-1.431.534-2.23 1.37-2.732.874-.523 1.65-.547 2.568-.079z" fill="#0075E1"/></svg><svg fill="none" viewBox="0 0 40 40" id="money" xmlns="http://www.w3.org/2000/svg"><path d="M20 40c11.046 0 20-8.954 20-20S31.046 0 20 0 0 8.954 0 20s8.954 20 20 20z" fill="#1876D7"/><path d="M40 20c0-.285-.007-.568-.018-.85l-8.73-8.729L7.4 30.791l8.861 8.86c1.211.23 2.46.349 3.738.349 11.046 0 20-8.954 20-20z" fill="#043B74"/><path d="M32.598 30.79H7.4V16.217L20 4.687l12.598 11.53V30.79z" fill="#EFF2FC"/><path d="M32.599 16.217L20 4.687V30.79h12.599V16.217z" fill="#E9EDF5"/><path d="M8.746 10.421h22.507v13.281H8.746v-13.28z" fill="#B1FFFA"/><path d="M20 10.421h11.253v13.281H20v-13.28z" fill="#74E6DF"/><path d="M10.525 12.159h18.95v9.806h-18.95v-9.806z" fill="#1FC7BD"/><path d="M20 12.159h9.474v9.806H20v-9.806z" fill="#22BEB5"/><path d="M19.999 20.542c1.36 0 2.463-1.558 2.463-3.48 0-1.923-1.102-3.48-2.463-3.48-1.36 0-2.464 1.557-2.464 3.48 0 1.922 1.103 3.48 2.464 3.48z" fill="#B1FFFA"/><path d="M22.464 17.061c0-1.921-1.104-3.48-2.464-3.48v6.96c1.36 0 2.464-1.558 2.464-3.48z" fill="#14A49B"/><path d="M13.664 18.724a1.662 1.662 0 100-3.324 1.662 1.662 0 000 3.324z" fill="#B1FFFA"/><path d="M26.336 18.724a1.662 1.662 0 100-3.324 1.662 1.662 0 000 3.324z" fill="#14A49B"/><path d="M7.4 16.217V30.79h25.198L7.4 16.217z" fill="#EFF2FC"/><path d="M32.598 16.217L7.4 30.79h25.198V16.217z" fill="#93B7FF"/><path d="M20 23.504v7.286h12.599L20 23.504z" fill="#93B7FF"/></svg><svg fill="none" viewBox="0 0 90 90" id="payment" xmlns="http://www.w3.org/2000/svg"><path d="M73.125 75.938v-7.032H59.062v7.031h14.063zM58.033 20.063l-4.972-4.972L41.484 26.67l-4.545-4.546-4.972 4.972 9.517 9.517 16.549-16.548zM42.806 55.709L45 56.44l2.194-.731a32.74 32.74 0 0022.415-31.1V0H20.391v24.61a32.74 32.74 0 0022.415 31.099zM27.422 7.03h35.156V24.61c0 11.091-7.063 20.9-17.578 24.42a25.717 25.717 0 01-17.578-24.42V7.031zM79.453 33.75h-3.87a39.67 39.67 0 01-2.365 7.031h6.235a3.52 3.52 0 013.516 3.516v3.516H69.194a39.768 39.768 0 01-6.45 7.03h20.225v24.61a3.52 3.52 0 01-3.516 3.516H10.547a3.52 3.52 0 01-3.516-3.516v-24.61h20.225a39.764 39.764 0 01-6.45-7.03H7.031v-3.516a3.52 3.52 0 013.516-3.516h6.235a39.703 39.703 0 01-2.364-7.031h-3.871C4.73 33.75 0 38.481 0 44.297v35.156C0 85.27 4.731 90 10.547 90h68.906C85.27 90 90 85.269 90 79.453V44.297c0-5.816-4.731-10.547-10.547-10.547zM37.97 75.938H52.03v-7.032H37.97v7.031zm-21.094 0h14.063v-7.032H16.874v7.031z" fill="#0075E1"/></svg><svg fill="none" viewBox="0 0 250 67" id="paypal" xmlns="http://www.w3.org/2000/svg"><path d="M93.55 16.353H79.732a1.92 1.92 0 00-1.897 1.62l-5.588 35.429a1.151 1.151 0 001.14 1.33h6.596a1.92 1.92 0 001.897-1.623l1.507-9.556a1.92 1.92 0 011.895-1.622h4.373c9.101 0 14.354-4.404 15.726-13.131.618-3.818.026-6.818-1.762-8.92-1.964-2.306-5.447-3.527-10.07-3.527zm1.593 12.94c-.755 4.957-4.543 4.957-8.206 4.957h-2.085l1.463-9.258a1.151 1.151 0 011.137-.972h.956c2.495 0 4.848 0 6.064 1.422.726.849.948 2.11.671 3.85zm39.705-.16h-6.616a1.153 1.153 0 00-1.137.972l-.293 1.85-.463-.67c-1.432-2.079-4.626-2.774-7.814-2.774-7.311 0-13.556 5.537-14.772 13.305-.632 3.875.267 7.58 2.465 10.164 2.016 2.376 4.901 3.365 8.333 3.365 5.891 0 9.158-3.788 9.158-3.788l-.295 1.839a1.155 1.155 0 00.653 1.227c.151.07.316.106.482.106h5.96a1.919 1.919 0 001.897-1.622l3.576-22.645a1.147 1.147 0 00-1.134-1.33zm-9.222 12.877c-.638 3.78-3.638 6.317-7.465 6.317-1.921 0-3.456-.616-4.442-1.784-.978-1.16-1.35-2.81-1.038-4.648.596-3.748 3.646-6.368 7.414-6.368 1.879 0 3.406.624 4.412 1.802 1.008 1.19 1.408 2.85 1.119 4.681zm44.459-12.877h-6.649a1.928 1.928 0 00-1.59.843l-9.169 13.507-3.887-12.98a1.93 1.93 0 00-1.843-1.37h-6.533a1.157 1.157 0 00-.939.48 1.152 1.152 0 00-.154 1.044l7.323 21.49-6.885 9.72a1.155 1.155 0 00.341 1.65c.18.11.388.168.599.168h6.64a1.92 1.92 0 001.578-.824l22.113-31.92c.12-.172.19-.375.204-.584a1.156 1.156 0 00-.553-1.057 1.152 1.152 0 00-.596-.167z" fill="#253B80"/><path d="M192.096 16.353h-13.818a1.918 1.918 0 00-1.895 1.62l-5.588 35.429a1.15 1.15 0 001.136 1.33h7.091a1.343 1.343 0 001.325-1.136l1.586-10.043a1.918 1.918 0 011.895-1.622h4.372c9.103 0 14.353-4.404 15.727-13.131.62-3.818.024-6.818-1.764-8.92-1.961-2.306-5.442-3.527-10.067-3.527zm1.594 12.94c-.753 4.957-4.541 4.957-8.206 4.957h-2.082l1.464-9.258a1.15 1.15 0 011.136-.972h.955c2.493 0 4.849 0 6.065 1.422.725.849.945 2.11.668 3.85zm39.704-.16h-6.613a1.147 1.147 0 00-1.135.972l-.293 1.85-.464-.67c-1.433-2.08-4.625-2.774-7.813-2.774-7.311 0-13.553 5.537-14.769 13.305-.631 3.875.264 7.58 2.462 10.164 2.02 2.375 4.901 3.365 8.334 3.365 5.891 0 9.157-3.788 9.157-3.788l-.295 1.839a1.16 1.16 0 00.262.93 1.151 1.151 0 00.878.403h5.957a1.917 1.917 0 001.895-1.622l3.578-22.645a1.155 1.155 0 00-1.141-1.329zm-9.223 12.877c-.634 3.78-3.638 6.317-7.464 6.317-1.918 0-3.457-.616-4.443-1.784-.978-1.16-1.345-2.81-1.038-4.648.6-3.748 3.646-6.368 7.414-6.368 1.879 0 3.406.624 4.412 1.802 1.012 1.19 1.412 2.85 1.119 4.681zm17.023-24.685l-5.671 36.077a1.15 1.15 0 001.135 1.33h5.701c.948 0 1.752-.688 1.897-1.623l5.592-35.426a1.152 1.152 0 00-1.135-1.332h-6.384a1.154 1.154 0 00-1.135.974z" fill="#179BD7"/><path d="M14.873 61.616l1.057-6.711-2.354-.055H2.338l7.81-49.521a.638.638 0 01.634-.541h18.95c6.29 0 10.632 1.309 12.899 3.893 1.063 1.212 1.74 2.478 2.067 3.872.343 1.463.35 3.21.014 5.342l-.025.155v1.366l1.063.602c.811.41 1.54.967 2.152 1.64.909 1.037 1.497 2.354 1.745 3.915.257 1.607.172 3.518-.248 5.681-.485 2.49-1.27 4.657-2.328 6.43a13.227 13.227 0 01-3.686 4.041c-1.407.998-3.077 1.756-4.966 2.24-1.83.477-3.917.718-6.206.718h-1.475c-1.055 0-2.079.38-2.883 1.06a4.465 4.465 0 00-1.503 2.683l-.111.604-1.867 11.828-.084.435c-.023.137-.061.206-.118.252a.313.313 0 01-.194.071h-9.105z" fill="#253B80"/><path d="M46.755 18.208c-.056.362-.12.731-.194 1.111-2.499 12.83-11.048 17.263-21.967 17.263h-5.56a2.7 2.7 0 00-2.669 2.287L13.52 56.92l-.806 5.117a1.422 1.422 0 001.404 1.645h9.86c1.168 0 2.16-.849 2.344-2l.097-.501L28.274 49.4l.12-.647a2.371 2.371 0 012.343-2.004h1.475c9.553 0 17.032-3.878 19.218-15.103.913-4.689.44-8.604-1.976-11.357a9.428 9.428 0 00-2.699-2.081z" fill="#179BD7"/><path d="M44.141 17.165c-.798-.23-1.61-.41-2.43-.539a30.879 30.879 0 00-4.901-.358H21.957a2.368 2.368 0 00-2.341 2.005l-3.16 20.012-.09.584a2.7 2.7 0 012.668-2.287h5.56c10.919 0 19.468-4.435 21.967-17.263.075-.38.138-.75.194-1.111a13.312 13.312 0 00-2.054-.867c-.186-.061-.372-.12-.56-.176z" fill="#222D65"/><path d="M19.616 18.273a2.361 2.361 0 012.34-2.003H36.81c1.76 0 3.403.116 4.902.358a19.72 19.72 0 012.991.713c.738.245 1.423.534 2.055.867.743-4.742-.006-7.97-2.57-10.893-2.826-3.218-7.927-4.596-14.454-4.596h-18.95c-1.333 0-2.47.97-2.677 2.289L.213 55.038a1.628 1.628 0 001.606 1.883h11.7l2.937-18.636 3.16-20.012z" fill="#253B80"/></svg><svg fill="none" viewBox="0 0 40 40" id="pencil" xmlns="http://www.w3.org/2000/svg"><path d="M39.332 23.088a.605.605 0 00.504-.52 20.184 20.184 0 000-5.136.605.605 0 00-.504-.52l-3.356-.534a16.282 16.282 0 00-2.12-5.112l1.996-2.75a.605.605 0 00-.011-.725 20.12 20.12 0 00-3.632-3.632.605.605 0 00-.725-.01l-2.75 1.995a16.28 16.28 0 00-5.112-2.12L23.088.668a.605.605 0 00-.52-.504 20.188 20.188 0 00-5.136 0 .605.605 0 00-.52.504l-.534 3.356a16.282 16.282 0 00-5.112 2.12l-2.75-1.996a.605.605 0 00-.725.011 20.118 20.118 0 00-3.632 3.632.605.605 0 00-.01.725l1.995 2.75a16.28 16.28 0 00-2.12 5.112l-3.356.534a.605.605 0 00-.504.52 20.19 20.19 0 000 5.136c.034.266.24.478.504.52l3.356.534a16.4 16.4 0 0012.354 12.354l.534 3.356c.042.265.254.47.52.505a20.184 20.184 0 005.136 0 .605.605 0 00.52-.505l.534-3.356a16.28 16.28 0 005.113-2.12l2.75 1.996a.605.605 0 00.724-.011 20.115 20.115 0 003.632-3.632.605.605 0 00.01-.725l-1.995-2.75a16.28 16.28 0 002.12-5.112l3.356-.534zM20 30.342c-5.712 0-10.342-4.63-10.342-10.342 0-5.712 4.63-10.342 10.342-10.342 5.712 0 10.342 4.63 10.342 10.342 0 5.712-4.63 10.342-10.342 10.342z" fill="#56AAF8"/><path d="M20 6.036v3.622c5.712 0 10.342 4.63 10.342 10.342 0 5.712-4.63 10.342-10.342 10.342v3.622c7.712 0 13.964-6.252 13.964-13.964 0-7.712-6.252-13.964-13.964-13.964z" fill="#043B74"/><path d="M20 6.036C12.29 6.036 6.038 12.288 6.038 20c0 7.712 6.252 13.964 13.964 13.964 6.378 0 11.55-6.252 11.55-13.964 0-7.712-5.172-13.964-11.55-13.964zm0 23.099a9.135 9.135 0 113.372-17.628l-1.91 7.031 7.031-1.909a9.135 9.135 0 01-8.492 12.505z" fill="#1876D7"/><path d="M4.46 36.576L.353 39.647c.4.4 1.012.46 1.476.18l2.383-1.442.246-1.809z" fill="#002850"/><path d="M1.278 39.274l3.18-2.698.163-1.197-3.006.408L.174 38.17a1.207 1.207 0 00.179 1.477c.133.134.522-.03.925-.373z" fill="#424247"/><path d="M10.598 34.525L27.08 13.47 3.348 37.52l.866.865 6.383-3.86z" fill="#7C90D5"/><path d="M24.254 15.119L5.475 29.404l-3.86 6.383 1.732 1.732 22.284-21.023-1.377-1.377z" fill="#EFF2FC"/><path d="M26.459 13.54L17.585 20l-6.99 9.403a3.622 3.622 0 000 5.122L28.493 16.63a9.147 9.147 0 00-2.033-3.088z" fill="#1FC7BD"/><path d="M5.475 29.403a3.622 3.622 0 005.122 0l15.862-15.862a9.146 9.146 0 00-3.088-2.034L5.474 29.403z" fill="#B1FFFA"/></svg><svg fill="none" viewBox="0 0 60 40" id="price" xmlns="http://www.w3.org/2000/svg"><path fill-rule="evenodd" clip-rule="evenodd" d="M28.343.057c-.355.02-1.278.114-2.052.207-4.971.598-8.322 1.944-9.214 3.7-.258.509-.26.561-.184 3.578l.078 3.063-.616-.088c-1.16-.165-3.943-.094-4.955.126-4.22.919-7.526 3.227-9.608 6.711-2.263 3.785-2.393 8.796-.33 12.692 1.025 1.938 2.77 3.894 4.524 5.075 4.902 3.298 11.426 3.35 16.366.132l.987-.642.909.174c1.23.236 3.495.487 5.231.579l1.43.076.306.596c.833 1.622 3.607 2.849 7.922 3.503 6.545.991 14.06.346 18.226-1.567 1.048-.48 2.292-1.623 2.497-2.294.103-.336.14-2.266.14-7.154l-.001-6.694-.274-.56c-.718-1.47-3.066-2.648-6.681-3.353-1.308-.255-3.565-.517-5.853-.68l-.909-.064v-6.107c0-5.419-.021-6.164-.195-6.613-.397-1.033-1.1-1.707-2.503-2.4C41.677 1.11 38.278.356 34.745.09c-1.395-.105-4.878-.123-6.402-.034zm4.974 2.268c2.36.12 3.439.238 5.227.576 2.867.54 5.37 1.647 5.12 2.264-.209.52-1.975 1.305-4.034 1.792-4.347 1.03-10.79 1.122-15.447.22-2.181-.422-4.412-1.308-4.84-1.922-.166-.237-.158-.277.102-.541.437-.447 1.113-.779 2.449-1.203 2.087-.663 4.347-1.026 7.328-1.18.903-.045 1.72-.09 1.818-.098.096-.008 1.121.034 2.277.092zM16.676 12.908c3.534.649 6.61 2.92 8.296 6.128 1.82 3.46 1.596 7.664-.583 11-.657 1.006-2.15 2.526-3.153 3.208-2.322 1.582-5.418 2.362-8.16 2.059-2.792-.31-5.044-1.306-7.03-3.11-2.076-1.886-3.354-4.421-3.604-7.149-.698-7.62 6.305-13.59 14.234-12.136zm27.144 2.87v1.491l-1.495.073c-2.933.144-6.233.761-8.168 1.53-.922.365-2.123 1.054-2.399 1.374-.134.157-.397.187-1.598.187-1.63 0-2.169-.072-2.169-.292 0-.32-.873-2.214-1.421-3.084a35.81 35.81 0 01-.572-.923c0-.009.303.024.674.072 1.35.177 6.52.239 8.254.1 3.687-.298 6.129-.85 8.865-2.008.016-.007.03.659.03 1.48zm-29.875-1.023c-.457.116-.844.652-.845 1.169 0 .323-.062.38-.733.68a4.324 4.324 0 00-2.129 2.04c-.33.663-.363.827-.363 1.845 0 .973.04 1.197.306 1.733.422.846 1.132 1.572 1.944 1.984.609.31 1.164.444 2.711.657.5.07 1.259.722 1.437 1.236.452 1.306-.576 2.707-1.993 2.715-.99.006-1.955-.829-2.086-1.806-.127-.948-.484-1.321-1.265-1.321-.319 0-.517.085-.783.339-.338.322-.353.377-.31 1.09.09 1.476 1.15 2.946 2.574 3.569l.665.291.048.724c.043.645.089.758.425 1.044.923.786 2.014.089 2.014-1.289 0-.494.005-.5.636-.776 1.79-.78 2.9-2.785 2.535-4.573a4.48 4.48 0 00-2.46-3.154c-.368-.178-1.025-.35-1.706-.448-1.23-.176-1.387-.235-1.84-.692-1.425-1.433.088-3.804 2.098-3.288.26.067.612.227.784.355.378.284.774.993.774 1.386 0 .432.299 1.028.59 1.177.37.188.974.162 1.325-.057.44-.275.588-.804.438-1.577-.279-1.438-1.207-2.63-2.502-3.214-.554-.25-.672-.352-.672-.583 0-.336-.275-.997-.46-1.106-.303-.178-.795-.242-1.157-.15zm34.272 4.897c4.132.287 7.687 1.157 8.953 2.19.582.476.541.627-.316 1.151-3.368 2.06-13.135 2.71-19.447 1.293-2.073-.465-3.936-1.27-4.255-1.838-.114-.203-.082-.282.233-.561 1.212-1.08 4.645-1.928 9.204-2.275 1.071-.081 4.208-.06 5.628.04zm-17.594 3.145c.02.021.076.937.123 2.033l.085 1.994-1.215-.08c-.668-.043-1.23-.092-1.249-.107-.019-.015.02-.349.087-.74.067-.392.122-1.286.122-1.986l.001-1.274 1.004.06c.552.033 1.02.078 1.042.1zm.138 6.287c.008.006.035.918.059 2.024l.044 2.012-1.114-.035c-1.052-.034-4.236-.333-4.312-.405-.02-.018.257-.438.614-.932.357-.494.867-1.33 1.133-1.859l.483-.96 1.54.071c.846.04 1.545.077 1.553.084zm26.686 6.094c-.739.944-4.178 1.963-7.999 2.37-1.912.205-6.598.177-8.527-.05-3.68-.434-6.55-1.3-7.367-2.225-.275-.313-.287-.39-.287-1.938 0-.887.04-1.612.09-1.612.05 0 .465.15.924.333 2.31.926 5.72 1.455 9.922 1.538 5.201.104 9.417-.458 12.34-1.644l1.054-.428.033 1.69c.029 1.496.008 1.723-.183 1.966z" fill="#1FC7BD"/></svg><svg fill="none" viewBox="0 0 90 90" id="protection" xmlns="http://www.w3.org/2000/svg"><path d="M59.063 30.938c0-7.755-6.309-14.063-14.063-14.063-7.754 0-14.063 6.308-14.063 14.063C30.938 38.691 37.246 45 45 45c7.754 0 14.063-6.308 14.063-14.063zM45 37.968a7.04 7.04 0 01-7.031-7.03A7.04 7.04 0 0145 23.905a7.04 7.04 0 017.031 7.032A7.04 7.04 0 0145 37.968zM86.484 2.813H3.516A3.516 3.516 0 000 6.329v49.219a3.516 3.516 0 003.516 3.516H45a3.515 3.515 0 100-7.032H20.74C19.34 45.154 13.91 39.724 7.031 38.322v-14.77c6.878-1.4 12.308-6.83 13.71-13.708H69.26C70.66 16.72 76.09 22.15 82.969 23.553v14.736a3.515 3.515 0 107.03 0V6.329a3.515 3.515 0 00-3.515-3.516zm-73.026 49.22H7.03v-6.427a10.597 10.597 0 016.427 6.426zM7.03 16.27V9.844h6.427A10.597 10.597 0 017.03 16.27zm75.938 0a10.596 10.596 0 01-6.427-6.426h6.427v6.426zm5.088 36.132c-.318-.158-7.863-3.886-15.635-3.886-7.772 0-15.317 3.728-15.635 3.886a3.516 3.516 0 00-1.943 3.145v5.371a28.933 28.933 0 004.324 15.223A28.934 28.934 0 0070.85 86.816a3.516 3.516 0 003.144 0 28.934 28.934 0 0011.682-10.675A28.934 28.934 0 0090 60.918v-5.371a3.516 3.516 0 00-1.943-3.145zm-5.088 8.516c0 7.756-3.998 14.784-10.547 18.743-6.549-3.96-10.547-10.987-10.547-18.743v-3.075c2.564-1.01 6.716-2.296 10.547-2.296 4.037 0 8.192 1.373 10.547 2.304v3.067z" fill="#0075E1"/></svg><svg fill="none" viewBox="0 0 199 90" id="qiwi" xmlns="http://www.w3.org/2000/svg"><g clip-path="url(#pclip0)"><path d="M97.043 50.69h3.109v6.962h2.243l4.028-6.961h3.393l-4.832 8.17v.055l5.123 8.92h-3.515l-4.142-7.48h-2.244v7.474h-3.109V50.69h-.054zm20.024 4.542c3.738 0 6.786 2.704 6.786 6.448 0 3.798-2.994 6.44-6.731 6.44-3.738 0-6.732-2.642-6.732-6.44-.06-3.798 2.933-6.448 6.677-6.448zm9.198.291h2.94v9.664h3.852v-9.664h2.933v9.664h3.853v-9.664h2.939V67.83H126.38V55.523h-.115zm25.208-.29c3.501 0 5.461 2.588 5.461 5.812-.01.405-.048.81-.115 1.21h-8.461c.176 2.128 1.845 3.277 3.683 3.277a6.005 6.005 0 003.514-1.325l1.203 2.19a7.9 7.9 0 01-4.947 1.784c-4.082 0-6.616-2.94-6.616-6.447 0-3.852 2.588-6.502 6.272-6.502h.006zm6.894 10.008c1.5-.23 2.595-1.486 2.595-5.866v-3.852h8.975V67.83h-3.055v-9.827h-2.987v1.379c0 5.346-1.439 8.455-5.528 8.57V65.24zm20.315-10.002c3.507 0 5.461 2.582 5.461 5.812-.01.403-.049.805-.115 1.203h-8.455c.169 2.129 1.838 3.278 3.683 3.278a6.008 6.008 0 003.508-1.325l1.21 2.19a7.901 7.901 0 01-4.947 1.784c-4.089 0-6.623-2.94-6.623-6.447 0-3.852 2.595-6.502 6.278-6.502v.007zm7.995.284h3.048v4.717h1.493l2.994-4.717h3.393l-3.913 5.866v.061l4.372 6.38h-3.561l-3.224-5.001h-1.608v5h-3.055V55.524h.061zm-69.61 9.955c2.014 0 3.677-1.554 3.677-3.852a3.72 3.72 0 00-3.683-3.86c-2.007 0-3.623 1.555-3.623 3.853s1.609 3.852 3.629 3.852v.007zm36.765-5.353c0-1.608-1.102-2.588-2.48-2.588-1.555 0-2.703 1.034-2.994 2.588h5.474zm27.209 0c0-1.608-1.095-2.588-2.474-2.588-1.554 0-2.703 1.034-2.994 2.588h5.468z" fill="#2D3540"/><path d="M140.018 13.352v29.054a.787.787 0 01-.493.748.786.786 0 01-.311.056h-5.927a.786.786 0 01-.804-.804V13.352a.778.778 0 01.498-.75.782.782 0 01.313-.054h5.92a.785.785 0 01.811.804h-.007zm46.253-.804c.23 0 .52.115.811.345.169.168.169.46.115.689l-9.786 29.114a.82.82 0 01-.743.514h-5.292c-.351 0-.635-.17-.75-.514l-5.697-16.976-5.697 16.97a.822.822 0 01-.744.52h-5.305c-.338 0-.629-.17-.743-.52l-9.786-29.108c-.054-.23-.054-.46.115-.69.121-.23.405-.344.635-.344h6.616c.345 0 .635.23.744.574l5.237 17.2 5.758-17.2a.822.822 0 01.744-.52h4.663c.338 0 .628.176.743.52l5.758 17.2 5.238-17.2a.788.788 0 01.743-.574h6.623zm10.009 0c.405 0 .75.345.811.804v29.054a.778.778 0 01-.498.75.781.781 0 01-.313.054h-5.92a.778.778 0 01-.58-.227.784.784 0 01-.231-.577V13.352a.778.778 0 01.498-.75.782.782 0 01.313-.054h5.92zm-67.244 29.628a.592.592 0 01-.466.98h-7.252a.928.928 0 01-.743-.352l-1.21-1.487a16.22 16.22 0 01-8.684 2.582 16.057 16.057 0 010-32.101 16.055 16.055 0 0116.053 16.625 16.06 16.06 0 01-2.537 8.11l4.832 5.643h.007zM68.449 56.273c1.5.575 2.075 2.819 2.19 3.792.23 1.784-.291 2.473-.865 2.473-.575 0-1.38-.69-2.244-2.068-.865-1.378-1.21-2.933-.744-3.737.284-.52.92-.75 1.663-.46zm-8.745 6.502c.926 0 1.96.405 2.879 1.203 1.784 1.5 2.297 3.223 1.378 4.487-.513.635-1.378 1.034-2.358 1.034-.98 0-2.014-.338-2.703-.973-1.609-1.385-2.068-3.683-1.034-4.947a2.228 2.228 0 011.838-.811v.007zM39.57 79.4a39.575 39.575 0 1139.583-39.583 39.827 39.827 0 01-5.582 20.309c-.115.168-.406.114-.46-.115-1.379-9.726-7.306-15.071-15.936-16.686-.743-.115-.865-.575.115-.69 2.643-.23 6.387-.175 8.34.17a26.203 26.203 0 00-26.006-29.23c-14.435 0-26.174 11.746-26.174 26.181 0 14.436 11.739 26.181 26.181 26.181h1.203a35.31 35.31 0 01-.514-7.075c.068-1.616.406-1.845 1.095-.581 3.63 6.271 8.806 11.914 18.93 14.158 8.285 1.838 16.57 3.967 25.485 15.3.81.98-.406 2.014-1.325 1.21-9.09-8.056-17.368-10.705-24.91-10.705-8.455.061-14.206 1.15-20.018 1.15l-.007.006zm75.077-43.665l-3.163-3.852c-.345-.405-.061-1.04.46-1.04h6.67c.345-.92.52-1.96.52-2.995 0-4.77-3.568-8.92-8.454-8.92-4.893 0-8.461 4.15-8.461 8.92 0 4.772 3.568 8.86 8.461 8.86 1.378.061 2.757-.338 3.967-.973z" fill="#FF8C00"/></g><defs><clipPath id="pclip0"><path fill="#fff" d="M0 0h198.063v90H0z"/></clipPath></defs></svg><svg fill="none" viewBox="0 0 40 40" id="rating" xmlns="http://www.w3.org/2000/svg"><g clip-path="url(#qclip0)"><path d="M12.132 38.393C4.998 35.337 0 28.253 0 20 0 8.954 8.954 0 20 0s20 8.954 20 20c0 10.365-7.885 18.889-17.984 19.9l-9.884-1.507z" fill="#B4CDFF"/><path d="M39.711 16.588l-6.105-6.105-6.723 7.023-4.641-4.641-.765 4.457-6.464-6.464-8.617 7.897 5.461 5.461-.967 12.027.204.228 2.108 2.085 8.815 1.344c10.1-1.011 17.984-9.535 17.984-19.9 0-1.163-.1-2.303-.29-3.412z" fill="#143A85"/><path d="M33.599 18.756a5.849 5.849 0 10-8.272-8.271 5.849 5.849 0 008.272 8.271z" fill="#B1FFFA"/><path d="M33.606 10.483A5.83 5.83 0 0029.47 8.77v11.699a5.85 5.85 0 004.135-9.986z" fill="#1FC7BD"/><path d="M28.036 18.665l-3.032-3.032 1.657-1.657 1.375 1.374 4.24-4.24 1.658 1.657-5.898 5.898z" fill="#fff"/><path d="M32.277 11.11l-2.806 2.806v3.314l4.463-4.463-1.657-1.657z" fill="#E9EDF5"/><path d="M14.665 18.754a5.849 5.849 0 10-8.272-8.271 5.849 5.849 0 008.272 8.271z" fill="#78BAFF"/><path d="M14.668 10.483a5.831 5.831 0 00-4.123-1.713v11.698a5.85 5.85 0 004.123-9.986z" fill="#1876D7"/><path d="M14.292 12.515l-1.658-1.657-2.103 2.104-2.104-2.104-1.657 1.657 2.103 2.104-2.103 2.104 1.657 1.657 2.104-2.104 2.103 2.104 1.658-1.657-2.104-2.104 2.104-2.104z" fill="#fff"/><path d="M14.293 12.515l-1.657-1.657-2.091 2.09V16.29l2.09 2.091 1.658-1.657-2.104-2.104 2.104-2.104z" fill="#E9EDF5"/><path d="M22.772 23.446c-.9-.03-1.637.69-1.637 1.582l-.003 5.747-.984-.51.003-5.293c0-.038.001-.076.003-.113.05-.957.838-2.04 1.862-2.197h.62v-8.78a1.508 1.508 0 10-3.015 0v9.361h-.572v-2.307c0-.818-.636-1.514-1.453-1.543a1.508 1.508 0 00-1.562 1.507v3.03h-.474v-1.674a1.42 1.42 0 00-2.839 0v2.533h-.474v-1.131c0-.675-.553-1.249-1.228-1.236a1.205 1.205 0 00-1.181 1.204V33.76h.019a4.49 4.49 0 002.275 3.518v1.116A19.935 19.935 0 0020 40c.68 0 1.353-.034 2.016-.1v-2.418a3.85 3.85 0 002.284-3.516v-8.901c0-.86-.669-1.59-1.528-1.62z" fill="#fff"/><path d="M22.772 23.446c-.9-.03-1.637.69-1.637 1.582l-.003 5.747-.984-.51c.002 0 .003-5.293.003-5.293 0-.038.001-.076.003-.113.05-.957.838-2.04 1.862-2.197h.62v-8.78a1.508 1.508 0 10-3.015 0v9.361h-.572v-2.307c0-.818-.636-1.514-1.453-1.543a1.508 1.508 0 00-1.562 1.507v3.03h-.208l.094 15.653c1.3.266 2.702.417 4.08.417.68 0 1.353-.034 2.016-.1v-2.418a3.85 3.85 0 002.284-3.516v-8.901c0-.86-.669-1.59-1.528-1.62z" fill="#D7EDEC"/></g><defs><clipPath id="qclip0"><path fill="#fff" d="M0 0h40v40H0z"/></clipPath></defs></svg><svg fill="none" viewBox="0 0 90 90" id="shield" xmlns="http://www.w3.org/2000/svg"><g clip-path="url(#rclip0)" fill="#0075E1"><path d="M83.23 24.42l-.003-.07c-.039-.865-.065-1.78-.08-2.798-.074-4.962-4.019-9.067-8.982-9.344C63.817 11.63 55.812 8.256 48.973 1.59l-.059-.056a5.76 5.76 0 00-7.827 0l-.059.056c-6.84 6.666-14.844 10.04-25.192 10.619-4.962.276-8.908 4.381-8.981 9.344a92.802 92.802 0 01-.081 2.796l-.004.163c-.202 10.551-.452 23.684 3.942 35.603 2.415 6.555 6.074 12.252 10.873 16.936 5.465 5.334 12.624 9.568 21.277 12.585a6.577 6.577 0 002.139.364 6.46 6.46 0 002.141-.365c8.643-3.023 15.794-7.26 21.255-12.592 4.797-4.685 8.456-10.384 10.873-16.94 4.41-11.956 4.16-25.112 3.96-35.684zm-8.915 33.855C69.682 70.838 60.223 79.465 45.4 84.65a1.187 1.187 0 01-.798 0c-14.84-5.174-24.305-13.797-28.935-26.36-4.049-10.988-3.82-23.042-3.617-33.677l.001-.06c.041-.913.069-1.87.084-2.922.033-2.204 1.788-4.027 3.996-4.15 5.855-.327 11-1.458 15.727-3.46 4.72-1.997 8.913-4.814 12.816-8.61a.487.487 0 01.653 0c3.904 3.796 8.097 6.613 12.817 8.61 4.726 2.002 9.87 3.133 15.727 3.46 2.208.123 3.963 1.946 3.995 4.15.016 1.058.043 2.015.085 2.923.201 10.647.425 22.711-3.636 33.721z"/><path d="M45 22.572c-12.368 0-22.43 10.062-22.43 22.43 0 12.367 10.062 22.43 22.43 22.43 12.367 0 22.429-10.063 22.429-22.43 0-12.368-10.062-22.43-22.43-22.43zm0 39.578C35.544 62.15 27.85 54.457 27.85 45c0-9.455 7.693-17.148 17.149-17.148 9.455 0 17.147 7.693 17.147 17.148 0 9.456-7.692 17.149-17.147 17.149z"/><path d="M51.446 38.038L41.03 48.456 38.2 45.628a2.64 2.64 0 00-3.735 3.734l4.696 4.695a2.632 2.632 0 001.867.774c.675 0 1.35-.258 1.867-.774L55.18 41.772a2.641 2.641 0 00-3.735-3.734z"/></g><defs><clipPath id="rclip0"><path fill="#fff" d="M0 0h90v90H0z"/></clipPath></defs></svg><svg fill="none" viewBox="0 0 90 90" id="start" xmlns="http://www.w3.org/2000/svg"><path fill-rule="evenodd" clip-rule="evenodd" d="M73.76.172C62.626.993 52.177 4.347 43.89 9.76c-4.77 3.115-10.377 8.078-14.71 13.023l-.96 1.094-6.857.534c-6.953.541-7.731.651-8.94 1.267-1.437.731-2.254 1.774-6.925 8.837C2.944 38.376.684 41.859.475 42.253c-.29.547-.38 1.029-.383 2.035-.003 1.136.068 1.45.514 2.256.6 1.084 1.518 1.874 2.594 2.233.416.14 3.13.615 6.031 1.057 2.901.442 5.401.841 5.556.886.23.068.278.357.269 1.618-.015 1.889.332 2.996 1.377 4.393.416.557 4.385 4.622 8.821 9.033 8.644 8.596 8.783 8.712 10.966 9.133a7.89 7.89 0 001.971.074c.95-.106 1.009-.09 1.1.3.052.227.453 2.747.89 5.6.438 2.854.91 5.53 1.047 5.946.358 1.075 1.148 1.993 2.232 2.594.807.446 1.12.517 2.255.514 1.011-.003 1.488-.093 2.043-.388.399-.21 3.88-2.47 7.737-5.022 7.059-4.67 8.092-5.48 8.826-6.924.62-1.218.73-2.003 1.268-8.943l.53-6.86 1.095-.959c.602-.527 2.23-2.07 3.615-3.43 9.043-8.864 14.237-17.777 17.083-29.308 1.301-5.275 1.893-9.858 2.051-15.9.163-6.239-.168-7.92-1.946-9.888C86.986 1.16 85.462.386 83.782.148 82.316-.06 76.72-.046 73.76.172zm10.055 5.415c.8.53.847.852.832 5.62-.021 6.375-.656 11.273-2.2 16.988-2.63 9.727-7.105 17.247-14.923 25.071-4.8 4.805-9.777 8.521-15.44 11.527l-1.279.68-13.124-13.128-13.124-13.128.67-1.29c2.812-5.422 6.707-10.65 11.513-15.454 2.815-2.814 4.735-4.481 7.646-6.64 7.458-5.529 16.702-8.966 27.264-10.138 3.434-.38 3.923-.404 8.088-.383 2.91.015 3.774.073 4.077.275zm-23.858 9.678c-6.492.847-11.437 6.475-11.426 13.002.008 3.9 1.427 7.157 4.262 9.783 1.522 1.41 4.065 2.715 6.18 3.171 1.833.396 4.771.274 6.523-.272 4.328-1.349 7.654-4.804 8.902-9.246.49-1.74.533-4.656.096-6.45-1.284-5.277-5.669-9.217-11.098-9.972-1.474-.205-1.973-.208-3.439-.016zm3.089 5.294c4.13.752 7.14 4.945 6.432 8.962-.73 4.152-4.193 6.895-8.374 6.633-3.937-.245-7.063-3.384-7.268-7.296-.213-4.047 2.295-7.38 6.192-8.228 1.36-.296 1.736-.305 3.018-.071zM23.045 31.14c-2.716 4.33-4.92 9.029-6.267 13.367-.25.807-.388 1.01-.678 1.008-.466-.006-10.312-1.535-10.391-1.614-.117-.118 8.537-13.075 8.944-13.39.339-.264 1.125-.381 4.266-.638 2.118-.173 4.142-.325 4.499-.337l.647-.022-1.02 1.626zM34 56.051l11.582 11.586-1.648.546c-2.212.732-5.322 1.464-6.35 1.495l-.836.025-8.22-8.223-8.22-8.223.033-.923c.039-1.02 1.065-5.276 1.654-6.858.207-.557.387-1.012.4-1.012.013 0 5.235 5.214 11.605 11.587zm-23.627 4.437c-.242.094-2.597 2.325-5.235 4.957C-.07 70.644-.207 70.831.171 72.237c.225.836 1.168 1.713 2.01 1.871 1.344.253 1.498.139 6.498-4.82 2.603-2.582 4.833-4.94 4.967-5.251.939-2.179-1.106-4.396-3.272-3.55zM60.15 70.537c-.189 2.38-.43 4.492-.538 4.693-.187.348-13.382 9.206-13.515 9.073-.082-.082-1.608-9.914-1.61-10.379-.003-.293.356-.473 2.171-1.088 3.918-1.326 8.404-3.48 12.105-5.814.898-.566 1.654-.98 1.68-.92.027.059-.105 2.055-.293 4.435zM18.022 68.48C17.261 68.87.745 85.408.34 86.185c-.187.359-.34.896-.34 1.194 0 .873.622 1.886 1.402 2.284.87.444 1.594.449 2.43.016.358-.187 4.503-4.203 9.21-8.926 9.23-9.263 8.978-8.957 8.688-10.505-.303-1.61-2.225-2.528-3.708-1.767zm7.737 7.974c-.29.181-2.598 2.417-5.128 4.968-3.898 3.929-4.618 4.736-4.72 5.283-.366 1.962 1.354 3.648 3.21 3.147.945-.255 10.321-9.657 10.505-10.534.254-1.211-.28-2.396-1.325-2.936-.698-.361-1.906-.327-2.542.072z" fill="#0075E1"/></svg><svg fill="none" viewBox="0 0 90 90" id="task" xmlns="http://www.w3.org/2000/svg"><path fill-rule="evenodd" clip-rule="evenodd" d="M7.145.294C3.823 1.098 1.058 3.902.265 7.27c-.225.952-.26 6.122-.262 38.283L0 82.736l.384.683a2.59 2.59 0 001.11 1.036c.713.346 1.085.352 20.974.352h20.248l1.45.981c2.689 1.82 6.078 3.223 9.4 3.889 2.318.464 7.104.421 9.463-.086 2.567-.551 4.3-1.148 6.534-2.251 7.635-3.77 12.758-10.83 13.947-19.223.134-.943.172-2.558.108-4.486-.108-3.248-.394-4.871-1.308-7.442l-.512-1.439L85.559 51C89.343 47.226 90 46.397 90 45.4c0-.692-.565-1.804-1.088-2.144-.224-.145-1.871-.752-3.662-1.348l-3.256-1.084-1.105-3.334c-1.213-3.657-1.564-4.235-2.772-4.56-1.424-.384-1.717-.184-6.053 4.132l-3.962 3.943-1.544-.522c-2.16-.73-4.533-1.217-6.606-1.352l-1.768-.117V16.023h2.907c2.567 0 2.989-.041 3.601-.354 1.2-.613 1.402-1.264 1.4-4.52-.002-1.826-.092-3.156-.263-3.88-.803-3.41-3.568-6.183-6.96-6.984C57.234-.1 8.739-.093 7.145.294zm3.753 5.365c1.064.482 1.55.96 2.043 2.008.38.804.415 1.112.417 3.57.002 3.13.188 3.727 1.37 4.392l.7.394h37.485l-.046 11.813-.045 11.812-1.406.387c-2.954.814-5.732 2.177-8.304 4.075l-1.273.94h-6.6c-6.268 0-6.635.017-7.294.354-.785.4-1.402 1.412-1.402 2.297 0 .798.64 1.822 1.407 2.253.624.351.91.373 4.918.373h4.256l-.376.572c-1.533 2.33-3.12 6.432-3.606 9.323l-.111.66h-2.34c-2.138 0-2.39.034-2.935.4-1.66 1.108-1.55 3.4.212 4.438.487.287.987.363 2.727.413l2.131.062.119 1.17c.376 3.697 1.804 7.738 3.86 10.918l.805 1.246H5.273l.004-35.491c.004-35.344.006-35.494.363-36.283.482-1.064.96-1.55 2.006-2.044 1.088-.514 2.196-.531 3.252-.052zm47.461 0c1.063.482 1.55.96 2.044 2.008.296.63.414 1.193.416 1.98l.001 1.099H18.684l-.096-1.715c-.062-1.116-.225-2.054-.465-2.683-.203-.532-.369-.988-.369-1.012 0-.024 8.958-.042 19.907-.04 19.658.004 19.917.009 20.698.363zM19.951 26.781c-.193.105-1.16.99-2.15 1.966l-1.797 1.775-.487-.456a5.447 5.447 0 00-1.05-.74c-2.141-1.082-4.537 1.315-3.463 3.462.392.782 3.007 3.42 3.799 3.83.827.43 1.56.43 2.387 0 .639-.333 5.686-5.308 6.252-6.165.401-.605.377-2.066-.045-2.706-.527-.8-1.227-1.167-2.215-1.162-.484.002-1.037.09-1.23.196zm7.956 2.799c-.742.392-1.364 1.43-1.364 2.276 0 .844.585 1.804 1.368 2.244.7.393.722.395 9.166.395 7.964 0 8.503-.02 9.118-.334.758-.387 1.442-1.474 1.442-2.292 0-.885-.618-1.898-1.402-2.298-.668-.34-1.013-.354-9.182-.346-8.104.007-8.518.023-9.146.355zm49.09 12.919c.753 2.3 1.087 2.621 3.57 3.422l1.885.609-2.575 2.582-2.576 2.582-2.314-.774-2.313-.774-.761-2.307-.76-2.306 2.518-2.526c1.386-1.388 2.571-2.467 2.635-2.396.063.07.374.92.69 1.888zm-55.991.013c-.097.024-.411.096-.699.16-.34.077-1.184.77-2.417 1.985l-1.893 1.867-.484-.453a5.426 5.426 0 00-1.046-.737c-2.141-1.081-4.537 1.315-3.463 3.462.392.782 3.007 3.42 3.799 3.83 1.494.777 2.266.39 5.386-2.701 3.238-3.208 3.541-3.615 3.541-4.75 0-.964-.47-1.923-1.11-2.266-.436-.234-1.359-.46-1.614-.397zm40.342 2.078c1.467.238 3.765.858 4.15 1.119.107.073.619 1.417 1.137 2.988l.942 2.855-.662.68-.663.679-1.705-.855c-2.407-1.206-3.513-1.462-6.275-1.453-2.563.009-3.753.257-5.832 1.217-4.618 2.133-7.622 6.31-8.128 11.3-.695 6.861 3.594 13.12 10.303 15.038 1.953.558 5.36.559 7.31.001 3.939-1.126 7.061-3.717 8.844-7.338 1.197-2.432 1.539-4.062 1.437-6.853-.095-2.583-.52-4.18-1.662-6.23l-.624-1.12.683-.683.682-.683 2.916.974 2.916.975.459 1.533c.658 2.195.854 3.542.855 5.856 0 3.026-.762 6.392-2.008 8.87-.803 1.597-2.334 3.712-3.75 5.182-2.88 2.99-6.276 4.86-10.455 5.754-1.797.385-6.031.427-7.638.075-4.25-.93-7.725-2.78-10.523-5.606-1.848-1.866-2.764-3.138-3.89-5.405-3.817-7.678-2.282-17.046 3.79-23.122 4.573-4.577 11.173-6.758 17.391-5.748zm-.132 11.71c.556.212 1.01.436 1.01.499 0 .062-1.463 1.585-3.251 3.384-3.39 3.409-3.37 3.381-3.254 4.745.087 1.01.95 1.983 1.957 2.204 1.309.287 1.622.08 5.107-3.387l3.283-3.265.284.68c.533 1.277.667 2.19.582 3.957-.078 1.62-.14 1.868-.812 3.225-2.713 5.48-9.685 6.71-13.99 2.469-1.744-1.718-2.6-3.797-2.592-6.296.013-4.022 2.6-7.354 6.58-8.475 1.303-.366 3.785-.24 5.096.26zm-41.001 2.138c-.242.095-1.288 1.017-2.326 2.05l-1.886 1.877-.575-.545c-.782-.741-1.216-.938-2.066-.938-1.726 0-2.876 1.411-2.553 3.133.094.498.501 1.03 1.819 2.376.934.954 1.912 1.846 2.173 1.983.567.297 1.77.325 2.305.054.55-.279 6.071-5.781 6.373-6.35.138-.261.252-.823.252-1.25 0-1.786-1.85-3.044-3.516-2.39z" fill="#0075E1"/></svg><svg fill="none" viewBox="0 0 40 40" id="time" xmlns="http://www.w3.org/2000/svg"><path d="M36.431 12.863L36.378 20c0 11.046-7.332 20-16.378 20 11.046 0 20-8.954 20-20l-3.569-7.137z" fill="#043B74"/><path d="M37.586 20c0-2.515-.41-4.92-1.155-7.138l-.053-.105L32.757 20c0 7.045-5.712 12.757-12.757 12.757V40c9.712 0 17.586-8.954 17.586-20z" fill="#043B74"/><path d="M20 32.757c-7.045 0-12.757-5.712-12.757-12.757H0c0 11.046 8.954 20 20 20l3.622-3.622L20 32.757z" fill="#1876D7"/><path d="M7.243 20c0-7.045 5.712-12.757 12.757-12.757V0C8.954 0 0 8.954 0 20l3.622 3.622L7.243 20z" fill="#93B7FF"/><path d="M20 0l20 20C40 8.954 31.046 0 20 0z" fill="#043B74"/><path d="M20 0L16.38 3.622 20 7.243c7.045 0 12.756 5.712 12.756 12.757l3.622-3.622 1.065 1.065C36.34 7.605 28.95 0 20 0z" fill="#043B74"/><path d="M20 10.865v18.27a9.135 9.135 0 000-18.27z" fill="#1FC7BD"/><path d="M26.72 20c0-5.045-3.008-9.135-6.72-9.135a9.135 9.135 0 000 18.27c3.712 0 6.72-4.09 6.72-9.135z" fill="#B1FFFA"/><path d="M16.639 14.784a.604.604 0 100-1.208.604.604 0 000 1.208zM14.18 17.244a.604.604 0 100-1.208.604.604 0 000 1.207zM13.28 20.604a.604.604 0 100-1.207.604.604 0 000 1.207zM14.18 23.964a.604.604 0 100-1.207.604.604 0 000 1.207zM16.639 26.424a.604.604 0 100-1.208.604.604 0 000 1.207zM20 27.324a.604.604 0 100-1.207.604.604 0 000 1.207zM23.36 26.424a.604.604 0 100-1.208.604.604 0 000 1.207zM25.82 23.964a.604.604 0 100-1.207.604.604 0 000 1.207zM25.82 17.244a.604.604 0 100-1.208.604.604 0 000 1.207zM23.36 14.784a.604.604 0 100-1.208.604.604 0 000 1.208z" fill="#043B74"/><path d="M26.72 20.604h-7.927a.604.604 0 010-1.208h7.928a.604.604 0 110 1.208z" fill="#002850"/><path d="M20 21.81a.604.604 0 01-.604-.603V13.28a.604.604 0 011.208 0v7.927c0 .334-.27.604-.604.604z" fill="#002850"/></svg><svg fill="none" viewBox="0 0 40 40" id="time-management" xmlns="http://www.w3.org/2000/svg"><g clip-path="url(#vclip0)"><circle cx="19.999" cy="20" r="13.333" fill="#fff"/><path d="M36.431 12.863L36.378 20c0 11.046-7.332 20-16.378 20 11.046 0 20-8.954 20-20l-3.569-7.137z" fill="#043B74"/><path d="M37.586 20c0-2.515-.41-4.92-1.155-7.138l-.053-.105L32.757 20c0 7.045-5.712 12.757-12.757 12.757V40c9.712 0 17.586-8.954 17.586-20z" fill="#043B74"/><path d="M20 32.757c-7.045 0-12.757-5.712-12.757-12.757H0c0 11.046 8.954 20 20 20l3.622-3.622L20 32.757z" fill="#1876D7"/><path d="M7.243 20c0-7.045 5.712-12.757 12.757-12.757V0C8.954 0 0 8.954 0 20l3.622 3.622L7.243 20z" fill="#93B7FF"/><path d="M20 0l20 20C40 8.954 31.046 0 20 0z" fill="#043B74"/><path d="M20 0L16.38 3.622 20 7.243c7.045 0 12.756 5.712 12.756 12.757l3.622-3.622 1.065 1.065C36.34 7.605 28.95 0 20 0z" fill="#043B74"/><path d="M25.542 17.966l-11.164-4.16a.445.445 0 00-.574.569l4.183 11.182a.445.445 0 00.84-.022l1.195-3.889 4.084 3.843a.445.445 0 00.627 0l1.044-1.044a.444.444 0 000-.627l-4.07-3.825 3.835-1.187a.444.444 0 000-.84z" fill="#1FC7BD"/><path d="M14.444 13.778l11.117 4.21a.446.446 0 010 .84L21.777 20l4 3.818a.445.445 0 010 .626l-.594.594-11.208-11.16a.445.445 0 01.469-.1z" fill="#B1FFFA"/></g><defs><clipPath id="vclip0"><path fill="#fff" d="M0 0h40v40H0z"/></clipPath></defs></svg><svg fill="none" viewBox="0 0 35 40" id="timer" xmlns="http://www.w3.org/2000/svg"><path fill-rule="evenodd" clip-rule="evenodd" d="M12.246 1.68v1.68H15.784v1.66l.364-.053c.477-.068 2.156-.068 2.725 0l.448.052V3.36h3.456V0H12.246v1.68zM28.084 5l-1.232 1.173.697.665.697.665-.78.74-.781.741-1.276-.605c-.701-.333-1.694-.74-2.207-.903-7.243-2.312-15.128-.085-19.593 5.536a16.913 16.913 0 00-3.42 7.502c-.18.967-.25 3.383-.128 4.484.716 6.5 5.336 11.99 11.878 14.119 3.43 1.116 6.985 1.174 10.59.174 3.916-1.087 7.444-3.636 9.62-6.95 1.405-2.143 2.215-4.11 2.696-6.553.207-1.054.207-4.32-.002-5.392-.457-2.355-1.347-4.483-2.647-6.33-.692-.985-1.181-1.556-2.09-2.442l-.62-.605.613-.587.613-.586.703.664.702.664 1.233-1.172 1.232-1.172-2.633-2.501-2.633-2.5L28.084 5zM17.511 17.35v5.86h12.335l-.042.528c-.072.913-.204 1.756-.376 2.403-.892 3.363-3.442 6.252-6.775 7.675-4.04 1.726-8.732 1.295-12.337-1.134-.836-.563-2.167-1.83-2.776-2.64-1.51-2.012-2.283-4.334-2.286-6.87-.006-6.233 5.031-11.267 11.64-11.632.226-.013.458-.03.514-.037.082-.011.103 1.202.103 5.847z" fill="#1FC7BD"/></svg><svg fill="none" viewBox="0 0 90 90" id="traced" xmlns="http://www.w3.org/2000/svg"><path fill-rule="evenodd" clip-rule="evenodd" d="M32.886.191c-8.68 1.106-16.932 5.23-22.837 11.41C3.125 18.85-.355 28.118.03 38.291c.21 5.609 1.415 10.214 4.004 15.312 1.947 3.834 4.192 6.845 7.441 9.985 3.091 2.986 6.541 5.343 10.303 7.039 1.682.758 1.971.834 3.196.837 1.24.003 1.4-.04 2.023-.535 1.343-1.07 1.8-2.772 1.134-4.214-.474-1.024-1.15-1.57-2.833-2.288-6.233-2.66-11.6-7.503-14.724-13.288-3.46-6.408-4.332-14.628-2.342-22.087 1.995-7.477 6.636-13.799 13.023-17.737 6.124-3.777 14.312-5.204 21.5-3.747 11.721 2.375 20.833 11.318 23.339 22.908.499 2.307.96 3.078 2.21 3.69.823.403 1.116.46 1.89.368 1.163-.137 2.159-.823 2.723-1.874.365-.68.412-.955.333-1.936-.208-2.56-1.598-6.86-3.362-10.402-1.883-3.779-4.111-6.799-7.332-9.934C56.915 4.896 50.548 1.651 42.882.362c-2.373-.399-7.517-.487-9.996-.17zm3 14.001c-.79.242-1.909 1.405-2.135 2.22-.102.37-.188 1.305-.19 2.08l-.005 1.408-1.271.597c-1.778.834-3.755 2.815-4.612 4.62-2.98 6.281.537 13.605 7.214 15.02.675.143 1.534.262 1.91.263 1.749.008 3.194 1.014 3.614 2.517.685 2.448-1.13 4.694-3.626 4.487-1.253-.104-2.224-.79-3.001-2.122-.844-1.444-1.702-1.975-3.198-1.975-1.385 0-2.241.447-2.97 1.55-.692 1.045-.67 2.65.054 3.994.807 1.5 3.089 3.693 4.593 4.416l1.25.6.073 1.676c.086 1.95.436 2.705 1.613 3.484.594.393.908.472 1.882.472.973 0 1.287-.079 1.881-.472 1.177-.78 1.526-1.535 1.614-3.484l.074-1.676 1.382-.67c2.436-1.182 4.326-3.507 5.18-6.37.465-1.556.426-4.193-.087-5.896-1.042-3.458-3.702-6.136-7.064-7.111-.527-.153-1.634-.346-2.46-.43-1.818-.183-2.686-.567-3.346-1.479-1.202-1.66-.673-4.171 1.065-5.059 1.032-.526 1.994-.621 2.876-.284.868.331 1.436.892 2.12 2.091.264.465.801 1.055 1.202 1.32.607.402.915.48 1.894.48.973 0 1.288-.078 1.882-.472 1.098-.727 1.547-1.587 1.547-2.96 0-1.002-.086-1.296-.688-2.375-.936-1.677-2.706-3.399-4.274-4.157l-1.23-.595-.073-1.76c-.082-2.023-.419-2.785-1.564-3.543-.754-.5-2.203-.687-3.125-.405zm33.591 27.11c-.833.246-1.913 1.399-2.156 2.302-.435 1.618.278 3.355 1.68 4.088.646.337 1.044.371 4.914.42l4.21.054-5.176 5.182-5.177 5.183-9.059.001c-5.933 0-9.3.067-9.761.191-.605.164-2.475 1.96-13.331 12.803-6.945 6.937-12.802 12.89-13.015 13.229-.589.938-.548 2.685.085 3.643.875 1.323 2.418 1.886 4.015 1.465.72-.19 1.84-1.257 12.84-12.25l12.05-12.042h9.191c7.895 0 9.285-.038 9.846-.272.438-.182 2.586-2.202 6.49-6.1l5.835-5.828.056 4.061.056 4.062.528.747c1.278 1.809 3.826 2.053 5.364.514 1.061-1.062 1.078-1.237 1.02-10.749l-.053-8.549-.472-.713c-.26-.392-.774-.901-1.143-1.131l-.671-.418-8.794-.03c-5.241-.02-9.027.037-9.372.138zM57.167 71.04c-.816.25-1.915 1.41-2.145 2.264-.126.47-.174 2.994-.14 7.445.045 6.192.076 6.789.382 7.404.422.85 1.204 1.449 2.264 1.733 1.522.407 3.245-.353 3.93-1.733.31-.623.332-1.16.332-7.797v-7.128l-.417-.672c-.83-1.335-2.652-1.992-4.206-1.516zm14.07 0c-.817.25-1.915 1.41-2.145 2.264-.126.47-.174 2.994-.141 7.445.046 6.192.076 6.789.382 7.404.422.85 1.204 1.449 2.265 1.733 1.521.407 3.244-.353 3.929-1.733.31-.623.332-1.16.332-7.797v-7.128l-.417-.672c-.83-1.335-2.651-1.992-4.206-1.516zm14.069 0c-.816.25-1.915 1.41-2.145 2.264-.126.47-.174 2.994-.14 7.445.045 6.192.076 6.789.382 7.404.422.85 1.204 1.449 2.264 1.733 1.522.407 3.245-.353 3.93-1.733.31-.623.332-1.16.332-7.797v-7.128l-.417-.672c-.83-1.335-2.652-1.992-4.206-1.516zM43.097 81.775c-.836.256-1.914 1.41-2.155 2.304-.282 1.048-.142 3.25.259 4.074.412.847 1.194 1.447 2.258 1.732 1.521.407 3.244-.353 3.929-1.733.26-.522.333-1.057.333-2.43 0-1.545-.051-1.841-.418-2.431-.83-1.335-2.651-1.992-4.206-1.516z" fill="#0075E1"/></svg><svg fill="none" viewBox="0 0 90 90" id="traced2" xmlns="http://www.w3.org/2000/svg"><path fill-rule="evenodd" clip-rule="evenodd" d="M77.167.251c-3.885.838-7.179 4.164-8.001 8.078-.469 2.23-.22 4.54.704 6.558l.452.989-9.035 9.034-9.036 9.033-1.216-.613c-1.664-.84-2.605-1.13-4.464-1.378-2.633-.35-5.096.093-7.64 1.378l-1.217.613-8.595-8.587c-7.047-7.04-8.575-8.65-8.484-8.938.527-1.666.663-2.804.484-4.045-.512-3.558-3.11-6.22-6.637-6.805-3.263-.541-6.804 1.325-8.209 4.326-2.317 4.951.664 10.459 6.084 11.24 1.242.178 2.38.042 4.046-.485.289-.091 1.9 1.437 8.94 8.482l8.588 8.594-.613 1.215c-1.189 2.356-1.638 4.575-1.455 7.195l.11 1.582-8.706 3.693c-4.789 2.03-8.897 3.764-9.13 3.851-.351.133-.552.053-1.2-.478-1.726-1.413-4.033-2.074-6.12-1.75C3.307 53.575.677 56.17.1 59.66c-.843 5.085 3.846 9.773 8.931 8.93 3.58-.593 6.128-3.244 6.654-6.922l.2-1.406 9.1-3.87 9.098-3.871 1.242 1.33c1.42 1.52 3.057 2.664 4.792 3.349 1.255.495 3.436.98 4.413.98h.57l1.282 6.02 1.28 6.022-.504.35c-1.078.748-2.993 2.858-3.545 3.905-1.224 2.325-1.556 5.028-.92 7.511.506 1.978 1.29 3.335 2.812 4.869 4.16 4.19 10.604 4.19 14.796 0 3.29-3.29 4.047-7.93 1.98-12.149-.805-1.644-2.797-3.696-4.404-4.538-1.197-.627-3.441-1.264-4.451-1.264h-.647l-1.185-5.583c-.651-3.07-1.199-5.73-1.215-5.91-.017-.18.125-.418.316-.528 2.43-1.4 4.064-2.855 5.308-4.725.435-.654.829-1.19.874-1.19.101 0 17.195 4.959 17.256 5.005.024.018.124.462.224.986.784 4.135 4.831 7.027 8.893 6.354 3.45-.572 6.046-3.167 6.617-6.616.541-3.264-1.325-6.804-4.327-8.208-3.141-1.47-6.524-.911-8.999 1.485l-.951.922-6.73-1.958c-3.7-1.077-7.62-2.218-8.707-2.537l-1.979-.578v-.833c0-1.11-.449-3.633-.8-4.495a27.709 27.709 0 00-.813-1.73l-.532-1.037 9.038-9.037 9.038-9.036.99.453c4.001 1.831 8.602.978 11.762-2.181 4.192-4.191 4.192-10.612 0-14.803C84.237.508 80.762-.524 77.167.251zm4.434 5.488c1.028.455 2.179 1.603 2.66 2.652.52 1.136.52 3.137 0 4.273-.48 1.045-1.626 2.19-2.67 2.67-1.136.519-3.138.519-4.274 0-2.26-1.035-3.541-3.63-2.97-6.012.761-3.172 4.267-4.904 7.254-3.583zm-67.045 5.337c.768.431 1.408 1.455 1.408 2.252 0 1.356-1.295 2.65-2.652 2.65-1.262 0-2.625-1.362-2.625-2.624 0-.858.619-1.894 1.365-2.288.86-.454 1.685-.45 2.504.01zm31.853 26.182c4.129.783 7.02 4.833 6.348 8.89-.572 3.45-3.167 6.045-6.618 6.617-5.085.842-9.774-3.846-8.931-8.93.736-4.443 4.87-7.398 9.2-6.577zm36.913 16.019c.768.431 1.408 1.455 1.408 2.252 0 1.356-1.294 2.65-2.651 2.65-.798 0-1.821-.64-2.253-1.407-.467-.83-.472-1.576-.019-2.465.654-1.28 2.242-1.746 3.515-1.03zM9.11 58.533c.785.4 1.402 1.413 1.402 2.297 0 1.262-1.362 2.625-2.625 2.625-1.35 0-2.65-1.294-2.65-2.638 0-.846.622-1.883 1.364-2.275.849-.448 1.642-.45 2.509-.009zm45.935 16.135c1.028.454 2.179 1.602 2.66 2.651.52 1.136.52 3.138 0 4.273-.48 1.045-1.625 2.19-2.67 2.67-1.136.52-3.138.52-4.274 0-2.26-1.035-3.541-3.63-2.97-6.012.761-3.172 4.267-4.903 7.254-3.582z" fill="#0075E1"/></svg></svg>