<svg width="90" height="90" fill="none" xmlns="http://www.w3.org/2000/svg"><path fill-rule="evenodd" clip-rule="evenodd" d="M73.76.172C62.626.993 52.177 4.347 43.89 9.76c-4.77 3.115-10.377 8.078-14.71 13.023l-.96 1.094-6.857.534c-6.953.541-7.731.651-8.94 1.267-1.437.731-2.254 1.774-6.925 8.837C2.944 38.376.684 41.859.475 42.253c-.29.547-.38 1.029-.383 2.035-.003 1.136.068 1.45.514 2.256.6 1.084 1.518 1.874 2.594 2.233.416.14 3.13.615 6.031 1.057 2.901.442 5.401.841 5.556.886.23.068.278.357.269 1.618-.015 1.889.332 2.996 1.377 4.393.416.557 4.385 4.622 8.821 9.033 8.644 8.596 8.783 8.712 10.966 9.133a7.89 7.89 0 001.971.074c.95-.106 1.009-.09 1.1.3.052.227.453 2.747.89 5.6.438 2.854.91 5.53 1.047 5.946.358 1.075 1.148 1.993 2.232 2.594.807.446 1.12.517 2.255.514 1.011-.003 1.488-.093 2.043-.388.399-.21 3.88-2.47 7.737-5.022 7.059-4.67 8.092-5.48 8.826-6.924.62-1.218.73-2.003 1.268-8.943l.53-6.86 1.095-.959c.602-.527 2.23-2.07 3.615-3.43 9.043-8.864 14.237-17.777 17.083-29.308 1.301-5.275 1.893-9.858 2.051-15.9.163-6.239-.168-7.92-1.946-9.888C86.986 1.16 85.462.386 83.782.148 82.316-.06 76.72-.046 73.76.172zm10.055 5.415c.8.53.847.852.832 5.62-.021 6.375-.656 11.273-2.2 16.988-2.63 9.727-7.105 17.247-14.923 25.071-4.8 4.805-9.777 8.521-15.44 11.527l-1.279.68-13.124-13.128-13.124-13.128.67-1.29c2.812-5.422 6.707-10.65 11.513-15.454 2.815-2.814 4.735-4.481 7.646-6.64 7.458-5.529 16.702-8.966 27.264-10.138 3.434-.38 3.923-.404 8.088-.383 2.91.015 3.774.073 4.077.275zm-23.858 9.678c-6.492.847-11.437 6.475-11.426 13.002.008 3.9 1.427 7.157 4.262 9.783 1.522 1.41 4.065 2.715 6.18 3.171 1.833.396 4.771.274 6.523-.272 4.328-1.349 7.654-4.804 8.902-9.246.49-1.74.533-4.656.096-6.45-1.284-5.277-5.669-9.217-11.098-9.972-1.474-.205-1.973-.208-3.439-.016zm3.089 5.294c4.13.752 7.14 4.945 6.432 8.962-.73 4.152-4.193 6.895-8.374 6.633-3.937-.245-7.063-3.384-7.268-7.296-.213-4.047 2.295-7.38 6.192-8.228 1.36-.296 1.736-.305 3.018-.071zM23.045 31.14c-2.716 4.33-4.92 9.029-6.267 13.367-.25.807-.388 1.01-.678 1.008-.466-.006-10.312-1.535-10.391-1.614-.117-.118 8.537-13.075 8.944-13.39.339-.264 1.125-.381 4.266-.638 2.118-.173 4.142-.325 4.499-.337l.647-.022-1.02 1.626zM34 56.051l11.582 11.586-1.648.546c-2.212.732-5.322 1.464-6.35 1.495l-.836.025-8.22-8.223-8.22-8.223.033-.923c.039-1.02 1.065-5.276 1.654-6.858.207-.557.387-1.012.4-1.012.013 0 5.235 5.214 11.605 11.587zm-23.627 4.437c-.242.094-2.597 2.325-5.235 4.957C-.07 70.644-.207 70.831.171 72.237c.225.836 1.168 1.713 2.01 1.871 1.344.253 1.498.139 6.498-4.82 2.603-2.582 4.833-4.94 4.967-5.251.939-2.179-1.106-4.396-3.272-3.55zM60.15 70.537c-.189 2.38-.43 4.492-.538 4.693-.187.348-13.382 9.206-13.515 9.073-.082-.082-1.608-9.914-1.61-10.379-.003-.293.356-.473 2.171-1.088 3.918-1.326 8.404-3.48 12.105-5.814.898-.566 1.654-.98 1.68-.92.027.059-.105 2.055-.293 4.435zM18.022 68.48C17.261 68.87.745 85.408.34 86.185c-.187.359-.34.896-.34 1.194 0 .873.622 1.886 1.402 2.284.87.444 1.594.449 2.43.016.358-.187 4.503-4.203 9.21-8.926 9.23-9.263 8.978-8.957 8.688-10.505-.303-1.61-2.225-2.528-3.708-1.767zm7.737 7.974c-.29.181-2.598 2.417-5.128 4.968-3.898 3.929-4.618 4.736-4.72 5.283-.366 1.962 1.354 3.648 3.21 3.147.945-.255 10.321-9.657 10.505-10.534.254-1.211-.28-2.396-1.325-2.936-.698-.361-1.906-.327-2.542.072z" fill="#0075E1"/></svg>