<svg width="90" height="90" fill="none" xmlns="http://www.w3.org/2000/svg"><path fill-rule="evenodd" clip-rule="evenodd" d="M7.145.294C3.823 1.098 1.058 3.902.265 7.27c-.225.952-.26 6.122-.262 38.283L0 82.736l.384.683a2.59 2.59 0 001.11 1.036c.713.346 1.085.352 20.974.352h20.248l1.45.981c2.689 1.82 6.078 3.223 9.4 3.889 2.318.464 7.104.421 9.463-.086 2.567-.551 4.3-1.148 6.534-2.251 7.635-3.77 12.758-10.83 13.947-19.223.134-.943.172-2.558.108-4.486-.108-3.248-.394-4.871-1.308-7.442l-.512-1.439L85.559 51C89.343 47.226 90 46.397 90 45.4c0-.692-.565-1.804-1.088-2.144-.224-.145-1.871-.752-3.662-1.348l-3.256-1.084-1.105-3.334c-1.213-3.657-1.564-4.235-2.772-4.56-1.424-.384-1.717-.184-6.053 4.132l-3.962 3.943-1.544-.522c-2.16-.73-4.533-1.217-6.606-1.352l-1.768-.117V16.023h2.907c2.567 0 2.989-.041 3.601-.354 1.2-.613 1.402-1.264 1.4-4.52-.002-1.826-.092-3.156-.263-3.88-.803-3.41-3.568-6.183-6.96-6.984C57.234-.1 8.739-.093 7.145.294zm3.753 5.365c1.064.482 1.55.96 2.043 2.008.38.804.415 1.112.417 3.57.002 3.13.188 3.727 1.37 4.392l.7.394h37.485l-.046 11.813-.045 11.812-1.406.387c-2.954.814-5.732 2.177-8.304 4.075l-1.273.94h-6.6c-6.268 0-6.635.017-7.294.354-.785.4-1.402 1.412-1.402 2.297 0 .798.64 1.822 1.407 2.253.624.351.91.373 4.918.373h4.256l-.376.572c-1.533 2.33-3.12 6.432-3.606 9.323l-.111.66h-2.34c-2.138 0-2.39.034-2.935.4-1.66 1.108-1.55 3.4.212 4.438.487.287.987.363 2.727.413l2.131.062.119 1.17c.376 3.697 1.804 7.738 3.86 10.918l.805 1.246H5.273l.004-35.491c.004-35.344.006-35.494.363-36.283.482-1.064.96-1.55 2.006-2.044 1.088-.514 2.196-.531 3.252-.052zm47.461 0c1.063.482 1.55.96 2.044 2.008.296.63.414 1.193.416 1.98l.001 1.099H18.684l-.096-1.715c-.062-1.116-.225-2.054-.465-2.683a19.812 19.812 0 01-.369-1.012c0-.024 8.958-.042 19.907-.04 19.658.004 19.917.009 20.698.363zM19.951 26.781c-.193.105-1.16.99-2.15 1.966l-1.797 1.775-.487-.456a5.447 5.447 0 00-1.05-.74c-2.141-1.082-4.537 1.315-3.463 3.462.392.782 3.007 3.42 3.799 3.83.827.43 1.56.43 2.387 0 .639-.333 5.686-5.308 6.252-6.165.401-.605.377-2.066-.045-2.706-.527-.8-1.227-1.167-2.215-1.162-.484.002-1.037.09-1.23.196zm7.956 2.799c-.742.392-1.364 1.43-1.364 2.276 0 .844.585 1.804 1.368 2.244.7.393.722.395 9.166.395 7.964 0 8.503-.02 9.118-.334.758-.387 1.442-1.474 1.442-2.292 0-.885-.618-1.898-1.402-2.298-.668-.34-1.013-.354-9.182-.346-8.104.007-8.518.023-9.146.355zm49.09 12.919c.753 2.3 1.087 2.621 3.57 3.422l1.885.609-2.575 2.582-2.576 2.582-2.314-.774-2.313-.774-.761-2.307-.76-2.306 2.518-2.526c1.386-1.388 2.571-2.467 2.635-2.396.063.07.374.92.69 1.888zm-55.991.013c-.097.024-.411.096-.699.16-.34.077-1.184.77-2.417 1.985l-1.893 1.867-.484-.453a5.426 5.426 0 00-1.046-.737c-2.141-1.081-4.537 1.315-3.463 3.462.392.782 3.007 3.42 3.799 3.83 1.494.777 2.266.39 5.386-2.701 3.238-3.208 3.541-3.615 3.541-4.75 0-.964-.47-1.923-1.11-2.266-.436-.234-1.359-.46-1.614-.397zm40.342 2.078c1.467.238 3.765.858 4.15 1.119.107.073.619 1.417 1.137 2.988l.942 2.855-.662.68-.663.679-1.705-.855c-2.407-1.206-3.513-1.462-6.275-1.453-2.563.009-3.753.257-5.832 1.217-4.618 2.133-7.622 6.31-8.128 11.3-.695 6.861 3.594 13.12 10.303 15.038 1.953.558 5.36.559 7.31.001 3.939-1.126 7.061-3.717 8.844-7.338 1.197-2.432 1.539-4.062 1.437-6.853-.095-2.583-.52-4.18-1.662-6.23l-.624-1.12.683-.683.682-.683 2.916.974 2.916.975.459 1.533c.658 2.195.854 3.542.855 5.856 0 3.026-.762 6.392-2.008 8.87-.803 1.597-2.334 3.712-3.75 5.182-2.88 2.99-6.276 4.86-10.455 5.754-1.797.385-6.031.427-7.638.075-4.25-.93-7.725-2.78-10.523-5.606-1.848-1.866-2.764-3.138-3.89-5.405-3.817-7.678-2.282-17.046 3.79-23.122 4.573-4.577 11.173-6.758 17.391-5.748zm-.132 11.71c.556.212 1.01.436 1.01.499 0 .062-1.463 1.585-3.251 3.384-3.39 3.409-3.37 3.381-3.254 4.745.087 1.01.95 1.983 1.957 2.204 1.309.287 1.622.08 5.107-3.387l3.283-3.265.284.68c.533 1.277.667 2.19.582 3.957-.078 1.62-.14 1.868-.812 3.225-2.713 5.48-9.685 6.71-13.99 2.469-1.744-1.718-2.6-3.797-2.592-6.296.013-4.022 2.6-7.354 6.58-8.475 1.303-.366 3.785-.24 5.096.26zm-41.001 2.138c-.242.095-1.288 1.017-2.326 2.05l-1.886 1.877-.575-.545c-.782-.741-1.216-.938-2.066-.938-1.726 0-2.876 1.411-2.553 3.133.094.498.501 1.03 1.819 2.376.934.954 1.912 1.846 2.173 1.983.567.297 1.77.325 2.305.054.55-.279 6.071-5.781 6.373-6.35.138-.261.252-.823.252-1.25 0-1.786-1.85-3.044-3.516-2.39z" fill="#0075E1"/></svg>