<svg width="40" height="40" fill="none" xmlns="http://www.w3.org/2000/svg"><path d="M36.431 12.863L36.378 20c0 11.046-7.332 20-16.378 20 11.046 0 20-8.954 20-20l-3.569-7.137z" fill="#043B74"/><path d="M37.586 20c0-2.515-.41-4.92-1.155-7.138l-.053-.105L32.757 20c0 7.045-5.712 12.757-12.757 12.757V40c9.712 0 17.586-8.954 17.586-20z" fill="#043B74"/><path d="M20 32.757c-7.045 0-12.757-5.712-12.757-12.757H0c0 11.046 8.954 20 20 20l3.622-3.622L20 32.757z" fill="#1876D7"/><path d="M7.243 20c0-7.045 5.712-12.757 12.757-12.757V0C8.954 0 0 8.954 0 20l3.622 3.622L7.243 20z" fill="#93B7FF"/><path d="M20 0l20 20C40 8.954 31.046 0 20 0z" fill="#043B74"/><path d="M20 0l-3.62 3.622L20 7.243c7.045 0 12.756 5.712 12.756 12.757l3.622-3.622 1.065 1.065C36.34 7.605 28.95 0 20 0z" fill="#043B74"/><path d="M20 10.865v18.27a9.135 9.135 0 000-18.27z" fill="#1FC7BD"/><path d="M26.72 20c0-5.045-3.008-9.135-6.72-9.135a9.135 9.135 0 000 18.27c3.712 0 6.72-4.09 6.72-9.135z" fill="#B1FFFA"/><path d="M16.639 14.784a.604.604 0 100-1.208.604.604 0 000 1.208zm-2.459 2.46a.604.604 0 100-1.208.604.604 0 000 1.207zm-.9 3.36a.604.604 0 100-1.207.604.604 0 000 1.207zm.9 3.36a.604.604 0 100-1.207.604.604 0 000 1.207zm2.459 2.46a.604.604 0 100-1.208.604.604 0 000 1.207zm3.361.9a.604.604 0 100-1.207.604.604 0 000 1.207zm3.36-.9a.604.604 0 100-1.208.604.604 0 000 1.207zm2.46-2.46a.604.604 0 100-1.207.604.604 0 000 1.207zm0-6.72a.604.604 0 100-1.208.604.604 0 000 1.207zm-2.46-2.46a.604.604 0 100-1.208.604.604 0 000 1.208z" fill="#043B74"/><path d="M26.72 20.604h-7.927a.604.604 0 010-1.208h7.928a.604.604 0 110 1.208z" fill="#002850"/><path d="M20 21.81a.604.604 0 01-.604-.603V13.28a.604.604 0 011.208 0v7.927c0 .334-.27.604-.604.604z" fill="#002850"/></svg>