<svg width="40" height="40" fill="none" xmlns="http://www.w3.org/2000/svg"><g clip-path="url(#clip0)"><circle cx="19.999" cy="20" r="13.333" fill="#fff"/><path d="M36.431 12.863L36.378 20c0 11.046-7.332 20-16.378 20 11.046 0 20-8.954 20-20l-3.569-7.137z" fill="#043B74"/><path d="M37.586 20c0-2.515-.41-4.92-1.155-7.138l-.053-.105L32.757 20c0 7.045-5.712 12.757-12.757 12.757V40c9.712 0 17.586-8.954 17.586-20z" fill="#043B74"/><path d="M20 32.757c-7.045 0-12.757-5.712-12.757-12.757H0c0 11.046 8.954 20 20 20l3.622-3.622L20 32.757z" fill="#1876D7"/><path d="M7.243 20c0-7.045 5.712-12.757 12.757-12.757V0C8.954 0 0 8.954 0 20l3.622 3.622L7.243 20z" fill="#93B7FF"/><path d="M20 0l20 20C40 8.954 31.046 0 20 0z" fill="#043B74"/><path d="M20 0l-3.62 3.622L20 7.243c7.045 0 12.756 5.712 12.756 12.757l3.622-3.622 1.065 1.065C36.34 7.605 28.95 0 20 0z" fill="#043B74"/><path d="M25.542 17.966l-11.164-4.16a.445.445 0 00-.574.569l4.183 11.182a.445.445 0 00.84-.022l1.195-3.889 4.084 3.843a.445.445 0 00.627 0l1.044-1.044a.444.444 0 000-.627l-4.07-3.825 3.835-1.187a.444.444 0 000-.84z" fill="#1FC7BD"/><path d="M14.444 13.778l11.117 4.21a.446.446 0 010 .84L21.777 20l4 3.818a.445.445 0 010 .626l-.594.594-11.208-11.16a.445.445 0 01.469-.1z" fill="#B1FFFA"/></g><defs><clipPath id="clip0"><path fill="#fff" d="M0 0h40v40H0z"/></clipPath></defs></svg>