<svg width="35" height="40" fill="none" xmlns="http://www.w3.org/2000/svg"><path fill-rule="evenodd" clip-rule="evenodd" d="M12.246 1.68v1.68h3.538v1.66l.364-.053c.477-.068 2.156-.068 2.725 0l.448.052V3.36h3.456V0H12.246v1.68zM28.084 5l-1.232 1.173.697.665.697.665-.78.74-.781.741-1.276-.605c-.701-.333-1.694-.74-2.207-.903-7.243-2.312-15.128-.085-19.593 5.536a16.913 16.913 0 00-3.42 7.502c-.18.967-.25 3.383-.128 4.484.716 6.5 5.336 11.99 11.878 14.119 3.43 1.116 6.985 1.174 10.59.174 3.916-1.087 7.444-3.636 9.62-6.95 1.405-2.143 2.215-4.11 2.696-6.553.207-1.054.207-4.32-.002-5.392-.457-2.355-1.347-4.483-2.647-6.33-.692-.985-1.181-1.556-2.09-2.442l-.62-.605.613-.587.613-.586.703.664.702.664 1.233-1.172 1.232-1.172-2.633-2.501-2.633-2.5L28.084 5zM17.511 17.35v5.86h12.335l-.042.528c-.072.913-.204 1.756-.376 2.403-.892 3.363-3.442 6.252-6.775 7.675-4.04 1.726-8.732 1.295-12.337-1.134-.836-.563-2.167-1.83-2.776-2.64-1.51-2.012-2.283-4.334-2.286-6.87-.006-6.233 5.031-11.267 11.64-11.632.226-.013.458-.03.514-.037.082-.011.103 1.202.103 5.847z" fill="#1FC7BD"/></svg>