<svg width="90" height="90" fill="none" xmlns="http://www.w3.org/2000/svg"><path fill-rule="evenodd" clip-rule="evenodd" d="M77.167.251c-3.885.838-7.179 4.164-8.001 8.078-.469 2.23-.22 4.54.704 6.558l.452.989-9.035 9.034-9.036 9.033-1.216-.613c-1.664-.84-2.605-1.13-4.464-1.378-2.633-.35-5.096.093-7.64 1.378l-1.217.613-8.595-8.587c-7.047-7.04-8.575-8.65-8.484-8.938.527-1.666.663-2.804.484-4.045-.512-3.558-3.11-6.22-6.637-6.805-3.263-.541-6.804 1.325-8.209 4.326-2.317 4.951.664 10.459 6.084 11.24 1.242.178 2.38.042 4.046-.485.289-.091 1.9 1.437 8.94 8.482l8.588 8.594-.613 1.215c-1.189 2.356-1.638 4.575-1.455 7.195l.11 1.582-8.706 3.693c-4.789 2.03-8.897 3.764-9.13 3.851-.351.133-.552.053-1.2-.478-1.726-1.413-4.033-2.074-6.12-1.75C3.307 53.575.677 56.17.1 59.66c-.843 5.085 3.846 9.773 8.931 8.93 3.58-.593 6.128-3.244 6.654-6.922l.2-1.406 9.1-3.87 9.098-3.871 1.242 1.33c1.42 1.52 3.057 2.664 4.792 3.349 1.255.495 3.436.98 4.413.98h.57l1.282 6.02 1.28 6.022-.504.35c-1.078.748-2.993 2.858-3.545 3.905-1.224 2.325-1.556 5.028-.92 7.511.506 1.978 1.29 3.335 2.812 4.869 4.16 4.19 10.604 4.19 14.796 0 3.29-3.29 4.047-7.93 1.98-12.149-.805-1.644-2.797-3.696-4.404-4.538-1.197-.627-3.441-1.264-4.451-1.264h-.647l-1.185-5.583c-.651-3.07-1.199-5.73-1.215-5.91-.017-.18.125-.418.316-.528 2.43-1.4 4.064-2.855 5.308-4.725.435-.654.829-1.19.874-1.19.101 0 17.195 4.959 17.256 5.005.024.018.124.462.224.986.784 4.135 4.831 7.027 8.893 6.354 3.45-.572 6.046-3.167 6.617-6.616.541-3.264-1.325-6.804-4.327-8.208-3.141-1.47-6.524-.911-8.999 1.485l-.951.922-6.73-1.958c-3.7-1.077-7.62-2.218-8.707-2.537l-1.979-.578v-.833c0-1.11-.449-3.633-.8-4.495a27.709 27.709 0 00-.813-1.73l-.532-1.037 9.038-9.037 9.038-9.036.99.453c4.001 1.831 8.602.978 11.762-2.181 4.192-4.191 4.192-10.612 0-14.803-2.62-2.618-6.095-3.65-9.69-2.875zm4.434 5.488c1.028.455 2.179 1.603 2.66 2.652.52 1.136.52 3.137 0 4.273-.48 1.045-1.626 2.19-2.67 2.67-1.136.519-3.138.519-4.274 0-2.26-1.035-3.541-3.63-2.97-6.012.761-3.172 4.267-4.904 7.254-3.583zm-67.045 5.337c.768.431 1.408 1.455 1.408 2.252 0 1.356-1.295 2.65-2.652 2.65-1.262 0-2.625-1.362-2.625-2.624 0-.858.619-1.894 1.365-2.288.86-.454 1.685-.45 2.504.01zm31.853 26.182c4.129.783 7.02 4.833 6.348 8.89-.572 3.45-3.167 6.045-6.618 6.617-5.085.842-9.774-3.846-8.931-8.93.736-4.443 4.87-7.398 9.2-6.577zm36.913 16.019c.768.431 1.408 1.455 1.408 2.252 0 1.356-1.294 2.65-2.651 2.65-.798 0-1.821-.64-2.253-1.407-.467-.83-.472-1.576-.019-2.465.654-1.28 2.242-1.746 3.515-1.03zM9.11 58.533c.785.4 1.402 1.413 1.402 2.297 0 1.262-1.362 2.625-2.625 2.625-1.35 0-2.65-1.294-2.65-2.638 0-.846.622-1.883 1.364-2.275.849-.448 1.642-.45 2.509-.009zm45.935 16.135c1.028.454 2.179 1.602 2.66 2.651.52 1.136.52 3.138 0 4.273-.48 1.045-1.625 2.19-2.67 2.67-1.136.52-3.138.52-4.274 0-2.26-1.035-3.541-3.63-2.97-6.012.761-3.172 4.267-4.903 7.254-3.582z" fill="#0075E1"/></svg>