<svg width="90" height="90" fill="none" xmlns="http://www.w3.org/2000/svg"><path fill-rule="evenodd" clip-rule="evenodd" d="M32.886.191c-8.68 1.106-16.932 5.23-22.837 11.41C3.125 18.85-.355 28.118.03 38.291.24 43.9 1.445 48.505 4.034 53.603c1.947 3.834 4.192 6.845 7.441 9.985 3.091 2.986 6.541 5.343 10.303 7.039 1.682.758 1.971.834 3.196.837 1.24.003 1.4-.04 2.023-.535 1.343-1.07 1.8-2.772 1.134-4.214-.474-1.024-1.15-1.57-2.833-2.288-6.233-2.66-11.6-7.503-14.724-13.288-3.46-6.408-4.332-14.628-2.342-22.087 1.995-7.477 6.636-13.799 13.023-17.737 6.124-3.777 14.312-5.204 21.5-3.747 11.721 2.375 20.833 11.318 23.339 22.908.499 2.307.96 3.078 2.21 3.69.823.403 1.116.46 1.89.368 1.163-.137 2.159-.823 2.723-1.874.365-.68.412-.955.333-1.936-.208-2.56-1.598-6.86-3.362-10.402-1.883-3.779-4.111-6.799-7.332-9.934C56.915 4.896 50.548 1.651 42.882.362c-2.373-.399-7.517-.487-9.996-.17zm3 14.001c-.79.242-1.909 1.405-2.135 2.22-.102.37-.188 1.305-.19 2.08l-.005 1.408-1.271.597c-1.778.834-3.755 2.815-4.612 4.62-2.98 6.281.537 13.605 7.214 15.02.675.143 1.534.262 1.91.263 1.749.008 3.194 1.014 3.614 2.517.685 2.448-1.13 4.694-3.626 4.487-1.253-.104-2.224-.79-3.001-2.122-.844-1.444-1.702-1.975-3.198-1.975-1.385 0-2.241.447-2.97 1.55-.692 1.045-.67 2.65.054 3.994.807 1.5 3.089 3.693 4.593 4.416l1.25.6.073 1.676c.086 1.95.436 2.705 1.613 3.484.594.393.908.472 1.882.472.973 0 1.287-.079 1.881-.472 1.177-.78 1.526-1.535 1.614-3.484l.074-1.676 1.382-.67c2.436-1.182 4.326-3.507 5.18-6.37.465-1.556.426-4.193-.087-5.896-1.042-3.458-3.702-6.136-7.064-7.111-.527-.153-1.634-.346-2.46-.43-1.818-.183-2.686-.567-3.346-1.479-1.202-1.66-.673-4.171 1.065-5.059 1.032-.526 1.994-.621 2.876-.284.868.331 1.436.892 2.12 2.091.264.465.801 1.055 1.202 1.32.607.402.915.48 1.894.48.973 0 1.288-.078 1.882-.472 1.098-.727 1.547-1.587 1.547-2.96 0-1.002-.086-1.296-.688-2.375-.936-1.677-2.706-3.399-4.274-4.157l-1.23-.595-.073-1.76c-.082-2.023-.419-2.785-1.564-3.543-.754-.5-2.203-.687-3.125-.405zm33.591 27.11c-.833.246-1.913 1.399-2.156 2.302-.435 1.618.278 3.355 1.68 4.088.646.337 1.044.371 4.914.42l4.21.054-5.176 5.182-5.177 5.183-9.059.001c-5.933 0-9.3.067-9.761.191-.605.164-2.475 1.96-13.331 12.803-6.945 6.937-12.802 12.89-13.015 13.229-.589.938-.548 2.685.085 3.643.875 1.323 2.418 1.886 4.015 1.465.72-.19 1.84-1.257 12.84-12.25l12.05-12.042h9.191c7.895 0 9.285-.038 9.846-.272.438-.182 2.586-2.202 6.49-6.1l5.835-5.828.056 4.061.056 4.062.528.747c1.278 1.809 3.826 2.053 5.364.514 1.061-1.062 1.078-1.237 1.02-10.749l-.053-8.549-.472-.713c-.26-.392-.774-.901-1.143-1.131l-.671-.418-8.794-.03c-5.241-.02-9.027.037-9.372.138zM57.167 71.04c-.816.25-1.915 1.41-2.145 2.264-.126.47-.174 2.994-.14 7.445.045 6.192.076 6.789.382 7.404.422.85 1.204 1.449 2.264 1.733 1.522.407 3.245-.353 3.93-1.733.31-.623.332-1.16.332-7.797v-7.128l-.417-.672c-.83-1.335-2.652-1.992-4.206-1.516zm14.07 0c-.817.25-1.915 1.41-2.145 2.264-.126.47-.174 2.994-.141 7.445.046 6.192.076 6.789.382 7.404.422.85 1.204 1.449 2.265 1.733 1.521.407 3.244-.353 3.929-1.733.31-.623.332-1.16.332-7.797v-7.128l-.417-.672c-.83-1.335-2.651-1.992-4.206-1.516zm14.069 0c-.816.25-1.915 1.41-2.145 2.264-.126.47-.174 2.994-.14 7.445.045 6.192.076 6.789.382 7.404.422.85 1.204 1.449 2.264 1.733 1.522.407 3.245-.353 3.93-1.733.31-.623.332-1.16.332-7.797v-7.128l-.417-.672c-.83-1.335-2.652-1.992-4.206-1.516zM43.097 81.775c-.836.256-1.914 1.41-2.155 2.304-.282 1.048-.142 3.25.259 4.074.412.847 1.194 1.447 2.258 1.732 1.521.407 3.244-.353 3.929-1.733.26-.522.333-1.057.333-2.43 0-1.545-.051-1.841-.418-2.431-.83-1.335-2.651-1.992-4.206-1.516z" fill="#0075E1"/></svg>