<svg width="48" height="48" viewBox="0 0 48 48" fill="none" xmlns="http://www.w3.org/2000/svg">
<path d="M24 4C12.954 4 4 12.954 4 24C4 35.046 12.954 44 24 44C35.046 44 44 35.046 44 24C44 12.954 35.046 4 24 4Z" fill="url(#paint0_linear)"/>
<path d="M26.7075 29.3009H31.8835L32.6965 24.0429H26.7075V21.1689C26.7075 18.9849 27.4215 17.0479 29.4645 17.0479H32.7475V12.4599C32.1705 12.3819 30.9505 12.2119 28.6455 12.2119C23.8315 12.2119 21.0095 14.7539 21.0095 20.5459V24.0439H16.0605V29.3019H21.0085V43.7539C21.9885 43.8999 22.9815 43.9999 24.0005 43.9999C24.9215 43.9999 25.8205 43.9159 26.7075 43.7959V29.3009Z" fill="white"/>
<defs>
<linearGradient id="paint0_linear" x1="9.993" y1="9.993" x2="40.615" y2="40.615" gradientUnits="userSpaceOnUse">
<stop stop-color="#2AA4F4"/>
<stop offset="1" stop-color="#007AD9"/>
</linearGradient>
</defs>
</svg>
