<svg width="46" height="24" viewBox="0 0 46 24" fill="none" xmlns="http://www.w3.org/2000/svg">
<path d="M3.52734 18H0.199219L3.32812 0H6.64453L3.52734 18ZM13.5938 5.08594C14.7109 5.10156 15.6719 5.39062 16.4766 5.95312C17.2891 6.50781 17.8828 7.27734 18.2578 8.26172C18.6406 9.23828 18.7773 10.3242 18.668 11.5195C18.4883 13.5352 17.7852 15.168 16.5586 16.418C15.3398 17.6602 13.832 18.2656 12.0352 18.2344C10.9336 18.2188 9.98047 17.9375 9.17578 17.3906C8.37109 16.8359 7.77734 16.0703 7.39453 15.0938C7.01172 14.1172 6.875 13.0391 6.98438 11.8594C7.1875 9.76562 7.89844 8.10156 9.11719 6.86719C10.3359 5.63281 11.8281 5.03906 13.5938 5.08594ZM10.2539 13.0664C10.2695 13.8164 10.4453 14.4102 10.7812 14.8477C11.1172 15.2773 11.5898 15.5 12.1992 15.5156C13.2148 15.5469 14.0117 15.082 14.5898 14.1211C15.168 13.1523 15.4375 11.8828 15.3984 10.3125C15.3672 9.5625 15.1836 8.96484 14.8477 8.51953C14.5195 8.06641 14.0469 7.83203 13.4297 7.81641C12.4453 7.78516 11.6562 8.25 11.0625 9.21094C10.4766 10.1641 10.207 11.4492 10.2539 13.0664ZM20.2617 11.6484C20.4961 9.6875 21.1328 8.09766 22.1719 6.87891C23.2188 5.65234 24.5352 5.05078 26.1211 5.07422C27.4727 5.10547 28.4805 5.59375 29.1445 6.53906L29.5781 5.30859L32.6133 5.32031L30.5391 17.5664C30.3125 19.2539 29.5938 20.5898 28.3828 21.5742C27.1719 22.5586 25.6719 23.0352 23.8828 23.0039C23.0078 22.9883 22.1719 22.7969 21.375 22.4297C20.5781 22.0703 19.9219 21.5742 19.4062 20.9414L21.0469 18.9258C21.7812 19.8555 22.7031 20.3359 23.8125 20.3672C24.6719 20.3984 25.4062 20.1719 26.0156 19.6875C26.625 19.2109 27.0391 18.5352 27.2578 17.6602L27.4453 16.8984C26.5234 17.8203 25.4883 18.2656 24.3398 18.2344C23.1055 18.2188 22.125 17.7617 21.3984 16.8633C20.6719 15.957 20.2734 14.7812 20.2031 13.3359C20.1797 12.8594 20.1992 12.2969 20.2617 11.6484ZM23.5078 13.0312C23.5078 13.7656 23.6602 14.3555 23.9648 14.8008C24.2773 15.2383 24.7266 15.4688 25.3125 15.4922C26.2109 15.5234 27.0078 15.1406 27.7031 14.3438L28.6875 8.97656C28.3516 8.24219 27.7305 7.85938 26.8242 7.82812C25.9805 7.80469 25.2656 8.14453 24.6797 8.84766C24.0938 9.55078 23.7266 10.4844 23.5781 11.6484C23.5234 12.2188 23.5 12.6797 23.5078 13.0312ZM40.2891 5.08594C41.4062 5.10156 42.3672 5.39062 43.1719 5.95312C43.9844 6.50781 44.5781 7.27734 44.9531 8.26172C45.3359 9.23828 45.4727 10.3242 45.3633 11.5195C45.1836 13.5352 44.4805 15.168 43.2539 16.418C42.0352 17.6602 40.5273 18.2656 38.7305 18.2344C37.6289 18.2188 36.6758 17.9375 35.8711 17.3906C35.0664 16.8359 34.4727 16.0703 34.0898 15.0938C33.707 14.1172 33.5703 13.0391 33.6797 11.8594C33.8828 9.76562 34.5938 8.10156 35.8125 6.86719C37.0312 5.63281 38.5234 5.03906 40.2891 5.08594ZM36.9492 13.0664C36.9648 13.8164 37.1406 14.4102 37.4766 14.8477C37.8125 15.2773 38.2852 15.5 38.8945 15.5156C39.9102 15.5469 40.707 15.082 41.2852 14.1211C41.8633 13.1523 42.1328 11.8828 42.0938 10.3125C42.0625 9.5625 41.8789 8.96484 41.543 8.51953C41.2148 8.06641 40.7422 7.83203 40.125 7.81641C39.1406 7.78516 38.3516 8.25 37.7578 9.21094C37.1719 10.1641 36.9023 11.4492 36.9492 13.0664Z" fill="#013776"/>
</svg>
