<svg width="393" height="118" viewBox="0 0 393 118" fill="none" xmlns="http://www.w3.org/2000/svg">
<path d="M165 34L165.294 33.0442L165 34ZM393 0L382.277 4.28339L391.348 11.4282L393 0ZM1.92705 117.875C2.28948 116.979 2.69111 116.064 3.13105 115.132L1.32241 114.278C0.86744 115.242 0.450482 116.192 0.0729509 117.125L1.92705 117.875ZM5.97312 109.772C6.95449 108.094 8.03971 106.378 9.22358 104.632L7.5683 103.51C6.36158 105.289 5.25237 107.043 4.24678 108.762L5.97312 109.772ZM12.7947 99.6693C13.9969 98.0873 15.2714 96.4888 16.6145 94.8795L15.079 93.598C13.7173 95.2295 12.4237 96.8518 11.2023 98.4592L12.7947 99.6693ZM20.6261 90.2671C21.9684 88.7836 23.3646 87.2959 24.8118 85.8084L23.3783 84.4137C21.9147 85.9181 20.5019 87.4234 19.1431 88.9252L20.6261 90.2671ZM29.1544 81.4938C30.6071 80.0975 32.1025 78.7052 33.6379 77.3205L32.2985 75.8353C30.7475 77.234 29.2366 78.6407 27.7685 80.0518L29.1544 81.4938ZM38.2508 73.2873C39.7947 71.9782 41.3732 70.6794 42.984 69.3941L41.7366 67.8308C40.1102 69.1285 38.5164 70.4399 36.9574 71.7618L38.2508 73.2873ZM47.8308 65.6423C49.4546 64.423 51.1069 63.2195 52.7857 62.0345L51.6323 60.4006C49.9375 61.5969 48.2693 62.812 46.63 64.0429L47.8308 65.6423ZM57.8409 58.5771C59.5368 57.4538 61.2562 56.3511 62.9972 55.2719L61.9435 53.572C60.1852 54.6619 58.4488 55.7754 56.7364 56.9097L57.8409 58.5771ZM68.2523 52.1253C70.0173 51.1054 71.8016 50.1111 73.6034 49.1451L72.6584 47.3825C70.8375 48.3586 69.0346 49.3633 67.2516 50.3937L68.2523 52.1253ZM79.0477 46.3407C80.8777 45.4364 82.7233 44.5629 84.5826 43.7228L83.7591 41.9002C81.8783 42.75 80.0119 43.6334 78.1616 44.5477L79.0477 46.3407ZM90.2049 41.3036C92.0957 40.5307 93.9985 39.7942 95.9113 39.0967L95.2261 37.2177C93.2886 37.9242 91.3621 38.67 89.4482 39.4522L90.2049 41.3036ZM101.697 37.1175C103.643 36.4961 105.598 35.917 107.558 35.3829L107.033 33.4532C105.043 33.9951 103.062 34.5824 101.089 35.2123L101.697 37.1175ZM113.487 33.9114C115.48 33.4656 117.477 33.0685 119.477 32.7228L119.137 30.7521C117.104 31.1035 115.074 31.5069 113.051 31.9596L113.487 33.9114ZM125.518 31.8387C127.543 31.5967 129.569 31.41 131.593 31.2816L131.466 29.2856C129.404 29.4165 127.341 29.6066 125.28 29.8529L125.518 31.8387ZM137.686 31.0734C139.72 31.0646 141.751 31.1177 143.777 31.2355L143.893 29.2388C141.825 29.1186 139.752 29.0645 137.678 29.0735L137.686 31.0734ZM149.84 31.7865C151.851 32.0365 153.855 32.354 155.849 32.7418L156.231 30.7786C154.191 30.3819 152.142 30.0573 150.087 29.8018L149.84 31.7865ZM161.775 34.1115C162.755 34.3747 163.732 34.6561 164.706 34.9558L165.294 33.0442C164.297 32.7374 163.297 32.4495 162.294 32.18L161.775 34.1115ZM164.706 34.9558C165.667 35.2514 166.626 35.5478 167.583 35.845L168.176 33.9348C167.217 33.6373 166.256 33.3403 165.294 33.0442L164.706 34.9558ZM173.315 37.636C175.232 38.2389 177.144 38.8429 179.049 39.4464L179.653 37.5398C177.747 36.936 175.834 36.3315 173.915 35.7281L173.315 37.636ZM184.784 41.2661C186.7 41.8747 188.611 42.4813 190.516 43.0841L191.119 41.1773C189.216 40.5749 187.306 39.9685 185.389 39.3599L184.784 41.2661ZM196.247 44.8907C198.17 45.4936 200.086 46.0909 201.997 46.6809L202.587 44.7699C200.68 44.181 198.766 43.5846 196.846 42.9824L196.247 44.8907ZM207.757 48.4412C209.687 49.0238 211.61 49.5971 213.528 50.1592L214.091 48.2399C212.179 47.6795 210.26 47.1078 208.336 46.5266L207.757 48.4412ZM219.311 51.8233C221.253 52.371 223.189 52.9052 225.12 53.4239L225.639 51.4924C223.717 50.976 221.789 50.444 219.854 49.8984L219.311 51.8233ZM230.958 54.9478C232.917 55.4432 234.87 55.9206 236.818 56.3779L237.275 54.4308C235.339 53.9763 233.397 53.5017 231.449 53.0089L230.958 54.9478ZM242.702 57.6992C244.677 58.1218 246.648 58.5214 248.613 58.8957L248.987 56.9311C247.037 56.5597 245.082 56.1631 243.121 55.7435L242.702 57.6992ZM254.558 59.9515C256.555 60.2796 258.549 60.5791 260.537 60.8476L260.805 58.8656C258.836 58.5998 256.862 58.3031 254.882 57.9779L254.558 59.9515ZM266.541 61.5634C268.553 61.7705 270.561 61.9432 272.565 62.0789L272.701 60.0835C270.721 59.9494 268.736 59.7787 266.745 59.5739L266.541 61.5634ZM278.607 62.3743C280.628 62.4339 282.645 62.4531 284.658 62.4294L284.634 60.4295C282.65 60.4529 280.66 60.434 278.666 60.3751L278.607 62.3743ZM290.711 62.2251C292.728 62.1117 294.742 61.9522 296.752 61.744L296.546 59.7546C294.568 59.9596 292.585 60.1166 290.598 60.2283L290.711 62.2251ZM302.762 60.9719C304.754 60.6655 306.742 60.3084 308.727 59.8981L308.322 57.9395C306.371 58.3428 304.417 58.6939 302.458 58.9951L302.762 60.9719ZM314.629 58.5159C316.573 58.0063 318.515 57.4428 320.453 56.8231L319.845 54.918C317.94 55.5269 316.032 56.0805 314.122 56.5813L314.629 58.5159ZM326.186 54.8212C328.059 54.1109 329.93 53.3457 331.798 52.5233L330.993 50.6928C329.156 51.5011 327.318 52.2532 325.477 52.9512L326.186 54.8212ZM337.271 49.9457C339.053 49.0506 340.833 48.1013 342.612 47.0961L341.627 45.355C339.877 46.3443 338.126 47.2781 336.373 48.1584L337.271 49.9457ZM347.82 43.987C349.513 42.9222 351.204 41.8048 352.894 40.6332L351.754 38.9896C350.089 40.1444 348.422 41.2453 346.755 42.2941L347.82 43.987ZM357.769 37.0989C359.352 35.9006 360.933 34.6534 362.514 33.3558L361.245 31.81C359.684 33.0912 358.123 34.3222 356.562 35.5043L357.769 37.0989ZM367.142 29.4086C368.622 28.0991 370.101 26.7442 371.579 25.3429L370.203 23.8913C368.741 25.2773 367.279 26.6168 365.817 27.9109L367.142 29.4086ZM375.891 21.1211C377.298 19.6991 378.705 18.234 380.111 16.7248L378.648 15.3613C377.255 16.8562 375.862 18.3069 374.469 19.7143L375.891 21.1211ZM384.128 12.2926C385.446 10.7984 386.763 9.26474 388.08 7.69076L386.547 6.40714C385.24 7.96818 383.934 9.48877 382.628 10.9697L384.128 12.2926Z" fill="#1D24CB" fill-opacity="0.35"/>
</svg>
