<svg width="397" height="192" viewBox="0 0 397 192" fill="none" xmlns="http://www.w3.org/2000/svg">
<path d="M212.584 78.427L211.677 78.8477L212.584 78.427ZM387.887 183.93L376.986 180.122L379.139 191.467L387.887 183.93ZM10.056 28.3307C10.8372 27.807 11.6419 27.2885 12.4695 26.7759L11.4163 25.0756C10.569 25.6005 9.74402 26.1319 8.94222 26.6695L10.056 28.3307ZM17.5197 23.8712C19.1905 22.9775 20.9319 22.107 22.7387 21.263L21.8922 19.451C20.0542 20.3096 18.2805 21.1961 16.5764 22.1076L17.5197 23.8712ZM28.0866 18.9212C29.8542 18.1959 31.6724 17.4956 33.5374 16.8226L32.8585 14.9413C30.9673 15.6238 29.1222 16.3344 27.3274 17.0709L28.0866 18.9212ZM39.0727 14.9498C40.905 14.3696 42.7749 13.8157 44.6791 13.29L44.1469 11.3621C42.2191 11.8943 40.3254 12.4553 38.469 13.0431L39.0727 14.9498ZM50.3457 11.8341C52.2242 11.3866 54.131 10.9667 56.0631 10.5759L55.6666 8.61562C53.7123 9.01085 51.7832 9.43573 49.8822 9.88854L50.3457 11.8341ZM61.8229 9.51151C63.7344 9.19117 65.6668 8.89971 67.6174 8.63868L67.3521 6.65635C65.3796 6.92031 63.4255 7.21505 61.4924 7.53902L61.8229 9.51151ZM73.421 7.9585C75.3495 7.76437 77.2929 7.60044 79.2486 7.46813L79.1136 5.47269C77.1359 5.60649 75.1708 5.77226 73.2207 5.96855L73.421 7.9585ZM85.0928 7.16943C87.0351 7.10235 88.9869 7.06712 90.9461 7.06506L90.944 5.06506C88.9622 5.06714 86.9881 5.10279 85.0238 5.17062L85.0928 7.16943ZM96.8004 7.15832C98.7426 7.22248 100.69 7.32012 102.639 7.45252L102.775 5.45712C100.802 5.32312 98.8315 5.22432 96.8665 5.15941L96.8004 7.15832ZM108.465 7.95217C110.4 8.15313 112.336 8.38946 114.27 8.66238L114.549 6.682C112.591 6.4056 110.631 6.16632 108.672 5.96287L108.465 7.95217ZM120.044 9.58841C121.96 9.93304 123.871 10.315 125.777 10.7354L126.208 8.78233C124.276 8.35621 122.339 7.96919 120.399 7.62003L120.044 9.58841ZM131.455 12.1079C133.336 12.6032 135.209 13.1376 137.072 13.7124L137.662 11.8012C135.771 11.2181 133.872 10.6761 131.965 10.1739L131.455 12.1079ZM142.616 15.5537C144.448 16.2065 146.268 16.9004 148.074 17.6366L148.829 15.7845C146.994 15.0369 145.147 14.3324 143.287 13.6697L142.616 15.5537ZM153.426 19.9613C155.188 20.7753 156.934 21.6318 158.663 22.5321L159.587 20.7582C157.829 19.8431 156.055 18.9727 154.265 18.1458L153.426 19.9613ZM163.773 25.351C165.448 26.3293 167.105 27.3516 168.742 28.4189L169.834 26.7437C168.17 25.6581 166.485 24.6185 164.781 23.6238L163.773 25.351ZM173.542 31.7239C175.107 32.8598 176.649 34.0401 178.169 35.2659L179.425 33.7093C177.879 32.462 176.309 31.2611 174.718 30.1056L173.542 31.7239ZM182.615 39.0438C184.057 40.3347 185.476 41.6705 186.87 43.0519L188.278 41.6317C186.86 40.2261 185.416 38.8669 183.948 37.5533L182.615 39.0438ZM190.894 47.25C192.192 48.6743 193.465 50.1423 194.71 51.6551L196.254 50.3838C194.987 48.8451 193.693 47.3518 192.373 45.9029L190.894 47.25ZM198.317 56.2635C199.464 57.8052 200.584 59.3893 201.677 61.0166L203.337 59.9016C202.226 58.2478 201.088 56.6376 199.922 55.07L198.317 56.2635ZM204.81 65.9282C205.812 67.5822 206.787 69.2773 207.734 71.0141L209.49 70.0568C208.529 68.2935 207.538 66.5722 206.521 64.8921L204.81 65.9282ZM210.404 76.1769C210.835 77.0572 211.26 77.9474 211.677 78.8477L213.491 78.0063C213.068 77.0931 212.637 76.19 212.2 75.2968L210.404 76.1769ZM211.677 78.8477C212.111 79.7837 212.55 80.7139 212.995 81.6384L214.797 80.7717C214.357 79.8556 213.922 78.9338 213.491 78.0063L211.677 78.8477ZM215.73 87.1287C216.674 88.9591 217.639 90.7657 218.623 92.5483L220.374 91.5813C219.399 89.8153 218.443 88.0255 217.507 86.2119L215.73 87.1287ZM221.674 97.8882C222.722 99.6611 223.789 101.409 224.876 103.132L226.567 102.064C225.491 100.358 224.434 98.6271 223.396 96.8709L221.674 97.8882ZM228.228 108.274C229.377 109.981 230.545 111.661 231.732 113.314L233.357 112.148C232.182 110.511 231.025 108.847 229.887 107.157L228.228 108.274ZM235.395 118.257C236.647 119.894 237.917 121.502 239.206 123.082L240.756 121.819C239.48 120.254 238.223 118.662 236.984 117.042L235.395 118.257ZM243.162 127.784C244.511 129.338 245.878 130.862 247.262 132.357L248.73 130.999C247.361 129.519 246.007 128.01 244.672 126.473L243.162 127.784ZM251.505 136.796C252.953 138.263 254.417 139.698 255.896 141.103L257.273 139.653C255.809 138.263 254.361 136.842 252.929 135.391L251.505 136.796ZM260.426 145.264C261.965 146.633 263.52 147.969 265.089 149.272L266.367 147.734C264.815 146.445 263.277 145.123 261.754 143.77L260.426 145.264ZM269.884 153.121C271.511 154.382 273.152 155.61 274.806 156.803L275.976 155.181C274.341 154.001 272.719 152.788 271.109 151.54L269.884 153.121ZM279.852 160.313C281.562 161.459 283.284 162.57 285.017 163.645L286.071 161.945C284.358 160.883 282.656 159.785 280.965 158.652L279.852 160.313ZM290.3 166.792C292.089 167.814 293.889 168.8 295.697 169.747L296.626 167.976C294.839 167.039 293.061 166.066 291.292 165.055L290.3 166.792ZM301.2 172.502C303.059 173.39 304.927 174.239 306.801 175.049L307.594 173.213C305.743 172.413 303.899 171.575 302.062 170.697L301.2 172.502ZM312.496 177.379C314.419 178.123 316.347 178.825 318.279 179.486L318.926 177.594C317.019 176.942 315.116 176.248 313.218 175.514L312.496 177.379ZM324.141 181.362C326.116 181.95 328.095 182.495 330.075 182.997L330.566 181.058C328.613 180.563 326.661 180.025 324.711 179.445L324.141 181.362ZM336.073 184.383C338.091 184.805 340.109 185.181 342.126 185.512L342.45 183.539C340.462 183.212 338.472 182.841 336.482 182.425L336.073 184.383ZM348.223 186.375C350.271 186.618 352.315 186.814 354.355 186.963L354.5 184.968C352.491 184.822 350.477 184.629 348.459 184.389L348.223 186.375ZM360.508 187.267C362.569 187.32 364.623 187.325 366.67 187.279L366.625 185.28C364.611 185.324 362.589 185.32 360.56 185.268L360.508 187.267ZM372.826 186.991C374.882 186.843 376.928 186.645 378.962 186.395L378.718 184.41C376.718 184.655 374.706 184.851 372.683 184.996L372.826 186.991Z" fill="#1D24CB" fill-opacity="0.35"/>
</svg>
